  0
SECTION
  2
HEADER
  9
$ACADVER
  1
AC1014
  9
$HANDSEED
  5
FFFF
  9
$MEASUREMENT
 70
     1
  0
ENDSEC
  0
SECTION
  2
TABLES
  0
TABLE
  2
VPORT
  5
8
330
0
100
AcDbSymbolTable
 70
     4
  0
VPORT
  5
2E
330
8
100
AcDbSymbolTableRecord
100
AcDbViewportTableRecord
  2
*ACTIVE
 70
     0
 10
0.0
 20
0.0
 11
1.0
 21
1.0
 12
210.0
 22
148.5
 13
0.0
 23
0.0
 14
10.0
 24
10.0
 15
10.0
 25
10.0
 16
0.0
 26
0.0
 36
1.0
 17
0.0
 27
0.0
 37
0.0
 40
341.0
 41
1.24
 42
50.0
 43
0.0
 44
0.0
 50
0.0
 51
0.0
 71
     0
 72
   100
 73
     1
 74
     3
 75
     0
 76
     0
 77
     0
 78
     0
  0
ENDTAB
  0
TABLE
  2
LTYPE
  5
5
330
0
100
AcDbSymbolTable
 70
     1
  0
LTYPE
  5
14
330
5
100
AcDbSymbolTableRecord
100
AcDbLinetypeTableRecord
  2
BYBLOCK
 70
     0
  3

 72
    65
 73
     0
 40
0.0
  0
LTYPE
  5
15
330
5
100
AcDbSymbolTableRecord
100
AcDbLinetypeTableRecord
  2
BYLAYER
 70
     0
  3

 72
    65
 73
     0
 40
0.0
  0
LTYPE
  5
16
330
5
100
AcDbSymbolTableRecord
100
AcDbLinetypeTableRecord
  2
CONTINUOUS
 70
     0
  3
Solid line
 72
    65
 73
     0
 40
0.0
  0
ENDTAB
  0
TABLE
  2
LAYER
  5
2
100
AcDbSymbolTable
 70
2
  0
LAYER
  5
50
100
AcDbSymbolTableRecord
100
AcDbLayerTableRecord
  2
0
 70
0
  6
CONTINUOUS
  0
LAYER
  5
51
100
AcDbSymbolTableRecord
100
AcDbLayerTableRecord
  2
Layer_1
 70
0
  6
CONTINUOUS
  0
ENDTAB
  0
TABLE
  2
STYLE
  5
3
330
0
100
AcDbSymbolTable
 70
     1
  0
STYLE
  5
11
330
3
100
AcDbSymbolTableRecord
100
AcDbTextStyleTableRecord
  2
STANDARD
 70
     0
 40
0.0
 41
1.0
 50
0.0
 71
     0
 42
2.5
  3
txt
  4

  0
ENDTAB
  0
TABLE
  2
VIEW
  5
6
330
0
100
AcDbSymbolTable
 70
     0
  0
ENDTAB
  0
TABLE
  2
UCS
  5
7
330
0
100
AcDbSymbolTable
 70
     0
  0
ENDTAB
  0
TABLE
  2
APPID
  5
9
330
0
100
AcDbSymbolTable
 70
     2
  0
APPID
  5
12
330
9
100
AcDbSymbolTableRecord
100
AcDbRegAppTableRecord
  2
ACAD
 70
     0
  0
ENDTAB
  0
TABLE
  2
DIMSTYLE
  5
A
330
0
100
AcDbSymbolTable
 70
     1
  0
DIMSTYLE
105
27
330
A
100
AcDbSymbolTableRecord
100
AcDbDimStyleTableRecord
  2
ISO-25
 70
     0
  3

  4

  5

  6

  7

 40
1.0
 41
2.5
 42
0.625
 43
3.75
 44
1.25
 45
0.0
 46
0.0
 47
0.0
 48
0.0
140
2.5
141
2.5
142
0.0
143
0.03937007874016
144
1.0
145
0.0
146
1.0
147
0.625
 71
     0
 72
     0
 73
     0
 74
     0
 75
     0
 76
     0
 77
     1
 78
     8
170
     0
171
     3
172
     1
173
     0
174
     0
175
     0
176
     0
177
     0
178
     0
270
     2
271
     2
272
     2
273
     2
274
     3
340
11
275
     0
280
     0
281
     0
282
     0
283
     0
284
     8
285
     0
286
     0
287
     3
288
     0
  0
ENDTAB
  0
TABLE
  2
BLOCK_RECORD
  5
1
330
0
100
AcDbSymbolTable
 70
     1
  0
BLOCK_RECORD
  5
1F
330
1
100
AcDbSymbolTableRecord
100
AcDbBlockTableRecord
  2
*MODEL_SPACE
  0
BLOCK_RECORD
  5
1B
330
1
100
AcDbSymbolTableRecord
100
AcDbBlockTableRecord
  2
*PAPER_SPACE
  0
ENDTAB
  0
ENDSEC
  0
SECTION
  2
BLOCKS
  0
BLOCK
  5
20
330
1F
100
AcDbEntity
  8
0
100
AcDbBlockBegin
  2
*MODEL_SPACE
 70
     0
 10
0.0
 20
0.0
 30
0.0
  3
*MODEL_SPACE
  1

  0
ENDBLK
  5
21
330
1F
100
AcDbEntity
  8
0
100
AcDbBlockEnd
  0
BLOCK
  5
1C
330
1B
100
AcDbEntity
 67
     1
  8
0
100
AcDbBlockBegin
  2
*PAPER_SPACE
  1

  0
ENDBLK
  5
1D
330
1B
100
AcDbEntity
 67
     1
  8
0
100
AcDbBlockEnd
  0
ENDSEC
  0
SECTION
  2
ENTITIES
  0
SPLINE
  5
100
100
AcDbEntity
  8
Layer_1
 62
1
100
AcDbSpline
 70
0
 71
3
 72
10
 73
6
 74
4
 40
0.000000
 40
0.000000
 40
0.000000
 40
0.000000
 40
1.667679
 40
3.335359
 40
5.003038
 40
5.003038
 40
5.003038
 40
5.003038
 10
88.977634
 20
1.276520
 30
0.0
 10
88.977634
 20
1.832413
 30
0.0
 10
88.977634
 20
2.944199
 30
0.0
 10
88.977634
 20
4.611879
 30
0.0
 10
88.977634
 20
5.723665
 30
0.0
 10
88.977634
 20
6.279558
 30
0.0
 11
88.977634
 21
1.276520
 31
0.0
 11
88.977634
 21
2.944199
 31
0.0
 11
88.977634
 21
4.611879
 31
0.0
 11
88.977634
 21
6.279558
 31
0.0
  0
LWPOLYLINE
  5
101
100
AcDbEntity
  8
Layer_1
 62
1
100
AcDbPolyline
 90
2
 70
1
 10
88.977634
 20
6.279558
 30
0.0
 10
88.977634
 20
6.279558
 30
0.0
  0
SPLINE
  5
102
100
AcDbEntity
  8
Layer_1
 62
1
100
AcDbSpline
 70
0
 71
3
 72
10
 73
6
 74
4
 40
0.000000
 40
0.000000
 40
0.000000
 40
0.000000
 40
4.281659
 40
8.450711
 40
12.715562
 40
12.715562
 40
12.715562
 40
12.715562
 10
88.977634
 20
6.279558
 30
0.0
 10
89.227336
 20
7.700455
 30
0.0
 10
89.720175
 20
10.504879
 30
0.0
 10
92.844413
 20
13.904447
 30
0.0
 10
95.704576
 20
14.267455
 30
0.0
 10
97.150902
 20
14.451020
 30
0.0
 11
88.977634
 21
6.279558
 31
0.0
 11
90.133242
 21
10.402321
 31
0.0
 11
93.013409
 21
13.416559
 31
0.0
 11
97.150902
 21
14.451020
 31
0.0
  0
LWPOLYLINE
  5
103
100
AcDbEntity
  8
Layer_1
 62
1
100
AcDbPolyline
 90
2
 70
1
 10
97.150902
 20
14.451020
 30
0.0
 10
97.150902
 20
14.451020
 30
0.0
  0
SPLINE
  5
104
100
AcDbEntity
  8
Layer_1
 62
1
100
AcDbSpline
 70
0
 71
3
 72
10
 73
6
 74
4
 40
0.000000
 40
0.000000
 40
0.000000
 40
0.000000
 40
3.822165
 40
7.644336
 40
11.466520
 40
11.466520
 40
11.466520
 40
11.466520
 10
97.150902
 20
14.451020
 30
0.0
 10
98.424957
 20
14.451020
 30
0.0
 10
100.973069
 20
14.451020
 30
0.0
 10
104.795242
 20
14.451020
 30
0.0
 10
107.343360
 20
14.451020
 30
0.0
 10
108.617422
 20
14.451020
 30
0.0
 11
97.150902
 21
14.451020
 31
0.0
 11
100.973067
 21
14.451020
 31
0.0
 11
104.795238
 21
14.451020
 31
0.0
 11
108.617422
 21
14.451020
 31
0.0
  0
SPLINE
  5
105
100
AcDbEntity
  8
Layer_1
 62
1
100
AcDbSpline
 70
0
 71
3
 72
10
 73
6
 74
4
 40
0.000000
 40
0.000000
 40
0.000000
 40
0.000000
 40
0.219268
 40
0.438542
 40
0.657828
 40
0.657828
 40
0.657828
 40
0.657828
 10
108.617422
 20
14.451020
 30
0.0
 10
108.685296
 20
14.478133
 30
0.0
 10
108.821048
 20
14.532358
 30
0.0
 10
109.024680
 20
14.613696
 30
0.0
 10
109.160439
 20
14.667918
 30
0.0
 10
109.228320
 20
14.695030
 30
0.0
 11
108.617422
 21
14.451020
 31
0.0
 11
108.821046
 21
14.532357
 31
0.0
 11
109.024677
 21
14.613693
 31
0.0
 11
109.228320
 21
14.695030
 31
0.0
  0
SPLINE
  5
106
100
AcDbEntity
  8
Layer_1
 62
1
100
AcDbSpline
 70
0
 71
3
 72
10
 73
6
 74
4
 40
0.000000
 40
0.000000
 40
0.000000
 40
0.000000
 40
0.203155
 40
0.406310
 40
0.609465
 40
0.609465
 40
0.609465
 40
0.609465
 10
109.228320
 20
14.695030
 30
0.0
 10
109.282544
 20
14.735594
 30
0.0
 10
109.390993
 20
14.816724
 30
0.0
 10
109.553666
 20
14.938418
 30
0.0
 10
109.662114
 20
15.019548
 30
0.0
 10
109.716339
 20
15.060112
 30
0.0
 11
109.228320
 21
14.695030
 31
0.0
 11
109.390993
 21
14.816724
 31
0.0
 11
109.553666
 21
14.938418
 31
0.0
 11
109.716339
 21
15.060112
 31
0.0
  0
LWPOLYLINE
  5
107
100
AcDbEntity
  8
Layer_1
 62
1
100
AcDbPolyline
 90
2
 70
1
 10
108.617422
 20
14.451020
 30
0.0
 10
108.617422
 20
14.451020
 30
0.0
  0
SPLINE
  5
108
100
AcDbEntity
  8
Layer_1
 62
1
100
AcDbSpline
 70
0
 71
3
 72
10
 73
6
 74
4
 40
0.000000
 40
0.000000
 40
0.000000
 40
0.000000
 40
0.247937
 40
0.495875
 40
0.743815
 40
0.743815
 40
0.743815
 40
0.743815
 10
109.716339
 20
15.060112
 30
0.0
 10
109.729791
 20
15.141656
 30
0.0
 10
109.756697
 20
15.304743
 30
0.0
 10
109.797060
 20
15.549374
 30
0.0
 10
109.823980
 20
15.712460
 30
0.0
 10
109.837440
 20
15.794003
 30
0.0
 11
109.716339
 21
15.060112
 31
0.0
 11
109.756697
 21
15.304742
 31
0.0
 11
109.797062
 21
15.549373
 31
0.0
 11
109.837440
 21
15.794003
 31
0.0
  0
LWPOLYLINE
  5
109
100
AcDbEntity
  8
Layer_1
 62
1
100
AcDbPolyline
 90
2
 70
1
 10
109.837440
 20
15.794003
 30
0.0
 10
109.837440
 20
15.794003
 30
0.0
  0
SPLINE
  5
10a
100
AcDbEntity
  8
Layer_1
 62
1
100
AcDbSpline
 70
0
 71
3
 72
10
 73
6
 74
4
 40
0.000000
 40
0.000000
 40
0.000000
 40
0.000000
 40
26.144172
 40
52.288346
 40
78.432522
 40
78.432522
 40
78.432522
 40
78.432522
 10
109.837440
 20
15.794003
 30
0.0
 10
109.837440
 20
24.508727
 30
0.0
 10
109.837440
 20
41.938176
 30
0.0
 10
109.837440
 20
68.082349
 30
0.0
 10
109.837440
 20
85.511800
 30
0.0
 10
109.837440
 20
94.226525
 30
0.0
 11
109.837440
 21
15.794003
 31
0.0
 11
109.837440
 21
41.938175
 31
0.0
 11
109.837440
 21
68.082349
 31
0.0
 11
109.837440
 21
94.226525
 31
0.0
  0
SPLINE
  5
10b
100
AcDbEntity
  8
Layer_1
 62
1
100
AcDbSpline
 70
0
 71
3
 72
10
 73
6
 74
4
 40
0.000000
 40
0.000000
 40
0.000000
 40
0.000000
 40
0.246721
 40
0.493441
 40
0.740159
 40
0.740159
 40
0.740159
 40
0.740159
 10
109.837440
 20
94.226525
 30
0.0
 10
109.823980
 20
94.307656
 30
0.0
 10
109.797060
 20
94.469919
 30
0.0
 10
109.756697
 20
94.713314
 30
0.0
 10
109.729791
 20
94.875578
 30
0.0
 10
109.716339
 20
94.956710
 30
0.0
 11
109.837440
 21
94.226525
 31
0.0
 11
109.797062
 21
94.469919
 31
0.0
 11
109.756697
 21
94.713315
 31
0.0
 11
109.716339
 21
94.956710
 31
0.0
  0
SPLINE
  5
10c
100
AcDbEntity
  8
Layer_1
 62
1
100
AcDbSpline
 70
0
 71
3
 72
10
 73
6
 74
4
 40
0.000000
 40
0.000000
 40
0.000000
 40
0.000000
 40
0.202792
 40
0.405584
 40
0.608376
 40
0.608376
 40
0.608376
 40
0.608376
 10
109.716339
 20
94.956710
 30
0.0
 10
109.662114
 20
94.997072
 30
0.0
 10
109.553666
 20
95.077797
 30
0.0
 10
109.390993
 20
95.198885
 30
0.0
 10
109.282544
 20
95.279610
 30
0.0
 10
109.228320
 20
95.319972
 30
0.0
 11
109.716339
 21
94.956710
 31
0.0
 11
109.553666
 21
95.077797
 31
0.0
 11
109.390993
 21
95.198885
 31
0.0
 11
109.228320
 21
95.319972
 31
0.0
  0
LWPOLYLINE
  5
10d
100
AcDbEntity
  8
Layer_1
 62
1
100
AcDbPolyline
 90
2
 70
1
 10
109.837440
 20
94.226525
 30
0.0
 10
109.837440
 20
94.226525
 30
0.0
  0
SPLINE
  5
10e
100
AcDbEntity
  8
Layer_1
 62
1
100
AcDbSpline
 70
0
 71
3
 72
10
 73
6
 74
4
 40
0.000000
 40
0.000000
 40
0.000000
 40
0.000000
 40
0.219512
 40
0.439013
 40
0.658508
 40
0.658508
 40
0.658508
 40
0.658508
 10
109.228320
 20
95.319972
 30
0.0
 10
109.160439
 20
95.347287
 30
0.0
 10
109.024680
 20
95.401916
 30
0.0
 10
108.821048
 20
95.483863
 30
0.0
 10
108.685296
 20
95.538495
 30
0.0
 10
108.617422
 20
95.565810
 30
0.0
 11
109.228320
 21
95.319972
 31
0.0
 11
109.024677
 21
95.401918
 31
0.0
 11
108.821046
 21
95.483864
 31
0.0
 11
108.617422
 21
95.565810
 31
0.0
  0
LWPOLYLINE
  5
10f
100
AcDbEntity
  8
Layer_1
 62
1
100
AcDbPolyline
 90
2
 70
1
 10
108.617422
 20
95.565810
 30
0.0
 10
108.617422
 20
95.565810
 30
0.0
  0
SPLINE
  5
110
100
AcDbEntity
  8
Layer_1
 62
1
100
AcDbSpline
 70
0
 71
3
 72
10
 73
6
 74
4
 40
0.000000
 40
0.000000
 40
0.000000
 40
0.000000
 40
3.822184
 40
7.644355
 40
11.466520
 40
11.466520
 40
11.466520
 40
11.466520
 10
108.617422
 20
95.565810
 30
0.0
 10
107.343360
 20
95.565810
 30
0.0
 10
104.795242
 20
95.565810
 30
0.0
 10
100.973069
 20
95.565810
 30
0.0
 10
98.424957
 20
95.565810
 30
0.0
 10
97.150902
 20
95.565810
 30
0.0
 11
108.617422
 21
95.565810
 31
0.0
 11
104.795238
 21
95.565810
 31
0.0
 11
100.973067
 21
95.565810
 31
0.0
 11
97.150902
 21
95.565810
 31
0.0
  0
LWPOLYLINE
  5
111
100
AcDbEntity
  8
Layer_1
 62
1
100
AcDbPolyline
 90
2
 70
1
 10
97.150902
 20
95.565810
 30
0.0
 10
97.150902
 20
95.565810
 30
0.0
  0
SPLINE
  5
112
100
AcDbEntity
  8
Layer_1
 62
1
100
AcDbSpline
 70
0
 71
3
 72
10
 73
6
 74
4
 40
0.000000
 40
0.000000
 40
0.000000
 40
0.000000
 40
4.264670
 40
8.434363
 40
12.717663
 40
12.717663
 40
12.717663
 40
12.717663
 10
97.150902
 20
95.565810
 30
0.0
 10
95.704524
 20
95.749038
 30
0.0
 10
92.843981
 20
96.111413
 30
0.0
 10
89.719972
 20
99.512526
 30
0.0
 10
89.227287
 20
102.317685
 30
0.0
 10
88.977634
 20
103.739115
 30
0.0
 11
97.150902
 21
95.565810
 31
0.0
 11
93.013409
 21
96.599525
 31
0.0
 11
90.133242
 21
99.614648
 31
0.0
 11
88.977634
 21
103.739115
 31
0.0
  0
LWPOLYLINE
  5
113
100
AcDbEntity
  8
Layer_1
 62
1
100
AcDbPolyline
 90
2
 70
1
 10
88.977634
 20
103.739115
 30
0.0
 10
88.977634
 20
103.739115
 30
0.0
  0
SPLINE
  5
114
100
AcDbEntity
  8
Layer_1
 62
1
100
AcDbSpline
 70
0
 71
3
 72
10
 73
6
 74
4
 40
0.000000
 40
0.000000
 40
0.000000
 40
0.000000
 40
1.667073
 40
3.334147
 40
5.001220
 40
5.001220
 40
5.001220
 40
5.001220
 10
88.977634
 20
103.739115
 30
0.0
 10
88.977634
 20
104.294806
 30
0.0
 10
88.977634
 20
105.406189
 30
0.0
 10
88.977634
 20
107.073262
 30
0.0
 10
88.977634
 20
108.184645
 30
0.0
 10
88.977634
 20
108.740336
 30
0.0
 11
88.977634
 21
103.739115
 31
0.0
 11
88.977634
 21
105.406189
 31
0.0
 11
88.977634
 21
107.073263
 31
0.0
 11
88.977634
 21
108.740336
 31
0.0
  0
SPLINE
  5
115
100
AcDbEntity
  8
Layer_1
 62
1
100
AcDbSpline
 70
0
 71
3
 72
10
 73
6
 74
4
 40
0.000000
 40
0.000000
 40
0.000000
 40
0.000000
 40
0.206774
 40
0.413548
 40
0.620320
 40
0.620320
 40
0.620320
 40
0.620320
 10
88.977634
 20
108.740336
 30
0.0
 10
88.964586
 20
108.808014
 30
0.0
 10
88.938490
 20
108.943371
 30
0.0
 10
88.899345
 20
109.146405
 30
0.0
 10
88.873249
 20
109.281761
 30
0.0
 10
88.860201
 20
109.349439
 30
0.0
 11
88.977634
 21
108.740336
 31
0.0
 11
88.938489
 21
108.943371
 31
0.0
 11
88.899345
 21
109.146406
 31
0.0
 11
88.860201
 21
109.349439
 31
0.0
  0
SPLINE
  5
116
100
AcDbEntity
  8
Layer_1
 62
1
100
AcDbSpline
 70
0
 71
3
 72
10
 73
6
 74
4
 40
0.000000
 40
0.000000
 40
0.000000
 40
0.000000
 40
0.204130
 40
0.408259
 40
0.612389
 40
0.612389
 40
0.612389
 40
0.612389
 10
88.860201
 20
109.349439
 30
0.0
 10
88.805572
 20
109.390005
 30
0.0
 10
88.696315
 20
109.471136
 30
0.0
 10
88.532428
 20
109.592833
 30
0.0
 10
88.423171
 20
109.673965
 30
0.0
 10
88.368542
 20
109.714530
 30
0.0
 11
88.860201
 21
109.349439
 31
0.0
 11
88.696315
 21
109.471136
 31
0.0
 11
88.532428
 21
109.592833
 31
0.0
 11
88.368542
 21
109.714530
 31
0.0
  0
LWPOLYLINE
  5
117
100
AcDbEntity
  8
Layer_1
 62
1
100
AcDbPolyline
 90
2
 70
1
 10
88.977634
 20
108.740336
 30
0.0
 10
88.977634
 20
108.740336
 30
0.0
  0
SPLINE
  5
118
100
AcDbEntity
  8
Layer_1
 62
1
100
AcDbSpline
 70
0
 71
3
 72
10
 73
6
 74
4
 40
0.000000
 40
0.000000
 40
0.000000
 40
0.000000
 40
0.218964
 40
0.437922
 40
0.656886
 40
0.656886
 40
0.656886
 40
0.656886
 10
88.368542
 20
109.714530
 30
0.0
 10
88.300858
 20
109.741846
 30
0.0
 10
88.165491
 20
109.796475
 30
0.0
 10
87.962443
 20
109.878426
 30
0.0
 10
87.827077
 20
109.933056
 30
0.0
 10
87.759393
 20
109.960371
 30
0.0
 11
88.368542
 21
109.714530
 31
0.0
 11
88.165490
 21
109.796477
 31
0.0
 11
87.962445
 21
109.878424
 31
0.0
 11
87.759393
 21
109.960371
 31
0.0
  0
LWPOLYLINE
  5
119
100
AcDbEntity
  8
Layer_1
 62
1
100
AcDbPolyline
 90
2
 70
1
 10
87.759393
 20
109.960371
 30
0.0
 10
87.759393
 20
109.960371
 30
0.0
  0
SPLINE
  5
11a
100
AcDbEntity
  8
Layer_1
 62
1
100
AcDbSpline
 70
0
 71
3
 72
10
 73
6
 74
4
 40
0.000000
 40
0.000000
 40
0.000000
 40
0.000000
 40
21.874978
 40
43.749954
 40
65.624930
 40
65.624930
 40
65.624930
 40
65.624930
 10
87.759393
 20
109.960371
 30
0.0
 10
80.467734
 20
109.960371
 30
0.0
 10
65.884416
 20
109.960371
 30
0.0
 10
44.009439
 20
109.960371
 30
0.0
 10
29.426122
 20
109.960371
 30
0.0
 10
22.134463
 20
109.960371
 30
0.0
 11
87.759393
 21
109.960371
 31
0.0
 11
65.884415
 21
109.960371
 31
0.0
 11
44.009439
 21
109.960371
 31
0.0
 11
22.134463
 21
109.960371
 31
0.0
  0
SPLINE
  5
11b
100
AcDbEntity
  8
Layer_1
 62
1
100
AcDbSpline
 70
0
 71
3
 72
10
 73
6
 74
4
 40
0.000000
 40
0.000000
 40
0.000000
 40
0.000000
 40
0.219520
 40
0.439041
 40
0.658562
 40
0.658562
 40
0.658562
 40
0.658562
 10
22.134463
 20
109.960371
 30
0.0
 10
22.066579
 20
109.933056
 30
0.0
 10
21.930811
 20
109.878425
 30
0.0
 10
21.727160
 20
109.796477
 30
0.0
 10
21.591392
 20
109.741846
 30
0.0
 10
21.523508
 20
109.714530
 30
0.0
 11
22.134463
 21
109.960371
 31
0.0
 11
21.930812
 21
109.878424
 31
0.0
 11
21.727160
 21
109.796477
 31
0.0
 11
21.523508
 21
109.714530
 31
0.0
  0
SPLINE
  5
11c
100
AcDbEntity
  8
Layer_1
 62
1
100
AcDbSpline
 70
0
 71
3
 72
10
 73
6
 74
4
 40
0.000000
 40
0.000000
 40
0.000000
 40
0.000000
 40
0.203150
 40
0.406299
 40
0.609447
 40
0.609447
 40
0.609447
 40
0.609447
 10
21.523508
 20
109.714530
 30
0.0
 10
21.469287
 20
109.673965
 30
0.0
 10
21.360844
 20
109.592833
 30
0.0
 10
21.198181
 20
109.471136
 30
0.0
 10
21.089739
 20
109.390005
 30
0.0
 10
21.035518
 20
109.349439
 30
0.0
 11
21.523508
 21
109.714530
 31
0.0
 11
21.360844
 21
109.592833
 31
0.0
 11
21.198180
 21
109.471136
 31
0.0
 11
21.035518
 21
109.349439
 31
0.0
  0
LWPOLYLINE
  5
11d
100
AcDbEntity
  8
Layer_1
 62
1
100
AcDbPolyline
 90
2
 70
1
 10
22.134463
 20
109.960371
 30
0.0
 10
22.134463
 20
109.960371
 30
0.0
  0
SPLINE
  5
11e
100
AcDbEntity
  8
Layer_1
 62
1
100
AcDbSpline
 70
0
 71
3
 72
10
 73
6
 74
4
 40
0.000000
 40
0.000000
 40
0.000000
 40
0.000000
 40
0.207008
 40
0.414016
 40
0.621025
 40
0.621025
 40
0.621025
 40
0.621025
 10
21.035518
 20
109.349439
 30
0.0
 10
21.022062
 20
109.281761
 30
0.0
 10
20.995149
 20
109.146405
 30
0.0
 10
20.954783
 20
108.943371
 30
0.0
 10
20.927872
 20
108.808014
 30
0.0
 10
20.914416
 20
108.740336
 30
0.0
 11
21.035518
 21
109.349439
 31
0.0
 11
20.995150
 21
109.146406
 31
0.0
 11
20.954783
 21
108.943371
 31
0.0
 11
20.914416
 21
108.740336
 31
0.0
  0
LWPOLYLINE
  5
11f
100
AcDbEntity
  8
Layer_1
 62
1
100
AcDbPolyline
 90
2
 70
1
 10
20.914416
 20
108.740336
 30
0.0
 10
20.914416
 20
108.740336
 30
0.0
  0
SPLINE
  5
120
100
AcDbEntity
  8
Layer_1
 62
1
100
AcDbSpline
 70
0
 71
3
 72
10
 73
6
 74
4
 40
0.000000
 40
0.000000
 40
0.000000
 40
0.000000
 40
1.667073
 40
3.334147
 40
5.001220
 40
5.001220
 40
5.001220
 40
5.001220
 10
20.914416
 20
108.740336
 30
0.0
 10
20.914416
 20
108.184645
 30
0.0
 10
20.914416
 20
107.073262
 30
0.0
 10
20.914416
 20
105.406189
 30
0.0
 10
20.914416
 20
104.294806
 30
0.0
 10
20.914416
 20
103.739115
 30
0.0
 11
20.914416
 21
108.740336
 31
0.0
 11
20.914416
 21
107.073263
 31
0.0
 11
20.914416
 21
105.406189
 31
0.0
 11
20.914416
 21
103.739115
 31
0.0
  0
LWPOLYLINE
  5
121
100
AcDbEntity
  8
Layer_1
 62
1
100
AcDbPolyline
 90
2
 70
1
 10
20.914416
 20
103.739115
 30
0.0
 10
20.914416
 20
103.739115
 30
0.0
  0
SPLINE
  5
122
100
AcDbEntity
  8
Layer_1
 62
1
100
AcDbSpline
 70
0
 71
3
 72
10
 73
6
 74
4
 40
0.000000
 40
0.000000
 40
0.000000
 40
0.000000
 40
4.240032
 40
8.483419
 40
12.693486
 40
12.693486
 40
12.693486
 40
12.693486
 10
20.914416
 20
103.739115
 30
0.0
 10
20.665731
 20
102.331861
 30
0.0
 10
20.168163
 20
99.516240
 30
0.0
 10
17.024688
 20
96.140066
 30
0.0
 10
14.166444
 20
95.756725
 30
0.0
 10
12.742954
 20
95.565810
 30
0.0
 11
20.914416
 21
103.739115
 31
0.0
 11
19.767850
 21
99.657050
 31
0.0
 11
16.823729
 21
96.601157
 31
0.0
 11
12.742954
 21
95.565810
 31
0.0
  0
LWPOLYLINE
  5
123
100
AcDbEntity
  8
Layer_1
 62
1
100
AcDbPolyline
 90
2
 70
1
 10
12.742954
 20
95.565810
 30
0.0
 10
12.742954
 20
95.565810
 30
0.0
  0
SPLINE
  5
124
100
AcDbEntity
  8
Layer_1
 62
1
100
AcDbSpline
 70
0
 71
3
 72
10
 73
6
 74
4
 40
0.000000
 40
0.000000
 40
0.000000
 40
0.000000
 40
3.822164
 40
7.644328
 40
11.466491
 40
11.466491
 40
11.466491
 40
11.466491
 10
12.742954
 20
95.565810
 30
0.0
 10
11.468900
 20
95.565810
 30
0.0
 10
8.920790
 20
95.565810
 30
0.0
 10
5.098627
 20
95.565810
 30
0.0
 10
2.550517
 20
95.565810
 30
0.0
 10
1.276463
 20
95.565810
 30
0.0
 11
12.742954
 21
95.565810
 31
0.0
 11
8.920790
 21
95.565810
 31
0.0
 11
5.098627
 21
95.565810
 31
0.0
 11
1.276463
 21
95.565810
 31
0.0
  0
SPLINE
  5
125
100
AcDbEntity
  8
Layer_1
 62
1
100
AcDbSpline
 70
0
 71
3
 72
10
 73
6
 74
4
 40
0.000000
 40
0.000000
 40
0.000000
 40
0.000000
 40
0.218944
 40
0.437889
 40
0.656833
 40
0.656833
 40
0.656833
 40
0.656833
 10
1.276463
 20
95.565810
 30
0.0
 10
1.208786
 20
95.538495
 30
0.0
 10
1.073432
 20
95.483864
 30
0.0
 10
0.870402
 20
95.401918
 30
0.0
 10
0.735048
 20
95.347287
 30
0.0
 10
0.667371
 20
95.319972
 30
0.0
 11
1.276463
 21
95.565810
 31
0.0
 11
1.073432
 21
95.483864
 31
0.0
 11
0.870402
 21
95.401918
 31
0.0
 11
0.667371
 21
95.319972
 31
0.0
  0
SPLINE
  5
126
100
AcDbEntity
  8
Layer_1
 62
1
100
AcDbSpline
 70
0
 71
3
 72
10
 73
6
 74
4
 40
0.000000
 40
0.000000
 40
0.000000
 40
0.000000
 40
0.203775
 40
0.407550
 40
0.611323
 40
0.611323
 40
0.611323
 40
0.611323
 10
0.667371
 20
95.319972
 30
0.0
 10
0.612739
 20
95.279610
 30
0.0
 10
0.503474
 20
95.198885
 30
0.0
 10
0.339578
 20
95.077797
 30
0.0
 10
0.230315
 20
94.997072
 30
0.0
 10
0.175683
 20
94.956710
 30
0.0
 11
0.667371
 21
95.319972
 31
0.0
 11
0.503474
 21
95.198885
 31
0.0
 11
0.339578
 21
95.077797
 31
0.0
 11
0.175683
 21
94.956710
 31
0.0
  0
LWPOLYLINE
  5
127
100
AcDbEntity
  8
Layer_1
 62
1
100
AcDbPolyline
 90
2
 70
1
 10
1.276463
 20
95.565810
 30
0.0
 10
1.276463
 20
95.565810
 30
0.0
  0
SPLINE
  5
128
100
AcDbEntity
  8
Layer_1
 62
1
100
AcDbSpline
 70
0
 71
3
 72
10
 73
6
 74
4
 40
0.000000
 40
0.000000
 40
0.000000
 40
0.000000
 40
0.246619
 40
0.493238
 40
0.739857
 40
0.739857
 40
0.739857
 40
0.739857
 10
0.175683
 20
94.956710
 30
0.0
 10
0.162434
 20
94.875578
 30
0.0
 10
0.135936
 20
94.713315
 30
0.0
 10
0.096190
 20
94.469920
 30
0.0
 10
0.069693
 20
94.307656
 30
0.0
 10
0.056444
 20
94.226525
 30
0.0
 11
0.175683
 21
94.956710
 31
0.0
 11
0.135936
 21
94.713315
 31
0.0
 11
0.096190
 21
94.469919
 31
0.0
 11
0.056444
 21
94.226525
 31
0.0
  0
LWPOLYLINE
  5
129
100
AcDbEntity
  8
Layer_1
 62
1
100
AcDbPolyline
 90
2
 70
1
 10
0.056444
 20
94.226525
 30
0.0
 10
0.056444
 20
94.226525
 30
0.0
  0
SPLINE
  5
12a
100
AcDbEntity
  8
Layer_1
 62
1
100
AcDbSpline
 70
0
 71
3
 72
10
 73
6
 74
4
 40
0.000000
 40
0.000000
 40
0.000000
 40
0.000000
 40
26.144175
 40
52.288350
 40
78.432522
 40
78.432522
 40
78.432522
 40
78.432522
 10
0.056444
 20
94.226525
 30
0.0
 10
0.056444
 20
85.511800
 30
0.0
 10
0.056444
 20
68.082349
 30
0.0
 10
0.056444
 20
41.938176
 30
0.0
 10
0.056444
 20
24.508727
 30
0.0
 10
0.056444
 20
15.794003
 30
0.0
 11
0.056444
 21
94.226525
 31
0.0
 11
0.056444
 21
68.082349
 31
0.0
 11
0.056444
 21
41.938175
 31
0.0
 11
0.056444
 21
15.794003
 31
0.0
  0
SPLINE
  5
12b
100
AcDbEntity
  8
Layer_1
 62
1
100
AcDbSpline
 70
0
 71
3
 72
10
 73
6
 74
4
 40
0.000000
 40
0.000000
 40
0.000000
 40
0.000000
 40
0.247838
 40
0.495676
 40
0.743514
 40
0.743514
 40
0.743514
 40
0.743514
 10
0.056444
 20
15.794003
 30
0.0
 10
0.069693
 20
15.712460
 30
0.0
 10
0.096190
 20
15.549373
 30
0.0
 10
0.135936
 20
15.304742
 30
0.0
 10
0.162434
 20
15.141656
 30
0.0
 10
0.175683
 20
15.060112
 30
0.0
 11
0.056444
 21
15.794003
 31
0.0
 11
0.096190
 21
15.549373
 31
0.0
 11
0.135936
 21
15.304742
 31
0.0
 11
0.175683
 21
15.060112
 31
0.0
  0
SPLINE
  5
12c
100
AcDbEntity
  8
Layer_1
 62
1
100
AcDbSpline
 70
0
 71
3
 72
10
 73
6
 74
4
 40
0.000000
 40
0.000000
 40
0.000000
 40
0.000000
 40
0.204135
 40
0.408270
 40
0.612407
 40
0.612407
 40
0.612407
 40
0.612407
 10
0.175683
 20
15.060112
 30
0.0
 10
0.230315
 20
15.019548
 30
0.0
 10
0.339578
 20
14.938418
 30
0.0
 10
0.503474
 20
14.816723
 30
0.0
 10
0.612739
 20
14.735594
 30
0.0
 10
0.667371
 20
14.695030
 30
0.0
 11
0.175683
 21
15.060112
 31
0.0
 11
0.339578
 21
14.938418
 31
0.0
 11
0.503474
 21
14.816724
 31
0.0
 11
0.667371
 21
14.695030
 31
0.0
  0
LWPOLYLINE
  5
12d
100
AcDbEntity
  8
Layer_1
 62
1
100
AcDbPolyline
 90
2
 70
1
 10
0.056444
 20
15.794003
 30
0.0
 10
0.056444
 20
15.794003
 30
0.0
  0
SPLINE
  5
12e
100
AcDbEntity
  8
Layer_1
 62
1
100
AcDbSpline
 70
0
 71
3
 72
10
 73
6
 74
4
 40
0.000000
 40
0.000000
 40
0.000000
 40
0.000000
 40
0.218717
 40
0.437434
 40
0.656151
 40
0.656151
 40
0.656151
 40
0.656151
 10
0.667371
 20
14.695030
 30
0.0
 10
0.735048
 20
14.667917
 30
0.0
 10
0.870402
 20
14.613693
 30
0.0
 10
1.073432
 20
14.532357
 30
0.0
 10
1.208786
 20
14.478132
 30
0.0
 10
1.276463
 20
14.451020
 30
0.0
 11
0.667371
 21
14.695030
 31
0.0
 11
0.870402
 21
14.613693
 31
0.0
 11
1.073432
 21
14.532357
 31
0.0
 11
1.276463
 21
14.451020
 31
0.0
  0
LWPOLYLINE
  5
12f
100
AcDbEntity
  8
Layer_1
 62
1
100
AcDbPolyline
 90
2
 70
1
 10
1.276463
 20
14.451020
 30
0.0
 10
1.276463
 20
14.451020
 30
0.0
  0
SPLINE
  5
130
100
AcDbEntity
  8
Layer_1
 62
1
100
AcDbSpline
 70
0
 71
3
 72
10
 73
6
 74
4
 40
0.000000
 40
0.000000
 40
0.000000
 40
0.000000
 40
3.822164
 40
7.644328
 40
11.466491
 40
11.466491
 40
11.466491
 40
11.466491
 10
1.276463
 20
14.451020
 30
0.0
 10
2.550517
 20
14.451020
 30
0.0
 10
5.098627
 20
14.451020
 30
0.0
 10
8.920790
 20
14.451020
 30
0.0
 10
11.468900
 20
14.451020
 30
0.0
 10
12.742954
 20
14.451020
 30
0.0
 11
1.276463
 21
14.451020
 31
0.0
 11
5.098627
 21
14.451020
 31
0.0
 11
8.920790
 21
14.451020
 31
0.0
 11
12.742954
 21
14.451020
 31
0.0
  0
LWPOLYLINE
  5
131
100
AcDbEntity
  8
Layer_1
 62
1
100
AcDbPolyline
 90
2
 70
1
 10
12.742954
 20
14.451020
 30
0.0
 10
12.742954
 20
14.451020
 30
0.0
  0
SPLINE
  5
132
100
AcDbEntity
  8
Layer_1
 62
1
100
AcDbSpline
 70
0
 71
3
 72
10
 73
6
 74
4
 40
0.000000
 40
0.000000
 40
0.000000
 40
0.000000
 40
4.210539
 40
8.454151
 40
12.691938
 40
12.691938
 40
12.691938
 40
12.691938
 10
12.742954
 20
14.451020
 30
0.0
 10
14.166540
 20
14.259964
 30
0.0
 10
17.024893
 20
13.876351
 30
0.0
 10
20.168639
 20
10.501147
 30
0.0
 10
20.665938
 20
7.686110
 30
0.0
 10
20.914416
 20
6.279558
 30
0.0
 11
12.742954
 21
14.451020
 31
0.0
 11
16.824130
 21
13.415336
 31
0.0
 11
19.768653
 21
10.359517
 31
0.0
 11
20.914416
 21
6.279558
 31
0.0
  0
LWPOLYLINE
  5
133
100
AcDbEntity
  8
Layer_1
 62
1
100
AcDbPolyline
 90
2
 70
1
 10
20.914416
 20
6.279558
 30
0.0
 10
20.914416
 20
6.279558
 30
0.0
  0
SPLINE
  5
134
100
AcDbEntity
  8
Layer_1
 62
1
100
AcDbSpline
 70
0
 71
3
 72
10
 73
6
 74
4
 40
0.000000
 40
0.000000
 40
0.000000
 40
0.000000
 40
1.667679
 40
3.335359
 40
5.003038
 40
5.003038
 40
5.003038
 40
5.003038
 10
20.914416
 20
6.279558
 30
0.0
 10
20.914416
 20
5.723665
 30
0.0
 10
20.914416
 20
4.611879
 30
0.0
 10
20.914416
 20
2.944199
 30
0.0
 10
20.914416
 20
1.832413
 30
0.0
 10
20.914416
 20
1.276520
 30
0.0
 11
20.914416
 21
6.279558
 31
0.0
 11
20.914416
 21
4.611879
 31
0.0
 11
20.914416
 21
2.944199
 31
0.0
 11
20.914416
 21
1.276520
 31
0.0
  0
SPLINE
  5
135
100
AcDbEntity
  8
Layer_1
 62
1
100
AcDbSpline
 70
0
 71
3
 72
10
 73
6
 74
4
 40
0.000000
 40
0.000000
 40
0.000000
 40
0.000000
 40
0.207024
 40
0.414036
 40
0.621042
 40
0.621042
 40
0.621042
 40
0.621042
 10
20.914416
 20
1.276520
 30
0.0
 10
20.927872
 20
1.208836
 30
0.0
 10
20.954781
 20
1.073473
 30
0.0
 10
20.995149
 20
0.870433
 30
0.0
 10
21.022062
 20
0.735077
 30
0.0
 10
21.035518
 20
0.667400
 30
0.0
 11
20.914416
 21
1.276520
 31
0.0
 11
20.954783
 21
1.073470
 31
0.0
 11
20.995150
 21
0.870432
 31
0.0
 11
21.035518
 21
0.667400
 31
0.0
  0
SPLINE
  5
136
100
AcDbEntity
  8
Layer_1
 62
1
100
AcDbSpline
 70
0
 71
3
 72
10
 73
6
 74
4
 40
0.000000
 40
0.000000
 40
0.000000
 40
0.000000
 40
0.203147
 40
0.406294
 40
0.609442
 40
0.609442
 40
0.609442
 40
0.609442
 10
21.035518
 20
0.667400
 30
0.0
 10
21.089739
 20
0.626835
 30
0.0
 10
21.198181
 20
0.545705
 30
0.0
 10
21.360844
 20
0.424011
 30
0.0
 10
21.469287
 20
0.342882
 30
0.0
 10
21.523508
 20
0.302317
 30
0.0
 11
21.035518
 21
0.667400
 31
0.0
 11
21.198180
 21
0.545706
 31
0.0
 11
21.360844
 21
0.424011
 31
0.0
 11
21.523508
 21
0.302317
 31
0.0
  0
LWPOLYLINE
  5
137
100
AcDbEntity
  8
Layer_1
 62
1
100
AcDbPolyline
 90
2
 70
1
 10
20.914416
 20
1.276520
 30
0.0
 10
20.914416
 20
1.276520
 30
0.0
  0
SPLINE
  5
138
100
AcDbEntity
  8
Layer_1
 62
1
100
AcDbSpline
 70
0
 71
3
 72
10
 73
6
 74
4
 40
0.000000
 40
0.000000
 40
0.000000
 40
0.000000
 40
0.219524
 40
0.439049
 40
0.658573
 40
0.658573
 40
0.658573
 40
0.658573
 10
21.523508
 20
0.302317
 30
0.0
 10
21.591392
 20
0.274998
 30
0.0
 10
21.727160
 20
0.220360
 30
0.0
 10
21.930812
 20
0.138402
 30
0.0
 10
22.066579
 20
0.083764
 30
0.0
 10
22.134463
 20
0.056445
 30
0.0
 11
21.523508
 21
0.302317
 31
0.0
 11
21.727160
 21
0.220360
 31
0.0
 11
21.930812
 21
0.138402
 31
0.0
 11
22.134463
 21
0.056445
 31
0.0
  0
LWPOLYLINE
  5
139
100
AcDbEntity
  8
Layer_1
 62
1
100
AcDbPolyline
 90
2
 70
1
 10
22.134463
 20
0.056445
 30
0.0
 10
22.134463
 20
0.056445
 30
0.0
  0
SPLINE
  5
13a
100
AcDbEntity
  8
Layer_1
 62
1
100
AcDbSpline
 70
0
 71
3
 72
10
 73
6
 74
4
 40
0.000000
 40
0.000000
 40
0.000000
 40
0.000000
 40
21.874976
 40
43.749952
 40
65.624930
 40
65.624930
 40
65.624930
 40
65.624930
 10
22.134463
 20
0.056445
 30
0.0
 10
29.426122
 20
0.056445
 30
0.0
 10
44.009439
 20
0.056445
 30
0.0
 10
65.884416
 20
0.056445
 30
0.0
 10
80.467734
 20
0.056445
 30
0.0
 10
87.759393
 20
0.056445
 30
0.0
 11
22.134463
 21
0.056445
 31
0.0
 11
44.009439
 21
0.056445
 31
0.0
 11
65.884415
 21
0.056445
 31
0.0
 11
87.759393
 21
0.056445
 31
0.0
  0
SPLINE
  5
13b
100
AcDbEntity
  8
Layer_1
 62
1
100
AcDbSpline
 70
0
 71
3
 72
10
 73
6
 74
4
 40
0.000000
 40
0.000000
 40
0.000000
 40
0.000000
 40
0.218968
 40
0.437930
 40
0.656898
 40
0.656898
 40
0.656898
 40
0.656898
 10
87.759393
 20
0.056445
 30
0.0
 10
87.827077
 20
0.083764
 30
0.0
 10
87.962443
 20
0.138401
 30
0.0
 10
88.165492
 20
0.220361
 30
0.0
 10
88.300858
 20
0.274998
 30
0.0
 10
88.368542
 20
0.302317
 30
0.0
 11
87.759393
 21
0.056445
 31
0.0
 11
87.962445
 21
0.138402
 31
0.0
 11
88.165490
 21
0.220360
 31
0.0
 11
88.368542
 21
0.302317
 31
0.0
  0
SPLINE
  5
13c
100
AcDbEntity
  8
Layer_1
 62
1
100
AcDbSpline
 70
0
 71
3
 72
10
 73
6
 74
4
 40
0.000000
 40
0.000000
 40
0.000000
 40
0.000000
 40
0.204128
 40
0.408256
 40
0.612384
 40
0.612384
 40
0.612384
 40
0.612384
 10
88.368542
 20
0.302317
 30
0.0
 10
88.423171
 20
0.342882
 30
0.0
 10
88.532428
 20
0.424011
 30
0.0
 10
88.696315
 20
0.545706
 30
0.0
 10
88.805572
 20
0.626835
 30
0.0
 10
88.860201
 20
0.667400
 30
0.0
 11
88.368542
 21
0.302317
 31
0.0
 11
88.532428
 21
0.424011
 31
0.0
 11
88.696315
 21
0.545706
 31
0.0
 11
88.860201
 21
0.667400
 31
0.0
  0
LWPOLYLINE
  5
13d
100
AcDbEntity
  8
Layer_1
 62
1
100
AcDbPolyline
 90
2
 70
1
 10
87.759393
 20
0.056445
 30
0.0
 10
87.759393
 20
0.056445
 30
0.0
  0
SPLINE
  5
13e
100
AcDbEntity
  8
Layer_1
 62
1
100
AcDbSpline
 70
0
 71
3
 72
10
 73
6
 74
4
 40
0.000000
 40
0.000000
 40
0.000000
 40
0.000000
 40
0.206771
 40
0.413548
 40
0.620337
 40
0.620337
 40
0.620337
 40
0.620337
 10
88.860201
 20
0.667400
 30
0.0
 10
88.873249
 20
0.735077
 30
0.0
 10
88.899346
 20
0.870434
 30
0.0
 10
88.938491
 20
1.073473
 30
0.0
 10
88.964586
 20
1.208837
 30
0.0
 10
88.977634
 20
1.276520
 30
0.0
 11
88.860201
 21
0.667400
 31
0.0
 11
88.899345
 21
0.870432
 31
0.0
 11
88.938489
 21
1.073470
 31
0.0
 11
88.977634
 21
1.276520
 31
0.0
  0
LWPOLYLINE
  5
13f
100
AcDbEntity
  8
Layer_1
 62
1
100
AcDbPolyline
 90
2
 70
1
 10
88.977634
 20
1.276520
 30
0.0
 10
88.977634
 20
1.276520
 30
0.0
  0
ENDSEC
  0
SECTION
  2
OBJECTS
  0
DICTIONARY
  5
C
330
0
100
AcDbDictionary
  3
ACAD_GROUP
350
D
  3
ACAD_MLINESTYLE
350
17
  0
DICTIONARY
  5
D
330
C
100
AcDbDictionary
  0
DICTIONARY
  5
1A
330
C
100
AcDbDictionary
  0
DICTIONARY
  5
17
330
C
100
AcDbDictionary
  3
STANDARD
350
18
  0
DICTIONARY
  5
19
330
C
100
AcDbDictionary
  0
ENDSEC
  0
EOF
