M48
; DRILL file {KiCad (5.1.5)-2} date 04/09/20 00:07:39
; FORMAT={-:-/ absolute / inch / decimal}
; #@! TF.CreationDate,2020-04-09T00:07:39+02:00
; #@! TF.GenerationSoftware,Kicad,Pcbnew,(5.1.5)-2
; #@! TF.FileFunction,Plated,1,2,PTH
FMAT,2
INCH
T1C0.0157
T2C0.0197
T3C0.0300
T4C0.0315
T5C0.0394
T6C0.0472
T7C0.0551
T8C0.0630
T9C0.0906
T10C0.1260
%
G90
G05
T1
X4.1102Y-3.937
X4.3071Y-3.7874
X4.3622Y-4.8504
X4.378Y-3.622
X4.4094Y-4.0866
X4.4409Y-4.7559
X4.4567Y-5.1811
X4.4882Y-3.874
X4.5512Y-4.8898
X4.5906Y-4.0236
X4.6299Y-4.8898
X4.7874Y-2.4803
X5.3543Y-4.8504
X5.3543Y-5.1718
X5.4646Y-4.6299
X5.6693Y-5.3071
X5.7874Y-5.3071
X5.8661Y-4.1969
X6.0855Y-3.4882
X6.1024Y-3.3858
X6.1969Y-3.7717
X6.2047Y-3.0
X6.2283Y-3.8268
X6.627Y-4.7008
X6.7717Y-2.685
X6.7874Y-3.3543
X6.7874Y-3.4252
X6.9764Y-3.5197
X7.0394Y-3.5512
X7.2362Y-3.3543
X7.3622Y-4.1496
X7.3622Y-4.3465
X7.3622Y-4.5512
X7.3622Y-4.7244
T3
X5.9244Y-3.8433
X5.9244Y-3.9433
X5.9244Y-4.0433
X5.9244Y-4.1433
X5.9244Y-4.2433
X5.9244Y-4.3433
X5.9244Y-4.4433
X5.9244Y-4.5433
X5.9244Y-4.6433
X5.9244Y-4.7433
X5.9244Y-4.8433
X5.9244Y-4.9433
X5.9244Y-5.0433
X5.9244Y-5.1433
X5.9244Y-5.2433
X6.5244Y-3.8433
X6.5244Y-3.9433
X6.5244Y-4.0433
X6.5244Y-4.1433
X6.5244Y-4.2433
X6.5244Y-4.3433
X6.5244Y-4.4433
X6.5244Y-4.5433
X6.5244Y-4.6433
X6.5244Y-4.7433
X6.5244Y-4.8433
X6.5244Y-4.9433
X6.5244Y-5.0433
X6.5244Y-5.1433
X6.5244Y-5.2433
X6.0713Y-3.6425
X6.0713Y-3.7425
X6.0713Y-3.8425
X6.0713Y-3.9425
X6.0713Y-4.0425
X6.0713Y-4.1425
X6.0713Y-4.2425
X6.0713Y-4.3425
X6.0713Y-4.4425
X6.0713Y-4.5425
X6.0713Y-4.6425
X6.0713Y-4.7425
X6.0713Y-4.8425
X6.0713Y-4.9425
X6.0713Y-5.0425
X6.0713Y-5.1425
X6.0713Y-5.2425
X6.0713Y-5.3425
X6.0713Y-5.4425
X6.0713Y-5.5425
X6.7713Y-3.6425
X6.7713Y-3.7425
X6.7713Y-3.8425
X6.7713Y-3.9425
X6.7713Y-4.0425
X6.7713Y-4.1425
X6.7713Y-4.2425
X6.7713Y-4.3425
X6.7713Y-4.4425
X6.7713Y-4.5425
X6.7713Y-4.6425
X6.7713Y-4.7425
X6.7713Y-4.8425
X6.7713Y-4.9425
X6.7713Y-5.0425
X6.7713Y-5.1425
X6.7713Y-5.2425
X6.7713Y-5.3425
X6.7713Y-5.4425
X6.7713Y-5.5425
T4
X4.5429Y-1.4961
X4.6429Y-1.4961
X4.6429Y-1.5961
X4.7429Y-1.4961
X4.8429Y-1.4961
T5
X5.7087Y-3.9787
X5.7087Y-4.0787
X5.4744Y-4.8535
X5.4744Y-4.9535
X5.4744Y-5.0535
X5.4744Y-5.1535
X5.2768Y-1.4882
X5.3752Y-1.4882
X5.4736Y-1.4882
X6.3543Y-3.2835
X6.4543Y-3.2835
X6.5543Y-3.2835
X5.9578Y-1.4882
X6.0562Y-1.4882
X6.1546Y-1.4882
X5.3173Y-3.3465
X5.4173Y-3.3465
T6
X4.023Y-3.4945
X4.223Y-3.4945
X3.7963Y-4.8305
X4.1967Y-4.5057
T7
X7.6693Y-4.0268
X7.6693Y-4.2268
X7.6693Y-4.4268
X7.6693Y-4.6268
X7.6693Y-4.8268
X7.6693Y-2.5795
X7.6693Y-2.7795
X7.6693Y-3.1906
X7.6693Y-3.3906
X7.6693Y-3.5906
T8
X4.223Y-3.3445
X4.223Y-3.6445
X4.0215Y-4.6557
X4.0465Y-4.3557
T9
X5.1783Y-1.6181
X5.572Y-1.6181
X5.8593Y-1.6181
X6.253Y-1.6181
T10
X3.7244Y-2.1102
X7.0472Y-5.0551
X4.5433Y-5.4882
X6.7953Y-1.5906
T2
G00X7.5157Y-2.2717
M15
G01X7.5157Y-2.1535
M16
G05
G00X7.6969Y-2.0236
M15
G01X7.5787Y-2.0236
M16
G05
G00X7.7598Y-2.2717
M15
G01X7.7598Y-2.1535
M16
G05
T0
M30
