G04 #@! TF.GenerationSoftware,KiCad,Pcbnew,(5.1.5)-2*
G04 #@! TF.CreationDate,2020-04-10T04:28:19+02:00*
G04 #@! TF.ProjectId,LightBoxNano,4c696768-7442-46f7-984e-616e6f2e6b69,rev?*
G04 #@! TF.SameCoordinates,Original*
G04 #@! TF.FileFunction,Legend,Bot*
G04 #@! TF.FilePolarity,Positive*
%FSLAX46Y46*%
G04 Gerber Fmt 4.6, Leading zero omitted, Abs format (unit mm)*
G04 Created by KiCad (PCBNEW (5.1.5)-2) date 2020-04-10 04:28:19*
%MOMM*%
%LPD*%
G04 APERTURE LIST*
%ADD10C,0.150000*%
G04 APERTURE END LIST*
D10*
X173120000Y-91460000D02*
X173120000Y-141990000D01*
X155390000Y-91540000D02*
X155390000Y-141950000D01*
X149400000Y-96710000D02*
X149400000Y-134270000D01*
X164540000Y-96710000D02*
X164540000Y-134090000D01*
X164284285Y-98052380D02*
X164284285Y-97052380D01*
X164046190Y-97052380D01*
X163903333Y-97100000D01*
X163808095Y-97195238D01*
X163760476Y-97290476D01*
X163712857Y-97480952D01*
X163712857Y-97623809D01*
X163760476Y-97814285D01*
X163808095Y-97909523D01*
X163903333Y-98004761D01*
X164046190Y-98052380D01*
X164284285Y-98052380D01*
X162760476Y-98052380D02*
X163331904Y-98052380D01*
X163046190Y-98052380D02*
X163046190Y-97052380D01*
X163141428Y-97195238D01*
X163236666Y-97290476D01*
X163331904Y-97338095D01*
X162379523Y-97147619D02*
X162331904Y-97100000D01*
X162236666Y-97052380D01*
X161998571Y-97052380D01*
X161903333Y-97100000D01*
X161855714Y-97147619D01*
X161808095Y-97242857D01*
X161808095Y-97338095D01*
X161855714Y-97480952D01*
X162427142Y-98052380D01*
X161808095Y-98052380D01*
X164344285Y-100552380D02*
X164344285Y-99552380D01*
X164106190Y-99552380D01*
X163963333Y-99600000D01*
X163868095Y-99695238D01*
X163820476Y-99790476D01*
X163772857Y-99980952D01*
X163772857Y-100123809D01*
X163820476Y-100314285D01*
X163868095Y-100409523D01*
X163963333Y-100504761D01*
X164106190Y-100552380D01*
X164344285Y-100552380D01*
X162820476Y-100552380D02*
X163391904Y-100552380D01*
X163106190Y-100552380D02*
X163106190Y-99552380D01*
X163201428Y-99695238D01*
X163296666Y-99790476D01*
X163391904Y-99838095D01*
X161868095Y-100552380D02*
X162439523Y-100552380D01*
X162153809Y-100552380D02*
X162153809Y-99552380D01*
X162249047Y-99695238D01*
X162344285Y-99790476D01*
X162439523Y-99838095D01*
X164234285Y-103132380D02*
X164234285Y-102132380D01*
X163996190Y-102132380D01*
X163853333Y-102180000D01*
X163758095Y-102275238D01*
X163710476Y-102370476D01*
X163662857Y-102560952D01*
X163662857Y-102703809D01*
X163710476Y-102894285D01*
X163758095Y-102989523D01*
X163853333Y-103084761D01*
X163996190Y-103132380D01*
X164234285Y-103132380D01*
X162710476Y-103132380D02*
X163281904Y-103132380D01*
X162996190Y-103132380D02*
X162996190Y-102132380D01*
X163091428Y-102275238D01*
X163186666Y-102370476D01*
X163281904Y-102418095D01*
X162091428Y-102132380D02*
X161996190Y-102132380D01*
X161900952Y-102180000D01*
X161853333Y-102227619D01*
X161805714Y-102322857D01*
X161758095Y-102513333D01*
X161758095Y-102751428D01*
X161805714Y-102941904D01*
X161853333Y-103037142D01*
X161900952Y-103084761D01*
X161996190Y-103132380D01*
X162091428Y-103132380D01*
X162186666Y-103084761D01*
X162234285Y-103037142D01*
X162281904Y-102941904D01*
X162329523Y-102751428D01*
X162329523Y-102513333D01*
X162281904Y-102322857D01*
X162234285Y-102227619D01*
X162186666Y-102180000D01*
X162091428Y-102132380D01*
X164198095Y-105702380D02*
X164198095Y-104702380D01*
X163960000Y-104702380D01*
X163817142Y-104750000D01*
X163721904Y-104845238D01*
X163674285Y-104940476D01*
X163626666Y-105130952D01*
X163626666Y-105273809D01*
X163674285Y-105464285D01*
X163721904Y-105559523D01*
X163817142Y-105654761D01*
X163960000Y-105702380D01*
X164198095Y-105702380D01*
X163150476Y-105702380D02*
X162960000Y-105702380D01*
X162864761Y-105654761D01*
X162817142Y-105607142D01*
X162721904Y-105464285D01*
X162674285Y-105273809D01*
X162674285Y-104892857D01*
X162721904Y-104797619D01*
X162769523Y-104750000D01*
X162864761Y-104702380D01*
X163055238Y-104702380D01*
X163150476Y-104750000D01*
X163198095Y-104797619D01*
X163245714Y-104892857D01*
X163245714Y-105130952D01*
X163198095Y-105226190D01*
X163150476Y-105273809D01*
X163055238Y-105321428D01*
X162864761Y-105321428D01*
X162769523Y-105273809D01*
X162721904Y-105226190D01*
X162674285Y-105130952D01*
X164218095Y-108252380D02*
X164218095Y-107252380D01*
X163980000Y-107252380D01*
X163837142Y-107300000D01*
X163741904Y-107395238D01*
X163694285Y-107490476D01*
X163646666Y-107680952D01*
X163646666Y-107823809D01*
X163694285Y-108014285D01*
X163741904Y-108109523D01*
X163837142Y-108204761D01*
X163980000Y-108252380D01*
X164218095Y-108252380D01*
X163075238Y-107680952D02*
X163170476Y-107633333D01*
X163218095Y-107585714D01*
X163265714Y-107490476D01*
X163265714Y-107442857D01*
X163218095Y-107347619D01*
X163170476Y-107300000D01*
X163075238Y-107252380D01*
X162884761Y-107252380D01*
X162789523Y-107300000D01*
X162741904Y-107347619D01*
X162694285Y-107442857D01*
X162694285Y-107490476D01*
X162741904Y-107585714D01*
X162789523Y-107633333D01*
X162884761Y-107680952D01*
X163075238Y-107680952D01*
X163170476Y-107728571D01*
X163218095Y-107776190D01*
X163265714Y-107871428D01*
X163265714Y-108061904D01*
X163218095Y-108157142D01*
X163170476Y-108204761D01*
X163075238Y-108252380D01*
X162884761Y-108252380D01*
X162789523Y-108204761D01*
X162741904Y-108157142D01*
X162694285Y-108061904D01*
X162694285Y-107871428D01*
X162741904Y-107776190D01*
X162789523Y-107728571D01*
X162884761Y-107680952D01*
X164288095Y-110802380D02*
X164288095Y-109802380D01*
X164050000Y-109802380D01*
X163907142Y-109850000D01*
X163811904Y-109945238D01*
X163764285Y-110040476D01*
X163716666Y-110230952D01*
X163716666Y-110373809D01*
X163764285Y-110564285D01*
X163811904Y-110659523D01*
X163907142Y-110754761D01*
X164050000Y-110802380D01*
X164288095Y-110802380D01*
X163383333Y-109802380D02*
X162716666Y-109802380D01*
X163145238Y-110802380D01*
X164348095Y-113322380D02*
X164348095Y-112322380D01*
X164110000Y-112322380D01*
X163967142Y-112370000D01*
X163871904Y-112465238D01*
X163824285Y-112560476D01*
X163776666Y-112750952D01*
X163776666Y-112893809D01*
X163824285Y-113084285D01*
X163871904Y-113179523D01*
X163967142Y-113274761D01*
X164110000Y-113322380D01*
X164348095Y-113322380D01*
X162919523Y-112322380D02*
X163110000Y-112322380D01*
X163205238Y-112370000D01*
X163252857Y-112417619D01*
X163348095Y-112560476D01*
X163395714Y-112750952D01*
X163395714Y-113131904D01*
X163348095Y-113227142D01*
X163300476Y-113274761D01*
X163205238Y-113322380D01*
X163014761Y-113322380D01*
X162919523Y-113274761D01*
X162871904Y-113227142D01*
X162824285Y-113131904D01*
X162824285Y-112893809D01*
X162871904Y-112798571D01*
X162919523Y-112750952D01*
X163014761Y-112703333D01*
X163205238Y-112703333D01*
X163300476Y-112750952D01*
X163348095Y-112798571D01*
X163395714Y-112893809D01*
X164258095Y-115792380D02*
X164258095Y-114792380D01*
X164020000Y-114792380D01*
X163877142Y-114840000D01*
X163781904Y-114935238D01*
X163734285Y-115030476D01*
X163686666Y-115220952D01*
X163686666Y-115363809D01*
X163734285Y-115554285D01*
X163781904Y-115649523D01*
X163877142Y-115744761D01*
X164020000Y-115792380D01*
X164258095Y-115792380D01*
X162781904Y-114792380D02*
X163258095Y-114792380D01*
X163305714Y-115268571D01*
X163258095Y-115220952D01*
X163162857Y-115173333D01*
X162924761Y-115173333D01*
X162829523Y-115220952D01*
X162781904Y-115268571D01*
X162734285Y-115363809D01*
X162734285Y-115601904D01*
X162781904Y-115697142D01*
X162829523Y-115744761D01*
X162924761Y-115792380D01*
X163162857Y-115792380D01*
X163258095Y-115744761D01*
X163305714Y-115697142D01*
X164118095Y-118382380D02*
X164118095Y-117382380D01*
X163880000Y-117382380D01*
X163737142Y-117430000D01*
X163641904Y-117525238D01*
X163594285Y-117620476D01*
X163546666Y-117810952D01*
X163546666Y-117953809D01*
X163594285Y-118144285D01*
X163641904Y-118239523D01*
X163737142Y-118334761D01*
X163880000Y-118382380D01*
X164118095Y-118382380D01*
X162689523Y-117715714D02*
X162689523Y-118382380D01*
X162927619Y-117334761D02*
X163165714Y-118049047D01*
X162546666Y-118049047D01*
X164008095Y-120952380D02*
X164008095Y-119952380D01*
X163770000Y-119952380D01*
X163627142Y-120000000D01*
X163531904Y-120095238D01*
X163484285Y-120190476D01*
X163436666Y-120380952D01*
X163436666Y-120523809D01*
X163484285Y-120714285D01*
X163531904Y-120809523D01*
X163627142Y-120904761D01*
X163770000Y-120952380D01*
X164008095Y-120952380D01*
X163103333Y-119952380D02*
X162484285Y-119952380D01*
X162817619Y-120333333D01*
X162674761Y-120333333D01*
X162579523Y-120380952D01*
X162531904Y-120428571D01*
X162484285Y-120523809D01*
X162484285Y-120761904D01*
X162531904Y-120857142D01*
X162579523Y-120904761D01*
X162674761Y-120952380D01*
X162960476Y-120952380D01*
X163055714Y-120904761D01*
X163103333Y-120857142D01*
X164098095Y-123432380D02*
X164098095Y-122432380D01*
X163860000Y-122432380D01*
X163717142Y-122480000D01*
X163621904Y-122575238D01*
X163574285Y-122670476D01*
X163526666Y-122860952D01*
X163526666Y-123003809D01*
X163574285Y-123194285D01*
X163621904Y-123289523D01*
X163717142Y-123384761D01*
X163860000Y-123432380D01*
X164098095Y-123432380D01*
X163145714Y-122527619D02*
X163098095Y-122480000D01*
X163002857Y-122432380D01*
X162764761Y-122432380D01*
X162669523Y-122480000D01*
X162621904Y-122527619D01*
X162574285Y-122622857D01*
X162574285Y-122718095D01*
X162621904Y-122860952D01*
X163193333Y-123432380D01*
X162574285Y-123432380D01*
X164238095Y-131242380D02*
X164238095Y-130242380D01*
X164000000Y-130242380D01*
X163857142Y-130290000D01*
X163761904Y-130385238D01*
X163714285Y-130480476D01*
X163666666Y-130670952D01*
X163666666Y-130813809D01*
X163714285Y-131004285D01*
X163761904Y-131099523D01*
X163857142Y-131194761D01*
X164000000Y-131242380D01*
X164238095Y-131242380D01*
X163047619Y-130242380D02*
X162952380Y-130242380D01*
X162857142Y-130290000D01*
X162809523Y-130337619D01*
X162761904Y-130432857D01*
X162714285Y-130623333D01*
X162714285Y-130861428D01*
X162761904Y-131051904D01*
X162809523Y-131147142D01*
X162857142Y-131194761D01*
X162952380Y-131242380D01*
X163047619Y-131242380D01*
X163142857Y-131194761D01*
X163190476Y-131147142D01*
X163238095Y-131051904D01*
X163285714Y-130861428D01*
X163285714Y-130623333D01*
X163238095Y-130432857D01*
X163190476Y-130337619D01*
X163142857Y-130290000D01*
X163047619Y-130242380D01*
X161571428Y-130194761D02*
X162428571Y-131480476D01*
X160666666Y-131242380D02*
X161000000Y-130766190D01*
X161238095Y-131242380D02*
X161238095Y-130242380D01*
X160857142Y-130242380D01*
X160761904Y-130290000D01*
X160714285Y-130337619D01*
X160666666Y-130432857D01*
X160666666Y-130575714D01*
X160714285Y-130670952D01*
X160761904Y-130718571D01*
X160857142Y-130766190D01*
X161238095Y-130766190D01*
X160333333Y-130242380D02*
X159666666Y-131242380D01*
X159666666Y-130242380D02*
X160333333Y-131242380D01*
X164249047Y-133722380D02*
X164249047Y-132722380D01*
X164010952Y-132722380D01*
X163868095Y-132770000D01*
X163772857Y-132865238D01*
X163725238Y-132960476D01*
X163677619Y-133150952D01*
X163677619Y-133293809D01*
X163725238Y-133484285D01*
X163772857Y-133579523D01*
X163868095Y-133674761D01*
X164010952Y-133722380D01*
X164249047Y-133722380D01*
X162725238Y-133722380D02*
X163296666Y-133722380D01*
X163010952Y-133722380D02*
X163010952Y-132722380D01*
X163106190Y-132865238D01*
X163201428Y-132960476D01*
X163296666Y-133008095D01*
X161582380Y-132674761D02*
X162439523Y-133960476D01*
X161391904Y-132722380D02*
X160820476Y-132722380D01*
X161106190Y-133722380D02*
X161106190Y-132722380D01*
X160582380Y-132722380D02*
X159915714Y-133722380D01*
X159915714Y-132722380D02*
X160582380Y-133722380D01*
X149114285Y-98032380D02*
X149114285Y-97032380D01*
X148876190Y-97032380D01*
X148733333Y-97080000D01*
X148638095Y-97175238D01*
X148590476Y-97270476D01*
X148542857Y-97460952D01*
X148542857Y-97603809D01*
X148590476Y-97794285D01*
X148638095Y-97889523D01*
X148733333Y-97984761D01*
X148876190Y-98032380D01*
X149114285Y-98032380D01*
X147590476Y-98032380D02*
X148161904Y-98032380D01*
X147876190Y-98032380D02*
X147876190Y-97032380D01*
X147971428Y-97175238D01*
X148066666Y-97270476D01*
X148161904Y-97318095D01*
X147257142Y-97032380D02*
X146638095Y-97032380D01*
X146971428Y-97413333D01*
X146828571Y-97413333D01*
X146733333Y-97460952D01*
X146685714Y-97508571D01*
X146638095Y-97603809D01*
X146638095Y-97841904D01*
X146685714Y-97937142D01*
X146733333Y-97984761D01*
X146828571Y-98032380D01*
X147114285Y-98032380D01*
X147209523Y-97984761D01*
X147257142Y-97937142D01*
X149369047Y-103006666D02*
X148892857Y-103006666D01*
X149464285Y-103292380D02*
X149130952Y-102292380D01*
X148797619Y-103292380D01*
X147892857Y-103292380D02*
X148226190Y-102816190D01*
X148464285Y-103292380D02*
X148464285Y-102292380D01*
X148083333Y-102292380D01*
X147988095Y-102340000D01*
X147940476Y-102387619D01*
X147892857Y-102482857D01*
X147892857Y-102625714D01*
X147940476Y-102720952D01*
X147988095Y-102768571D01*
X148083333Y-102816190D01*
X148464285Y-102816190D01*
X147464285Y-102768571D02*
X147130952Y-102768571D01*
X146988095Y-103292380D02*
X147464285Y-103292380D01*
X147464285Y-102292380D01*
X146988095Y-102292380D01*
X146226190Y-102768571D02*
X146559523Y-102768571D01*
X146559523Y-103292380D02*
X146559523Y-102292380D01*
X146083333Y-102292380D01*
X148594285Y-105426666D02*
X148118095Y-105426666D01*
X148689523Y-105712380D02*
X148356190Y-104712380D01*
X148022857Y-105712380D01*
X147499047Y-104712380D02*
X147403809Y-104712380D01*
X147308571Y-104760000D01*
X147260952Y-104807619D01*
X147213333Y-104902857D01*
X147165714Y-105093333D01*
X147165714Y-105331428D01*
X147213333Y-105521904D01*
X147260952Y-105617142D01*
X147308571Y-105664761D01*
X147403809Y-105712380D01*
X147499047Y-105712380D01*
X147594285Y-105664761D01*
X147641904Y-105617142D01*
X147689523Y-105521904D01*
X147737142Y-105331428D01*
X147737142Y-105093333D01*
X147689523Y-104902857D01*
X147641904Y-104807619D01*
X147594285Y-104760000D01*
X147499047Y-104712380D01*
X148594285Y-107926666D02*
X148118095Y-107926666D01*
X148689523Y-108212380D02*
X148356190Y-107212380D01*
X148022857Y-108212380D01*
X147165714Y-108212380D02*
X147737142Y-108212380D01*
X147451428Y-108212380D02*
X147451428Y-107212380D01*
X147546666Y-107355238D01*
X147641904Y-107450476D01*
X147737142Y-107498095D01*
X148614285Y-110426666D02*
X148138095Y-110426666D01*
X148709523Y-110712380D02*
X148376190Y-109712380D01*
X148042857Y-110712380D01*
X147757142Y-109807619D02*
X147709523Y-109760000D01*
X147614285Y-109712380D01*
X147376190Y-109712380D01*
X147280952Y-109760000D01*
X147233333Y-109807619D01*
X147185714Y-109902857D01*
X147185714Y-109998095D01*
X147233333Y-110140952D01*
X147804761Y-110712380D01*
X147185714Y-110712380D01*
X148594285Y-112976666D02*
X148118095Y-112976666D01*
X148689523Y-113262380D02*
X148356190Y-112262380D01*
X148022857Y-113262380D01*
X147784761Y-112262380D02*
X147165714Y-112262380D01*
X147499047Y-112643333D01*
X147356190Y-112643333D01*
X147260952Y-112690952D01*
X147213333Y-112738571D01*
X147165714Y-112833809D01*
X147165714Y-113071904D01*
X147213333Y-113167142D01*
X147260952Y-113214761D01*
X147356190Y-113262380D01*
X147641904Y-113262380D01*
X147737142Y-113214761D01*
X147784761Y-113167142D01*
X148694285Y-115446666D02*
X148218095Y-115446666D01*
X148789523Y-115732380D02*
X148456190Y-114732380D01*
X148122857Y-115732380D01*
X147360952Y-115065714D02*
X147360952Y-115732380D01*
X147599047Y-114684761D02*
X147837142Y-115399047D01*
X147218095Y-115399047D01*
X148644285Y-117996666D02*
X148168095Y-117996666D01*
X148739523Y-118282380D02*
X148406190Y-117282380D01*
X148072857Y-118282380D01*
X147263333Y-117282380D02*
X147739523Y-117282380D01*
X147787142Y-117758571D01*
X147739523Y-117710952D01*
X147644285Y-117663333D01*
X147406190Y-117663333D01*
X147310952Y-117710952D01*
X147263333Y-117758571D01*
X147215714Y-117853809D01*
X147215714Y-118091904D01*
X147263333Y-118187142D01*
X147310952Y-118234761D01*
X147406190Y-118282380D01*
X147644285Y-118282380D01*
X147739523Y-118234761D01*
X147787142Y-118187142D01*
X148614285Y-120576666D02*
X148138095Y-120576666D01*
X148709523Y-120862380D02*
X148376190Y-119862380D01*
X148042857Y-120862380D01*
X147280952Y-119862380D02*
X147471428Y-119862380D01*
X147566666Y-119910000D01*
X147614285Y-119957619D01*
X147709523Y-120100476D01*
X147757142Y-120290952D01*
X147757142Y-120671904D01*
X147709523Y-120767142D01*
X147661904Y-120814761D01*
X147566666Y-120862380D01*
X147376190Y-120862380D01*
X147280952Y-120814761D01*
X147233333Y-120767142D01*
X147185714Y-120671904D01*
X147185714Y-120433809D01*
X147233333Y-120338571D01*
X147280952Y-120290952D01*
X147376190Y-120243333D01*
X147566666Y-120243333D01*
X147661904Y-120290952D01*
X147709523Y-120338571D01*
X147757142Y-120433809D01*
X148664285Y-123146666D02*
X148188095Y-123146666D01*
X148759523Y-123432380D02*
X148426190Y-122432380D01*
X148092857Y-123432380D01*
X147854761Y-122432380D02*
X147188095Y-122432380D01*
X147616666Y-123432380D01*
X163662380Y-128432380D02*
X163995714Y-127956190D01*
X164233809Y-128432380D02*
X164233809Y-127432380D01*
X163852857Y-127432380D01*
X163757619Y-127480000D01*
X163710000Y-127527619D01*
X163662380Y-127622857D01*
X163662380Y-127765714D01*
X163710000Y-127860952D01*
X163757619Y-127908571D01*
X163852857Y-127956190D01*
X164233809Y-127956190D01*
X163233809Y-127908571D02*
X162900476Y-127908571D01*
X162757619Y-128432380D02*
X163233809Y-128432380D01*
X163233809Y-127432380D01*
X162757619Y-127432380D01*
X162376666Y-128384761D02*
X162233809Y-128432380D01*
X161995714Y-128432380D01*
X161900476Y-128384761D01*
X161852857Y-128337142D01*
X161805238Y-128241904D01*
X161805238Y-128146666D01*
X161852857Y-128051428D01*
X161900476Y-128003809D01*
X161995714Y-127956190D01*
X162186190Y-127908571D01*
X162281428Y-127860952D01*
X162329047Y-127813333D01*
X162376666Y-127718095D01*
X162376666Y-127622857D01*
X162329047Y-127527619D01*
X162281428Y-127480000D01*
X162186190Y-127432380D01*
X161948095Y-127432380D01*
X161805238Y-127480000D01*
X161376666Y-127908571D02*
X161043333Y-127908571D01*
X160900476Y-128432380D02*
X161376666Y-128432380D01*
X161376666Y-127432380D01*
X160900476Y-127432380D01*
X160614761Y-127432380D02*
X160043333Y-127432380D01*
X160329047Y-128432380D02*
X160329047Y-127432380D01*
X148252380Y-128482380D02*
X148585714Y-128006190D01*
X148823809Y-128482380D02*
X148823809Y-127482380D01*
X148442857Y-127482380D01*
X148347619Y-127530000D01*
X148300000Y-127577619D01*
X148252380Y-127672857D01*
X148252380Y-127815714D01*
X148300000Y-127910952D01*
X148347619Y-127958571D01*
X148442857Y-128006190D01*
X148823809Y-128006190D01*
X147823809Y-127958571D02*
X147490476Y-127958571D01*
X147347619Y-128482380D02*
X147823809Y-128482380D01*
X147823809Y-127482380D01*
X147347619Y-127482380D01*
X146966666Y-128434761D02*
X146823809Y-128482380D01*
X146585714Y-128482380D01*
X146490476Y-128434761D01*
X146442857Y-128387142D01*
X146395238Y-128291904D01*
X146395238Y-128196666D01*
X146442857Y-128101428D01*
X146490476Y-128053809D01*
X146585714Y-128006190D01*
X146776190Y-127958571D01*
X146871428Y-127910952D01*
X146919047Y-127863333D01*
X146966666Y-127768095D01*
X146966666Y-127672857D01*
X146919047Y-127577619D01*
X146871428Y-127530000D01*
X146776190Y-127482380D01*
X146538095Y-127482380D01*
X146395238Y-127530000D01*
X145966666Y-127958571D02*
X145633333Y-127958571D01*
X145490476Y-128482380D02*
X145966666Y-128482380D01*
X145966666Y-127482380D01*
X145490476Y-127482380D01*
X145204761Y-127482380D02*
X144633333Y-127482380D01*
X144919047Y-128482380D02*
X144919047Y-127482380D01*
X148665238Y-132612380D02*
X148331904Y-133612380D01*
X147998571Y-132612380D01*
X147665238Y-133612380D02*
X147665238Y-132612380D01*
X147189047Y-133612380D02*
X147189047Y-132612380D01*
X146617619Y-133612380D01*
X146617619Y-132612380D01*
X163581904Y-125080000D02*
X163677142Y-125032380D01*
X163820000Y-125032380D01*
X163962857Y-125080000D01*
X164058095Y-125175238D01*
X164105714Y-125270476D01*
X164153333Y-125460952D01*
X164153333Y-125603809D01*
X164105714Y-125794285D01*
X164058095Y-125889523D01*
X163962857Y-125984761D01*
X163820000Y-126032380D01*
X163724761Y-126032380D01*
X163581904Y-125984761D01*
X163534285Y-125937142D01*
X163534285Y-125603809D01*
X163724761Y-125603809D01*
X163105714Y-126032380D02*
X163105714Y-125032380D01*
X162534285Y-126032380D01*
X162534285Y-125032380D01*
X162058095Y-126032380D02*
X162058095Y-125032380D01*
X161820000Y-125032380D01*
X161677142Y-125080000D01*
X161581904Y-125175238D01*
X161534285Y-125270476D01*
X161486666Y-125460952D01*
X161486666Y-125603809D01*
X161534285Y-125794285D01*
X161581904Y-125889523D01*
X161677142Y-125984761D01*
X161820000Y-126032380D01*
X162058095Y-126032380D01*
X149138095Y-99662380D02*
X148519047Y-99662380D01*
X148852380Y-100043333D01*
X148709523Y-100043333D01*
X148614285Y-100090952D01*
X148566666Y-100138571D01*
X148519047Y-100233809D01*
X148519047Y-100471904D01*
X148566666Y-100567142D01*
X148614285Y-100614761D01*
X148709523Y-100662380D01*
X148995238Y-100662380D01*
X149090476Y-100614761D01*
X149138095Y-100567142D01*
X148233333Y-99662380D02*
X147900000Y-100662380D01*
X147566666Y-99662380D01*
X147328571Y-99662380D02*
X146709523Y-99662380D01*
X147042857Y-100043333D01*
X146900000Y-100043333D01*
X146804761Y-100090952D01*
X146757142Y-100138571D01*
X146709523Y-100233809D01*
X146709523Y-100471904D01*
X146757142Y-100567142D01*
X146804761Y-100614761D01*
X146900000Y-100662380D01*
X147185714Y-100662380D01*
X147280952Y-100614761D01*
X147328571Y-100567142D01*
X148825714Y-125691428D02*
X148063809Y-125691428D01*
X148444761Y-126072380D02*
X148444761Y-125310476D01*
X147111428Y-125072380D02*
X147587619Y-125072380D01*
X147635238Y-125548571D01*
X147587619Y-125500952D01*
X147492380Y-125453333D01*
X147254285Y-125453333D01*
X147159047Y-125500952D01*
X147111428Y-125548571D01*
X147063809Y-125643809D01*
X147063809Y-125881904D01*
X147111428Y-125977142D01*
X147159047Y-126024761D01*
X147254285Y-126072380D01*
X147492380Y-126072380D01*
X147587619Y-126024761D01*
X147635238Y-125977142D01*
X146778095Y-125072380D02*
X146444761Y-126072380D01*
X146111428Y-125072380D01*
X148221904Y-130140000D02*
X148317142Y-130092380D01*
X148460000Y-130092380D01*
X148602857Y-130140000D01*
X148698095Y-130235238D01*
X148745714Y-130330476D01*
X148793333Y-130520952D01*
X148793333Y-130663809D01*
X148745714Y-130854285D01*
X148698095Y-130949523D01*
X148602857Y-131044761D01*
X148460000Y-131092380D01*
X148364761Y-131092380D01*
X148221904Y-131044761D01*
X148174285Y-130997142D01*
X148174285Y-130663809D01*
X148364761Y-130663809D01*
X147745714Y-131092380D02*
X147745714Y-130092380D01*
X147174285Y-131092380D01*
X147174285Y-130092380D01*
X146698095Y-131092380D02*
X146698095Y-130092380D01*
X146460000Y-130092380D01*
X146317142Y-130140000D01*
X146221904Y-130235238D01*
X146174285Y-130330476D01*
X146126666Y-130520952D01*
X146126666Y-130663809D01*
X146174285Y-130854285D01*
X146221904Y-130949523D01*
X146317142Y-131044761D01*
X146460000Y-131092380D01*
X146698095Y-131092380D01*
X158716190Y-133602380D02*
X158716190Y-132602380D01*
X158049523Y-132602380D02*
X157859047Y-132602380D01*
X157763809Y-132650000D01*
X157668571Y-132745238D01*
X157620952Y-132935714D01*
X157620952Y-133269047D01*
X157668571Y-133459523D01*
X157763809Y-133554761D01*
X157859047Y-133602380D01*
X158049523Y-133602380D01*
X158144761Y-133554761D01*
X158240000Y-133459523D01*
X158287619Y-133269047D01*
X158287619Y-132935714D01*
X158240000Y-132745238D01*
X158144761Y-132650000D01*
X158049523Y-132602380D01*
X157240000Y-132697619D02*
X157192380Y-132650000D01*
X157097142Y-132602380D01*
X156859047Y-132602380D01*
X156763809Y-132650000D01*
X156716190Y-132697619D01*
X156668571Y-132792857D01*
X156668571Y-132888095D01*
X156716190Y-133030952D01*
X157287619Y-133602380D01*
X156668571Y-133602380D01*
X155716190Y-133602380D02*
X156287619Y-133602380D01*
X156001904Y-133602380D02*
X156001904Y-132602380D01*
X156097142Y-132745238D01*
X156192380Y-132840476D01*
X156287619Y-132888095D01*
X158736190Y-131132380D02*
X158736190Y-130132380D01*
X158069523Y-130132380D02*
X157879047Y-130132380D01*
X157783809Y-130180000D01*
X157688571Y-130275238D01*
X157640952Y-130465714D01*
X157640952Y-130799047D01*
X157688571Y-130989523D01*
X157783809Y-131084761D01*
X157879047Y-131132380D01*
X158069523Y-131132380D01*
X158164761Y-131084761D01*
X158260000Y-130989523D01*
X158307619Y-130799047D01*
X158307619Y-130465714D01*
X158260000Y-130275238D01*
X158164761Y-130180000D01*
X158069523Y-130132380D01*
X157260000Y-130227619D02*
X157212380Y-130180000D01*
X157117142Y-130132380D01*
X156879047Y-130132380D01*
X156783809Y-130180000D01*
X156736190Y-130227619D01*
X156688571Y-130322857D01*
X156688571Y-130418095D01*
X156736190Y-130560952D01*
X157307619Y-131132380D01*
X156688571Y-131132380D01*
X156307619Y-130227619D02*
X156260000Y-130180000D01*
X156164761Y-130132380D01*
X155926666Y-130132380D01*
X155831428Y-130180000D01*
X155783809Y-130227619D01*
X155736190Y-130322857D01*
X155736190Y-130418095D01*
X155783809Y-130560952D01*
X156355238Y-131132380D01*
X155736190Y-131132380D01*
X158816190Y-128532380D02*
X158816190Y-127532380D01*
X158149523Y-127532380D02*
X157959047Y-127532380D01*
X157863809Y-127580000D01*
X157768571Y-127675238D01*
X157720952Y-127865714D01*
X157720952Y-128199047D01*
X157768571Y-128389523D01*
X157863809Y-128484761D01*
X157959047Y-128532380D01*
X158149523Y-128532380D01*
X158244761Y-128484761D01*
X158340000Y-128389523D01*
X158387619Y-128199047D01*
X158387619Y-127865714D01*
X158340000Y-127675238D01*
X158244761Y-127580000D01*
X158149523Y-127532380D01*
X156768571Y-128532380D02*
X157340000Y-128532380D01*
X157054285Y-128532380D02*
X157054285Y-127532380D01*
X157149523Y-127675238D01*
X157244761Y-127770476D01*
X157340000Y-127818095D01*
X156292380Y-128532380D02*
X156101904Y-128532380D01*
X156006666Y-128484761D01*
X155959047Y-128437142D01*
X155863809Y-128294285D01*
X155816190Y-128103809D01*
X155816190Y-127722857D01*
X155863809Y-127627619D01*
X155911428Y-127580000D01*
X156006666Y-127532380D01*
X156197142Y-127532380D01*
X156292380Y-127580000D01*
X156340000Y-127627619D01*
X156387619Y-127722857D01*
X156387619Y-127960952D01*
X156340000Y-128056190D01*
X156292380Y-128103809D01*
X156197142Y-128151428D01*
X156006666Y-128151428D01*
X155911428Y-128103809D01*
X155863809Y-128056190D01*
X155816190Y-127960952D01*
X158816190Y-125882380D02*
X158816190Y-124882380D01*
X158149523Y-124882380D02*
X157959047Y-124882380D01*
X157863809Y-124930000D01*
X157768571Y-125025238D01*
X157720952Y-125215714D01*
X157720952Y-125549047D01*
X157768571Y-125739523D01*
X157863809Y-125834761D01*
X157959047Y-125882380D01*
X158149523Y-125882380D01*
X158244761Y-125834761D01*
X158340000Y-125739523D01*
X158387619Y-125549047D01*
X158387619Y-125215714D01*
X158340000Y-125025238D01*
X158244761Y-124930000D01*
X158149523Y-124882380D01*
X157340000Y-124977619D02*
X157292380Y-124930000D01*
X157197142Y-124882380D01*
X156959047Y-124882380D01*
X156863809Y-124930000D01*
X156816190Y-124977619D01*
X156768571Y-125072857D01*
X156768571Y-125168095D01*
X156816190Y-125310952D01*
X157387619Y-125882380D01*
X156768571Y-125882380D01*
X156435238Y-124882380D02*
X155816190Y-124882380D01*
X156149523Y-125263333D01*
X156006666Y-125263333D01*
X155911428Y-125310952D01*
X155863809Y-125358571D01*
X155816190Y-125453809D01*
X155816190Y-125691904D01*
X155863809Y-125787142D01*
X155911428Y-125834761D01*
X156006666Y-125882380D01*
X156292380Y-125882380D01*
X156387619Y-125834761D01*
X156435238Y-125787142D01*
X158816190Y-123452380D02*
X158816190Y-122452380D01*
X158149523Y-122452380D02*
X157959047Y-122452380D01*
X157863809Y-122500000D01*
X157768571Y-122595238D01*
X157720952Y-122785714D01*
X157720952Y-123119047D01*
X157768571Y-123309523D01*
X157863809Y-123404761D01*
X157959047Y-123452380D01*
X158149523Y-123452380D01*
X158244761Y-123404761D01*
X158340000Y-123309523D01*
X158387619Y-123119047D01*
X158387619Y-122785714D01*
X158340000Y-122595238D01*
X158244761Y-122500000D01*
X158149523Y-122452380D01*
X156768571Y-123452380D02*
X157340000Y-123452380D01*
X157054285Y-123452380D02*
X157054285Y-122452380D01*
X157149523Y-122595238D01*
X157244761Y-122690476D01*
X157340000Y-122738095D01*
X156197142Y-122880952D02*
X156292380Y-122833333D01*
X156340000Y-122785714D01*
X156387619Y-122690476D01*
X156387619Y-122642857D01*
X156340000Y-122547619D01*
X156292380Y-122500000D01*
X156197142Y-122452380D01*
X156006666Y-122452380D01*
X155911428Y-122500000D01*
X155863809Y-122547619D01*
X155816190Y-122642857D01*
X155816190Y-122690476D01*
X155863809Y-122785714D01*
X155911428Y-122833333D01*
X156006666Y-122880952D01*
X156197142Y-122880952D01*
X156292380Y-122928571D01*
X156340000Y-122976190D01*
X156387619Y-123071428D01*
X156387619Y-123261904D01*
X156340000Y-123357142D01*
X156292380Y-123404761D01*
X156197142Y-123452380D01*
X156006666Y-123452380D01*
X155911428Y-123404761D01*
X155863809Y-123357142D01*
X155816190Y-123261904D01*
X155816190Y-123071428D01*
X155863809Y-122976190D01*
X155911428Y-122928571D01*
X156006666Y-122880952D01*
X157840000Y-120892380D02*
X157840000Y-119892380D01*
X157173333Y-119892380D02*
X156982857Y-119892380D01*
X156887619Y-119940000D01*
X156792380Y-120035238D01*
X156744761Y-120225714D01*
X156744761Y-120559047D01*
X156792380Y-120749523D01*
X156887619Y-120844761D01*
X156982857Y-120892380D01*
X157173333Y-120892380D01*
X157268571Y-120844761D01*
X157363809Y-120749523D01*
X157411428Y-120559047D01*
X157411428Y-120225714D01*
X157363809Y-120035238D01*
X157268571Y-119940000D01*
X157173333Y-119892380D01*
X155840000Y-119892380D02*
X156316190Y-119892380D01*
X156363809Y-120368571D01*
X156316190Y-120320952D01*
X156220952Y-120273333D01*
X155982857Y-120273333D01*
X155887619Y-120320952D01*
X155840000Y-120368571D01*
X155792380Y-120463809D01*
X155792380Y-120701904D01*
X155840000Y-120797142D01*
X155887619Y-120844761D01*
X155982857Y-120892380D01*
X156220952Y-120892380D01*
X156316190Y-120844761D01*
X156363809Y-120797142D01*
X158806190Y-118362380D02*
X158806190Y-117362380D01*
X158139523Y-117362380D02*
X157949047Y-117362380D01*
X157853809Y-117410000D01*
X157758571Y-117505238D01*
X157710952Y-117695714D01*
X157710952Y-118029047D01*
X157758571Y-118219523D01*
X157853809Y-118314761D01*
X157949047Y-118362380D01*
X158139523Y-118362380D01*
X158234761Y-118314761D01*
X158330000Y-118219523D01*
X158377619Y-118029047D01*
X158377619Y-117695714D01*
X158330000Y-117505238D01*
X158234761Y-117410000D01*
X158139523Y-117362380D01*
X156758571Y-118362380D02*
X157330000Y-118362380D01*
X157044285Y-118362380D02*
X157044285Y-117362380D01*
X157139523Y-117505238D01*
X157234761Y-117600476D01*
X157330000Y-117648095D01*
X156139523Y-117362380D02*
X156044285Y-117362380D01*
X155949047Y-117410000D01*
X155901428Y-117457619D01*
X155853809Y-117552857D01*
X155806190Y-117743333D01*
X155806190Y-117981428D01*
X155853809Y-118171904D01*
X155901428Y-118267142D01*
X155949047Y-118314761D01*
X156044285Y-118362380D01*
X156139523Y-118362380D01*
X156234761Y-118314761D01*
X156282380Y-118267142D01*
X156330000Y-118171904D01*
X156377619Y-117981428D01*
X156377619Y-117743333D01*
X156330000Y-117552857D01*
X156282380Y-117457619D01*
X156234761Y-117410000D01*
X156139523Y-117362380D01*
X157820000Y-115812380D02*
X157820000Y-114812380D01*
X157153333Y-114812380D02*
X156962857Y-114812380D01*
X156867619Y-114860000D01*
X156772380Y-114955238D01*
X156724761Y-115145714D01*
X156724761Y-115479047D01*
X156772380Y-115669523D01*
X156867619Y-115764761D01*
X156962857Y-115812380D01*
X157153333Y-115812380D01*
X157248571Y-115764761D01*
X157343809Y-115669523D01*
X157391428Y-115479047D01*
X157391428Y-115145714D01*
X157343809Y-114955238D01*
X157248571Y-114860000D01*
X157153333Y-114812380D01*
X156248571Y-115812380D02*
X156058095Y-115812380D01*
X155962857Y-115764761D01*
X155915238Y-115717142D01*
X155820000Y-115574285D01*
X155772380Y-115383809D01*
X155772380Y-115002857D01*
X155820000Y-114907619D01*
X155867619Y-114860000D01*
X155962857Y-114812380D01*
X156153333Y-114812380D01*
X156248571Y-114860000D01*
X156296190Y-114907619D01*
X156343809Y-115002857D01*
X156343809Y-115240952D01*
X156296190Y-115336190D01*
X156248571Y-115383809D01*
X156153333Y-115431428D01*
X155962857Y-115431428D01*
X155867619Y-115383809D01*
X155820000Y-115336190D01*
X155772380Y-115240952D01*
X158592857Y-113212380D02*
X158926190Y-112736190D01*
X159164285Y-113212380D02*
X159164285Y-112212380D01*
X158783333Y-112212380D01*
X158688095Y-112260000D01*
X158640476Y-112307619D01*
X158592857Y-112402857D01*
X158592857Y-112545714D01*
X158640476Y-112640952D01*
X158688095Y-112688571D01*
X158783333Y-112736190D01*
X159164285Y-112736190D01*
X158259523Y-112212380D02*
X157592857Y-113212380D01*
X157592857Y-112212380D02*
X158259523Y-113212380D01*
X157211904Y-113212380D02*
X157211904Y-112212380D01*
X156973809Y-112212380D01*
X156830952Y-112260000D01*
X156735714Y-112355238D01*
X156688095Y-112450476D01*
X156640476Y-112640952D01*
X156640476Y-112783809D01*
X156688095Y-112974285D01*
X156735714Y-113069523D01*
X156830952Y-113164761D01*
X156973809Y-113212380D01*
X157211904Y-113212380D01*
X156021428Y-112212380D02*
X155926190Y-112212380D01*
X155830952Y-112260000D01*
X155783333Y-112307619D01*
X155735714Y-112402857D01*
X155688095Y-112593333D01*
X155688095Y-112831428D01*
X155735714Y-113021904D01*
X155783333Y-113117142D01*
X155830952Y-113164761D01*
X155926190Y-113212380D01*
X156021428Y-113212380D01*
X156116666Y-113164761D01*
X156164285Y-113117142D01*
X156211904Y-113021904D01*
X156259523Y-112831428D01*
X156259523Y-112593333D01*
X156211904Y-112402857D01*
X156164285Y-112307619D01*
X156116666Y-112260000D01*
X156021428Y-112212380D01*
X159068095Y-109712380D02*
X158496666Y-109712380D01*
X158782380Y-110712380D02*
X158782380Y-109712380D01*
X158258571Y-109712380D02*
X157591904Y-110712380D01*
X157591904Y-109712380D02*
X158258571Y-110712380D01*
X157210952Y-110712380D02*
X157210952Y-109712380D01*
X156972857Y-109712380D01*
X156830000Y-109760000D01*
X156734761Y-109855238D01*
X156687142Y-109950476D01*
X156639523Y-110140952D01*
X156639523Y-110283809D01*
X156687142Y-110474285D01*
X156734761Y-110569523D01*
X156830000Y-110664761D01*
X156972857Y-110712380D01*
X157210952Y-110712380D01*
X156020476Y-109712380D02*
X155925238Y-109712380D01*
X155830000Y-109760000D01*
X155782380Y-109807619D01*
X155734761Y-109902857D01*
X155687142Y-110093333D01*
X155687142Y-110331428D01*
X155734761Y-110521904D01*
X155782380Y-110617142D01*
X155830000Y-110664761D01*
X155925238Y-110712380D01*
X156020476Y-110712380D01*
X156115714Y-110664761D01*
X156163333Y-110617142D01*
X156210952Y-110521904D01*
X156258571Y-110331428D01*
X156258571Y-110093333D01*
X156210952Y-109902857D01*
X156163333Y-109807619D01*
X156115714Y-109760000D01*
X156020476Y-109712380D01*
X158806190Y-108112380D02*
X158806190Y-107112380D01*
X158139523Y-107112380D02*
X157949047Y-107112380D01*
X157853809Y-107160000D01*
X157758571Y-107255238D01*
X157710952Y-107445714D01*
X157710952Y-107779047D01*
X157758571Y-107969523D01*
X157853809Y-108064761D01*
X157949047Y-108112380D01*
X158139523Y-108112380D01*
X158234761Y-108064761D01*
X158330000Y-107969523D01*
X158377619Y-107779047D01*
X158377619Y-107445714D01*
X158330000Y-107255238D01*
X158234761Y-107160000D01*
X158139523Y-107112380D01*
X157377619Y-107112380D02*
X156758571Y-107112380D01*
X157091904Y-107493333D01*
X156949047Y-107493333D01*
X156853809Y-107540952D01*
X156806190Y-107588571D01*
X156758571Y-107683809D01*
X156758571Y-107921904D01*
X156806190Y-108017142D01*
X156853809Y-108064761D01*
X156949047Y-108112380D01*
X157234761Y-108112380D01*
X157330000Y-108064761D01*
X157377619Y-108017142D01*
X155853809Y-107112380D02*
X156330000Y-107112380D01*
X156377619Y-107588571D01*
X156330000Y-107540952D01*
X156234761Y-107493333D01*
X155996666Y-107493333D01*
X155901428Y-107540952D01*
X155853809Y-107588571D01*
X155806190Y-107683809D01*
X155806190Y-107921904D01*
X155853809Y-108017142D01*
X155901428Y-108064761D01*
X155996666Y-108112380D01*
X156234761Y-108112380D01*
X156330000Y-108064761D01*
X156377619Y-108017142D01*
X158816190Y-105602380D02*
X158816190Y-104602380D01*
X158149523Y-104602380D02*
X157959047Y-104602380D01*
X157863809Y-104650000D01*
X157768571Y-104745238D01*
X157720952Y-104935714D01*
X157720952Y-105269047D01*
X157768571Y-105459523D01*
X157863809Y-105554761D01*
X157959047Y-105602380D01*
X158149523Y-105602380D01*
X158244761Y-105554761D01*
X158340000Y-105459523D01*
X158387619Y-105269047D01*
X158387619Y-104935714D01*
X158340000Y-104745238D01*
X158244761Y-104650000D01*
X158149523Y-104602380D01*
X157387619Y-104602380D02*
X156768571Y-104602380D01*
X157101904Y-104983333D01*
X156959047Y-104983333D01*
X156863809Y-105030952D01*
X156816190Y-105078571D01*
X156768571Y-105173809D01*
X156768571Y-105411904D01*
X156816190Y-105507142D01*
X156863809Y-105554761D01*
X156959047Y-105602380D01*
X157244761Y-105602380D01*
X157340000Y-105554761D01*
X157387619Y-105507142D01*
X155911428Y-104935714D02*
X155911428Y-105602380D01*
X156149523Y-104554761D02*
X156387619Y-105269047D01*
X155768571Y-105269047D01*
X158816190Y-103122380D02*
X158816190Y-102122380D01*
X158149523Y-102122380D02*
X157959047Y-102122380D01*
X157863809Y-102170000D01*
X157768571Y-102265238D01*
X157720952Y-102455714D01*
X157720952Y-102789047D01*
X157768571Y-102979523D01*
X157863809Y-103074761D01*
X157959047Y-103122380D01*
X158149523Y-103122380D01*
X158244761Y-103074761D01*
X158340000Y-102979523D01*
X158387619Y-102789047D01*
X158387619Y-102455714D01*
X158340000Y-102265238D01*
X158244761Y-102170000D01*
X158149523Y-102122380D01*
X157387619Y-102122380D02*
X156768571Y-102122380D01*
X157101904Y-102503333D01*
X156959047Y-102503333D01*
X156863809Y-102550952D01*
X156816190Y-102598571D01*
X156768571Y-102693809D01*
X156768571Y-102931904D01*
X156816190Y-103027142D01*
X156863809Y-103074761D01*
X156959047Y-103122380D01*
X157244761Y-103122380D01*
X157340000Y-103074761D01*
X157387619Y-103027142D01*
X156197142Y-102550952D02*
X156292380Y-102503333D01*
X156340000Y-102455714D01*
X156387619Y-102360476D01*
X156387619Y-102312857D01*
X156340000Y-102217619D01*
X156292380Y-102170000D01*
X156197142Y-102122380D01*
X156006666Y-102122380D01*
X155911428Y-102170000D01*
X155863809Y-102217619D01*
X155816190Y-102312857D01*
X155816190Y-102360476D01*
X155863809Y-102455714D01*
X155911428Y-102503333D01*
X156006666Y-102550952D01*
X156197142Y-102550952D01*
X156292380Y-102598571D01*
X156340000Y-102646190D01*
X156387619Y-102741428D01*
X156387619Y-102931904D01*
X156340000Y-103027142D01*
X156292380Y-103074761D01*
X156197142Y-103122380D01*
X156006666Y-103122380D01*
X155911428Y-103074761D01*
X155863809Y-103027142D01*
X155816190Y-102931904D01*
X155816190Y-102741428D01*
X155863809Y-102646190D01*
X155911428Y-102598571D01*
X156006666Y-102550952D01*
X158816190Y-100552380D02*
X158816190Y-99552380D01*
X158149523Y-99552380D02*
X157959047Y-99552380D01*
X157863809Y-99600000D01*
X157768571Y-99695238D01*
X157720952Y-99885714D01*
X157720952Y-100219047D01*
X157768571Y-100409523D01*
X157863809Y-100504761D01*
X157959047Y-100552380D01*
X158149523Y-100552380D01*
X158244761Y-100504761D01*
X158340000Y-100409523D01*
X158387619Y-100219047D01*
X158387619Y-99885714D01*
X158340000Y-99695238D01*
X158244761Y-99600000D01*
X158149523Y-99552380D01*
X157387619Y-99552380D02*
X156768571Y-99552380D01*
X157101904Y-99933333D01*
X156959047Y-99933333D01*
X156863809Y-99980952D01*
X156816190Y-100028571D01*
X156768571Y-100123809D01*
X156768571Y-100361904D01*
X156816190Y-100457142D01*
X156863809Y-100504761D01*
X156959047Y-100552380D01*
X157244761Y-100552380D01*
X157340000Y-100504761D01*
X157387619Y-100457142D01*
X156435238Y-99552380D02*
X155768571Y-99552380D01*
X156197142Y-100552380D01*
X157338095Y-97518571D02*
X157004761Y-97518571D01*
X156861904Y-98042380D02*
X157338095Y-98042380D01*
X157338095Y-97042380D01*
X156861904Y-97042380D01*
X156433333Y-98042380D02*
X156433333Y-97042380D01*
X155861904Y-98042380D01*
X155861904Y-97042380D01*
X157761904Y-94340000D02*
X157857142Y-94292380D01*
X158000000Y-94292380D01*
X158142857Y-94340000D01*
X158238095Y-94435238D01*
X158285714Y-94530476D01*
X158333333Y-94720952D01*
X158333333Y-94863809D01*
X158285714Y-95054285D01*
X158238095Y-95149523D01*
X158142857Y-95244761D01*
X158000000Y-95292380D01*
X157904761Y-95292380D01*
X157761904Y-95244761D01*
X157714285Y-95197142D01*
X157714285Y-94863809D01*
X157904761Y-94863809D01*
X157285714Y-95292380D02*
X157285714Y-94292380D01*
X156714285Y-95292380D01*
X156714285Y-94292380D01*
X156238095Y-95292380D02*
X156238095Y-94292380D01*
X156000000Y-94292380D01*
X155857142Y-94340000D01*
X155761904Y-94435238D01*
X155714285Y-94530476D01*
X155666666Y-94720952D01*
X155666666Y-94863809D01*
X155714285Y-95054285D01*
X155761904Y-95149523D01*
X155857142Y-95244761D01*
X156000000Y-95292380D01*
X156238095Y-95292380D01*
X179170952Y-133504761D02*
X179028095Y-133552380D01*
X178790000Y-133552380D01*
X178694761Y-133504761D01*
X178647142Y-133457142D01*
X178599523Y-133361904D01*
X178599523Y-133266666D01*
X178647142Y-133171428D01*
X178694761Y-133123809D01*
X178790000Y-133076190D01*
X178980476Y-133028571D01*
X179075714Y-132980952D01*
X179123333Y-132933333D01*
X179170952Y-132838095D01*
X179170952Y-132742857D01*
X179123333Y-132647619D01*
X179075714Y-132600000D01*
X178980476Y-132552380D01*
X178742380Y-132552380D01*
X178599523Y-132600000D01*
X177790000Y-133504761D02*
X177885238Y-133552380D01*
X178075714Y-133552380D01*
X178170952Y-133504761D01*
X178218571Y-133409523D01*
X178218571Y-133028571D01*
X178170952Y-132933333D01*
X178075714Y-132885714D01*
X177885238Y-132885714D01*
X177790000Y-132933333D01*
X177742380Y-133028571D01*
X177742380Y-133123809D01*
X178218571Y-133219047D01*
X177313809Y-132885714D02*
X177313809Y-133552380D01*
X177313809Y-132980952D02*
X177266190Y-132933333D01*
X177170952Y-132885714D01*
X177028095Y-132885714D01*
X176932857Y-132933333D01*
X176885238Y-133028571D01*
X176885238Y-133552380D01*
X176456666Y-133504761D02*
X176361428Y-133552380D01*
X176170952Y-133552380D01*
X176075714Y-133504761D01*
X176028095Y-133409523D01*
X176028095Y-133361904D01*
X176075714Y-133266666D01*
X176170952Y-133219047D01*
X176313809Y-133219047D01*
X176409047Y-133171428D01*
X176456666Y-133076190D01*
X176456666Y-133028571D01*
X176409047Y-132933333D01*
X176313809Y-132885714D01*
X176170952Y-132885714D01*
X176075714Y-132933333D01*
X175837619Y-133647619D02*
X175075714Y-133647619D01*
X174980476Y-132552380D02*
X174647142Y-133552380D01*
X174313809Y-132552380D01*
X173980476Y-133552380D02*
X173980476Y-132552380D01*
X173599523Y-132552380D01*
X173504285Y-132600000D01*
X173456666Y-132647619D01*
X173409047Y-132742857D01*
X173409047Y-132885714D01*
X173456666Y-132980952D01*
X173504285Y-133028571D01*
X173599523Y-133076190D01*
X173980476Y-133076190D01*
X179154761Y-131164761D02*
X179011904Y-131212380D01*
X178773809Y-131212380D01*
X178678571Y-131164761D01*
X178630952Y-131117142D01*
X178583333Y-131021904D01*
X178583333Y-130926666D01*
X178630952Y-130831428D01*
X178678571Y-130783809D01*
X178773809Y-130736190D01*
X178964285Y-130688571D01*
X179059523Y-130640952D01*
X179107142Y-130593333D01*
X179154761Y-130498095D01*
X179154761Y-130402857D01*
X179107142Y-130307619D01*
X179059523Y-130260000D01*
X178964285Y-130212380D01*
X178726190Y-130212380D01*
X178583333Y-130260000D01*
X177773809Y-131164761D02*
X177869047Y-131212380D01*
X178059523Y-131212380D01*
X178154761Y-131164761D01*
X178202380Y-131069523D01*
X178202380Y-130688571D01*
X178154761Y-130593333D01*
X178059523Y-130545714D01*
X177869047Y-130545714D01*
X177773809Y-130593333D01*
X177726190Y-130688571D01*
X177726190Y-130783809D01*
X178202380Y-130879047D01*
X177297619Y-130545714D02*
X177297619Y-131212380D01*
X177297619Y-130640952D02*
X177250000Y-130593333D01*
X177154761Y-130545714D01*
X177011904Y-130545714D01*
X176916666Y-130593333D01*
X176869047Y-130688571D01*
X176869047Y-131212380D01*
X176440476Y-131164761D02*
X176345238Y-131212380D01*
X176154761Y-131212380D01*
X176059523Y-131164761D01*
X176011904Y-131069523D01*
X176011904Y-131021904D01*
X176059523Y-130926666D01*
X176154761Y-130879047D01*
X176297619Y-130879047D01*
X176392857Y-130831428D01*
X176440476Y-130736190D01*
X176440476Y-130688571D01*
X176392857Y-130593333D01*
X176297619Y-130545714D01*
X176154761Y-130545714D01*
X176059523Y-130593333D01*
X175821428Y-131307619D02*
X175059523Y-131307619D01*
X174964285Y-130212380D02*
X174630952Y-131212380D01*
X174297619Y-130212380D01*
X173964285Y-131212380D02*
X173964285Y-130212380D01*
X173392857Y-131212380D01*
X173392857Y-130212380D01*
X174851904Y-127627619D02*
X174804285Y-127580000D01*
X174709047Y-127532380D01*
X174470952Y-127532380D01*
X174375714Y-127580000D01*
X174328095Y-127627619D01*
X174280476Y-127722857D01*
X174280476Y-127818095D01*
X174328095Y-127960952D01*
X174899523Y-128532380D01*
X174280476Y-128532380D01*
X173375714Y-127532380D02*
X173851904Y-127532380D01*
X173899523Y-128008571D01*
X173851904Y-127960952D01*
X173756666Y-127913333D01*
X173518571Y-127913333D01*
X173423333Y-127960952D01*
X173375714Y-128008571D01*
X173328095Y-128103809D01*
X173328095Y-128341904D01*
X173375714Y-128437142D01*
X173423333Y-128484761D01*
X173518571Y-128532380D01*
X173756666Y-128532380D01*
X173851904Y-128484761D01*
X173899523Y-128437142D01*
X174771904Y-125037619D02*
X174724285Y-124990000D01*
X174629047Y-124942380D01*
X174390952Y-124942380D01*
X174295714Y-124990000D01*
X174248095Y-125037619D01*
X174200476Y-125132857D01*
X174200476Y-125228095D01*
X174248095Y-125370952D01*
X174819523Y-125942380D01*
X174200476Y-125942380D01*
X173343333Y-124942380D02*
X173533809Y-124942380D01*
X173629047Y-124990000D01*
X173676666Y-125037619D01*
X173771904Y-125180476D01*
X173819523Y-125370952D01*
X173819523Y-125751904D01*
X173771904Y-125847142D01*
X173724285Y-125894761D01*
X173629047Y-125942380D01*
X173438571Y-125942380D01*
X173343333Y-125894761D01*
X173295714Y-125847142D01*
X173248095Y-125751904D01*
X173248095Y-125513809D01*
X173295714Y-125418571D01*
X173343333Y-125370952D01*
X173438571Y-125323333D01*
X173629047Y-125323333D01*
X173724285Y-125370952D01*
X173771904Y-125418571D01*
X173819523Y-125513809D01*
X176376190Y-123372380D02*
X176376190Y-122372380D01*
X175709523Y-122372380D02*
X175519047Y-122372380D01*
X175423809Y-122420000D01*
X175328571Y-122515238D01*
X175280952Y-122705714D01*
X175280952Y-123039047D01*
X175328571Y-123229523D01*
X175423809Y-123324761D01*
X175519047Y-123372380D01*
X175709523Y-123372380D01*
X175804761Y-123324761D01*
X175900000Y-123229523D01*
X175947619Y-123039047D01*
X175947619Y-122705714D01*
X175900000Y-122515238D01*
X175804761Y-122420000D01*
X175709523Y-122372380D01*
X174947619Y-122372380D02*
X174328571Y-122372380D01*
X174661904Y-122753333D01*
X174519047Y-122753333D01*
X174423809Y-122800952D01*
X174376190Y-122848571D01*
X174328571Y-122943809D01*
X174328571Y-123181904D01*
X174376190Y-123277142D01*
X174423809Y-123324761D01*
X174519047Y-123372380D01*
X174804761Y-123372380D01*
X174900000Y-123324761D01*
X174947619Y-123277142D01*
X173947619Y-122467619D02*
X173900000Y-122420000D01*
X173804761Y-122372380D01*
X173566666Y-122372380D01*
X173471428Y-122420000D01*
X173423809Y-122467619D01*
X173376190Y-122562857D01*
X173376190Y-122658095D01*
X173423809Y-122800952D01*
X173995238Y-123372380D01*
X173376190Y-123372380D01*
X176426190Y-120942380D02*
X176426190Y-119942380D01*
X175759523Y-119942380D02*
X175569047Y-119942380D01*
X175473809Y-119990000D01*
X175378571Y-120085238D01*
X175330952Y-120275714D01*
X175330952Y-120609047D01*
X175378571Y-120799523D01*
X175473809Y-120894761D01*
X175569047Y-120942380D01*
X175759523Y-120942380D01*
X175854761Y-120894761D01*
X175950000Y-120799523D01*
X175997619Y-120609047D01*
X175997619Y-120275714D01*
X175950000Y-120085238D01*
X175854761Y-119990000D01*
X175759523Y-119942380D01*
X174997619Y-119942380D02*
X174378571Y-119942380D01*
X174711904Y-120323333D01*
X174569047Y-120323333D01*
X174473809Y-120370952D01*
X174426190Y-120418571D01*
X174378571Y-120513809D01*
X174378571Y-120751904D01*
X174426190Y-120847142D01*
X174473809Y-120894761D01*
X174569047Y-120942380D01*
X174854761Y-120942380D01*
X174950000Y-120894761D01*
X174997619Y-120847142D01*
X174045238Y-119942380D02*
X173426190Y-119942380D01*
X173759523Y-120323333D01*
X173616666Y-120323333D01*
X173521428Y-120370952D01*
X173473809Y-120418571D01*
X173426190Y-120513809D01*
X173426190Y-120751904D01*
X173473809Y-120847142D01*
X173521428Y-120894761D01*
X173616666Y-120942380D01*
X173902380Y-120942380D01*
X173997619Y-120894761D01*
X174045238Y-120847142D01*
X176406190Y-118442380D02*
X176406190Y-117442380D01*
X175739523Y-117442380D02*
X175549047Y-117442380D01*
X175453809Y-117490000D01*
X175358571Y-117585238D01*
X175310952Y-117775714D01*
X175310952Y-118109047D01*
X175358571Y-118299523D01*
X175453809Y-118394761D01*
X175549047Y-118442380D01*
X175739523Y-118442380D01*
X175834761Y-118394761D01*
X175930000Y-118299523D01*
X175977619Y-118109047D01*
X175977619Y-117775714D01*
X175930000Y-117585238D01*
X175834761Y-117490000D01*
X175739523Y-117442380D01*
X174930000Y-117537619D02*
X174882380Y-117490000D01*
X174787142Y-117442380D01*
X174549047Y-117442380D01*
X174453809Y-117490000D01*
X174406190Y-117537619D01*
X174358571Y-117632857D01*
X174358571Y-117728095D01*
X174406190Y-117870952D01*
X174977619Y-118442380D01*
X174358571Y-118442380D01*
X174025238Y-117442380D02*
X173358571Y-117442380D01*
X173787142Y-118442380D01*
X176396190Y-115772380D02*
X176396190Y-114772380D01*
X175729523Y-114772380D02*
X175539047Y-114772380D01*
X175443809Y-114820000D01*
X175348571Y-114915238D01*
X175300952Y-115105714D01*
X175300952Y-115439047D01*
X175348571Y-115629523D01*
X175443809Y-115724761D01*
X175539047Y-115772380D01*
X175729523Y-115772380D01*
X175824761Y-115724761D01*
X175920000Y-115629523D01*
X175967619Y-115439047D01*
X175967619Y-115105714D01*
X175920000Y-114915238D01*
X175824761Y-114820000D01*
X175729523Y-114772380D01*
X174348571Y-115772380D02*
X174920000Y-115772380D01*
X174634285Y-115772380D02*
X174634285Y-114772380D01*
X174729523Y-114915238D01*
X174824761Y-115010476D01*
X174920000Y-115058095D01*
X173491428Y-115105714D02*
X173491428Y-115772380D01*
X173729523Y-114724761D02*
X173967619Y-115439047D01*
X173348571Y-115439047D01*
X176406190Y-113232380D02*
X176406190Y-112232380D01*
X175739523Y-112232380D02*
X175549047Y-112232380D01*
X175453809Y-112280000D01*
X175358571Y-112375238D01*
X175310952Y-112565714D01*
X175310952Y-112899047D01*
X175358571Y-113089523D01*
X175453809Y-113184761D01*
X175549047Y-113232380D01*
X175739523Y-113232380D01*
X175834761Y-113184761D01*
X175930000Y-113089523D01*
X175977619Y-112899047D01*
X175977619Y-112565714D01*
X175930000Y-112375238D01*
X175834761Y-112280000D01*
X175739523Y-112232380D01*
X174358571Y-113232380D02*
X174930000Y-113232380D01*
X174644285Y-113232380D02*
X174644285Y-112232380D01*
X174739523Y-112375238D01*
X174834761Y-112470476D01*
X174930000Y-112518095D01*
X173977619Y-112327619D02*
X173930000Y-112280000D01*
X173834761Y-112232380D01*
X173596666Y-112232380D01*
X173501428Y-112280000D01*
X173453809Y-112327619D01*
X173406190Y-112422857D01*
X173406190Y-112518095D01*
X173453809Y-112660952D01*
X174025238Y-113232380D01*
X173406190Y-113232380D01*
X176386190Y-110742380D02*
X176386190Y-109742380D01*
X175719523Y-109742380D02*
X175529047Y-109742380D01*
X175433809Y-109790000D01*
X175338571Y-109885238D01*
X175290952Y-110075714D01*
X175290952Y-110409047D01*
X175338571Y-110599523D01*
X175433809Y-110694761D01*
X175529047Y-110742380D01*
X175719523Y-110742380D01*
X175814761Y-110694761D01*
X175910000Y-110599523D01*
X175957619Y-110409047D01*
X175957619Y-110075714D01*
X175910000Y-109885238D01*
X175814761Y-109790000D01*
X175719523Y-109742380D01*
X174338571Y-110742380D02*
X174910000Y-110742380D01*
X174624285Y-110742380D02*
X174624285Y-109742380D01*
X174719523Y-109885238D01*
X174814761Y-109980476D01*
X174910000Y-110028095D01*
X174005238Y-109742380D02*
X173386190Y-109742380D01*
X173719523Y-110123333D01*
X173576666Y-110123333D01*
X173481428Y-110170952D01*
X173433809Y-110218571D01*
X173386190Y-110313809D01*
X173386190Y-110551904D01*
X173433809Y-110647142D01*
X173481428Y-110694761D01*
X173576666Y-110742380D01*
X173862380Y-110742380D01*
X173957619Y-110694761D01*
X174005238Y-110647142D01*
X176446190Y-108182380D02*
X176446190Y-107182380D01*
X175779523Y-107182380D02*
X175589047Y-107182380D01*
X175493809Y-107230000D01*
X175398571Y-107325238D01*
X175350952Y-107515714D01*
X175350952Y-107849047D01*
X175398571Y-108039523D01*
X175493809Y-108134761D01*
X175589047Y-108182380D01*
X175779523Y-108182380D01*
X175874761Y-108134761D01*
X175970000Y-108039523D01*
X176017619Y-107849047D01*
X176017619Y-107515714D01*
X175970000Y-107325238D01*
X175874761Y-107230000D01*
X175779523Y-107182380D01*
X174398571Y-108182380D02*
X174970000Y-108182380D01*
X174684285Y-108182380D02*
X174684285Y-107182380D01*
X174779523Y-107325238D01*
X174874761Y-107420476D01*
X174970000Y-107468095D01*
X173493809Y-107182380D02*
X173970000Y-107182380D01*
X174017619Y-107658571D01*
X173970000Y-107610952D01*
X173874761Y-107563333D01*
X173636666Y-107563333D01*
X173541428Y-107610952D01*
X173493809Y-107658571D01*
X173446190Y-107753809D01*
X173446190Y-107991904D01*
X173493809Y-108087142D01*
X173541428Y-108134761D01*
X173636666Y-108182380D01*
X173874761Y-108182380D01*
X173970000Y-108134761D01*
X174017619Y-108087142D01*
X175540000Y-105662380D02*
X175540000Y-104662380D01*
X174873333Y-104662380D02*
X174682857Y-104662380D01*
X174587619Y-104710000D01*
X174492380Y-104805238D01*
X174444761Y-104995714D01*
X174444761Y-105329047D01*
X174492380Y-105519523D01*
X174587619Y-105614761D01*
X174682857Y-105662380D01*
X174873333Y-105662380D01*
X174968571Y-105614761D01*
X175063809Y-105519523D01*
X175111428Y-105329047D01*
X175111428Y-104995714D01*
X175063809Y-104805238D01*
X174968571Y-104710000D01*
X174873333Y-104662380D01*
X174063809Y-104757619D02*
X174016190Y-104710000D01*
X173920952Y-104662380D01*
X173682857Y-104662380D01*
X173587619Y-104710000D01*
X173540000Y-104757619D01*
X173492380Y-104852857D01*
X173492380Y-104948095D01*
X173540000Y-105090952D01*
X174111428Y-105662380D01*
X173492380Y-105662380D01*
X175500000Y-103022380D02*
X175500000Y-102022380D01*
X174833333Y-102022380D02*
X174642857Y-102022380D01*
X174547619Y-102070000D01*
X174452380Y-102165238D01*
X174404761Y-102355714D01*
X174404761Y-102689047D01*
X174452380Y-102879523D01*
X174547619Y-102974761D01*
X174642857Y-103022380D01*
X174833333Y-103022380D01*
X174928571Y-102974761D01*
X175023809Y-102879523D01*
X175071428Y-102689047D01*
X175071428Y-102355714D01*
X175023809Y-102165238D01*
X174928571Y-102070000D01*
X174833333Y-102022380D01*
X173547619Y-102355714D02*
X173547619Y-103022380D01*
X173785714Y-101974761D02*
X174023809Y-102689047D01*
X173404761Y-102689047D01*
X175570000Y-100552380D02*
X175570000Y-99552380D01*
X174903333Y-99552380D02*
X174712857Y-99552380D01*
X174617619Y-99600000D01*
X174522380Y-99695238D01*
X174474761Y-99885714D01*
X174474761Y-100219047D01*
X174522380Y-100409523D01*
X174617619Y-100504761D01*
X174712857Y-100552380D01*
X174903333Y-100552380D01*
X174998571Y-100504761D01*
X175093809Y-100409523D01*
X175141428Y-100219047D01*
X175141428Y-99885714D01*
X175093809Y-99695238D01*
X174998571Y-99600000D01*
X174903333Y-99552380D01*
X173855714Y-99552380D02*
X173760476Y-99552380D01*
X173665238Y-99600000D01*
X173617619Y-99647619D01*
X173570000Y-99742857D01*
X173522380Y-99933333D01*
X173522380Y-100171428D01*
X173570000Y-100361904D01*
X173617619Y-100457142D01*
X173665238Y-100504761D01*
X173760476Y-100552380D01*
X173855714Y-100552380D01*
X173950952Y-100504761D01*
X173998571Y-100457142D01*
X174046190Y-100361904D01*
X174093809Y-100171428D01*
X174093809Y-99933333D01*
X174046190Y-99742857D01*
X173998571Y-99647619D01*
X173950952Y-99600000D01*
X173855714Y-99552380D01*
X176115714Y-92641428D02*
X175353809Y-92641428D01*
X175734761Y-93022380D02*
X175734761Y-92260476D01*
X174401428Y-92022380D02*
X174877619Y-92022380D01*
X174925238Y-92498571D01*
X174877619Y-92450952D01*
X174782380Y-92403333D01*
X174544285Y-92403333D01*
X174449047Y-92450952D01*
X174401428Y-92498571D01*
X174353809Y-92593809D01*
X174353809Y-92831904D01*
X174401428Y-92927142D01*
X174449047Y-92974761D01*
X174544285Y-93022380D01*
X174782380Y-93022380D01*
X174877619Y-92974761D01*
X174925238Y-92927142D01*
X174068095Y-92022380D02*
X173734761Y-93022380D01*
X173401428Y-92022380D01*
X175661904Y-94680000D02*
X175757142Y-94632380D01*
X175900000Y-94632380D01*
X176042857Y-94680000D01*
X176138095Y-94775238D01*
X176185714Y-94870476D01*
X176233333Y-95060952D01*
X176233333Y-95203809D01*
X176185714Y-95394285D01*
X176138095Y-95489523D01*
X176042857Y-95584761D01*
X175900000Y-95632380D01*
X175804761Y-95632380D01*
X175661904Y-95584761D01*
X175614285Y-95537142D01*
X175614285Y-95203809D01*
X175804761Y-95203809D01*
X175185714Y-95632380D02*
X175185714Y-94632380D01*
X174614285Y-95632380D01*
X174614285Y-94632380D01*
X174138095Y-95632380D02*
X174138095Y-94632380D01*
X173900000Y-94632380D01*
X173757142Y-94680000D01*
X173661904Y-94775238D01*
X173614285Y-94870476D01*
X173566666Y-95060952D01*
X173566666Y-95203809D01*
X173614285Y-95394285D01*
X173661904Y-95489523D01*
X173757142Y-95584761D01*
X173900000Y-95632380D01*
X174138095Y-95632380D01*
X177321904Y-97771428D02*
X176560000Y-97771428D01*
X176940952Y-98152380D02*
X176940952Y-97390476D01*
X176179047Y-97152380D02*
X175560000Y-97152380D01*
X175893333Y-97533333D01*
X175750476Y-97533333D01*
X175655238Y-97580952D01*
X175607619Y-97628571D01*
X175560000Y-97723809D01*
X175560000Y-97961904D01*
X175607619Y-98057142D01*
X175655238Y-98104761D01*
X175750476Y-98152380D01*
X176036190Y-98152380D01*
X176131428Y-98104761D01*
X176179047Y-98057142D01*
X175274285Y-97152380D02*
X174940952Y-98152380D01*
X174607619Y-97152380D01*
X174369523Y-97152380D02*
X173750476Y-97152380D01*
X174083809Y-97533333D01*
X173940952Y-97533333D01*
X173845714Y-97580952D01*
X173798095Y-97628571D01*
X173750476Y-97723809D01*
X173750476Y-97961904D01*
X173798095Y-98057142D01*
X173845714Y-98104761D01*
X173940952Y-98152380D01*
X174226666Y-98152380D01*
X174321904Y-98104761D01*
X174369523Y-98057142D01*
X159401904Y-92591428D02*
X158640000Y-92591428D01*
X159020952Y-92972380D02*
X159020952Y-92210476D01*
X158259047Y-91972380D02*
X157640000Y-91972380D01*
X157973333Y-92353333D01*
X157830476Y-92353333D01*
X157735238Y-92400952D01*
X157687619Y-92448571D01*
X157640000Y-92543809D01*
X157640000Y-92781904D01*
X157687619Y-92877142D01*
X157735238Y-92924761D01*
X157830476Y-92972380D01*
X158116190Y-92972380D01*
X158211428Y-92924761D01*
X158259047Y-92877142D01*
X157354285Y-91972380D02*
X157020952Y-92972380D01*
X156687619Y-91972380D01*
X156449523Y-91972380D02*
X155830476Y-91972380D01*
X156163809Y-92353333D01*
X156020952Y-92353333D01*
X155925714Y-92400952D01*
X155878095Y-92448571D01*
X155830476Y-92543809D01*
X155830476Y-92781904D01*
X155878095Y-92877142D01*
X155925714Y-92924761D01*
X156020952Y-92972380D01*
X156306666Y-92972380D01*
X156401904Y-92924761D01*
X156449523Y-92877142D01*
X159873928Y-50758095D02*
X160492976Y-50758095D01*
X160492976Y-49458095D01*
X159440595Y-50758095D02*
X159440595Y-49891428D01*
X159440595Y-49458095D02*
X159502500Y-49520000D01*
X159440595Y-49581904D01*
X159378690Y-49520000D01*
X159440595Y-49458095D01*
X159440595Y-49581904D01*
X158264404Y-49891428D02*
X158264404Y-50943809D01*
X158326309Y-51067619D01*
X158388214Y-51129523D01*
X158512023Y-51191428D01*
X158697738Y-51191428D01*
X158821547Y-51129523D01*
X158264404Y-50696190D02*
X158388214Y-50758095D01*
X158635833Y-50758095D01*
X158759642Y-50696190D01*
X158821547Y-50634285D01*
X158883452Y-50510476D01*
X158883452Y-50139047D01*
X158821547Y-50015238D01*
X158759642Y-49953333D01*
X158635833Y-49891428D01*
X158388214Y-49891428D01*
X158264404Y-49953333D01*
X157645357Y-50758095D02*
X157645357Y-49458095D01*
X157088214Y-50758095D02*
X157088214Y-50077142D01*
X157150119Y-49953333D01*
X157273928Y-49891428D01*
X157459642Y-49891428D01*
X157583452Y-49953333D01*
X157645357Y-50015238D01*
X156654880Y-49891428D02*
X156159642Y-49891428D01*
X156469166Y-49458095D02*
X156469166Y-50572380D01*
X156407261Y-50696190D01*
X156283452Y-50758095D01*
X156159642Y-50758095D01*
X155292976Y-50077142D02*
X155107261Y-50139047D01*
X155045357Y-50200952D01*
X154983452Y-50324761D01*
X154983452Y-50510476D01*
X155045357Y-50634285D01*
X155107261Y-50696190D01*
X155231071Y-50758095D01*
X155726309Y-50758095D01*
X155726309Y-49458095D01*
X155292976Y-49458095D01*
X155169166Y-49520000D01*
X155107261Y-49581904D01*
X155045357Y-49705714D01*
X155045357Y-49829523D01*
X155107261Y-49953333D01*
X155169166Y-50015238D01*
X155292976Y-50077142D01*
X155726309Y-50077142D01*
X154240595Y-50758095D02*
X154364404Y-50696190D01*
X154426309Y-50634285D01*
X154488214Y-50510476D01*
X154488214Y-50139047D01*
X154426309Y-50015238D01*
X154364404Y-49953333D01*
X154240595Y-49891428D01*
X154054880Y-49891428D01*
X153931071Y-49953333D01*
X153869166Y-50015238D01*
X153807261Y-50139047D01*
X153807261Y-50510476D01*
X153869166Y-50634285D01*
X153931071Y-50696190D01*
X154054880Y-50758095D01*
X154240595Y-50758095D01*
X153373928Y-50758095D02*
X152692976Y-49891428D01*
X153373928Y-49891428D02*
X152692976Y-50758095D01*
X152197738Y-50758095D02*
X152197738Y-49458095D01*
X151454880Y-50758095D01*
X151454880Y-49458095D01*
X150278690Y-50758095D02*
X150278690Y-50077142D01*
X150340595Y-49953333D01*
X150464404Y-49891428D01*
X150712023Y-49891428D01*
X150835833Y-49953333D01*
X150278690Y-50696190D02*
X150402500Y-50758095D01*
X150712023Y-50758095D01*
X150835833Y-50696190D01*
X150897738Y-50572380D01*
X150897738Y-50448571D01*
X150835833Y-50324761D01*
X150712023Y-50262857D01*
X150402500Y-50262857D01*
X150278690Y-50200952D01*
X149659642Y-49891428D02*
X149659642Y-50758095D01*
X149659642Y-50015238D02*
X149597738Y-49953333D01*
X149473928Y-49891428D01*
X149288214Y-49891428D01*
X149164404Y-49953333D01*
X149102500Y-50077142D01*
X149102500Y-50758095D01*
X148297738Y-50758095D02*
X148421547Y-50696190D01*
X148483452Y-50634285D01*
X148545357Y-50510476D01*
X148545357Y-50139047D01*
X148483452Y-50015238D01*
X148421547Y-49953333D01*
X148297738Y-49891428D01*
X148112023Y-49891428D01*
X147988214Y-49953333D01*
X147926309Y-50015238D01*
X147864404Y-50139047D01*
X147864404Y-50510476D01*
X147926309Y-50634285D01*
X147988214Y-50696190D01*
X148112023Y-50758095D01*
X148297738Y-50758095D01*
X160678690Y-51558095D02*
X159935833Y-51558095D01*
X160307261Y-52858095D02*
X160307261Y-51558095D01*
X159502500Y-52858095D02*
X159502500Y-51991428D01*
X159502500Y-51558095D02*
X159564404Y-51620000D01*
X159502500Y-51681904D01*
X159440595Y-51620000D01*
X159502500Y-51558095D01*
X159502500Y-51681904D01*
X158883452Y-52858095D02*
X158883452Y-51991428D01*
X158883452Y-52115238D02*
X158821547Y-52053333D01*
X158697738Y-51991428D01*
X158512023Y-51991428D01*
X158388214Y-52053333D01*
X158326309Y-52177142D01*
X158326309Y-52858095D01*
X158326309Y-52177142D02*
X158264404Y-52053333D01*
X158140595Y-51991428D01*
X157954880Y-51991428D01*
X157831071Y-52053333D01*
X157769166Y-52177142D01*
X157769166Y-52858095D01*
X155478690Y-51620000D02*
X155602500Y-51558095D01*
X155788214Y-51558095D01*
X155973928Y-51620000D01*
X156097738Y-51743809D01*
X156159642Y-51867619D01*
X156221547Y-52115238D01*
X156221547Y-52300952D01*
X156159642Y-52548571D01*
X156097738Y-52672380D01*
X155973928Y-52796190D01*
X155788214Y-52858095D01*
X155664404Y-52858095D01*
X155478690Y-52796190D01*
X155416785Y-52734285D01*
X155416785Y-52300952D01*
X155664404Y-52300952D01*
X154859642Y-52858095D02*
X154859642Y-51991428D01*
X154859642Y-52239047D02*
X154797738Y-52115238D01*
X154735833Y-52053333D01*
X154612023Y-51991428D01*
X154488214Y-51991428D01*
X153559642Y-52796190D02*
X153683452Y-52858095D01*
X153931071Y-52858095D01*
X154054880Y-52796190D01*
X154116785Y-52672380D01*
X154116785Y-52177142D01*
X154054880Y-52053333D01*
X153931071Y-51991428D01*
X153683452Y-51991428D01*
X153559642Y-52053333D01*
X153497738Y-52177142D01*
X153497738Y-52300952D01*
X154116785Y-52424761D01*
X152940595Y-52858095D02*
X152940595Y-51991428D01*
X152940595Y-52115238D02*
X152878690Y-52053333D01*
X152754880Y-51991428D01*
X152569166Y-51991428D01*
X152445357Y-52053333D01*
X152383452Y-52177142D01*
X152383452Y-52858095D01*
X152383452Y-52177142D02*
X152321547Y-52053333D01*
X152197738Y-51991428D01*
X152012023Y-51991428D01*
X151888214Y-52053333D01*
X151826309Y-52177142D01*
X151826309Y-52858095D01*
X150650119Y-52858095D02*
X150650119Y-52177142D01*
X150712023Y-52053333D01*
X150835833Y-51991428D01*
X151083452Y-51991428D01*
X151207261Y-52053333D01*
X150650119Y-52796190D02*
X150773928Y-52858095D01*
X151083452Y-52858095D01*
X151207261Y-52796190D01*
X151269166Y-52672380D01*
X151269166Y-52548571D01*
X151207261Y-52424761D01*
X151083452Y-52362857D01*
X150773928Y-52362857D01*
X150650119Y-52300952D01*
X149845357Y-52858095D02*
X149969166Y-52796190D01*
X150031071Y-52672380D01*
X150031071Y-51558095D01*
X149350119Y-52858095D02*
X149350119Y-51991428D01*
X149350119Y-52115238D02*
X149288214Y-52053333D01*
X149164404Y-51991428D01*
X148978690Y-51991428D01*
X148854880Y-52053333D01*
X148792976Y-52177142D01*
X148792976Y-52858095D01*
X148792976Y-52177142D02*
X148731071Y-52053333D01*
X148607261Y-51991428D01*
X148421547Y-51991428D01*
X148297738Y-52053333D01*
X148235833Y-52177142D01*
X148235833Y-52858095D01*
X160678690Y-54091428D02*
X160183452Y-54091428D01*
X160492976Y-53658095D02*
X160492976Y-54772380D01*
X160431071Y-54896190D01*
X160307261Y-54958095D01*
X160183452Y-54958095D01*
X159750119Y-54958095D02*
X159750119Y-54091428D01*
X159750119Y-53658095D02*
X159812023Y-53720000D01*
X159750119Y-53781904D01*
X159688214Y-53720000D01*
X159750119Y-53658095D01*
X159750119Y-53781904D01*
X159131071Y-54958095D02*
X159131071Y-54091428D01*
X159131071Y-54215238D02*
X159069166Y-54153333D01*
X158945357Y-54091428D01*
X158759642Y-54091428D01*
X158635833Y-54153333D01*
X158573928Y-54277142D01*
X158573928Y-54958095D01*
X158573928Y-54277142D02*
X158512023Y-54153333D01*
X158388214Y-54091428D01*
X158202500Y-54091428D01*
X158078690Y-54153333D01*
X158016785Y-54277142D01*
X158016785Y-54958095D01*
X156592976Y-54339047D02*
X156654880Y-54277142D01*
X156778690Y-54215238D01*
X156902500Y-54215238D01*
X157026309Y-54277142D01*
X157088214Y-54339047D01*
X157150119Y-54462857D01*
X157150119Y-54586666D01*
X157088214Y-54710476D01*
X157026309Y-54772380D01*
X156902500Y-54834285D01*
X156778690Y-54834285D01*
X156654880Y-54772380D01*
X156592976Y-54710476D01*
X156592976Y-54215238D02*
X156592976Y-54710476D01*
X156531071Y-54772380D01*
X156469166Y-54772380D01*
X156345357Y-54710476D01*
X156283452Y-54586666D01*
X156283452Y-54277142D01*
X156407261Y-54091428D01*
X156592976Y-53967619D01*
X156840595Y-53905714D01*
X157088214Y-53967619D01*
X157273928Y-54091428D01*
X157397738Y-54277142D01*
X157459642Y-54524761D01*
X157397738Y-54772380D01*
X157273928Y-54958095D01*
X157088214Y-55081904D01*
X156840595Y-55143809D01*
X156592976Y-55081904D01*
X156407261Y-54958095D01*
X155169166Y-54091428D02*
X155169166Y-55143809D01*
X155231071Y-55267619D01*
X155292976Y-55329523D01*
X155416785Y-55391428D01*
X155602500Y-55391428D01*
X155726309Y-55329523D01*
X155169166Y-54896190D02*
X155292976Y-54958095D01*
X155540595Y-54958095D01*
X155664404Y-54896190D01*
X155726309Y-54834285D01*
X155788214Y-54710476D01*
X155788214Y-54339047D01*
X155726309Y-54215238D01*
X155664404Y-54153333D01*
X155540595Y-54091428D01*
X155292976Y-54091428D01*
X155169166Y-54153333D01*
X154550119Y-54958095D02*
X154550119Y-54091428D01*
X154550119Y-54339047D02*
X154488214Y-54215238D01*
X154426309Y-54153333D01*
X154302500Y-54091428D01*
X154178690Y-54091428D01*
X153250119Y-54896190D02*
X153373928Y-54958095D01*
X153621547Y-54958095D01*
X153745357Y-54896190D01*
X153807261Y-54772380D01*
X153807261Y-54277142D01*
X153745357Y-54153333D01*
X153621547Y-54091428D01*
X153373928Y-54091428D01*
X153250119Y-54153333D01*
X153188214Y-54277142D01*
X153188214Y-54400952D01*
X153807261Y-54524761D01*
X152631071Y-54958095D02*
X152631071Y-54091428D01*
X152631071Y-54215238D02*
X152569166Y-54153333D01*
X152445357Y-54091428D01*
X152259642Y-54091428D01*
X152135833Y-54153333D01*
X152073928Y-54277142D01*
X152073928Y-54958095D01*
X152073928Y-54277142D02*
X152012023Y-54153333D01*
X151888214Y-54091428D01*
X151702500Y-54091428D01*
X151578690Y-54153333D01*
X151516785Y-54277142D01*
X151516785Y-54958095D01*
X150340595Y-54958095D02*
X150340595Y-54277142D01*
X150402500Y-54153333D01*
X150526309Y-54091428D01*
X150773928Y-54091428D01*
X150897738Y-54153333D01*
X150340595Y-54896190D02*
X150464404Y-54958095D01*
X150773928Y-54958095D01*
X150897738Y-54896190D01*
X150959642Y-54772380D01*
X150959642Y-54648571D01*
X150897738Y-54524761D01*
X150773928Y-54462857D01*
X150464404Y-54462857D01*
X150340595Y-54400952D01*
X149535833Y-54958095D02*
X149659642Y-54896190D01*
X149721547Y-54772380D01*
X149721547Y-53658095D01*
X149040595Y-54958095D02*
X149040595Y-54091428D01*
X149040595Y-54215238D02*
X148978690Y-54153333D01*
X148854880Y-54091428D01*
X148669166Y-54091428D01*
X148545357Y-54153333D01*
X148483452Y-54277142D01*
X148483452Y-54958095D01*
X148483452Y-54277142D02*
X148421547Y-54153333D01*
X148297738Y-54091428D01*
X148112023Y-54091428D01*
X147988214Y-54153333D01*
X147926309Y-54277142D01*
X147926309Y-54958095D01*
X147307261Y-54834285D02*
X147245357Y-54896190D01*
X147307261Y-54958095D01*
X147369166Y-54896190D01*
X147307261Y-54834285D01*
X147307261Y-54958095D01*
X146750119Y-54896190D02*
X146626309Y-54958095D01*
X146378690Y-54958095D01*
X146254880Y-54896190D01*
X146192976Y-54772380D01*
X146192976Y-54710476D01*
X146254880Y-54586666D01*
X146378690Y-54524761D01*
X146564404Y-54524761D01*
X146688214Y-54462857D01*
X146750119Y-54339047D01*
X146750119Y-54277142D01*
X146688214Y-54153333D01*
X146564404Y-54091428D01*
X146378690Y-54091428D01*
X146254880Y-54153333D01*
X145140595Y-54896190D02*
X145264404Y-54958095D01*
X145512023Y-54958095D01*
X145635833Y-54896190D01*
X145697738Y-54772380D01*
X145697738Y-54277142D01*
X145635833Y-54153333D01*
X145512023Y-54091428D01*
X145264404Y-54091428D01*
X145140595Y-54153333D01*
X145078690Y-54277142D01*
X145078690Y-54400952D01*
X145697738Y-54524761D01*
X160492976Y-57058095D02*
X160492976Y-55758095D01*
X159935833Y-57058095D02*
X159935833Y-56377142D01*
X159997738Y-56253333D01*
X160121547Y-56191428D01*
X160307261Y-56191428D01*
X160431071Y-56253333D01*
X160492976Y-56315238D01*
X159502500Y-56191428D02*
X159007261Y-56191428D01*
X159316785Y-55758095D02*
X159316785Y-56872380D01*
X159254880Y-56996190D01*
X159131071Y-57058095D01*
X159007261Y-57058095D01*
X158759642Y-56191428D02*
X158264404Y-56191428D01*
X158573928Y-55758095D02*
X158573928Y-56872380D01*
X158512023Y-56996190D01*
X158388214Y-57058095D01*
X158264404Y-57058095D01*
X157831071Y-56191428D02*
X157831071Y-57491428D01*
X157831071Y-56253333D02*
X157707261Y-56191428D01*
X157459642Y-56191428D01*
X157335833Y-56253333D01*
X157273928Y-56315238D01*
X157212023Y-56439047D01*
X157212023Y-56810476D01*
X157273928Y-56934285D01*
X157335833Y-56996190D01*
X157459642Y-57058095D01*
X157707261Y-57058095D01*
X157831071Y-56996190D01*
X156716785Y-56996190D02*
X156592976Y-57058095D01*
X156345357Y-57058095D01*
X156221547Y-56996190D01*
X156159642Y-56872380D01*
X156159642Y-56810476D01*
X156221547Y-56686666D01*
X156345357Y-56624761D01*
X156531071Y-56624761D01*
X156654880Y-56562857D01*
X156716785Y-56439047D01*
X156716785Y-56377142D01*
X156654880Y-56253333D01*
X156531071Y-56191428D01*
X156345357Y-56191428D01*
X156221547Y-56253333D01*
X155602500Y-56934285D02*
X155540595Y-56996190D01*
X155602500Y-57058095D01*
X155664404Y-56996190D01*
X155602500Y-56934285D01*
X155602500Y-57058095D01*
X155602500Y-56253333D02*
X155540595Y-56315238D01*
X155602500Y-56377142D01*
X155664404Y-56315238D01*
X155602500Y-56253333D01*
X155602500Y-56377142D01*
X154054880Y-55696190D02*
X155169166Y-57367619D01*
X152692976Y-55696190D02*
X153807261Y-57367619D01*
X151702500Y-56191428D02*
X151702500Y-57243809D01*
X151764404Y-57367619D01*
X151826309Y-57429523D01*
X151950119Y-57491428D01*
X152135833Y-57491428D01*
X152259642Y-57429523D01*
X151702500Y-56996190D02*
X151826309Y-57058095D01*
X152073928Y-57058095D01*
X152197738Y-56996190D01*
X152259642Y-56934285D01*
X152321547Y-56810476D01*
X152321547Y-56439047D01*
X152259642Y-56315238D01*
X152197738Y-56253333D01*
X152073928Y-56191428D01*
X151826309Y-56191428D01*
X151702500Y-56253333D01*
X151083452Y-57058095D02*
X151083452Y-56191428D01*
X151083452Y-55758095D02*
X151145357Y-55820000D01*
X151083452Y-55881904D01*
X151021547Y-55820000D01*
X151083452Y-55758095D01*
X151083452Y-55881904D01*
X150650119Y-56191428D02*
X150154880Y-56191428D01*
X150464404Y-55758095D02*
X150464404Y-56872380D01*
X150402500Y-56996190D01*
X150278690Y-57058095D01*
X150154880Y-57058095D01*
X149721547Y-57058095D02*
X149721547Y-55758095D01*
X149164404Y-57058095D02*
X149164404Y-56377142D01*
X149226309Y-56253333D01*
X149350119Y-56191428D01*
X149535833Y-56191428D01*
X149659642Y-56253333D01*
X149721547Y-56315238D01*
X147988214Y-56191428D02*
X147988214Y-57058095D01*
X148545357Y-56191428D02*
X148545357Y-56872380D01*
X148483452Y-56996190D01*
X148359642Y-57058095D01*
X148173928Y-57058095D01*
X148050119Y-56996190D01*
X147988214Y-56934285D01*
X147369166Y-57058095D02*
X147369166Y-55758095D01*
X147369166Y-56253333D02*
X147245357Y-56191428D01*
X146997738Y-56191428D01*
X146873928Y-56253333D01*
X146812023Y-56315238D01*
X146750119Y-56439047D01*
X146750119Y-56810476D01*
X146812023Y-56934285D01*
X146873928Y-56996190D01*
X146997738Y-57058095D01*
X147245357Y-57058095D01*
X147369166Y-56996190D01*
X146192976Y-56934285D02*
X146131071Y-56996190D01*
X146192976Y-57058095D01*
X146254880Y-56996190D01*
X146192976Y-56934285D01*
X146192976Y-57058095D01*
X145016785Y-56996190D02*
X145140595Y-57058095D01*
X145388214Y-57058095D01*
X145512023Y-56996190D01*
X145573928Y-56934285D01*
X145635833Y-56810476D01*
X145635833Y-56439047D01*
X145573928Y-56315238D01*
X145512023Y-56253333D01*
X145388214Y-56191428D01*
X145140595Y-56191428D01*
X145016785Y-56253333D01*
X144273928Y-57058095D02*
X144397738Y-56996190D01*
X144459642Y-56934285D01*
X144521547Y-56810476D01*
X144521547Y-56439047D01*
X144459642Y-56315238D01*
X144397738Y-56253333D01*
X144273928Y-56191428D01*
X144088214Y-56191428D01*
X143964404Y-56253333D01*
X143902500Y-56315238D01*
X143840595Y-56439047D01*
X143840595Y-56810476D01*
X143902500Y-56934285D01*
X143964404Y-56996190D01*
X144088214Y-57058095D01*
X144273928Y-57058095D01*
X143283452Y-57058095D02*
X143283452Y-56191428D01*
X143283452Y-56315238D02*
X143221547Y-56253333D01*
X143097738Y-56191428D01*
X142912023Y-56191428D01*
X142788214Y-56253333D01*
X142726309Y-56377142D01*
X142726309Y-57058095D01*
X142726309Y-56377142D02*
X142664404Y-56253333D01*
X142540595Y-56191428D01*
X142354880Y-56191428D01*
X142231071Y-56253333D01*
X142169166Y-56377142D01*
X142169166Y-57058095D01*
X140621547Y-55696190D02*
X141735833Y-57367619D01*
X140373928Y-55758095D02*
X139631071Y-55758095D01*
X140002500Y-57058095D02*
X140002500Y-55758095D01*
X139197738Y-57058095D02*
X139197738Y-56191428D01*
X139197738Y-55758095D02*
X139259642Y-55820000D01*
X139197738Y-55881904D01*
X139135833Y-55820000D01*
X139197738Y-55758095D01*
X139197738Y-55881904D01*
X138578690Y-57058095D02*
X138578690Y-56191428D01*
X138578690Y-56315238D02*
X138516785Y-56253333D01*
X138392976Y-56191428D01*
X138207261Y-56191428D01*
X138083452Y-56253333D01*
X138021547Y-56377142D01*
X138021547Y-57058095D01*
X138021547Y-56377142D02*
X137959642Y-56253333D01*
X137835833Y-56191428D01*
X137650119Y-56191428D01*
X137526309Y-56253333D01*
X137464404Y-56377142D01*
X137464404Y-57058095D01*
X136164404Y-55820000D02*
X136288214Y-55758095D01*
X136473928Y-55758095D01*
X136659642Y-55820000D01*
X136783452Y-55943809D01*
X136845357Y-56067619D01*
X136907261Y-56315238D01*
X136907261Y-56500952D01*
X136845357Y-56748571D01*
X136783452Y-56872380D01*
X136659642Y-56996190D01*
X136473928Y-57058095D01*
X136350119Y-57058095D01*
X136164404Y-56996190D01*
X136102500Y-56934285D01*
X136102500Y-56500952D01*
X136350119Y-56500952D01*
X135545357Y-57058095D02*
X135545357Y-56191428D01*
X135545357Y-56439047D02*
X135483452Y-56315238D01*
X135421547Y-56253333D01*
X135297738Y-56191428D01*
X135173928Y-56191428D01*
X134245357Y-56996190D02*
X134369166Y-57058095D01*
X134616785Y-57058095D01*
X134740595Y-56996190D01*
X134802500Y-56872380D01*
X134802500Y-56377142D01*
X134740595Y-56253333D01*
X134616785Y-56191428D01*
X134369166Y-56191428D01*
X134245357Y-56253333D01*
X134183452Y-56377142D01*
X134183452Y-56500952D01*
X134802500Y-56624761D01*
X133626309Y-57058095D02*
X133626309Y-56191428D01*
X133626309Y-56315238D02*
X133564404Y-56253333D01*
X133440595Y-56191428D01*
X133254880Y-56191428D01*
X133131071Y-56253333D01*
X133069166Y-56377142D01*
X133069166Y-57058095D01*
X133069166Y-56377142D02*
X133007261Y-56253333D01*
X132883452Y-56191428D01*
X132697738Y-56191428D01*
X132573928Y-56253333D01*
X132512023Y-56377142D01*
X132512023Y-57058095D01*
X131335833Y-57058095D02*
X131335833Y-56377142D01*
X131397738Y-56253333D01*
X131521547Y-56191428D01*
X131769166Y-56191428D01*
X131892976Y-56253333D01*
X131335833Y-56996190D02*
X131459642Y-57058095D01*
X131769166Y-57058095D01*
X131892976Y-56996190D01*
X131954880Y-56872380D01*
X131954880Y-56748571D01*
X131892976Y-56624761D01*
X131769166Y-56562857D01*
X131459642Y-56562857D01*
X131335833Y-56500952D01*
X130531071Y-57058095D02*
X130654880Y-56996190D01*
X130716785Y-56872380D01*
X130716785Y-55758095D01*
X130035833Y-57058095D02*
X130035833Y-56191428D01*
X130035833Y-56315238D02*
X129973928Y-56253333D01*
X129850119Y-56191428D01*
X129664404Y-56191428D01*
X129540595Y-56253333D01*
X129478690Y-56377142D01*
X129478690Y-57058095D01*
X129478690Y-56377142D02*
X129416785Y-56253333D01*
X129292976Y-56191428D01*
X129107261Y-56191428D01*
X128983452Y-56253333D01*
X128921547Y-56377142D01*
X128921547Y-57058095D01*
X127373928Y-55696190D02*
X128488214Y-57367619D01*
X126321547Y-57058095D02*
X126940595Y-57058095D01*
X126940595Y-55758095D01*
X125888214Y-57058095D02*
X125888214Y-56191428D01*
X125888214Y-55758095D02*
X125950119Y-55820000D01*
X125888214Y-55881904D01*
X125826309Y-55820000D01*
X125888214Y-55758095D01*
X125888214Y-55881904D01*
X124712023Y-56191428D02*
X124712023Y-57243809D01*
X124773928Y-57367619D01*
X124835833Y-57429523D01*
X124959642Y-57491428D01*
X125145357Y-57491428D01*
X125269166Y-57429523D01*
X124712023Y-56996190D02*
X124835833Y-57058095D01*
X125083452Y-57058095D01*
X125207261Y-56996190D01*
X125269166Y-56934285D01*
X125331071Y-56810476D01*
X125331071Y-56439047D01*
X125269166Y-56315238D01*
X125207261Y-56253333D01*
X125083452Y-56191428D01*
X124835833Y-56191428D01*
X124712023Y-56253333D01*
X124092976Y-57058095D02*
X124092976Y-55758095D01*
X123535833Y-57058095D02*
X123535833Y-56377142D01*
X123597738Y-56253333D01*
X123721547Y-56191428D01*
X123907261Y-56191428D01*
X124031071Y-56253333D01*
X124092976Y-56315238D01*
X123102499Y-56191428D02*
X122607261Y-56191428D01*
X122916785Y-55758095D02*
X122916785Y-56872380D01*
X122854880Y-56996190D01*
X122731071Y-57058095D01*
X122607261Y-57058095D01*
X121740595Y-56377142D02*
X121554880Y-56439047D01*
X121492976Y-56500952D01*
X121431071Y-56624761D01*
X121431071Y-56810476D01*
X121492976Y-56934285D01*
X121554880Y-56996190D01*
X121678690Y-57058095D01*
X122173928Y-57058095D01*
X122173928Y-55758095D01*
X121740595Y-55758095D01*
X121616785Y-55820000D01*
X121554880Y-55881904D01*
X121492976Y-56005714D01*
X121492976Y-56129523D01*
X121554880Y-56253333D01*
X121616785Y-56315238D01*
X121740595Y-56377142D01*
X122173928Y-56377142D01*
X120688214Y-57058095D02*
X120812023Y-56996190D01*
X120873928Y-56934285D01*
X120935833Y-56810476D01*
X120935833Y-56439047D01*
X120873928Y-56315238D01*
X120812023Y-56253333D01*
X120688214Y-56191428D01*
X120502499Y-56191428D01*
X120378690Y-56253333D01*
X120316785Y-56315238D01*
X120254880Y-56439047D01*
X120254880Y-56810476D01*
X120316785Y-56934285D01*
X120378690Y-56996190D01*
X120502499Y-57058095D01*
X120688214Y-57058095D01*
X119821547Y-57058095D02*
X119140595Y-56191428D01*
X119821547Y-56191428D02*
X119140595Y-57058095D01*
X118645357Y-57058095D02*
X118645357Y-55758095D01*
X117902499Y-57058095D01*
X117902499Y-55758095D01*
X116726309Y-57058095D02*
X116726309Y-56377142D01*
X116788214Y-56253333D01*
X116912023Y-56191428D01*
X117159642Y-56191428D01*
X117283452Y-56253333D01*
X116726309Y-56996190D02*
X116850119Y-57058095D01*
X117159642Y-57058095D01*
X117283452Y-56996190D01*
X117345357Y-56872380D01*
X117345357Y-56748571D01*
X117283452Y-56624761D01*
X117159642Y-56562857D01*
X116850119Y-56562857D01*
X116726309Y-56500952D01*
X116107261Y-56191428D02*
X116107261Y-57058095D01*
X116107261Y-56315238D02*
X116045357Y-56253333D01*
X115921547Y-56191428D01*
X115735833Y-56191428D01*
X115612023Y-56253333D01*
X115550119Y-56377142D01*
X115550119Y-57058095D01*
X114745357Y-57058095D02*
X114869166Y-56996190D01*
X114931071Y-56934285D01*
X114992976Y-56810476D01*
X114992976Y-56439047D01*
X114931071Y-56315238D01*
X114869166Y-56253333D01*
X114745357Y-56191428D01*
X114559642Y-56191428D01*
X114435833Y-56253333D01*
X114373928Y-56315238D01*
X114312023Y-56439047D01*
X114312023Y-56810476D01*
X114373928Y-56934285D01*
X114435833Y-56996190D01*
X114559642Y-57058095D01*
X114745357Y-57058095D01*
X134713809Y-131392380D02*
X135047142Y-130916190D01*
X135285238Y-131392380D02*
X135285238Y-130392380D01*
X134904285Y-130392380D01*
X134809047Y-130440000D01*
X134761428Y-130487619D01*
X134713809Y-130582857D01*
X134713809Y-130725714D01*
X134761428Y-130820952D01*
X134809047Y-130868571D01*
X134904285Y-130916190D01*
X135285238Y-130916190D01*
X133904285Y-131344761D02*
X133999523Y-131392380D01*
X134190000Y-131392380D01*
X134285238Y-131344761D01*
X134332857Y-131249523D01*
X134332857Y-130868571D01*
X134285238Y-130773333D01*
X134190000Y-130725714D01*
X133999523Y-130725714D01*
X133904285Y-130773333D01*
X133856666Y-130868571D01*
X133856666Y-130963809D01*
X134332857Y-131059047D01*
X132999523Y-131344761D02*
X133094761Y-131392380D01*
X133285238Y-131392380D01*
X133380476Y-131344761D01*
X133428095Y-131297142D01*
X133475714Y-131201904D01*
X133475714Y-130916190D01*
X133428095Y-130820952D01*
X133380476Y-130773333D01*
X133285238Y-130725714D01*
X133094761Y-130725714D01*
X132999523Y-130773333D01*
X132190000Y-131344761D02*
X132285238Y-131392380D01*
X132475714Y-131392380D01*
X132570952Y-131344761D01*
X132618571Y-131249523D01*
X132618571Y-130868571D01*
X132570952Y-130773333D01*
X132475714Y-130725714D01*
X132285238Y-130725714D01*
X132190000Y-130773333D01*
X132142380Y-130868571D01*
X132142380Y-130963809D01*
X132618571Y-131059047D01*
X131713809Y-131392380D02*
X131713809Y-130725714D01*
X131713809Y-130392380D02*
X131761428Y-130440000D01*
X131713809Y-130487619D01*
X131666190Y-130440000D01*
X131713809Y-130392380D01*
X131713809Y-130487619D01*
X131332857Y-130725714D02*
X131094761Y-131392380D01*
X130856666Y-130725714D01*
X130094761Y-131344761D02*
X130190000Y-131392380D01*
X130380476Y-131392380D01*
X130475714Y-131344761D01*
X130523333Y-131249523D01*
X130523333Y-130868571D01*
X130475714Y-130773333D01*
X130380476Y-130725714D01*
X130190000Y-130725714D01*
X130094761Y-130773333D01*
X130047142Y-130868571D01*
X130047142Y-130963809D01*
X130523333Y-131059047D01*
X135325714Y-128428571D02*
X134992380Y-128428571D01*
X134849523Y-128952380D02*
X135325714Y-128952380D01*
X135325714Y-127952380D01*
X134849523Y-127952380D01*
X134420952Y-128285714D02*
X134420952Y-128952380D01*
X134420952Y-128380952D02*
X134373333Y-128333333D01*
X134278095Y-128285714D01*
X134135238Y-128285714D01*
X134040000Y-128333333D01*
X133992380Y-128428571D01*
X133992380Y-128952380D01*
X133754285Y-129047619D02*
X132992380Y-129047619D01*
X132182857Y-128952380D02*
X132516190Y-128476190D01*
X132754285Y-128952380D02*
X132754285Y-127952380D01*
X132373333Y-127952380D01*
X132278095Y-128000000D01*
X132230476Y-128047619D01*
X132182857Y-128142857D01*
X132182857Y-128285714D01*
X132230476Y-128380952D01*
X132278095Y-128428571D01*
X132373333Y-128476190D01*
X132754285Y-128476190D01*
X131373333Y-128904761D02*
X131468571Y-128952380D01*
X131659047Y-128952380D01*
X131754285Y-128904761D01*
X131801904Y-128809523D01*
X131801904Y-128428571D01*
X131754285Y-128333333D01*
X131659047Y-128285714D01*
X131468571Y-128285714D01*
X131373333Y-128333333D01*
X131325714Y-128428571D01*
X131325714Y-128523809D01*
X131801904Y-128619047D01*
X130468571Y-128904761D02*
X130563809Y-128952380D01*
X130754285Y-128952380D01*
X130849523Y-128904761D01*
X130897142Y-128857142D01*
X130944761Y-128761904D01*
X130944761Y-128476190D01*
X130897142Y-128380952D01*
X130849523Y-128333333D01*
X130754285Y-128285714D01*
X130563809Y-128285714D01*
X130468571Y-128333333D01*
X130135238Y-128285714D02*
X129897142Y-128952380D01*
X129659047Y-128285714D01*
X135247142Y-125728571D02*
X134913809Y-125728571D01*
X134770952Y-126252380D02*
X135247142Y-126252380D01*
X135247142Y-125252380D01*
X134770952Y-125252380D01*
X134342380Y-125585714D02*
X134342380Y-126252380D01*
X134342380Y-125680952D02*
X134294761Y-125633333D01*
X134199523Y-125585714D01*
X134056666Y-125585714D01*
X133961428Y-125633333D01*
X133913809Y-125728571D01*
X133913809Y-126252380D01*
X133675714Y-126347619D02*
X132913809Y-126347619D01*
X132723333Y-126204761D02*
X132580476Y-126252380D01*
X132342380Y-126252380D01*
X132247142Y-126204761D01*
X132199523Y-126157142D01*
X132151904Y-126061904D01*
X132151904Y-125966666D01*
X132199523Y-125871428D01*
X132247142Y-125823809D01*
X132342380Y-125776190D01*
X132532857Y-125728571D01*
X132628095Y-125680952D01*
X132675714Y-125633333D01*
X132723333Y-125538095D01*
X132723333Y-125442857D01*
X132675714Y-125347619D01*
X132628095Y-125300000D01*
X132532857Y-125252380D01*
X132294761Y-125252380D01*
X132151904Y-125300000D01*
X131342380Y-126204761D02*
X131437619Y-126252380D01*
X131628095Y-126252380D01*
X131723333Y-126204761D01*
X131770952Y-126109523D01*
X131770952Y-125728571D01*
X131723333Y-125633333D01*
X131628095Y-125585714D01*
X131437619Y-125585714D01*
X131342380Y-125633333D01*
X131294761Y-125728571D01*
X131294761Y-125823809D01*
X131770952Y-125919047D01*
X130866190Y-125585714D02*
X130866190Y-126252380D01*
X130866190Y-125680952D02*
X130818571Y-125633333D01*
X130723333Y-125585714D01*
X130580476Y-125585714D01*
X130485238Y-125633333D01*
X130437619Y-125728571D01*
X130437619Y-126252380D01*
X129532857Y-126252380D02*
X129532857Y-125252380D01*
X129532857Y-126204761D02*
X129628095Y-126252380D01*
X129818571Y-126252380D01*
X129913809Y-126204761D01*
X129961428Y-126157142D01*
X130009047Y-126061904D01*
X130009047Y-125776190D01*
X129961428Y-125680952D01*
X129913809Y-125633333D01*
X129818571Y-125585714D01*
X129628095Y-125585714D01*
X129532857Y-125633333D01*
X134989047Y-123694761D02*
X134846190Y-123742380D01*
X134608095Y-123742380D01*
X134512857Y-123694761D01*
X134465238Y-123647142D01*
X134417619Y-123551904D01*
X134417619Y-123456666D01*
X134465238Y-123361428D01*
X134512857Y-123313809D01*
X134608095Y-123266190D01*
X134798571Y-123218571D01*
X134893809Y-123170952D01*
X134941428Y-123123333D01*
X134989047Y-123028095D01*
X134989047Y-122932857D01*
X134941428Y-122837619D01*
X134893809Y-122790000D01*
X134798571Y-122742380D01*
X134560476Y-122742380D01*
X134417619Y-122790000D01*
X133608095Y-123694761D02*
X133703333Y-123742380D01*
X133893809Y-123742380D01*
X133989047Y-123694761D01*
X134036666Y-123599523D01*
X134036666Y-123218571D01*
X133989047Y-123123333D01*
X133893809Y-123075714D01*
X133703333Y-123075714D01*
X133608095Y-123123333D01*
X133560476Y-123218571D01*
X133560476Y-123313809D01*
X134036666Y-123409047D01*
X133131904Y-123075714D02*
X133131904Y-123742380D01*
X133131904Y-123170952D02*
X133084285Y-123123333D01*
X132989047Y-123075714D01*
X132846190Y-123075714D01*
X132750952Y-123123333D01*
X132703333Y-123218571D01*
X132703333Y-123742380D01*
X131798571Y-123742380D02*
X131798571Y-122742380D01*
X131798571Y-123694761D02*
X131893809Y-123742380D01*
X132084285Y-123742380D01*
X132179523Y-123694761D01*
X132227142Y-123647142D01*
X132274761Y-123551904D01*
X132274761Y-123266190D01*
X132227142Y-123170952D01*
X132179523Y-123123333D01*
X132084285Y-123075714D01*
X131893809Y-123075714D01*
X131798571Y-123123333D01*
X191060476Y-122612380D02*
X191393809Y-122136190D01*
X191631904Y-122612380D02*
X191631904Y-121612380D01*
X191250952Y-121612380D01*
X191155714Y-121660000D01*
X191108095Y-121707619D01*
X191060476Y-121802857D01*
X191060476Y-121945714D01*
X191108095Y-122040952D01*
X191155714Y-122088571D01*
X191250952Y-122136190D01*
X191631904Y-122136190D01*
X191078095Y-116850000D02*
X191173333Y-116802380D01*
X191316190Y-116802380D01*
X191459047Y-116850000D01*
X191554285Y-116945238D01*
X191601904Y-117040476D01*
X191649523Y-117230952D01*
X191649523Y-117373809D01*
X191601904Y-117564285D01*
X191554285Y-117659523D01*
X191459047Y-117754761D01*
X191316190Y-117802380D01*
X191220952Y-117802380D01*
X191078095Y-117754761D01*
X191030476Y-117707142D01*
X191030476Y-117373809D01*
X191220952Y-117373809D01*
X191148571Y-112508571D02*
X191005714Y-112556190D01*
X190958095Y-112603809D01*
X190910476Y-112699047D01*
X190910476Y-112841904D01*
X190958095Y-112937142D01*
X191005714Y-112984761D01*
X191100952Y-113032380D01*
X191481904Y-113032380D01*
X191481904Y-112032380D01*
X191148571Y-112032380D01*
X191053333Y-112080000D01*
X191005714Y-112127619D01*
X190958095Y-112222857D01*
X190958095Y-112318095D01*
X191005714Y-112413333D01*
X191053333Y-112460952D01*
X191148571Y-112508571D01*
X191481904Y-112508571D01*
X191578571Y-106762380D02*
X191340476Y-107762380D01*
X191150000Y-107048095D01*
X190959523Y-107762380D01*
X190721428Y-106762380D01*
X192362857Y-86486666D02*
X191886666Y-86486666D01*
X192458095Y-86772380D02*
X192124761Y-85772380D01*
X191791428Y-86772380D01*
X191029523Y-86772380D02*
X191029523Y-85772380D01*
X191029523Y-86724761D02*
X191124761Y-86772380D01*
X191315238Y-86772380D01*
X191410476Y-86724761D01*
X191458095Y-86677142D01*
X191505714Y-86581904D01*
X191505714Y-86296190D01*
X191458095Y-86200952D01*
X191410476Y-86153333D01*
X191315238Y-86105714D01*
X191124761Y-86105714D01*
X191029523Y-86153333D01*
X190124761Y-86772380D02*
X190124761Y-85772380D01*
X190124761Y-86724761D02*
X190220000Y-86772380D01*
X190410476Y-86772380D01*
X190505714Y-86724761D01*
X190553333Y-86677142D01*
X190600952Y-86581904D01*
X190600952Y-86296190D01*
X190553333Y-86200952D01*
X190505714Y-86153333D01*
X190410476Y-86105714D01*
X190220000Y-86105714D01*
X190124761Y-86153333D01*
X192708571Y-101812380D02*
X192375238Y-102812380D01*
X192041904Y-101812380D01*
X191708571Y-102812380D02*
X191708571Y-102145714D01*
X191708571Y-101812380D02*
X191756190Y-101860000D01*
X191708571Y-101907619D01*
X191660952Y-101860000D01*
X191708571Y-101812380D01*
X191708571Y-101907619D01*
X191232380Y-102145714D02*
X191232380Y-102812380D01*
X191232380Y-102240952D02*
X191184761Y-102193333D01*
X191089523Y-102145714D01*
X190946666Y-102145714D01*
X190851428Y-102193333D01*
X190803809Y-102288571D01*
X190803809Y-102812380D01*
X190565714Y-102907619D02*
X189803809Y-102907619D01*
X189708571Y-102145714D02*
X189327619Y-102145714D01*
X189565714Y-102812380D02*
X189565714Y-101955238D01*
X189518095Y-101860000D01*
X189422857Y-101812380D01*
X189327619Y-101812380D01*
X188565714Y-102145714D02*
X188565714Y-102812380D01*
X188994285Y-102145714D02*
X188994285Y-102669523D01*
X188946666Y-102764761D01*
X188851428Y-102812380D01*
X188708571Y-102812380D01*
X188613333Y-102764761D01*
X188565714Y-102717142D01*
X188137142Y-102764761D02*
X188041904Y-102812380D01*
X187851428Y-102812380D01*
X187756190Y-102764761D01*
X187708571Y-102669523D01*
X187708571Y-102621904D01*
X187756190Y-102526666D01*
X187851428Y-102479047D01*
X187994285Y-102479047D01*
X188089523Y-102431428D01*
X188137142Y-102336190D01*
X188137142Y-102288571D01*
X188089523Y-102193333D01*
X187994285Y-102145714D01*
X187851428Y-102145714D01*
X187756190Y-102193333D01*
X186899047Y-102764761D02*
X186994285Y-102812380D01*
X187184761Y-102812380D01*
X187280000Y-102764761D01*
X187327619Y-102669523D01*
X187327619Y-102288571D01*
X187280000Y-102193333D01*
X187184761Y-102145714D01*
X186994285Y-102145714D01*
X186899047Y-102193333D01*
X186851428Y-102288571D01*
X186851428Y-102383809D01*
X187327619Y-102479047D01*
X185994285Y-102812380D02*
X185994285Y-101812380D01*
X185994285Y-102764761D02*
X186089523Y-102812380D01*
X186280000Y-102812380D01*
X186375238Y-102764761D01*
X186422857Y-102717142D01*
X186470476Y-102621904D01*
X186470476Y-102336190D01*
X186422857Y-102240952D01*
X186375238Y-102193333D01*
X186280000Y-102145714D01*
X186089523Y-102145714D01*
X185994285Y-102193333D01*
X192708571Y-80572380D02*
X192375238Y-81572380D01*
X192041904Y-80572380D01*
X191708571Y-81572380D02*
X191708571Y-80905714D01*
X191708571Y-80572380D02*
X191756190Y-80620000D01*
X191708571Y-80667619D01*
X191660952Y-80620000D01*
X191708571Y-80572380D01*
X191708571Y-80667619D01*
X191232380Y-80905714D02*
X191232380Y-81572380D01*
X191232380Y-81000952D02*
X191184761Y-80953333D01*
X191089523Y-80905714D01*
X190946666Y-80905714D01*
X190851428Y-80953333D01*
X190803809Y-81048571D01*
X190803809Y-81572380D01*
X190565714Y-81667619D02*
X189803809Y-81667619D01*
X189708571Y-80905714D02*
X189327619Y-80905714D01*
X189565714Y-81572380D02*
X189565714Y-80715238D01*
X189518095Y-80620000D01*
X189422857Y-80572380D01*
X189327619Y-80572380D01*
X188565714Y-80905714D02*
X188565714Y-81572380D01*
X188994285Y-80905714D02*
X188994285Y-81429523D01*
X188946666Y-81524761D01*
X188851428Y-81572380D01*
X188708571Y-81572380D01*
X188613333Y-81524761D01*
X188565714Y-81477142D01*
X188137142Y-81524761D02*
X188041904Y-81572380D01*
X187851428Y-81572380D01*
X187756190Y-81524761D01*
X187708571Y-81429523D01*
X187708571Y-81381904D01*
X187756190Y-81286666D01*
X187851428Y-81239047D01*
X187994285Y-81239047D01*
X188089523Y-81191428D01*
X188137142Y-81096190D01*
X188137142Y-81048571D01*
X188089523Y-80953333D01*
X187994285Y-80905714D01*
X187851428Y-80905714D01*
X187756190Y-80953333D01*
X186899047Y-81524761D02*
X186994285Y-81572380D01*
X187184761Y-81572380D01*
X187280000Y-81524761D01*
X187327619Y-81429523D01*
X187327619Y-81048571D01*
X187280000Y-80953333D01*
X187184761Y-80905714D01*
X186994285Y-80905714D01*
X186899047Y-80953333D01*
X186851428Y-81048571D01*
X186851428Y-81143809D01*
X187327619Y-81239047D01*
X185994285Y-81572380D02*
X185994285Y-80572380D01*
X185994285Y-81524761D02*
X186089523Y-81572380D01*
X186280000Y-81572380D01*
X186375238Y-81524761D01*
X186422857Y-81477142D01*
X186470476Y-81381904D01*
X186470476Y-81096190D01*
X186422857Y-81000952D01*
X186375238Y-80953333D01*
X186280000Y-80905714D01*
X186089523Y-80905714D01*
X185994285Y-80953333D01*
X192343809Y-70082380D02*
X192010476Y-71082380D01*
X191677142Y-70082380D01*
X191343809Y-71082380D02*
X191343809Y-70415714D01*
X191343809Y-70082380D02*
X191391428Y-70130000D01*
X191343809Y-70177619D01*
X191296190Y-70130000D01*
X191343809Y-70082380D01*
X191343809Y-70177619D01*
X190867619Y-70415714D02*
X190867619Y-71082380D01*
X190867619Y-70510952D02*
X190820000Y-70463333D01*
X190724761Y-70415714D01*
X190581904Y-70415714D01*
X190486666Y-70463333D01*
X190439047Y-70558571D01*
X190439047Y-71082380D01*
X189053809Y-55572380D02*
X188720476Y-56572380D01*
X188387142Y-55572380D01*
X188053809Y-56572380D02*
X188053809Y-55905714D01*
X188053809Y-55572380D02*
X188101428Y-55620000D01*
X188053809Y-55667619D01*
X188006190Y-55620000D01*
X188053809Y-55572380D01*
X188053809Y-55667619D01*
X187577619Y-55905714D02*
X187577619Y-56572380D01*
X187577619Y-56000952D02*
X187530000Y-55953333D01*
X187434761Y-55905714D01*
X187291904Y-55905714D01*
X187196666Y-55953333D01*
X187149047Y-56048571D01*
X187149047Y-56572380D01*
X192041904Y-90730000D02*
X192137142Y-90682380D01*
X192280000Y-90682380D01*
X192422857Y-90730000D01*
X192518095Y-90825238D01*
X192565714Y-90920476D01*
X192613333Y-91110952D01*
X192613333Y-91253809D01*
X192565714Y-91444285D01*
X192518095Y-91539523D01*
X192422857Y-91634761D01*
X192280000Y-91682380D01*
X192184761Y-91682380D01*
X192041904Y-91634761D01*
X191994285Y-91587142D01*
X191994285Y-91253809D01*
X192184761Y-91253809D01*
X191565714Y-91682380D02*
X191565714Y-90682380D01*
X190994285Y-91682380D01*
X190994285Y-90682380D01*
X190518095Y-91682380D02*
X190518095Y-90682380D01*
X190280000Y-90682380D01*
X190137142Y-90730000D01*
X190041904Y-90825238D01*
X189994285Y-90920476D01*
X189946666Y-91110952D01*
X189946666Y-91253809D01*
X189994285Y-91444285D01*
X190041904Y-91539523D01*
X190137142Y-91634761D01*
X190280000Y-91682380D01*
X190518095Y-91682380D01*
X191911904Y-64880000D02*
X192007142Y-64832380D01*
X192150000Y-64832380D01*
X192292857Y-64880000D01*
X192388095Y-64975238D01*
X192435714Y-65070476D01*
X192483333Y-65260952D01*
X192483333Y-65403809D01*
X192435714Y-65594285D01*
X192388095Y-65689523D01*
X192292857Y-65784761D01*
X192150000Y-65832380D01*
X192054761Y-65832380D01*
X191911904Y-65784761D01*
X191864285Y-65737142D01*
X191864285Y-65403809D01*
X192054761Y-65403809D01*
X191435714Y-65832380D02*
X191435714Y-64832380D01*
X190864285Y-65832380D01*
X190864285Y-64832380D01*
X190388095Y-65832380D02*
X190388095Y-64832380D01*
X190150000Y-64832380D01*
X190007142Y-64880000D01*
X189911904Y-64975238D01*
X189864285Y-65070476D01*
X189816666Y-65260952D01*
X189816666Y-65403809D01*
X189864285Y-65594285D01*
X189911904Y-65689523D01*
X190007142Y-65784761D01*
X190150000Y-65832380D01*
X190388095Y-65832380D01*
X191911904Y-64800000D02*
X192007142Y-64752380D01*
X192150000Y-64752380D01*
X192292857Y-64800000D01*
X192388095Y-64895238D01*
X192435714Y-64990476D01*
X192483333Y-65180952D01*
X192483333Y-65323809D01*
X192435714Y-65514285D01*
X192388095Y-65609523D01*
X192292857Y-65704761D01*
X192150000Y-65752380D01*
X192054761Y-65752380D01*
X191911904Y-65704761D01*
X191864285Y-65657142D01*
X191864285Y-65323809D01*
X192054761Y-65323809D01*
X191435714Y-65752380D02*
X191435714Y-64752380D01*
X190864285Y-65752380D01*
X190864285Y-64752380D01*
X190388095Y-65752380D02*
X190388095Y-64752380D01*
X190150000Y-64752380D01*
X190007142Y-64800000D01*
X189911904Y-64895238D01*
X189864285Y-64990476D01*
X189816666Y-65180952D01*
X189816666Y-65323809D01*
X189864285Y-65514285D01*
X189911904Y-65609523D01*
X190007142Y-65704761D01*
X190150000Y-65752380D01*
X190388095Y-65752380D01*
X190041904Y-50730000D02*
X190137142Y-50682380D01*
X190280000Y-50682380D01*
X190422857Y-50730000D01*
X190518095Y-50825238D01*
X190565714Y-50920476D01*
X190613333Y-51110952D01*
X190613333Y-51253809D01*
X190565714Y-51444285D01*
X190518095Y-51539523D01*
X190422857Y-51634761D01*
X190280000Y-51682380D01*
X190184761Y-51682380D01*
X190041904Y-51634761D01*
X189994285Y-51587142D01*
X189994285Y-51253809D01*
X190184761Y-51253809D01*
X189565714Y-51682380D02*
X189565714Y-50682380D01*
X188994285Y-51682380D01*
X188994285Y-50682380D01*
X188518095Y-51682380D02*
X188518095Y-50682380D01*
X188280000Y-50682380D01*
X188137142Y-50730000D01*
X188041904Y-50825238D01*
X187994285Y-50920476D01*
X187946666Y-51110952D01*
X187946666Y-51253809D01*
X187994285Y-51444285D01*
X188041904Y-51539523D01*
X188137142Y-51634761D01*
X188280000Y-51682380D01*
X188518095Y-51682380D01*
X155723809Y-36192380D02*
X155723809Y-35192380D01*
X155342857Y-35192380D01*
X155247619Y-35240000D01*
X155200000Y-35287619D01*
X155152380Y-35382857D01*
X155152380Y-35525714D01*
X155200000Y-35620952D01*
X155247619Y-35668571D01*
X155342857Y-35716190D01*
X155723809Y-35716190D01*
X154533333Y-35192380D02*
X154342857Y-35192380D01*
X154247619Y-35240000D01*
X154152380Y-35335238D01*
X154104761Y-35525714D01*
X154104761Y-35859047D01*
X154152380Y-36049523D01*
X154247619Y-36144761D01*
X154342857Y-36192380D01*
X154533333Y-36192380D01*
X154628571Y-36144761D01*
X154723809Y-36049523D01*
X154771428Y-35859047D01*
X154771428Y-35525714D01*
X154723809Y-35335238D01*
X154628571Y-35240000D01*
X154533333Y-35192380D01*
X153819047Y-35192380D02*
X153247619Y-35192380D01*
X153533333Y-36192380D02*
X153533333Y-35192380D01*
X153152380Y-36287619D02*
X152390476Y-36287619D01*
X151628571Y-36192380D02*
X152200000Y-36192380D01*
X151914285Y-36192380D02*
X151914285Y-35192380D01*
X152009523Y-35335238D01*
X152104761Y-35430476D01*
X152200000Y-35478095D01*
X138233809Y-36172380D02*
X138233809Y-35172380D01*
X137852857Y-35172380D01*
X137757619Y-35220000D01*
X137710000Y-35267619D01*
X137662380Y-35362857D01*
X137662380Y-35505714D01*
X137710000Y-35600952D01*
X137757619Y-35648571D01*
X137852857Y-35696190D01*
X138233809Y-35696190D01*
X137043333Y-35172380D02*
X136852857Y-35172380D01*
X136757619Y-35220000D01*
X136662380Y-35315238D01*
X136614761Y-35505714D01*
X136614761Y-35839047D01*
X136662380Y-36029523D01*
X136757619Y-36124761D01*
X136852857Y-36172380D01*
X137043333Y-36172380D01*
X137138571Y-36124761D01*
X137233809Y-36029523D01*
X137281428Y-35839047D01*
X137281428Y-35505714D01*
X137233809Y-35315238D01*
X137138571Y-35220000D01*
X137043333Y-35172380D01*
X136329047Y-35172380D02*
X135757619Y-35172380D01*
X136043333Y-36172380D02*
X136043333Y-35172380D01*
X135662380Y-36267619D02*
X134900476Y-36267619D01*
X134710000Y-35267619D02*
X134662380Y-35220000D01*
X134567142Y-35172380D01*
X134329047Y-35172380D01*
X134233809Y-35220000D01*
X134186190Y-35267619D01*
X134138571Y-35362857D01*
X134138571Y-35458095D01*
X134186190Y-35600952D01*
X134757619Y-36172380D01*
X134138571Y-36172380D01*
X132051904Y-36920000D02*
X132147142Y-36872380D01*
X132290000Y-36872380D01*
X132432857Y-36920000D01*
X132528095Y-37015238D01*
X132575714Y-37110476D01*
X132623333Y-37300952D01*
X132623333Y-37443809D01*
X132575714Y-37634285D01*
X132528095Y-37729523D01*
X132432857Y-37824761D01*
X132290000Y-37872380D01*
X132194761Y-37872380D01*
X132051904Y-37824761D01*
X132004285Y-37777142D01*
X132004285Y-37443809D01*
X132194761Y-37443809D01*
X131575714Y-37872380D02*
X131575714Y-36872380D01*
X131004285Y-37872380D01*
X131004285Y-36872380D01*
X130528095Y-37872380D02*
X130528095Y-36872380D01*
X130290000Y-36872380D01*
X130147142Y-36920000D01*
X130051904Y-37015238D01*
X130004285Y-37110476D01*
X129956666Y-37300952D01*
X129956666Y-37443809D01*
X130004285Y-37634285D01*
X130051904Y-37729523D01*
X130147142Y-37824761D01*
X130290000Y-37872380D01*
X130528095Y-37872380D01*
X149571904Y-36490000D02*
X149667142Y-36442380D01*
X149810000Y-36442380D01*
X149952857Y-36490000D01*
X150048095Y-36585238D01*
X150095714Y-36680476D01*
X150143333Y-36870952D01*
X150143333Y-37013809D01*
X150095714Y-37204285D01*
X150048095Y-37299523D01*
X149952857Y-37394761D01*
X149810000Y-37442380D01*
X149714761Y-37442380D01*
X149571904Y-37394761D01*
X149524285Y-37347142D01*
X149524285Y-37013809D01*
X149714761Y-37013809D01*
X149095714Y-37442380D02*
X149095714Y-36442380D01*
X148524285Y-37442380D01*
X148524285Y-36442380D01*
X148048095Y-37442380D02*
X148048095Y-36442380D01*
X147810000Y-36442380D01*
X147667142Y-36490000D01*
X147571904Y-36585238D01*
X147524285Y-36680476D01*
X147476666Y-36870952D01*
X147476666Y-37013809D01*
X147524285Y-37204285D01*
X147571904Y-37299523D01*
X147667142Y-37394761D01*
X147810000Y-37442380D01*
X148048095Y-37442380D01*
X161770000Y-37271428D02*
X161008095Y-37271428D01*
X161389047Y-37652380D02*
X161389047Y-36890476D01*
X160627142Y-36652380D02*
X160008095Y-36652380D01*
X160341428Y-37033333D01*
X160198571Y-37033333D01*
X160103333Y-37080952D01*
X160055714Y-37128571D01*
X160008095Y-37223809D01*
X160008095Y-37461904D01*
X160055714Y-37557142D01*
X160103333Y-37604761D01*
X160198571Y-37652380D01*
X160484285Y-37652380D01*
X160579523Y-37604761D01*
X160627142Y-37557142D01*
X159579523Y-37557142D02*
X159531904Y-37604761D01*
X159579523Y-37652380D01*
X159627142Y-37604761D01*
X159579523Y-37557142D01*
X159579523Y-37652380D01*
X159198571Y-36652380D02*
X158579523Y-36652380D01*
X158912857Y-37033333D01*
X158770000Y-37033333D01*
X158674761Y-37080952D01*
X158627142Y-37128571D01*
X158579523Y-37223809D01*
X158579523Y-37461904D01*
X158627142Y-37557142D01*
X158674761Y-37604761D01*
X158770000Y-37652380D01*
X159055714Y-37652380D01*
X159150952Y-37604761D01*
X159198571Y-37557142D01*
X158293809Y-36652380D02*
X157960476Y-37652380D01*
X157627142Y-36652380D01*
X144640000Y-37291428D02*
X143878095Y-37291428D01*
X144259047Y-37672380D02*
X144259047Y-36910476D01*
X143497142Y-36672380D02*
X142878095Y-36672380D01*
X143211428Y-37053333D01*
X143068571Y-37053333D01*
X142973333Y-37100952D01*
X142925714Y-37148571D01*
X142878095Y-37243809D01*
X142878095Y-37481904D01*
X142925714Y-37577142D01*
X142973333Y-37624761D01*
X143068571Y-37672380D01*
X143354285Y-37672380D01*
X143449523Y-37624761D01*
X143497142Y-37577142D01*
X142449523Y-37577142D02*
X142401904Y-37624761D01*
X142449523Y-37672380D01*
X142497142Y-37624761D01*
X142449523Y-37577142D01*
X142449523Y-37672380D01*
X142068571Y-36672380D02*
X141449523Y-36672380D01*
X141782857Y-37053333D01*
X141640000Y-37053333D01*
X141544761Y-37100952D01*
X141497142Y-37148571D01*
X141449523Y-37243809D01*
X141449523Y-37481904D01*
X141497142Y-37577142D01*
X141544761Y-37624761D01*
X141640000Y-37672380D01*
X141925714Y-37672380D01*
X142020952Y-37624761D01*
X142068571Y-37577142D01*
X141163809Y-36672380D02*
X140830476Y-37672380D01*
X140497142Y-36672380D01*
X116570000Y-40561428D02*
X115808095Y-40561428D01*
X116189047Y-40942380D02*
X116189047Y-40180476D01*
X115427142Y-39942380D02*
X114808095Y-39942380D01*
X115141428Y-40323333D01*
X114998571Y-40323333D01*
X114903333Y-40370952D01*
X114855714Y-40418571D01*
X114808095Y-40513809D01*
X114808095Y-40751904D01*
X114855714Y-40847142D01*
X114903333Y-40894761D01*
X114998571Y-40942380D01*
X115284285Y-40942380D01*
X115379523Y-40894761D01*
X115427142Y-40847142D01*
X114379523Y-40847142D02*
X114331904Y-40894761D01*
X114379523Y-40942380D01*
X114427142Y-40894761D01*
X114379523Y-40847142D01*
X114379523Y-40942380D01*
X113998571Y-39942380D02*
X113379523Y-39942380D01*
X113712857Y-40323333D01*
X113570000Y-40323333D01*
X113474761Y-40370952D01*
X113427142Y-40418571D01*
X113379523Y-40513809D01*
X113379523Y-40751904D01*
X113427142Y-40847142D01*
X113474761Y-40894761D01*
X113570000Y-40942380D01*
X113855714Y-40942380D01*
X113950952Y-40894761D01*
X113998571Y-40847142D01*
X113093809Y-39942380D02*
X112760476Y-40942380D01*
X112427142Y-39942380D01*
X123364761Y-41910952D02*
X123412380Y-42053809D01*
X123412380Y-42291904D01*
X123364761Y-42387142D01*
X123317142Y-42434761D01*
X123221904Y-42482380D01*
X123126666Y-42482380D01*
X123031428Y-42434761D01*
X122983809Y-42387142D01*
X122936190Y-42291904D01*
X122888571Y-42101428D01*
X122840952Y-42006190D01*
X122793333Y-41958571D01*
X122698095Y-41910952D01*
X122602857Y-41910952D01*
X122507619Y-41958571D01*
X122460000Y-42006190D01*
X122412380Y-42101428D01*
X122412380Y-42339523D01*
X122460000Y-42482380D01*
X122745714Y-42815714D02*
X123412380Y-43006190D01*
X122936190Y-43196666D01*
X123412380Y-43387142D01*
X122745714Y-43577619D01*
X123317142Y-44530000D02*
X123364761Y-44482380D01*
X123412380Y-44339523D01*
X123412380Y-44244285D01*
X123364761Y-44101428D01*
X123269523Y-44006190D01*
X123174285Y-43958571D01*
X122983809Y-43910952D01*
X122840952Y-43910952D01*
X122650476Y-43958571D01*
X122555238Y-44006190D01*
X122460000Y-44101428D01*
X122412380Y-44244285D01*
X122412380Y-44339523D01*
X122460000Y-44482380D01*
X122507619Y-44530000D01*
X123412380Y-45101428D02*
X123364761Y-45006190D01*
X123317142Y-44958571D01*
X123221904Y-44910952D01*
X122936190Y-44910952D01*
X122840952Y-44958571D01*
X122793333Y-45006190D01*
X122745714Y-45101428D01*
X122745714Y-45244285D01*
X122793333Y-45339523D01*
X122840952Y-45387142D01*
X122936190Y-45434761D01*
X123221904Y-45434761D01*
X123317142Y-45387142D01*
X123364761Y-45339523D01*
X123412380Y-45244285D01*
X123412380Y-45101428D01*
X123412380Y-46291904D02*
X122412380Y-46291904D01*
X123364761Y-46291904D02*
X123412380Y-46196666D01*
X123412380Y-46006190D01*
X123364761Y-45910952D01*
X123317142Y-45863333D01*
X123221904Y-45815714D01*
X122936190Y-45815714D01*
X122840952Y-45863333D01*
X122793333Y-45910952D01*
X122745714Y-46006190D01*
X122745714Y-46196666D01*
X122793333Y-46291904D01*
X123364761Y-47149047D02*
X123412380Y-47053809D01*
X123412380Y-46863333D01*
X123364761Y-46768095D01*
X123269523Y-46720476D01*
X122888571Y-46720476D01*
X122793333Y-46768095D01*
X122745714Y-46863333D01*
X122745714Y-47053809D01*
X122793333Y-47149047D01*
X122888571Y-47196666D01*
X122983809Y-47196666D01*
X123079047Y-46720476D01*
X122840952Y-47768095D02*
X122793333Y-47672857D01*
X122745714Y-47625238D01*
X122650476Y-47577619D01*
X122602857Y-47577619D01*
X122507619Y-47625238D01*
X122460000Y-47672857D01*
X122412380Y-47768095D01*
X122412380Y-47958571D01*
X122460000Y-48053809D01*
X122507619Y-48101428D01*
X122602857Y-48149047D01*
X122650476Y-48149047D01*
X122745714Y-48101428D01*
X122793333Y-48053809D01*
X122840952Y-47958571D01*
X122840952Y-47768095D01*
X122888571Y-47672857D01*
X122936190Y-47625238D01*
X123031428Y-47577619D01*
X123221904Y-47577619D01*
X123317142Y-47625238D01*
X123364761Y-47672857D01*
X123412380Y-47768095D01*
X123412380Y-47958571D01*
X123364761Y-48053809D01*
X123317142Y-48101428D01*
X123221904Y-48149047D01*
X123031428Y-48149047D01*
X122936190Y-48101428D01*
X122888571Y-48053809D01*
X122840952Y-47958571D01*
X120864761Y-41960952D02*
X120912380Y-42103809D01*
X120912380Y-42341904D01*
X120864761Y-42437142D01*
X120817142Y-42484761D01*
X120721904Y-42532380D01*
X120626666Y-42532380D01*
X120531428Y-42484761D01*
X120483809Y-42437142D01*
X120436190Y-42341904D01*
X120388571Y-42151428D01*
X120340952Y-42056190D01*
X120293333Y-42008571D01*
X120198095Y-41960952D01*
X120102857Y-41960952D01*
X120007619Y-42008571D01*
X119960000Y-42056190D01*
X119912380Y-42151428D01*
X119912380Y-42389523D01*
X119960000Y-42532380D01*
X120245714Y-42865714D02*
X120912380Y-43056190D01*
X120436190Y-43246666D01*
X120912380Y-43437142D01*
X120245714Y-43627619D01*
X120817142Y-44580000D02*
X120864761Y-44532380D01*
X120912380Y-44389523D01*
X120912380Y-44294285D01*
X120864761Y-44151428D01*
X120769523Y-44056190D01*
X120674285Y-44008571D01*
X120483809Y-43960952D01*
X120340952Y-43960952D01*
X120150476Y-44008571D01*
X120055238Y-44056190D01*
X119960000Y-44151428D01*
X119912380Y-44294285D01*
X119912380Y-44389523D01*
X119960000Y-44532380D01*
X120007619Y-44580000D01*
X120912380Y-45151428D02*
X120864761Y-45056190D01*
X120817142Y-45008571D01*
X120721904Y-44960952D01*
X120436190Y-44960952D01*
X120340952Y-45008571D01*
X120293333Y-45056190D01*
X120245714Y-45151428D01*
X120245714Y-45294285D01*
X120293333Y-45389523D01*
X120340952Y-45437142D01*
X120436190Y-45484761D01*
X120721904Y-45484761D01*
X120817142Y-45437142D01*
X120864761Y-45389523D01*
X120912380Y-45294285D01*
X120912380Y-45151428D01*
X120912380Y-46341904D02*
X119912380Y-46341904D01*
X120864761Y-46341904D02*
X120912380Y-46246666D01*
X120912380Y-46056190D01*
X120864761Y-45960952D01*
X120817142Y-45913333D01*
X120721904Y-45865714D01*
X120436190Y-45865714D01*
X120340952Y-45913333D01*
X120293333Y-45960952D01*
X120245714Y-46056190D01*
X120245714Y-46246666D01*
X120293333Y-46341904D01*
X120864761Y-47199047D02*
X120912380Y-47103809D01*
X120912380Y-46913333D01*
X120864761Y-46818095D01*
X120769523Y-46770476D01*
X120388571Y-46770476D01*
X120293333Y-46818095D01*
X120245714Y-46913333D01*
X120245714Y-47103809D01*
X120293333Y-47199047D01*
X120388571Y-47246666D01*
X120483809Y-47246666D01*
X120579047Y-46770476D01*
X120245714Y-48103809D02*
X120912380Y-48103809D01*
X119864761Y-47865714D02*
X120579047Y-47627619D01*
X120579047Y-48246666D01*
X118444761Y-41910952D02*
X118492380Y-42053809D01*
X118492380Y-42291904D01*
X118444761Y-42387142D01*
X118397142Y-42434761D01*
X118301904Y-42482380D01*
X118206666Y-42482380D01*
X118111428Y-42434761D01*
X118063809Y-42387142D01*
X118016190Y-42291904D01*
X117968571Y-42101428D01*
X117920952Y-42006190D01*
X117873333Y-41958571D01*
X117778095Y-41910952D01*
X117682857Y-41910952D01*
X117587619Y-41958571D01*
X117540000Y-42006190D01*
X117492380Y-42101428D01*
X117492380Y-42339523D01*
X117540000Y-42482380D01*
X117825714Y-42815714D02*
X118492380Y-43006190D01*
X118016190Y-43196666D01*
X118492380Y-43387142D01*
X117825714Y-43577619D01*
X118397142Y-44530000D02*
X118444761Y-44482380D01*
X118492380Y-44339523D01*
X118492380Y-44244285D01*
X118444761Y-44101428D01*
X118349523Y-44006190D01*
X118254285Y-43958571D01*
X118063809Y-43910952D01*
X117920952Y-43910952D01*
X117730476Y-43958571D01*
X117635238Y-44006190D01*
X117540000Y-44101428D01*
X117492380Y-44244285D01*
X117492380Y-44339523D01*
X117540000Y-44482380D01*
X117587619Y-44530000D01*
X118492380Y-45101428D02*
X118444761Y-45006190D01*
X118397142Y-44958571D01*
X118301904Y-44910952D01*
X118016190Y-44910952D01*
X117920952Y-44958571D01*
X117873333Y-45006190D01*
X117825714Y-45101428D01*
X117825714Y-45244285D01*
X117873333Y-45339523D01*
X117920952Y-45387142D01*
X118016190Y-45434761D01*
X118301904Y-45434761D01*
X118397142Y-45387142D01*
X118444761Y-45339523D01*
X118492380Y-45244285D01*
X118492380Y-45101428D01*
X118492380Y-46291904D02*
X117492380Y-46291904D01*
X118444761Y-46291904D02*
X118492380Y-46196666D01*
X118492380Y-46006190D01*
X118444761Y-45910952D01*
X118397142Y-45863333D01*
X118301904Y-45815714D01*
X118016190Y-45815714D01*
X117920952Y-45863333D01*
X117873333Y-45910952D01*
X117825714Y-46006190D01*
X117825714Y-46196666D01*
X117873333Y-46291904D01*
X118444761Y-47149047D02*
X118492380Y-47053809D01*
X118492380Y-46863333D01*
X118444761Y-46768095D01*
X118349523Y-46720476D01*
X117968571Y-46720476D01*
X117873333Y-46768095D01*
X117825714Y-46863333D01*
X117825714Y-47053809D01*
X117873333Y-47149047D01*
X117968571Y-47196666D01*
X118063809Y-47196666D01*
X118159047Y-46720476D01*
X117587619Y-47577619D02*
X117540000Y-47625238D01*
X117492380Y-47720476D01*
X117492380Y-47958571D01*
X117540000Y-48053809D01*
X117587619Y-48101428D01*
X117682857Y-48149047D01*
X117778095Y-48149047D01*
X117920952Y-48101428D01*
X118492380Y-47530000D01*
X118492380Y-48149047D01*
X115614761Y-41830952D02*
X115662380Y-41973809D01*
X115662380Y-42211904D01*
X115614761Y-42307142D01*
X115567142Y-42354761D01*
X115471904Y-42402380D01*
X115376666Y-42402380D01*
X115281428Y-42354761D01*
X115233809Y-42307142D01*
X115186190Y-42211904D01*
X115138571Y-42021428D01*
X115090952Y-41926190D01*
X115043333Y-41878571D01*
X114948095Y-41830952D01*
X114852857Y-41830952D01*
X114757619Y-41878571D01*
X114710000Y-41926190D01*
X114662380Y-42021428D01*
X114662380Y-42259523D01*
X114710000Y-42402380D01*
X114995714Y-42735714D02*
X115662380Y-42926190D01*
X115186190Y-43116666D01*
X115662380Y-43307142D01*
X114995714Y-43497619D01*
X115567142Y-44450000D02*
X115614761Y-44402380D01*
X115662380Y-44259523D01*
X115662380Y-44164285D01*
X115614761Y-44021428D01*
X115519523Y-43926190D01*
X115424285Y-43878571D01*
X115233809Y-43830952D01*
X115090952Y-43830952D01*
X114900476Y-43878571D01*
X114805238Y-43926190D01*
X114710000Y-44021428D01*
X114662380Y-44164285D01*
X114662380Y-44259523D01*
X114710000Y-44402380D01*
X114757619Y-44450000D01*
X115662380Y-45021428D02*
X115614761Y-44926190D01*
X115567142Y-44878571D01*
X115471904Y-44830952D01*
X115186190Y-44830952D01*
X115090952Y-44878571D01*
X115043333Y-44926190D01*
X114995714Y-45021428D01*
X114995714Y-45164285D01*
X115043333Y-45259523D01*
X115090952Y-45307142D01*
X115186190Y-45354761D01*
X115471904Y-45354761D01*
X115567142Y-45307142D01*
X115614761Y-45259523D01*
X115662380Y-45164285D01*
X115662380Y-45021428D01*
X115662380Y-46211904D02*
X114662380Y-46211904D01*
X115614761Y-46211904D02*
X115662380Y-46116666D01*
X115662380Y-45926190D01*
X115614761Y-45830952D01*
X115567142Y-45783333D01*
X115471904Y-45735714D01*
X115186190Y-45735714D01*
X115090952Y-45783333D01*
X115043333Y-45830952D01*
X114995714Y-45926190D01*
X114995714Y-46116666D01*
X115043333Y-46211904D01*
X115614761Y-47069047D02*
X115662380Y-46973809D01*
X115662380Y-46783333D01*
X115614761Y-46688095D01*
X115519523Y-46640476D01*
X115138571Y-46640476D01*
X115043333Y-46688095D01*
X114995714Y-46783333D01*
X114995714Y-46973809D01*
X115043333Y-47069047D01*
X115138571Y-47116666D01*
X115233809Y-47116666D01*
X115329047Y-46640476D01*
X115662380Y-48069047D02*
X115662380Y-47497619D01*
X115662380Y-47783333D02*
X114662380Y-47783333D01*
X114805238Y-47688095D01*
X114900476Y-47592857D01*
X114948095Y-47497619D01*
X138000000Y-82321904D02*
X138047619Y-82417142D01*
X138047619Y-82560000D01*
X138000000Y-82702857D01*
X137904761Y-82798095D01*
X137809523Y-82845714D01*
X137619047Y-82893333D01*
X137476190Y-82893333D01*
X137285714Y-82845714D01*
X137190476Y-82798095D01*
X137095238Y-82702857D01*
X137047619Y-82560000D01*
X137047619Y-82464761D01*
X137095238Y-82321904D01*
X137142857Y-82274285D01*
X137476190Y-82274285D01*
X137476190Y-82464761D01*
X137047619Y-81845714D02*
X138047619Y-81845714D01*
X137047619Y-81274285D01*
X138047619Y-81274285D01*
X137047619Y-80798095D02*
X138047619Y-80798095D01*
X138047619Y-80560000D01*
X138000000Y-80417142D01*
X137904761Y-80321904D01*
X137809523Y-80274285D01*
X137619047Y-80226666D01*
X137476190Y-80226666D01*
X137285714Y-80274285D01*
X137190476Y-80321904D01*
X137095238Y-80417142D01*
X137047619Y-80560000D01*
X137047619Y-80798095D01*
X135547619Y-82430476D02*
X135547619Y-82906666D01*
X135071428Y-82954285D01*
X135119047Y-82906666D01*
X135166666Y-82811428D01*
X135166666Y-82573333D01*
X135119047Y-82478095D01*
X135071428Y-82430476D01*
X134976190Y-82382857D01*
X134738095Y-82382857D01*
X134642857Y-82430476D01*
X134595238Y-82478095D01*
X134547619Y-82573333D01*
X134547619Y-82811428D01*
X134595238Y-82906666D01*
X134642857Y-82954285D01*
X135547619Y-82097142D02*
X134547619Y-81763809D01*
X135547619Y-81430476D01*
X142205714Y-104077142D02*
X142253333Y-104124761D01*
X142396190Y-104172380D01*
X142491428Y-104172380D01*
X142634285Y-104124761D01*
X142729523Y-104029523D01*
X142777142Y-103934285D01*
X142824761Y-103743809D01*
X142824761Y-103600952D01*
X142777142Y-103410476D01*
X142729523Y-103315238D01*
X142634285Y-103220000D01*
X142491428Y-103172380D01*
X142396190Y-103172380D01*
X142253333Y-103220000D01*
X142205714Y-103267619D01*
X141348571Y-103505714D02*
X141348571Y-104172380D01*
X141777142Y-103505714D02*
X141777142Y-104029523D01*
X141729523Y-104124761D01*
X141634285Y-104172380D01*
X141491428Y-104172380D01*
X141396190Y-104124761D01*
X141348571Y-104077142D01*
X140872380Y-104172380D02*
X140872380Y-103505714D01*
X140872380Y-103696190D02*
X140824761Y-103600952D01*
X140777142Y-103553333D01*
X140681904Y-103505714D01*
X140586666Y-103505714D01*
X140253333Y-104172380D02*
X140253333Y-103505714D01*
X140253333Y-103696190D02*
X140205714Y-103600952D01*
X140158095Y-103553333D01*
X140062857Y-103505714D01*
X139967619Y-103505714D01*
X139253333Y-104124761D02*
X139348571Y-104172380D01*
X139539047Y-104172380D01*
X139634285Y-104124761D01*
X139681904Y-104029523D01*
X139681904Y-103648571D01*
X139634285Y-103553333D01*
X139539047Y-103505714D01*
X139348571Y-103505714D01*
X139253333Y-103553333D01*
X139205714Y-103648571D01*
X139205714Y-103743809D01*
X139681904Y-103839047D01*
X138777142Y-103505714D02*
X138777142Y-104172380D01*
X138777142Y-103600952D02*
X138729523Y-103553333D01*
X138634285Y-103505714D01*
X138491428Y-103505714D01*
X138396190Y-103553333D01*
X138348571Y-103648571D01*
X138348571Y-104172380D01*
X138015238Y-103505714D02*
X137634285Y-103505714D01*
X137872380Y-103172380D02*
X137872380Y-104029523D01*
X137824761Y-104124761D01*
X137729523Y-104172380D01*
X137634285Y-104172380D01*
X137539047Y-104267619D02*
X136777142Y-104267619D01*
X136205714Y-103648571D02*
X136539047Y-103648571D01*
X136539047Y-104172380D02*
X136539047Y-103172380D01*
X136062857Y-103172380D01*
X135300952Y-104124761D02*
X135396190Y-104172380D01*
X135586666Y-104172380D01*
X135681904Y-104124761D01*
X135729523Y-104029523D01*
X135729523Y-103648571D01*
X135681904Y-103553333D01*
X135586666Y-103505714D01*
X135396190Y-103505714D01*
X135300952Y-103553333D01*
X135253333Y-103648571D01*
X135253333Y-103743809D01*
X135729523Y-103839047D01*
X134443809Y-104124761D02*
X134539047Y-104172380D01*
X134729523Y-104172380D01*
X134824761Y-104124761D01*
X134872380Y-104029523D01*
X134872380Y-103648571D01*
X134824761Y-103553333D01*
X134729523Y-103505714D01*
X134539047Y-103505714D01*
X134443809Y-103553333D01*
X134396190Y-103648571D01*
X134396190Y-103743809D01*
X134872380Y-103839047D01*
X133539047Y-104172380D02*
X133539047Y-103172380D01*
X133539047Y-104124761D02*
X133634285Y-104172380D01*
X133824761Y-104172380D01*
X133920000Y-104124761D01*
X133967619Y-104077142D01*
X134015238Y-103981904D01*
X134015238Y-103696190D01*
X133967619Y-103600952D01*
X133920000Y-103553333D01*
X133824761Y-103505714D01*
X133634285Y-103505714D01*
X133539047Y-103553333D01*
X133062857Y-104172380D02*
X133062857Y-103172380D01*
X133062857Y-103553333D02*
X132967619Y-103505714D01*
X132777142Y-103505714D01*
X132681904Y-103553333D01*
X132634285Y-103600952D01*
X132586666Y-103696190D01*
X132586666Y-103981904D01*
X132634285Y-104077142D01*
X132681904Y-104124761D01*
X132777142Y-104172380D01*
X132967619Y-104172380D01*
X133062857Y-104124761D01*
X131729523Y-104172380D02*
X131729523Y-103648571D01*
X131777142Y-103553333D01*
X131872380Y-103505714D01*
X132062857Y-103505714D01*
X132158095Y-103553333D01*
X131729523Y-104124761D02*
X131824761Y-104172380D01*
X132062857Y-104172380D01*
X132158095Y-104124761D01*
X132205714Y-104029523D01*
X132205714Y-103934285D01*
X132158095Y-103839047D01*
X132062857Y-103791428D01*
X131824761Y-103791428D01*
X131729523Y-103743809D01*
X130824761Y-104124761D02*
X130920000Y-104172380D01*
X131110476Y-104172380D01*
X131205714Y-104124761D01*
X131253333Y-104077142D01*
X131300952Y-103981904D01*
X131300952Y-103696190D01*
X131253333Y-103600952D01*
X131205714Y-103553333D01*
X131110476Y-103505714D01*
X130920000Y-103505714D01*
X130824761Y-103553333D01*
X130396190Y-104172380D02*
X130396190Y-103172380D01*
X130300952Y-103791428D02*
X130015238Y-104172380D01*
X130015238Y-103505714D02*
X130396190Y-103886666D01*
X142586666Y-100938571D02*
X142253333Y-100938571D01*
X142110476Y-101462380D02*
X142586666Y-101462380D01*
X142586666Y-100462380D01*
X142110476Y-100462380D01*
X141681904Y-100795714D02*
X141681904Y-101462380D01*
X141681904Y-100890952D02*
X141634285Y-100843333D01*
X141539047Y-100795714D01*
X141396190Y-100795714D01*
X141300952Y-100843333D01*
X141253333Y-100938571D01*
X141253333Y-101462380D01*
X140348571Y-101462380D02*
X140348571Y-100938571D01*
X140396190Y-100843333D01*
X140491428Y-100795714D01*
X140681904Y-100795714D01*
X140777142Y-100843333D01*
X140348571Y-101414761D02*
X140443809Y-101462380D01*
X140681904Y-101462380D01*
X140777142Y-101414761D01*
X140824761Y-101319523D01*
X140824761Y-101224285D01*
X140777142Y-101129047D01*
X140681904Y-101081428D01*
X140443809Y-101081428D01*
X140348571Y-101033809D01*
X139872380Y-101462380D02*
X139872380Y-100462380D01*
X139872380Y-100843333D02*
X139777142Y-100795714D01*
X139586666Y-100795714D01*
X139491428Y-100843333D01*
X139443809Y-100890952D01*
X139396190Y-100986190D01*
X139396190Y-101271904D01*
X139443809Y-101367142D01*
X139491428Y-101414761D01*
X139586666Y-101462380D01*
X139777142Y-101462380D01*
X139872380Y-101414761D01*
X138824761Y-101462380D02*
X138920000Y-101414761D01*
X138967619Y-101319523D01*
X138967619Y-100462380D01*
X138062857Y-101414761D02*
X138158095Y-101462380D01*
X138348571Y-101462380D01*
X138443809Y-101414761D01*
X138491428Y-101319523D01*
X138491428Y-100938571D01*
X138443809Y-100843333D01*
X138348571Y-100795714D01*
X138158095Y-100795714D01*
X138062857Y-100843333D01*
X138015238Y-100938571D01*
X138015238Y-101033809D01*
X138491428Y-101129047D01*
X137824761Y-101557619D02*
X137062857Y-101557619D01*
X136967619Y-100462380D02*
X136634285Y-101462380D01*
X136300952Y-100462380D01*
X135967619Y-101462380D02*
X135967619Y-100795714D01*
X135967619Y-100462380D02*
X136015238Y-100510000D01*
X135967619Y-100557619D01*
X135920000Y-100510000D01*
X135967619Y-100462380D01*
X135967619Y-100557619D01*
X135491428Y-100795714D02*
X135491428Y-101462380D01*
X135491428Y-100890952D02*
X135443809Y-100843333D01*
X135348571Y-100795714D01*
X135205714Y-100795714D01*
X135110476Y-100843333D01*
X135062857Y-100938571D01*
X135062857Y-101462380D01*
X134824761Y-101557619D02*
X134062857Y-101557619D01*
X133967619Y-100795714D02*
X133586666Y-100795714D01*
X133824761Y-101462380D02*
X133824761Y-100605238D01*
X133777142Y-100510000D01*
X133681904Y-100462380D01*
X133586666Y-100462380D01*
X132824761Y-100795714D02*
X132824761Y-101462380D01*
X133253333Y-100795714D02*
X133253333Y-101319523D01*
X133205714Y-101414761D01*
X133110476Y-101462380D01*
X132967619Y-101462380D01*
X132872380Y-101414761D01*
X132824761Y-101367142D01*
X132396190Y-101414761D02*
X132300952Y-101462380D01*
X132110476Y-101462380D01*
X132015238Y-101414761D01*
X131967619Y-101319523D01*
X131967619Y-101271904D01*
X132015238Y-101176666D01*
X132110476Y-101129047D01*
X132253333Y-101129047D01*
X132348571Y-101081428D01*
X132396190Y-100986190D01*
X132396190Y-100938571D01*
X132348571Y-100843333D01*
X132253333Y-100795714D01*
X132110476Y-100795714D01*
X132015238Y-100843333D01*
X131158095Y-101414761D02*
X131253333Y-101462380D01*
X131443809Y-101462380D01*
X131539047Y-101414761D01*
X131586666Y-101319523D01*
X131586666Y-100938571D01*
X131539047Y-100843333D01*
X131443809Y-100795714D01*
X131253333Y-100795714D01*
X131158095Y-100843333D01*
X131110476Y-100938571D01*
X131110476Y-101033809D01*
X131586666Y-101129047D01*
X130253333Y-101462380D02*
X130253333Y-100462380D01*
X130253333Y-101414761D02*
X130348571Y-101462380D01*
X130539047Y-101462380D01*
X130634285Y-101414761D01*
X130681904Y-101367142D01*
X130729523Y-101271904D01*
X130729523Y-100986190D01*
X130681904Y-100890952D01*
X130634285Y-100843333D01*
X130539047Y-100795714D01*
X130348571Y-100795714D01*
X130253333Y-100843333D01*
X115804285Y-92757619D02*
X115756666Y-92710000D01*
X115661428Y-92662380D01*
X115423333Y-92662380D01*
X115328095Y-92710000D01*
X115280476Y-92757619D01*
X115232857Y-92852857D01*
X115232857Y-92948095D01*
X115280476Y-93090952D01*
X115851904Y-93662380D01*
X115232857Y-93662380D01*
X114042380Y-93662380D02*
X114042380Y-92662380D01*
X113804285Y-92662380D01*
X113661428Y-92710000D01*
X113566190Y-92805238D01*
X113518571Y-92900476D01*
X113470952Y-93090952D01*
X113470952Y-93233809D01*
X113518571Y-93424285D01*
X113566190Y-93519523D01*
X113661428Y-93614761D01*
X113804285Y-93662380D01*
X114042380Y-93662380D01*
X113042380Y-93662380D02*
X113042380Y-92662380D01*
X112709047Y-93376666D01*
X112375714Y-92662380D01*
X112375714Y-93662380D01*
X111994761Y-92662380D02*
X111328095Y-93662380D01*
X111328095Y-92662380D02*
X111994761Y-93662380D01*
X110185238Y-93281428D02*
X109423333Y-93281428D01*
X117328571Y-85292380D02*
X117900000Y-85292380D01*
X117614285Y-85292380D02*
X117614285Y-84292380D01*
X117709523Y-84435238D01*
X117804761Y-84530476D01*
X117900000Y-84578095D01*
X116138095Y-85292380D02*
X116138095Y-84292380D01*
X115900000Y-84292380D01*
X115757142Y-84340000D01*
X115661904Y-84435238D01*
X115614285Y-84530476D01*
X115566666Y-84720952D01*
X115566666Y-84863809D01*
X115614285Y-85054285D01*
X115661904Y-85149523D01*
X115757142Y-85244761D01*
X115900000Y-85292380D01*
X116138095Y-85292380D01*
X115138095Y-85292380D02*
X115138095Y-84292380D01*
X114804761Y-85006666D01*
X114471428Y-84292380D01*
X114471428Y-85292380D01*
X114090476Y-84292380D02*
X113423809Y-85292380D01*
X113423809Y-84292380D02*
X114090476Y-85292380D01*
X111757142Y-84340000D02*
X111852380Y-84292380D01*
X111995238Y-84292380D01*
X112138095Y-84340000D01*
X112233333Y-84435238D01*
X112280952Y-84530476D01*
X112328571Y-84720952D01*
X112328571Y-84863809D01*
X112280952Y-85054285D01*
X112233333Y-85149523D01*
X112138095Y-85244761D01*
X111995238Y-85292380D01*
X111900000Y-85292380D01*
X111757142Y-85244761D01*
X111709523Y-85197142D01*
X111709523Y-84863809D01*
X111900000Y-84863809D01*
X111280952Y-84625714D02*
X111280952Y-85292380D01*
X111280952Y-84720952D02*
X111233333Y-84673333D01*
X111138095Y-84625714D01*
X110995238Y-84625714D01*
X110900000Y-84673333D01*
X110852380Y-84768571D01*
X110852380Y-85292380D01*
X109947619Y-85292380D02*
X109947619Y-84292380D01*
X109947619Y-85244761D02*
X110042857Y-85292380D01*
X110233333Y-85292380D01*
X110328571Y-85244761D01*
X110376190Y-85197142D01*
X110423809Y-85101904D01*
X110423809Y-84816190D01*
X110376190Y-84720952D01*
X110328571Y-84673333D01*
X110233333Y-84625714D01*
X110042857Y-84625714D01*
X109947619Y-84673333D01*
X115721904Y-88132380D02*
X115102857Y-88132380D01*
X115436190Y-88513333D01*
X115293333Y-88513333D01*
X115198095Y-88560952D01*
X115150476Y-88608571D01*
X115102857Y-88703809D01*
X115102857Y-88941904D01*
X115150476Y-89037142D01*
X115198095Y-89084761D01*
X115293333Y-89132380D01*
X115579047Y-89132380D01*
X115674285Y-89084761D01*
X115721904Y-89037142D01*
X113912380Y-89132380D02*
X113912380Y-88132380D01*
X113674285Y-88132380D01*
X113531428Y-88180000D01*
X113436190Y-88275238D01*
X113388571Y-88370476D01*
X113340952Y-88560952D01*
X113340952Y-88703809D01*
X113388571Y-88894285D01*
X113436190Y-88989523D01*
X113531428Y-89084761D01*
X113674285Y-89132380D01*
X113912380Y-89132380D01*
X112912380Y-89132380D02*
X112912380Y-88132380D01*
X112579047Y-88846666D01*
X112245714Y-88132380D01*
X112245714Y-89132380D01*
X111864761Y-88132380D02*
X111198095Y-89132380D01*
X111198095Y-88132380D02*
X111864761Y-89132380D01*
X110055238Y-88751428D02*
X109293333Y-88751428D01*
X109674285Y-89132380D02*
X109674285Y-88370476D01*
X111404285Y-110227619D02*
X111356666Y-110180000D01*
X111261428Y-110132380D01*
X111023333Y-110132380D01*
X110928095Y-110180000D01*
X110880476Y-110227619D01*
X110832857Y-110322857D01*
X110832857Y-110418095D01*
X110880476Y-110560952D01*
X111451904Y-111132380D01*
X110832857Y-111132380D01*
X109642380Y-111132380D02*
X109642380Y-110132380D01*
X109404285Y-110132380D01*
X109261428Y-110180000D01*
X109166190Y-110275238D01*
X109118571Y-110370476D01*
X109070952Y-110560952D01*
X109070952Y-110703809D01*
X109118571Y-110894285D01*
X109166190Y-110989523D01*
X109261428Y-111084761D01*
X109404285Y-111132380D01*
X109642380Y-111132380D01*
X108642380Y-111132380D02*
X108642380Y-110132380D01*
X108309047Y-110846666D01*
X107975714Y-110132380D01*
X107975714Y-111132380D01*
X107594761Y-110132380D02*
X106928095Y-111132380D01*
X106928095Y-110132380D02*
X107594761Y-111132380D01*
X105785238Y-110751428D02*
X105023333Y-110751428D01*
X114891904Y-114052380D02*
X114272857Y-114052380D01*
X114606190Y-114433333D01*
X114463333Y-114433333D01*
X114368095Y-114480952D01*
X114320476Y-114528571D01*
X114272857Y-114623809D01*
X114272857Y-114861904D01*
X114320476Y-114957142D01*
X114368095Y-115004761D01*
X114463333Y-115052380D01*
X114749047Y-115052380D01*
X114844285Y-115004761D01*
X114891904Y-114957142D01*
X113082380Y-115052380D02*
X113082380Y-114052380D01*
X112844285Y-114052380D01*
X112701428Y-114100000D01*
X112606190Y-114195238D01*
X112558571Y-114290476D01*
X112510952Y-114480952D01*
X112510952Y-114623809D01*
X112558571Y-114814285D01*
X112606190Y-114909523D01*
X112701428Y-115004761D01*
X112844285Y-115052380D01*
X113082380Y-115052380D01*
X112082380Y-115052380D02*
X112082380Y-114052380D01*
X111749047Y-114766666D01*
X111415714Y-114052380D01*
X111415714Y-115052380D01*
X111034761Y-114052380D02*
X110368095Y-115052380D01*
X110368095Y-114052380D02*
X111034761Y-115052380D01*
X109225238Y-114671428D02*
X108463333Y-114671428D01*
X108844285Y-115052380D02*
X108844285Y-114290476D01*
X111968571Y-118752380D02*
X112540000Y-118752380D01*
X112254285Y-118752380D02*
X112254285Y-117752380D01*
X112349523Y-117895238D01*
X112444761Y-117990476D01*
X112540000Y-118038095D01*
X110778095Y-118752380D02*
X110778095Y-117752380D01*
X110540000Y-117752380D01*
X110397142Y-117800000D01*
X110301904Y-117895238D01*
X110254285Y-117990476D01*
X110206666Y-118180952D01*
X110206666Y-118323809D01*
X110254285Y-118514285D01*
X110301904Y-118609523D01*
X110397142Y-118704761D01*
X110540000Y-118752380D01*
X110778095Y-118752380D01*
X109778095Y-118752380D02*
X109778095Y-117752380D01*
X109444761Y-118466666D01*
X109111428Y-117752380D01*
X109111428Y-118752380D01*
X108730476Y-117752380D02*
X108063809Y-118752380D01*
X108063809Y-117752380D02*
X108730476Y-118752380D01*
X106397142Y-117800000D02*
X106492380Y-117752380D01*
X106635238Y-117752380D01*
X106778095Y-117800000D01*
X106873333Y-117895238D01*
X106920952Y-117990476D01*
X106968571Y-118180952D01*
X106968571Y-118323809D01*
X106920952Y-118514285D01*
X106873333Y-118609523D01*
X106778095Y-118704761D01*
X106635238Y-118752380D01*
X106540000Y-118752380D01*
X106397142Y-118704761D01*
X106349523Y-118657142D01*
X106349523Y-118323809D01*
X106540000Y-118323809D01*
X105920952Y-118085714D02*
X105920952Y-118752380D01*
X105920952Y-118180952D02*
X105873333Y-118133333D01*
X105778095Y-118085714D01*
X105635238Y-118085714D01*
X105540000Y-118133333D01*
X105492380Y-118228571D01*
X105492380Y-118752380D01*
X104587619Y-118752380D02*
X104587619Y-117752380D01*
X104587619Y-118704761D02*
X104682857Y-118752380D01*
X104873333Y-118752380D01*
X104968571Y-118704761D01*
X105016190Y-118657142D01*
X105063809Y-118561904D01*
X105063809Y-118276190D01*
X105016190Y-118180952D01*
X104968571Y-118133333D01*
X104873333Y-118085714D01*
X104682857Y-118085714D01*
X104587619Y-118133333D01*
X166012380Y-85591428D02*
X167012380Y-85924761D01*
X166012380Y-86258095D01*
X167012380Y-86591428D02*
X166345714Y-86591428D01*
X166012380Y-86591428D02*
X166060000Y-86543809D01*
X166107619Y-86591428D01*
X166060000Y-86639047D01*
X166012380Y-86591428D01*
X166107619Y-86591428D01*
X166345714Y-87067619D02*
X167012380Y-87067619D01*
X166440952Y-87067619D02*
X166393333Y-87115238D01*
X166345714Y-87210476D01*
X166345714Y-87353333D01*
X166393333Y-87448571D01*
X166488571Y-87496190D01*
X167012380Y-87496190D01*
X167107619Y-87734285D02*
X167107619Y-88496190D01*
X166345714Y-88591428D02*
X166345714Y-88972380D01*
X167012380Y-88734285D02*
X166155238Y-88734285D01*
X166060000Y-88781904D01*
X166012380Y-88877142D01*
X166012380Y-88972380D01*
X166345714Y-89734285D02*
X167012380Y-89734285D01*
X166345714Y-89305714D02*
X166869523Y-89305714D01*
X166964761Y-89353333D01*
X167012380Y-89448571D01*
X167012380Y-89591428D01*
X166964761Y-89686666D01*
X166917142Y-89734285D01*
X166964761Y-90162857D02*
X167012380Y-90258095D01*
X167012380Y-90448571D01*
X166964761Y-90543809D01*
X166869523Y-90591428D01*
X166821904Y-90591428D01*
X166726666Y-90543809D01*
X166679047Y-90448571D01*
X166679047Y-90305714D01*
X166631428Y-90210476D01*
X166536190Y-90162857D01*
X166488571Y-90162857D01*
X166393333Y-90210476D01*
X166345714Y-90305714D01*
X166345714Y-90448571D01*
X166393333Y-90543809D01*
X166964761Y-91400952D02*
X167012380Y-91305714D01*
X167012380Y-91115238D01*
X166964761Y-91020000D01*
X166869523Y-90972380D01*
X166488571Y-90972380D01*
X166393333Y-91020000D01*
X166345714Y-91115238D01*
X166345714Y-91305714D01*
X166393333Y-91400952D01*
X166488571Y-91448571D01*
X166583809Y-91448571D01*
X166679047Y-90972380D01*
X167012380Y-92305714D02*
X166012380Y-92305714D01*
X166964761Y-92305714D02*
X167012380Y-92210476D01*
X167012380Y-92020000D01*
X166964761Y-91924761D01*
X166917142Y-91877142D01*
X166821904Y-91829523D01*
X166536190Y-91829523D01*
X166440952Y-91877142D01*
X166393333Y-91924761D01*
X166345714Y-92020000D01*
X166345714Y-92210476D01*
X166393333Y-92305714D01*
X163482380Y-85486190D02*
X164482380Y-85819523D01*
X163482380Y-86152857D01*
X164482380Y-86486190D02*
X163815714Y-86486190D01*
X163482380Y-86486190D02*
X163530000Y-86438571D01*
X163577619Y-86486190D01*
X163530000Y-86533809D01*
X163482380Y-86486190D01*
X163577619Y-86486190D01*
X163815714Y-86962380D02*
X164482380Y-86962380D01*
X163910952Y-86962380D02*
X163863333Y-87010000D01*
X163815714Y-87105238D01*
X163815714Y-87248095D01*
X163863333Y-87343333D01*
X163958571Y-87390952D01*
X164482380Y-87390952D01*
X161060000Y-86088095D02*
X161012380Y-85992857D01*
X161012380Y-85850000D01*
X161060000Y-85707142D01*
X161155238Y-85611904D01*
X161250476Y-85564285D01*
X161440952Y-85516666D01*
X161583809Y-85516666D01*
X161774285Y-85564285D01*
X161869523Y-85611904D01*
X161964761Y-85707142D01*
X162012380Y-85850000D01*
X162012380Y-85945238D01*
X161964761Y-86088095D01*
X161917142Y-86135714D01*
X161583809Y-86135714D01*
X161583809Y-85945238D01*
X162012380Y-86564285D02*
X161012380Y-86564285D01*
X162012380Y-87135714D01*
X161012380Y-87135714D01*
X162012380Y-87611904D02*
X161012380Y-87611904D01*
X161012380Y-87850000D01*
X161060000Y-87992857D01*
X161155238Y-88088095D01*
X161250476Y-88135714D01*
X161440952Y-88183333D01*
X161583809Y-88183333D01*
X161774285Y-88135714D01*
X161869523Y-88088095D01*
X161964761Y-87992857D01*
X162012380Y-87850000D01*
X162012380Y-87611904D01*
M02*
