G04 #@! TF.GenerationSoftware,KiCad,Pcbnew,(5.1.5)-2*
G04 #@! TF.CreationDate,2020-04-10T04:28:19+02:00*
G04 #@! TF.ProjectId,LightBoxNano,4c696768-7442-46f7-984e-616e6f2e6b69,rev?*
G04 #@! TF.SameCoordinates,Original*
G04 #@! TF.FileFunction,Copper,L2,Bot*
G04 #@! TF.FilePolarity,Positive*
%FSLAX46Y46*%
G04 Gerber Fmt 4.6, Leading zero omitted, Abs format (unit mm)*
G04 Created by KiCad (PCBNEW (5.1.5)-2) date 2020-04-10 04:28:19*
%MOMM*%
%LPD*%
G04 APERTURE LIST*
%ADD10R,1.700000X1.700000*%
%ADD11O,1.700000X1.700000*%
%ADD12C,2.500000*%
%ADD13C,3.000000*%
%ADD14C,1.600000*%
%ADD15C,1.800000*%
%ADD16C,4.600000*%
%ADD17C,1.524000*%
%ADD18O,5.000000X2.000000*%
%ADD19O,2.000000X5.000000*%
%ADD20C,6.400000*%
%ADD21C,0.800000*%
%ADD22C,0.250000*%
%ADD23C,0.750000*%
%ADD24C,1.000000*%
%ADD25C,0.254000*%
G04 APERTURE END LIST*
D10*
X145000000Y-103600000D03*
D11*
X145000000Y-101060000D03*
D12*
X107264180Y-88759240D03*
D13*
X107264180Y-84949240D03*
X107264180Y-92569240D03*
D12*
X102184180Y-88759240D03*
X96426160Y-122693720D03*
D13*
X102781160Y-110633720D03*
X102146160Y-118253720D03*
D12*
X106596160Y-114443720D03*
D14*
X117930000Y-40540000D03*
X123010000Y-38000000D03*
X120470000Y-38000000D03*
X117930000Y-38000000D03*
X115390000Y-38000000D03*
D15*
X134029980Y-37800000D03*
X136529980Y-37800000D03*
X139029980Y-37800000D03*
D16*
X131529980Y-41100000D03*
X141529980Y-41100000D03*
D15*
X151327380Y-37800000D03*
X153827380Y-37800000D03*
X156327380Y-37800000D03*
D16*
X148827380Y-41100000D03*
X158827380Y-41100000D03*
D17*
X165720000Y-112860000D03*
X150480000Y-133180000D03*
X150480000Y-130640000D03*
X150480000Y-128100000D03*
X150480000Y-125560000D03*
X150480000Y-123020000D03*
X150480000Y-120480000D03*
X150480000Y-117940000D03*
X150480000Y-115400000D03*
X150480000Y-112860000D03*
X150480000Y-110320000D03*
X150480000Y-107780000D03*
X150480000Y-105240000D03*
X150480000Y-102700000D03*
X150480000Y-100160000D03*
X150480000Y-97620000D03*
X165720000Y-97620000D03*
X165720000Y-100160000D03*
X165720000Y-102700000D03*
X165720000Y-105240000D03*
X165720000Y-107780000D03*
X165720000Y-110320000D03*
X165720000Y-115400000D03*
X165720000Y-117940000D03*
X165720000Y-120480000D03*
X165720000Y-123020000D03*
X165720000Y-125560000D03*
X165720000Y-128100000D03*
X165720000Y-130640000D03*
X165720000Y-133180000D03*
X154210000Y-105220000D03*
X154210000Y-100140000D03*
X154210000Y-92520000D03*
X154210000Y-115380000D03*
X154210000Y-102680000D03*
X154210000Y-107760000D03*
X154210000Y-97600000D03*
X154210000Y-95060000D03*
X154210000Y-110300000D03*
X154210000Y-123000000D03*
X154210000Y-117920000D03*
X154210000Y-140780000D03*
X154210000Y-138240000D03*
X154210000Y-135700000D03*
X154210000Y-112840000D03*
X154210000Y-128080000D03*
X154210000Y-133160000D03*
X154210000Y-125540000D03*
X154210000Y-130620000D03*
X154210000Y-120460000D03*
X171990000Y-97600000D03*
X171990000Y-95060000D03*
X171990000Y-92520000D03*
X171990000Y-110300000D03*
X171990000Y-102680000D03*
X171990000Y-107760000D03*
X171990000Y-100140000D03*
X171990000Y-105220000D03*
X171990000Y-123000000D03*
X171990000Y-115380000D03*
X171990000Y-120460000D03*
X171990000Y-112840000D03*
X171990000Y-117920000D03*
X171990000Y-130620000D03*
X171990000Y-125540000D03*
X171990000Y-133160000D03*
X171990000Y-128080000D03*
X171990000Y-135700000D03*
X171990000Y-138240000D03*
X171990000Y-140780000D03*
D10*
X161400000Y-83400000D03*
D11*
X163940000Y-83400000D03*
X166480000Y-83400000D03*
D12*
X194800000Y-102280000D03*
X194800000Y-112440000D03*
X194800000Y-122600000D03*
X194800000Y-117520000D03*
X194800000Y-107360000D03*
X194800000Y-65520000D03*
X194800000Y-70600000D03*
D18*
X194000000Y-51400000D03*
D19*
X197100000Y-56200000D03*
X190900000Y-56200000D03*
D12*
X194800000Y-81040000D03*
X194800000Y-91200000D03*
X194800000Y-86120000D03*
D10*
X139050000Y-130900000D03*
D11*
X139050000Y-128360000D03*
X139050000Y-125820000D03*
X139050000Y-123280000D03*
D10*
X137600000Y-85000000D03*
D11*
X135060000Y-85000000D03*
D20*
X94600000Y-53800000D03*
X116400000Y-139000000D03*
X170600000Y-40200000D03*
X178400000Y-126600000D03*
D21*
X147000000Y-134800000D03*
X172000000Y-68200000D03*
X121600000Y-63000000D03*
X187000000Y-105400000D03*
X187000000Y-110400000D03*
X187000000Y-115600000D03*
X187000000Y-120000000D03*
X149000000Y-106600000D03*
X155000000Y-86000000D03*
X157600000Y-76200000D03*
X138800000Y-117600000D03*
X154572001Y-88600000D03*
X136000000Y-123200000D03*
X136000000Y-131364360D03*
X113200000Y-131600000D03*
X112800000Y-120800000D03*
X114000000Y-98400000D03*
X144000000Y-134800000D03*
X111200000Y-92000000D03*
X112000000Y-103800000D03*
X115600000Y-124200000D03*
X110800000Y-123200000D03*
X109400000Y-96200000D03*
X104400000Y-100000000D03*
X116600000Y-102200000D03*
X117600000Y-124200000D03*
X168325000Y-119400000D03*
X178800000Y-90200000D03*
X172400000Y-85200000D03*
X183800000Y-85200000D03*
X177200000Y-89400000D03*
X158200000Y-97200000D03*
X172400000Y-87000000D03*
X157400000Y-95800000D03*
D22*
X147000000Y-134120000D02*
X150480000Y-130640000D01*
X147000000Y-134800000D02*
X147000000Y-134120000D01*
X153688239Y-134247001D02*
X157032999Y-134247001D01*
X164958001Y-126321999D02*
X165720000Y-125560000D01*
X157032999Y-134247001D02*
X164958001Y-126321999D01*
X151241999Y-131800761D02*
X153688239Y-134247001D01*
X151241999Y-131401999D02*
X151241999Y-131800761D01*
X150480000Y-130640000D02*
X151241999Y-131401999D01*
D23*
X192280000Y-65520000D02*
X194800000Y-65520000D01*
X172000000Y-68200000D02*
X190200000Y-68200000D01*
X190200000Y-68200000D02*
X192280000Y-65520000D01*
D24*
X194800000Y-92967766D02*
X191200000Y-96567766D01*
X194800000Y-91200000D02*
X194800000Y-92967766D01*
X191200000Y-96567766D02*
X191200000Y-103200000D01*
X189000000Y-105400000D02*
X187000000Y-105400000D01*
X191200000Y-103200000D02*
X189000000Y-105400000D01*
X187000000Y-105400000D02*
X187000000Y-110400000D01*
X187000000Y-110400000D02*
X187000000Y-115600000D01*
X187000000Y-115600000D02*
X187000000Y-120000000D01*
D22*
X149000000Y-106600000D02*
X151600000Y-106600000D01*
X153448001Y-95821999D02*
X154210000Y-95060000D01*
X153122999Y-105077001D02*
X153122999Y-96147001D01*
X153122999Y-96147001D02*
X153448001Y-95821999D01*
X151600000Y-106600000D02*
X153122999Y-105077001D01*
X186600001Y-120399999D02*
X187000000Y-120000000D01*
X170810629Y-121547001D02*
X185452999Y-121547001D01*
X166797630Y-125560000D02*
X170810629Y-121547001D01*
X185452999Y-121547001D02*
X186600001Y-120399999D01*
X165720000Y-125560000D02*
X166797630Y-125560000D01*
X155297001Y-86297001D02*
X155000000Y-86000000D01*
X154210000Y-95060000D02*
X155297001Y-93972999D01*
X155297001Y-93972999D02*
X155297001Y-86297001D01*
X137600000Y-83900000D02*
X121600000Y-67900000D01*
X137600000Y-85000000D02*
X137600000Y-83900000D01*
X121600000Y-67900000D02*
X121600000Y-63000000D01*
D23*
X158165685Y-76200000D02*
X161365685Y-73000000D01*
X157600000Y-76200000D02*
X158165685Y-76200000D01*
X167200000Y-73000000D02*
X172000000Y-68200000D01*
X161365685Y-73000000D02*
X167200000Y-73000000D01*
D24*
X194800000Y-52200000D02*
X194000000Y-51400000D01*
X194800000Y-65520000D02*
X194800000Y-52200000D01*
X196567766Y-91200000D02*
X197600000Y-90167766D01*
X194800000Y-91200000D02*
X196567766Y-91200000D01*
X197600000Y-68320000D02*
X194800000Y-65520000D01*
X197600000Y-90167766D02*
X197600000Y-68320000D01*
D22*
X171990000Y-92520000D02*
X167600000Y-96910000D01*
X154731761Y-126627001D02*
X151547001Y-126627001D01*
X151547001Y-126627001D02*
X151241999Y-126321999D01*
X156885763Y-124472999D02*
X154731761Y-126627001D01*
X165875763Y-124472999D02*
X156885763Y-124472999D01*
X167600000Y-122748762D02*
X165875763Y-124472999D01*
X151241999Y-126321999D02*
X150480000Y-125560000D01*
X167600000Y-96910000D02*
X167600000Y-122748762D01*
X153448001Y-93281999D02*
X154210000Y-92520000D01*
X151567001Y-95162999D02*
X153448001Y-93281999D01*
X151567001Y-99072999D02*
X151567001Y-95162999D01*
X150480000Y-100160000D02*
X151567001Y-99072999D01*
X117930000Y-40540000D02*
X123660000Y-40540000D01*
X138129981Y-36900001D02*
X139029980Y-37800000D01*
X136151064Y-34921084D02*
X138129981Y-36900001D01*
X129278916Y-34921084D02*
X136151064Y-34921084D01*
X123660000Y-40540000D02*
X129278916Y-34921084D01*
X140302772Y-37800000D02*
X142902772Y-35200000D01*
X139029980Y-37800000D02*
X140302772Y-37800000D01*
X153727380Y-35200000D02*
X156327380Y-37800000D01*
X142902772Y-35200000D02*
X153727380Y-35200000D01*
X147000000Y-103000000D02*
X150480000Y-100160000D01*
X138800000Y-117600000D02*
X147000000Y-110000000D01*
X147000000Y-110000000D02*
X147000000Y-103000000D01*
X154210000Y-91442370D02*
X154200000Y-91432370D01*
X154210000Y-92520000D02*
X154210000Y-91442370D01*
X154200000Y-91432370D02*
X154200000Y-88972001D01*
X154200000Y-88972001D02*
X154572001Y-88600000D01*
X132804979Y-34921084D02*
X132800000Y-34921084D01*
X154572001Y-88600000D02*
X154572001Y-88034315D01*
X132804979Y-38388001D02*
X132804979Y-34921084D01*
X154572001Y-88034315D02*
X152600000Y-86062314D01*
X152600000Y-86062314D02*
X152600000Y-83163408D01*
X152600000Y-83163408D02*
X136979969Y-67543377D01*
X136979969Y-42562991D02*
X132804979Y-38388001D01*
X136979969Y-67543377D02*
X136979969Y-42562991D01*
X136000000Y-123200000D02*
X136000000Y-131364360D01*
X112873002Y-120873002D02*
X112800000Y-120800000D01*
X112800001Y-131200001D02*
X113200000Y-131600000D01*
X112800000Y-120800000D02*
X112800001Y-131200001D01*
X112800000Y-120234315D02*
X109400000Y-116834315D01*
X112800000Y-120800000D02*
X112800000Y-120234315D01*
X109400000Y-116834315D02*
X109400000Y-100800000D01*
X109400000Y-100800000D02*
X110600000Y-99600000D01*
X110600000Y-99600000D02*
X112800000Y-99600000D01*
X112800000Y-99600000D02*
X114000000Y-98400000D01*
X150635763Y-129187001D02*
X153448001Y-131999239D01*
X144957001Y-129187001D02*
X150635763Y-129187001D01*
X153448001Y-132398001D02*
X154210000Y-133160000D01*
X153448001Y-131999239D02*
X153448001Y-132398001D01*
X139050000Y-123280000D02*
X144957001Y-129187001D01*
X144000000Y-133310000D02*
X139050000Y-128360000D01*
X144000000Y-134800000D02*
X144000000Y-133310000D01*
X109534241Y-90334241D02*
X111200000Y-92000000D01*
X102184180Y-88759240D02*
X103759181Y-90334241D01*
X103759181Y-90334241D02*
X109534241Y-90334241D01*
X115600000Y-107400000D02*
X112000000Y-103800000D01*
X115600000Y-124200000D02*
X115600000Y-107400000D01*
X102781160Y-115181160D02*
X102781160Y-110633720D01*
X110800000Y-123200000D02*
X102781160Y-115181160D01*
X106596160Y-107996160D02*
X106596160Y-114443720D01*
X104400000Y-100000000D02*
X104400000Y-105800000D01*
X104400000Y-105800000D02*
X106596160Y-107996160D01*
X105600000Y-100000000D02*
X109400000Y-96200000D01*
X104400000Y-100000000D02*
X105600000Y-100000000D01*
X117600000Y-103200000D02*
X116600000Y-102200000D01*
X117600000Y-124200000D02*
X117600000Y-103200000D01*
X168325000Y-119400000D02*
X168325000Y-97874990D01*
X175027001Y-93972999D02*
X178800000Y-90200000D01*
X171468239Y-93972999D02*
X175027001Y-93972999D01*
X168325000Y-97874990D02*
X168325000Y-97116238D01*
X168325000Y-97116238D02*
X171468239Y-93972999D01*
X137429979Y-38699999D02*
X136529980Y-37800000D01*
X137429979Y-67356977D02*
X137429979Y-38699999D01*
X155747011Y-106222989D02*
X155747011Y-85674009D01*
X155747011Y-85674009D02*
X137429979Y-67356977D01*
X154210000Y-107760000D02*
X155747011Y-106222989D01*
X156200000Y-107378762D02*
X156197021Y-107375783D01*
X153122999Y-106307001D02*
X153122999Y-108647759D01*
X154210000Y-105220000D02*
X153122999Y-106307001D01*
X153122999Y-108647759D02*
X153322241Y-108847001D01*
X154731761Y-108847001D02*
X156200000Y-107378762D01*
X153322241Y-108847001D02*
X154731761Y-108847001D01*
X153827380Y-44172620D02*
X153827380Y-37800000D01*
X151200000Y-46800000D02*
X153827380Y-44172620D01*
X142200000Y-46800000D02*
X151200000Y-46800000D01*
X156200000Y-107378762D02*
X156200000Y-85490588D01*
X156200000Y-85490588D02*
X137879989Y-67170577D01*
X137879989Y-67170577D02*
X137879989Y-51120011D01*
X137879989Y-51120011D02*
X142200000Y-46800000D01*
D24*
X172965685Y-85200000D02*
X183800000Y-85200000D01*
X172400000Y-85200000D02*
X172965685Y-85200000D01*
D22*
X158200000Y-97200000D02*
X158200000Y-91200000D01*
X160000000Y-89400000D02*
X177200000Y-89400000D01*
X158200000Y-91200000D02*
X160000000Y-89400000D01*
X157400000Y-95800000D02*
X157400000Y-90800000D01*
X161200000Y-87000000D02*
X172400000Y-87000000D01*
X157400000Y-90800000D02*
X161200000Y-87000000D01*
D25*
G36*
X123345199Y-39780000D02*
G01*
X119148043Y-39780000D01*
X119044637Y-39625241D01*
X118844759Y-39425363D01*
X118612241Y-39270000D01*
X118844759Y-39114637D01*
X119044637Y-38914759D01*
X119200000Y-38682241D01*
X119355363Y-38914759D01*
X119555241Y-39114637D01*
X119790273Y-39271680D01*
X120051426Y-39379853D01*
X120328665Y-39435000D01*
X120611335Y-39435000D01*
X120888574Y-39379853D01*
X121149727Y-39271680D01*
X121384759Y-39114637D01*
X121584637Y-38914759D01*
X121740000Y-38682241D01*
X121895363Y-38914759D01*
X122095241Y-39114637D01*
X122330273Y-39271680D01*
X122591426Y-39379853D01*
X122868665Y-39435000D01*
X123151335Y-39435000D01*
X123428574Y-39379853D01*
X123689727Y-39271680D01*
X123924759Y-39114637D01*
X124124637Y-38914759D01*
X124281680Y-38679727D01*
X124389853Y-38418574D01*
X124445000Y-38141335D01*
X124445000Y-37858665D01*
X124389853Y-37581426D01*
X124281680Y-37320273D01*
X124124637Y-37085241D01*
X123924759Y-36885363D01*
X123689727Y-36728320D01*
X123428574Y-36620147D01*
X123151335Y-36565000D01*
X122868665Y-36565000D01*
X122591426Y-36620147D01*
X122330273Y-36728320D01*
X122095241Y-36885363D01*
X121895363Y-37085241D01*
X121740000Y-37317759D01*
X121584637Y-37085241D01*
X121384759Y-36885363D01*
X121149727Y-36728320D01*
X120888574Y-36620147D01*
X120611335Y-36565000D01*
X120328665Y-36565000D01*
X120051426Y-36620147D01*
X119790273Y-36728320D01*
X119555241Y-36885363D01*
X119355363Y-37085241D01*
X119200000Y-37317759D01*
X119044637Y-37085241D01*
X118844759Y-36885363D01*
X118609727Y-36728320D01*
X118348574Y-36620147D01*
X118071335Y-36565000D01*
X117788665Y-36565000D01*
X117511426Y-36620147D01*
X117250273Y-36728320D01*
X117015241Y-36885363D01*
X116815363Y-37085241D01*
X116660000Y-37317759D01*
X116504637Y-37085241D01*
X116304759Y-36885363D01*
X116069727Y-36728320D01*
X115808574Y-36620147D01*
X115531335Y-36565000D01*
X115248665Y-36565000D01*
X114971426Y-36620147D01*
X114710273Y-36728320D01*
X114475241Y-36885363D01*
X114275363Y-37085241D01*
X114118320Y-37320273D01*
X114010147Y-37581426D01*
X113955000Y-37858665D01*
X113955000Y-38141335D01*
X114010147Y-38418574D01*
X114118320Y-38679727D01*
X114275363Y-38914759D01*
X114475241Y-39114637D01*
X114710273Y-39271680D01*
X114971426Y-39379853D01*
X115248665Y-39435000D01*
X115531335Y-39435000D01*
X115808574Y-39379853D01*
X116069727Y-39271680D01*
X116304759Y-39114637D01*
X116504637Y-38914759D01*
X116660000Y-38682241D01*
X116815363Y-38914759D01*
X117015241Y-39114637D01*
X117247759Y-39270000D01*
X117015241Y-39425363D01*
X116815363Y-39625241D01*
X116658320Y-39860273D01*
X116550147Y-40121426D01*
X116495000Y-40398665D01*
X116495000Y-40681335D01*
X116550147Y-40958574D01*
X116658320Y-41219727D01*
X116815363Y-41454759D01*
X117015241Y-41654637D01*
X117250273Y-41811680D01*
X117511426Y-41919853D01*
X117788665Y-41975000D01*
X118071335Y-41975000D01*
X118348574Y-41919853D01*
X118609727Y-41811680D01*
X118844759Y-41654637D01*
X119044637Y-41454759D01*
X119148043Y-41300000D01*
X123622678Y-41300000D01*
X123660000Y-41303676D01*
X123697322Y-41300000D01*
X123697333Y-41300000D01*
X123808986Y-41289003D01*
X123952247Y-41245546D01*
X124084276Y-41174974D01*
X124200001Y-41080001D01*
X124223804Y-41050997D01*
X129593718Y-35681084D01*
X132044980Y-35681084D01*
X132044979Y-38209940D01*
X131819052Y-38165000D01*
X131240908Y-38165000D01*
X130673872Y-38277791D01*
X130139736Y-38499037D01*
X129659027Y-38820237D01*
X129250217Y-39229047D01*
X128929017Y-39709756D01*
X128707771Y-40243892D01*
X128594980Y-40810928D01*
X128594980Y-41389072D01*
X128707771Y-41956108D01*
X128929017Y-42490244D01*
X129250217Y-42970953D01*
X129659027Y-43379763D01*
X130139736Y-43700963D01*
X130673872Y-43922209D01*
X131240908Y-44035000D01*
X131819052Y-44035000D01*
X132386088Y-43922209D01*
X132920224Y-43700963D01*
X133400933Y-43379763D01*
X133809743Y-42970953D01*
X134130943Y-42490244D01*
X134352189Y-41956108D01*
X134464980Y-41389072D01*
X134464980Y-41122804D01*
X136219970Y-42877795D01*
X136219969Y-67506055D01*
X136216293Y-67543377D01*
X136219969Y-67580699D01*
X136219969Y-67580709D01*
X136230966Y-67692362D01*
X136265301Y-67805551D01*
X136274423Y-67835623D01*
X136344995Y-67967653D01*
X136364936Y-67991951D01*
X136439968Y-68083378D01*
X136468972Y-68107181D01*
X151840001Y-83478211D01*
X151840000Y-86024991D01*
X151836324Y-86062314D01*
X151840000Y-86099636D01*
X151840000Y-86099646D01*
X151850997Y-86211299D01*
X151886729Y-86329093D01*
X151894454Y-86354560D01*
X151965026Y-86486590D01*
X152004871Y-86535140D01*
X152059999Y-86602315D01*
X152089003Y-86626118D01*
X153630729Y-88167845D01*
X153576775Y-88298102D01*
X153537001Y-88498061D01*
X153537001Y-88600156D01*
X153494454Y-88679755D01*
X153468686Y-88764703D01*
X153450998Y-88823015D01*
X153440001Y-88934668D01*
X153436324Y-88972001D01*
X153440001Y-89009333D01*
X153440000Y-91354341D01*
X153319465Y-91434880D01*
X153124880Y-91629465D01*
X152971995Y-91858273D01*
X152866686Y-92112510D01*
X152813000Y-92382408D01*
X152813000Y-92657592D01*
X152843628Y-92811570D01*
X151055999Y-94599200D01*
X151027001Y-94622998D01*
X151003203Y-94651996D01*
X151003202Y-94651997D01*
X150932027Y-94738723D01*
X150861455Y-94870753D01*
X150817999Y-95014014D01*
X150803325Y-95162999D01*
X150807002Y-95200331D01*
X150807002Y-96260676D01*
X150617592Y-96223000D01*
X150342408Y-96223000D01*
X150072510Y-96276686D01*
X149818273Y-96381995D01*
X149589465Y-96534880D01*
X149394880Y-96729465D01*
X149241995Y-96958273D01*
X149136686Y-97212510D01*
X149083000Y-97482408D01*
X149083000Y-97757592D01*
X149136686Y-98027490D01*
X149241995Y-98281727D01*
X149394880Y-98510535D01*
X149589465Y-98705120D01*
X149818273Y-98858005D01*
X149895515Y-98890000D01*
X149818273Y-98921995D01*
X149589465Y-99074880D01*
X149394880Y-99269465D01*
X149241995Y-99498273D01*
X149136686Y-99752510D01*
X149083000Y-100022408D01*
X149083000Y-100297592D01*
X149086684Y-100316113D01*
X146576654Y-102364529D01*
X146575725Y-102365026D01*
X146518682Y-102411840D01*
X146490554Y-102434795D01*
X146489812Y-102435533D01*
X146460000Y-102459999D01*
X146436865Y-102488189D01*
X146432434Y-102492596D01*
X146380537Y-102395506D01*
X146301185Y-102298815D01*
X146204494Y-102219463D01*
X146094180Y-102160498D01*
X146021620Y-102138487D01*
X146153475Y-102006632D01*
X146315990Y-101763411D01*
X146427932Y-101493158D01*
X146485000Y-101206260D01*
X146485000Y-100913740D01*
X146427932Y-100626842D01*
X146315990Y-100356589D01*
X146153475Y-100113368D01*
X145946632Y-99906525D01*
X145703411Y-99744010D01*
X145433158Y-99632068D01*
X145146260Y-99575000D01*
X144853740Y-99575000D01*
X144566842Y-99632068D01*
X144296589Y-99744010D01*
X144053368Y-99906525D01*
X143846525Y-100113368D01*
X143684010Y-100356589D01*
X143572068Y-100626842D01*
X143515000Y-100913740D01*
X143515000Y-101206260D01*
X143572068Y-101493158D01*
X143684010Y-101763411D01*
X143846525Y-102006632D01*
X143978380Y-102138487D01*
X143905820Y-102160498D01*
X143795506Y-102219463D01*
X143698815Y-102298815D01*
X143619463Y-102395506D01*
X143560498Y-102505820D01*
X143524188Y-102625518D01*
X143511928Y-102750000D01*
X143511928Y-104450000D01*
X143524188Y-104574482D01*
X143560498Y-104694180D01*
X143619463Y-104804494D01*
X143698815Y-104901185D01*
X143795506Y-104980537D01*
X143905820Y-105039502D01*
X144025518Y-105075812D01*
X144150000Y-105088072D01*
X145850000Y-105088072D01*
X145974482Y-105075812D01*
X146094180Y-105039502D01*
X146204494Y-104980537D01*
X146240001Y-104951397D01*
X146240000Y-109668164D01*
X138798677Y-116565000D01*
X138698061Y-116565000D01*
X138498102Y-116604774D01*
X138309744Y-116682795D01*
X138140226Y-116796063D01*
X137996063Y-116940226D01*
X137882795Y-117109744D01*
X137804774Y-117298102D01*
X137765000Y-117498061D01*
X137765000Y-117701939D01*
X137804774Y-117901898D01*
X137882795Y-118090256D01*
X137996063Y-118259774D01*
X138140226Y-118403937D01*
X138309744Y-118517205D01*
X138498102Y-118595226D01*
X138698061Y-118635000D01*
X138901939Y-118635000D01*
X139101898Y-118595226D01*
X139290256Y-118517205D01*
X139459774Y-118403937D01*
X139603937Y-118259774D01*
X139717205Y-118090256D01*
X139795226Y-117901898D01*
X139835000Y-117701939D01*
X139835000Y-117676957D01*
X147499846Y-110572955D01*
X147540001Y-110540001D01*
X147578335Y-110493291D01*
X147618416Y-110448066D01*
X147625750Y-110435515D01*
X147634974Y-110424276D01*
X147663459Y-110370985D01*
X147693948Y-110318810D01*
X147698693Y-110305068D01*
X147705546Y-110292247D01*
X147723091Y-110234409D01*
X147742809Y-110177302D01*
X147744781Y-110162903D01*
X147749003Y-110148986D01*
X147754928Y-110088827D01*
X147763126Y-110028980D01*
X147760000Y-109977128D01*
X147760000Y-103360730D01*
X149171278Y-102208998D01*
X149136686Y-102292510D01*
X149083000Y-102562408D01*
X149083000Y-102837592D01*
X149136686Y-103107490D01*
X149241995Y-103361727D01*
X149394880Y-103590535D01*
X149589465Y-103785120D01*
X149818273Y-103938005D01*
X149895515Y-103970000D01*
X149818273Y-104001995D01*
X149589465Y-104154880D01*
X149394880Y-104349465D01*
X149241995Y-104578273D01*
X149136686Y-104832510D01*
X149083000Y-105102408D01*
X149083000Y-105377592D01*
X149136686Y-105647490D01*
X149241995Y-105901727D01*
X149394880Y-106130535D01*
X149589465Y-106325120D01*
X149818273Y-106478005D01*
X149895515Y-106510000D01*
X149818273Y-106541995D01*
X149589465Y-106694880D01*
X149394880Y-106889465D01*
X149241995Y-107118273D01*
X149136686Y-107372510D01*
X149083000Y-107642408D01*
X149083000Y-107917592D01*
X149136686Y-108187490D01*
X149241995Y-108441727D01*
X149394880Y-108670535D01*
X149589465Y-108865120D01*
X149818273Y-109018005D01*
X149895515Y-109050000D01*
X149818273Y-109081995D01*
X149589465Y-109234880D01*
X149394880Y-109429465D01*
X149241995Y-109658273D01*
X149136686Y-109912510D01*
X149083000Y-110182408D01*
X149083000Y-110457592D01*
X149136686Y-110727490D01*
X149241995Y-110981727D01*
X149394880Y-111210535D01*
X149589465Y-111405120D01*
X149818273Y-111558005D01*
X149895515Y-111590000D01*
X149818273Y-111621995D01*
X149589465Y-111774880D01*
X149394880Y-111969465D01*
X149241995Y-112198273D01*
X149136686Y-112452510D01*
X149083000Y-112722408D01*
X149083000Y-112997592D01*
X149136686Y-113267490D01*
X149241995Y-113521727D01*
X149394880Y-113750535D01*
X149589465Y-113945120D01*
X149818273Y-114098005D01*
X149895515Y-114130000D01*
X149818273Y-114161995D01*
X149589465Y-114314880D01*
X149394880Y-114509465D01*
X149241995Y-114738273D01*
X149136686Y-114992510D01*
X149083000Y-115262408D01*
X149083000Y-115537592D01*
X149136686Y-115807490D01*
X149241995Y-116061727D01*
X149394880Y-116290535D01*
X149589465Y-116485120D01*
X149818273Y-116638005D01*
X149895515Y-116670000D01*
X149818273Y-116701995D01*
X149589465Y-116854880D01*
X149394880Y-117049465D01*
X149241995Y-117278273D01*
X149136686Y-117532510D01*
X149083000Y-117802408D01*
X149083000Y-118077592D01*
X149136686Y-118347490D01*
X149241995Y-118601727D01*
X149394880Y-118830535D01*
X149589465Y-119025120D01*
X149818273Y-119178005D01*
X149895515Y-119210000D01*
X149818273Y-119241995D01*
X149589465Y-119394880D01*
X149394880Y-119589465D01*
X149241995Y-119818273D01*
X149136686Y-120072510D01*
X149083000Y-120342408D01*
X149083000Y-120617592D01*
X149136686Y-120887490D01*
X149241995Y-121141727D01*
X149394880Y-121370535D01*
X149589465Y-121565120D01*
X149818273Y-121718005D01*
X149895515Y-121750000D01*
X149818273Y-121781995D01*
X149589465Y-121934880D01*
X149394880Y-122129465D01*
X149241995Y-122358273D01*
X149136686Y-122612510D01*
X149083000Y-122882408D01*
X149083000Y-123157592D01*
X149136686Y-123427490D01*
X149241995Y-123681727D01*
X149394880Y-123910535D01*
X149589465Y-124105120D01*
X149818273Y-124258005D01*
X149895515Y-124290000D01*
X149818273Y-124321995D01*
X149589465Y-124474880D01*
X149394880Y-124669465D01*
X149241995Y-124898273D01*
X149136686Y-125152510D01*
X149083000Y-125422408D01*
X149083000Y-125697592D01*
X149136686Y-125967490D01*
X149241995Y-126221727D01*
X149394880Y-126450535D01*
X149589465Y-126645120D01*
X149818273Y-126798005D01*
X149895515Y-126830000D01*
X149818273Y-126861995D01*
X149589465Y-127014880D01*
X149394880Y-127209465D01*
X149241995Y-127438273D01*
X149136686Y-127692510D01*
X149083000Y-127962408D01*
X149083000Y-128237592D01*
X149120676Y-128427001D01*
X145271803Y-128427001D01*
X140491209Y-123646408D01*
X140535000Y-123426260D01*
X140535000Y-123133740D01*
X140477932Y-122846842D01*
X140365990Y-122576589D01*
X140203475Y-122333368D01*
X139996632Y-122126525D01*
X139753411Y-121964010D01*
X139483158Y-121852068D01*
X139196260Y-121795000D01*
X138903740Y-121795000D01*
X138616842Y-121852068D01*
X138346589Y-121964010D01*
X138103368Y-122126525D01*
X137896525Y-122333368D01*
X137734010Y-122576589D01*
X137622068Y-122846842D01*
X137565000Y-123133740D01*
X137565000Y-123426260D01*
X137622068Y-123713158D01*
X137734010Y-123983411D01*
X137896525Y-124226632D01*
X138103368Y-124433475D01*
X138277760Y-124550000D01*
X138103368Y-124666525D01*
X137896525Y-124873368D01*
X137734010Y-125116589D01*
X137622068Y-125386842D01*
X137565000Y-125673740D01*
X137565000Y-125966260D01*
X137622068Y-126253158D01*
X137734010Y-126523411D01*
X137896525Y-126766632D01*
X138103368Y-126973475D01*
X138277760Y-127090000D01*
X138103368Y-127206525D01*
X137896525Y-127413368D01*
X137734010Y-127656589D01*
X137622068Y-127926842D01*
X137565000Y-128213740D01*
X137565000Y-128506260D01*
X137622068Y-128793158D01*
X137734010Y-129063411D01*
X137896525Y-129306632D01*
X138028380Y-129438487D01*
X137955820Y-129460498D01*
X137845506Y-129519463D01*
X137748815Y-129598815D01*
X137669463Y-129695506D01*
X137610498Y-129805820D01*
X137574188Y-129925518D01*
X137561928Y-130050000D01*
X137561928Y-131750000D01*
X137574188Y-131874482D01*
X137610498Y-131994180D01*
X137669463Y-132104494D01*
X137748815Y-132201185D01*
X137845506Y-132280537D01*
X137955820Y-132339502D01*
X138075518Y-132375812D01*
X138200000Y-132388072D01*
X139900000Y-132388072D01*
X140024482Y-132375812D01*
X140144180Y-132339502D01*
X140254494Y-132280537D01*
X140351185Y-132201185D01*
X140430537Y-132104494D01*
X140489502Y-131994180D01*
X140525812Y-131874482D01*
X140538072Y-131750000D01*
X140538072Y-130922873D01*
X143240001Y-133624803D01*
X143240000Y-134096289D01*
X143196063Y-134140226D01*
X143082795Y-134309744D01*
X143004774Y-134498102D01*
X142965000Y-134698061D01*
X142965000Y-134901939D01*
X143004774Y-135101898D01*
X143082795Y-135290256D01*
X143196063Y-135459774D01*
X143340226Y-135603937D01*
X143509744Y-135717205D01*
X143698102Y-135795226D01*
X143898061Y-135835000D01*
X144101939Y-135835000D01*
X144301898Y-135795226D01*
X144490256Y-135717205D01*
X144659774Y-135603937D01*
X144803937Y-135459774D01*
X144917205Y-135290256D01*
X144995226Y-135101898D01*
X145035000Y-134901939D01*
X145035000Y-134698061D01*
X144995226Y-134498102D01*
X144917205Y-134309744D01*
X144803937Y-134140226D01*
X144760000Y-134096289D01*
X144760000Y-133347322D01*
X144763676Y-133309999D01*
X144760000Y-133272676D01*
X144760000Y-133272667D01*
X144749003Y-133161014D01*
X144713025Y-133042408D01*
X149083000Y-133042408D01*
X149083000Y-133317592D01*
X149136686Y-133587490D01*
X149241995Y-133841727D01*
X149394880Y-134070535D01*
X149589465Y-134265120D01*
X149818273Y-134418005D01*
X150072510Y-134523314D01*
X150342408Y-134577000D01*
X150617592Y-134577000D01*
X150887490Y-134523314D01*
X151141727Y-134418005D01*
X151370535Y-134265120D01*
X151565120Y-134070535D01*
X151718005Y-133841727D01*
X151823314Y-133587490D01*
X151877000Y-133317592D01*
X151877000Y-133042408D01*
X151823314Y-132772510D01*
X151718005Y-132518273D01*
X151565120Y-132289465D01*
X151370535Y-132094880D01*
X151141727Y-131941995D01*
X151070057Y-131912308D01*
X151083023Y-131907636D01*
X151198980Y-131845656D01*
X151265960Y-131605565D01*
X150480000Y-130819605D01*
X149694040Y-131605565D01*
X149761020Y-131845656D01*
X149896760Y-131909485D01*
X149818273Y-131941995D01*
X149589465Y-132094880D01*
X149394880Y-132289465D01*
X149241995Y-132518273D01*
X149136686Y-132772510D01*
X149083000Y-133042408D01*
X144713025Y-133042408D01*
X144705546Y-133017753D01*
X144698751Y-133005040D01*
X144634974Y-132885723D01*
X144563799Y-132798997D01*
X144540001Y-132769999D01*
X144511003Y-132746201D01*
X140491209Y-128726408D01*
X140535000Y-128506260D01*
X140535000Y-128213740D01*
X140477932Y-127926842D01*
X140365990Y-127656589D01*
X140203475Y-127413368D01*
X139996632Y-127206525D01*
X139822240Y-127090000D01*
X139996632Y-126973475D01*
X140203475Y-126766632D01*
X140365990Y-126523411D01*
X140477932Y-126253158D01*
X140535000Y-125966260D01*
X140535000Y-125839801D01*
X144393200Y-129698002D01*
X144417000Y-129727002D01*
X144445998Y-129750800D01*
X144532724Y-129821975D01*
X144638328Y-129878422D01*
X144664754Y-129892547D01*
X144808015Y-129936004D01*
X144919668Y-129947001D01*
X144919678Y-129947001D01*
X144957001Y-129950677D01*
X144994324Y-129947001D01*
X149262127Y-129947001D01*
X149157244Y-130170048D01*
X149090977Y-130437135D01*
X149078090Y-130712017D01*
X149119078Y-130984133D01*
X149212364Y-131243023D01*
X149274344Y-131358980D01*
X149514435Y-131425960D01*
X150300395Y-130640000D01*
X150286253Y-130625858D01*
X150465858Y-130446253D01*
X150480000Y-130460395D01*
X150494143Y-130446253D01*
X150673748Y-130625858D01*
X150659605Y-130640000D01*
X151445565Y-131425960D01*
X151685656Y-131358980D01*
X151700779Y-131326819D01*
X152688001Y-132314041D01*
X152688001Y-132360679D01*
X152684325Y-132398001D01*
X152688001Y-132435323D01*
X152688001Y-132435334D01*
X152698998Y-132546987D01*
X152742455Y-132690248D01*
X152813027Y-132822277D01*
X152845048Y-132861294D01*
X152813000Y-133022408D01*
X152813000Y-133297592D01*
X152866686Y-133567490D01*
X152971995Y-133821727D01*
X153124880Y-134050535D01*
X153319465Y-134245120D01*
X153548273Y-134398005D01*
X153625515Y-134430000D01*
X153548273Y-134461995D01*
X153319465Y-134614880D01*
X153124880Y-134809465D01*
X152971995Y-135038273D01*
X152866686Y-135292510D01*
X152813000Y-135562408D01*
X152813000Y-135837592D01*
X152866686Y-136107490D01*
X152971995Y-136361727D01*
X153124880Y-136590535D01*
X153319465Y-136785120D01*
X153548273Y-136938005D01*
X153625515Y-136970000D01*
X153548273Y-137001995D01*
X153319465Y-137154880D01*
X153124880Y-137349465D01*
X152971995Y-137578273D01*
X152866686Y-137832510D01*
X152813000Y-138102408D01*
X152813000Y-138377592D01*
X152866686Y-138647490D01*
X152971995Y-138901727D01*
X153124880Y-139130535D01*
X153319465Y-139325120D01*
X153548273Y-139478005D01*
X153625515Y-139510000D01*
X153548273Y-139541995D01*
X153319465Y-139694880D01*
X153124880Y-139889465D01*
X152971995Y-140118273D01*
X152866686Y-140372510D01*
X152813000Y-140642408D01*
X152813000Y-140917592D01*
X152866686Y-141187490D01*
X152971995Y-141441727D01*
X153124880Y-141670535D01*
X153319465Y-141865120D01*
X153548273Y-142018005D01*
X153802510Y-142123314D01*
X154072408Y-142177000D01*
X154347592Y-142177000D01*
X154617490Y-142123314D01*
X154871727Y-142018005D01*
X155100535Y-141865120D01*
X155295120Y-141670535D01*
X155448005Y-141441727D01*
X155553314Y-141187490D01*
X155607000Y-140917592D01*
X155607000Y-140642408D01*
X155553314Y-140372510D01*
X155448005Y-140118273D01*
X155295120Y-139889465D01*
X155100535Y-139694880D01*
X154871727Y-139541995D01*
X154794485Y-139510000D01*
X154871727Y-139478005D01*
X155100535Y-139325120D01*
X155295120Y-139130535D01*
X155448005Y-138901727D01*
X155553314Y-138647490D01*
X155607000Y-138377592D01*
X155607000Y-138102408D01*
X155553314Y-137832510D01*
X155448005Y-137578273D01*
X155295120Y-137349465D01*
X155100535Y-137154880D01*
X154871727Y-137001995D01*
X154794485Y-136970000D01*
X154871727Y-136938005D01*
X155100535Y-136785120D01*
X155295120Y-136590535D01*
X155448005Y-136361727D01*
X155553314Y-136107490D01*
X155607000Y-135837592D01*
X155607000Y-135562408D01*
X155553314Y-135292510D01*
X155448005Y-135038273D01*
X155295120Y-134809465D01*
X155100535Y-134614880D01*
X154871727Y-134461995D01*
X154794485Y-134430000D01*
X154871727Y-134398005D01*
X155100535Y-134245120D01*
X155295120Y-134050535D01*
X155448005Y-133821727D01*
X155553314Y-133567490D01*
X155607000Y-133297592D01*
X155607000Y-133022408D01*
X155553314Y-132752510D01*
X155448005Y-132498273D01*
X155295120Y-132269465D01*
X155100535Y-132074880D01*
X154871727Y-131921995D01*
X154794485Y-131890000D01*
X154871727Y-131858005D01*
X155100535Y-131705120D01*
X155295120Y-131510535D01*
X155448005Y-131281727D01*
X155553314Y-131027490D01*
X155607000Y-130757592D01*
X155607000Y-130482408D01*
X155553314Y-130212510D01*
X155448005Y-129958273D01*
X155295120Y-129729465D01*
X155100535Y-129534880D01*
X154871727Y-129381995D01*
X154794485Y-129350000D01*
X154871727Y-129318005D01*
X155100535Y-129165120D01*
X155295120Y-128970535D01*
X155448005Y-128741727D01*
X155553314Y-128487490D01*
X155607000Y-128217592D01*
X155607000Y-127962408D01*
X164323000Y-127962408D01*
X164323000Y-128237592D01*
X164376686Y-128507490D01*
X164481995Y-128761727D01*
X164634880Y-128990535D01*
X164829465Y-129185120D01*
X165058273Y-129338005D01*
X165135515Y-129370000D01*
X165058273Y-129401995D01*
X164829465Y-129554880D01*
X164634880Y-129749465D01*
X164481995Y-129978273D01*
X164376686Y-130232510D01*
X164323000Y-130502408D01*
X164323000Y-130777592D01*
X164376686Y-131047490D01*
X164481995Y-131301727D01*
X164634880Y-131530535D01*
X164829465Y-131725120D01*
X165058273Y-131878005D01*
X165135515Y-131910000D01*
X165058273Y-131941995D01*
X164829465Y-132094880D01*
X164634880Y-132289465D01*
X164481995Y-132518273D01*
X164376686Y-132772510D01*
X164323000Y-133042408D01*
X164323000Y-133317592D01*
X164376686Y-133587490D01*
X164481995Y-133841727D01*
X164634880Y-134070535D01*
X164829465Y-134265120D01*
X165058273Y-134418005D01*
X165312510Y-134523314D01*
X165582408Y-134577000D01*
X165857592Y-134577000D01*
X166127490Y-134523314D01*
X166381727Y-134418005D01*
X166610535Y-134265120D01*
X166805120Y-134070535D01*
X166958005Y-133841727D01*
X167063314Y-133587490D01*
X167117000Y-133317592D01*
X167117000Y-133042408D01*
X167063314Y-132772510D01*
X166958005Y-132518273D01*
X166805120Y-132289465D01*
X166610535Y-132094880D01*
X166381727Y-131941995D01*
X166304485Y-131910000D01*
X166381727Y-131878005D01*
X166610535Y-131725120D01*
X166805120Y-131530535D01*
X166958005Y-131301727D01*
X167063314Y-131047490D01*
X167117000Y-130777592D01*
X167117000Y-130502408D01*
X167063314Y-130232510D01*
X166958005Y-129978273D01*
X166805120Y-129749465D01*
X166610535Y-129554880D01*
X166381727Y-129401995D01*
X166304485Y-129370000D01*
X166381727Y-129338005D01*
X166610535Y-129185120D01*
X166805120Y-128990535D01*
X166958005Y-128761727D01*
X167063314Y-128507490D01*
X167117000Y-128237592D01*
X167117000Y-127962408D01*
X167063314Y-127692510D01*
X166958005Y-127438273D01*
X166805120Y-127209465D01*
X166610535Y-127014880D01*
X166381727Y-126861995D01*
X166310057Y-126832308D01*
X166323023Y-126827636D01*
X166438980Y-126765656D01*
X166505960Y-126525565D01*
X165720000Y-125739605D01*
X164934040Y-126525565D01*
X165001020Y-126765656D01*
X165136760Y-126829485D01*
X165058273Y-126861995D01*
X164829465Y-127014880D01*
X164634880Y-127209465D01*
X164481995Y-127438273D01*
X164376686Y-127692510D01*
X164323000Y-127962408D01*
X155607000Y-127962408D01*
X155607000Y-127942408D01*
X155553314Y-127672510D01*
X155448005Y-127418273D01*
X155295120Y-127189465D01*
X155272165Y-127166510D01*
X155295565Y-127137998D01*
X157200565Y-125232999D01*
X164361776Y-125232999D01*
X164330977Y-125357135D01*
X164318090Y-125632017D01*
X164359078Y-125904133D01*
X164452364Y-126163023D01*
X164514344Y-126278980D01*
X164754435Y-126345960D01*
X165540395Y-125560000D01*
X165526253Y-125545858D01*
X165705858Y-125366253D01*
X165720000Y-125380395D01*
X165734143Y-125366253D01*
X165913748Y-125545858D01*
X165899605Y-125560000D01*
X166685565Y-126345960D01*
X166925656Y-126278980D01*
X167042756Y-126029952D01*
X167109023Y-125762865D01*
X167121910Y-125487983D01*
X167080922Y-125215867D01*
X166987636Y-124956977D01*
X166925656Y-124841020D01*
X166685567Y-124774041D01*
X166801977Y-124657631D01*
X166783955Y-124639609D01*
X168111003Y-123312561D01*
X168140001Y-123288763D01*
X168234974Y-123173038D01*
X168305546Y-123041009D01*
X168349003Y-122897748D01*
X168360000Y-122786095D01*
X168360000Y-122786086D01*
X168363676Y-122748763D01*
X168360000Y-122711440D01*
X168360000Y-120435000D01*
X168426939Y-120435000D01*
X168626898Y-120395226D01*
X168815256Y-120317205D01*
X168984774Y-120203937D01*
X169128937Y-120059774D01*
X169242205Y-119890256D01*
X169320226Y-119701898D01*
X169360000Y-119501939D01*
X169360000Y-119298061D01*
X169320226Y-119098102D01*
X169242205Y-118909744D01*
X169128937Y-118740226D01*
X169085000Y-118696289D01*
X169085000Y-97462408D01*
X170593000Y-97462408D01*
X170593000Y-97737592D01*
X170646686Y-98007490D01*
X170751995Y-98261727D01*
X170904880Y-98490535D01*
X171099465Y-98685120D01*
X171328273Y-98838005D01*
X171405515Y-98870000D01*
X171328273Y-98901995D01*
X171099465Y-99054880D01*
X170904880Y-99249465D01*
X170751995Y-99478273D01*
X170646686Y-99732510D01*
X170593000Y-100002408D01*
X170593000Y-100277592D01*
X170646686Y-100547490D01*
X170751995Y-100801727D01*
X170904880Y-101030535D01*
X171099465Y-101225120D01*
X171328273Y-101378005D01*
X171405515Y-101410000D01*
X171328273Y-101441995D01*
X171099465Y-101594880D01*
X170904880Y-101789465D01*
X170751995Y-102018273D01*
X170646686Y-102272510D01*
X170593000Y-102542408D01*
X170593000Y-102817592D01*
X170646686Y-103087490D01*
X170751995Y-103341727D01*
X170904880Y-103570535D01*
X171099465Y-103765120D01*
X171328273Y-103918005D01*
X171405515Y-103950000D01*
X171328273Y-103981995D01*
X171099465Y-104134880D01*
X170904880Y-104329465D01*
X170751995Y-104558273D01*
X170646686Y-104812510D01*
X170593000Y-105082408D01*
X170593000Y-105357592D01*
X170646686Y-105627490D01*
X170751995Y-105881727D01*
X170904880Y-106110535D01*
X171099465Y-106305120D01*
X171328273Y-106458005D01*
X171405515Y-106490000D01*
X171328273Y-106521995D01*
X171099465Y-106674880D01*
X170904880Y-106869465D01*
X170751995Y-107098273D01*
X170646686Y-107352510D01*
X170593000Y-107622408D01*
X170593000Y-107897592D01*
X170646686Y-108167490D01*
X170751995Y-108421727D01*
X170904880Y-108650535D01*
X171099465Y-108845120D01*
X171328273Y-108998005D01*
X171405515Y-109030000D01*
X171328273Y-109061995D01*
X171099465Y-109214880D01*
X170904880Y-109409465D01*
X170751995Y-109638273D01*
X170646686Y-109892510D01*
X170593000Y-110162408D01*
X170593000Y-110437592D01*
X170646686Y-110707490D01*
X170751995Y-110961727D01*
X170904880Y-111190535D01*
X171099465Y-111385120D01*
X171328273Y-111538005D01*
X171405515Y-111570000D01*
X171328273Y-111601995D01*
X171099465Y-111754880D01*
X170904880Y-111949465D01*
X170751995Y-112178273D01*
X170646686Y-112432510D01*
X170593000Y-112702408D01*
X170593000Y-112977592D01*
X170646686Y-113247490D01*
X170751995Y-113501727D01*
X170904880Y-113730535D01*
X171099465Y-113925120D01*
X171328273Y-114078005D01*
X171405515Y-114110000D01*
X171328273Y-114141995D01*
X171099465Y-114294880D01*
X170904880Y-114489465D01*
X170751995Y-114718273D01*
X170646686Y-114972510D01*
X170593000Y-115242408D01*
X170593000Y-115517592D01*
X170646686Y-115787490D01*
X170751995Y-116041727D01*
X170904880Y-116270535D01*
X171099465Y-116465120D01*
X171328273Y-116618005D01*
X171405515Y-116650000D01*
X171328273Y-116681995D01*
X171099465Y-116834880D01*
X170904880Y-117029465D01*
X170751995Y-117258273D01*
X170646686Y-117512510D01*
X170593000Y-117782408D01*
X170593000Y-118057592D01*
X170646686Y-118327490D01*
X170751995Y-118581727D01*
X170904880Y-118810535D01*
X171099465Y-119005120D01*
X171328273Y-119158005D01*
X171405515Y-119190000D01*
X171328273Y-119221995D01*
X171099465Y-119374880D01*
X170904880Y-119569465D01*
X170751995Y-119798273D01*
X170646686Y-120052510D01*
X170593000Y-120322408D01*
X170593000Y-120597592D01*
X170646686Y-120867490D01*
X170751995Y-121121727D01*
X170904880Y-121350535D01*
X171099465Y-121545120D01*
X171328273Y-121698005D01*
X171405515Y-121730000D01*
X171328273Y-121761995D01*
X171099465Y-121914880D01*
X170904880Y-122109465D01*
X170751995Y-122338273D01*
X170646686Y-122592510D01*
X170593000Y-122862408D01*
X170593000Y-123137592D01*
X170646686Y-123407490D01*
X170751995Y-123661727D01*
X170904880Y-123890535D01*
X171099465Y-124085120D01*
X171328273Y-124238005D01*
X171405515Y-124270000D01*
X171328273Y-124301995D01*
X171099465Y-124454880D01*
X170904880Y-124649465D01*
X170751995Y-124878273D01*
X170646686Y-125132510D01*
X170593000Y-125402408D01*
X170593000Y-125677592D01*
X170646686Y-125947490D01*
X170751995Y-126201727D01*
X170904880Y-126430535D01*
X171099465Y-126625120D01*
X171328273Y-126778005D01*
X171405515Y-126810000D01*
X171328273Y-126841995D01*
X171099465Y-126994880D01*
X170904880Y-127189465D01*
X170751995Y-127418273D01*
X170646686Y-127672510D01*
X170593000Y-127942408D01*
X170593000Y-128217592D01*
X170646686Y-128487490D01*
X170751995Y-128741727D01*
X170904880Y-128970535D01*
X171099465Y-129165120D01*
X171328273Y-129318005D01*
X171405515Y-129350000D01*
X171328273Y-129381995D01*
X171099465Y-129534880D01*
X170904880Y-129729465D01*
X170751995Y-129958273D01*
X170646686Y-130212510D01*
X170593000Y-130482408D01*
X170593000Y-130757592D01*
X170646686Y-131027490D01*
X170751995Y-131281727D01*
X170904880Y-131510535D01*
X171099465Y-131705120D01*
X171328273Y-131858005D01*
X171405515Y-131890000D01*
X171328273Y-131921995D01*
X171099465Y-132074880D01*
X170904880Y-132269465D01*
X170751995Y-132498273D01*
X170646686Y-132752510D01*
X170593000Y-133022408D01*
X170593000Y-133297592D01*
X170646686Y-133567490D01*
X170751995Y-133821727D01*
X170904880Y-134050535D01*
X171099465Y-134245120D01*
X171328273Y-134398005D01*
X171405515Y-134430000D01*
X171328273Y-134461995D01*
X171099465Y-134614880D01*
X170904880Y-134809465D01*
X170751995Y-135038273D01*
X170646686Y-135292510D01*
X170593000Y-135562408D01*
X170593000Y-135837592D01*
X170646686Y-136107490D01*
X170751995Y-136361727D01*
X170904880Y-136590535D01*
X171099465Y-136785120D01*
X171328273Y-136938005D01*
X171405515Y-136970000D01*
X171328273Y-137001995D01*
X171099465Y-137154880D01*
X170904880Y-137349465D01*
X170751995Y-137578273D01*
X170646686Y-137832510D01*
X170593000Y-138102408D01*
X170593000Y-138377592D01*
X170646686Y-138647490D01*
X170751995Y-138901727D01*
X170904880Y-139130535D01*
X171099465Y-139325120D01*
X171328273Y-139478005D01*
X171405515Y-139510000D01*
X171328273Y-139541995D01*
X171099465Y-139694880D01*
X170904880Y-139889465D01*
X170751995Y-140118273D01*
X170646686Y-140372510D01*
X170593000Y-140642408D01*
X170593000Y-140917592D01*
X170646686Y-141187490D01*
X170751995Y-141441727D01*
X170904880Y-141670535D01*
X171099465Y-141865120D01*
X171328273Y-142018005D01*
X171582510Y-142123314D01*
X171852408Y-142177000D01*
X172127592Y-142177000D01*
X172397490Y-142123314D01*
X172651727Y-142018005D01*
X172880535Y-141865120D01*
X173075120Y-141670535D01*
X173228005Y-141441727D01*
X173333314Y-141187490D01*
X173387000Y-140917592D01*
X173387000Y-140642408D01*
X173333314Y-140372510D01*
X173228005Y-140118273D01*
X173075120Y-139889465D01*
X172880535Y-139694880D01*
X172651727Y-139541995D01*
X172574485Y-139510000D01*
X172651727Y-139478005D01*
X172880535Y-139325120D01*
X173075120Y-139130535D01*
X173228005Y-138901727D01*
X173333314Y-138647490D01*
X173387000Y-138377592D01*
X173387000Y-138102408D01*
X173333314Y-137832510D01*
X173228005Y-137578273D01*
X173075120Y-137349465D01*
X172880535Y-137154880D01*
X172651727Y-137001995D01*
X172574485Y-136970000D01*
X172651727Y-136938005D01*
X172880535Y-136785120D01*
X173075120Y-136590535D01*
X173228005Y-136361727D01*
X173333314Y-136107490D01*
X173387000Y-135837592D01*
X173387000Y-135562408D01*
X173333314Y-135292510D01*
X173228005Y-135038273D01*
X173075120Y-134809465D01*
X172880535Y-134614880D01*
X172651727Y-134461995D01*
X172574485Y-134430000D01*
X172651727Y-134398005D01*
X172880535Y-134245120D01*
X173075120Y-134050535D01*
X173228005Y-133821727D01*
X173333314Y-133567490D01*
X173387000Y-133297592D01*
X173387000Y-133022408D01*
X173333314Y-132752510D01*
X173228005Y-132498273D01*
X173075120Y-132269465D01*
X172880535Y-132074880D01*
X172651727Y-131921995D01*
X172574485Y-131890000D01*
X172651727Y-131858005D01*
X172880535Y-131705120D01*
X173075120Y-131510535D01*
X173228005Y-131281727D01*
X173333314Y-131027490D01*
X173387000Y-130757592D01*
X173387000Y-130482408D01*
X173333314Y-130212510D01*
X173228005Y-129958273D01*
X173075120Y-129729465D01*
X172880535Y-129534880D01*
X172651727Y-129381995D01*
X172574485Y-129350000D01*
X172651727Y-129318005D01*
X172880535Y-129165120D01*
X173075120Y-128970535D01*
X173228005Y-128741727D01*
X173333314Y-128487490D01*
X173387000Y-128217592D01*
X173387000Y-127942408D01*
X173333314Y-127672510D01*
X173228005Y-127418273D01*
X173075120Y-127189465D01*
X172880535Y-126994880D01*
X172651727Y-126841995D01*
X172574485Y-126810000D01*
X172651727Y-126778005D01*
X172880535Y-126625120D01*
X173075120Y-126430535D01*
X173214268Y-126222285D01*
X174565000Y-126222285D01*
X174565000Y-126977715D01*
X174712377Y-127718628D01*
X175001467Y-128416554D01*
X175421161Y-129044670D01*
X175955330Y-129578839D01*
X176583446Y-129998533D01*
X177281372Y-130287623D01*
X178022285Y-130435000D01*
X178777715Y-130435000D01*
X179518628Y-130287623D01*
X180216554Y-129998533D01*
X180844670Y-129578839D01*
X181378839Y-129044670D01*
X181798533Y-128416554D01*
X182087623Y-127718628D01*
X182235000Y-126977715D01*
X182235000Y-126222285D01*
X182087623Y-125481372D01*
X181798533Y-124783446D01*
X181378839Y-124155330D01*
X180844670Y-123621161D01*
X180216554Y-123201467D01*
X179518628Y-122912377D01*
X178777715Y-122765000D01*
X178022285Y-122765000D01*
X177281372Y-122912377D01*
X176583446Y-123201467D01*
X175955330Y-123621161D01*
X175421161Y-124155330D01*
X175001467Y-124783446D01*
X174712377Y-125481372D01*
X174565000Y-126222285D01*
X173214268Y-126222285D01*
X173228005Y-126201727D01*
X173333314Y-125947490D01*
X173387000Y-125677592D01*
X173387000Y-125402408D01*
X173333314Y-125132510D01*
X173228005Y-124878273D01*
X173075120Y-124649465D01*
X172880535Y-124454880D01*
X172651727Y-124301995D01*
X172574485Y-124270000D01*
X172651727Y-124238005D01*
X172880535Y-124085120D01*
X173075120Y-123890535D01*
X173228005Y-123661727D01*
X173333314Y-123407490D01*
X173387000Y-123137592D01*
X173387000Y-122862408D01*
X173333314Y-122592510D01*
X173259515Y-122414344D01*
X192915000Y-122414344D01*
X192915000Y-122785656D01*
X192987439Y-123149834D01*
X193129534Y-123492882D01*
X193335825Y-123801618D01*
X193598382Y-124064175D01*
X193907118Y-124270466D01*
X194250166Y-124412561D01*
X194614344Y-124485000D01*
X194985656Y-124485000D01*
X195349834Y-124412561D01*
X195692882Y-124270466D01*
X196001618Y-124064175D01*
X196264175Y-123801618D01*
X196470466Y-123492882D01*
X196612561Y-123149834D01*
X196685000Y-122785656D01*
X196685000Y-122414344D01*
X196612561Y-122050166D01*
X196470466Y-121707118D01*
X196264175Y-121398382D01*
X196001618Y-121135825D01*
X195692882Y-120929534D01*
X195349834Y-120787439D01*
X194985656Y-120715000D01*
X194614344Y-120715000D01*
X194250166Y-120787439D01*
X193907118Y-120929534D01*
X193598382Y-121135825D01*
X193335825Y-121398382D01*
X193129534Y-121707118D01*
X192987439Y-122050166D01*
X192915000Y-122414344D01*
X173259515Y-122414344D01*
X173228005Y-122338273D01*
X173075120Y-122109465D01*
X172880535Y-121914880D01*
X172651727Y-121761995D01*
X172574485Y-121730000D01*
X172651727Y-121698005D01*
X172880535Y-121545120D01*
X173075120Y-121350535D01*
X173228005Y-121121727D01*
X173333314Y-120867490D01*
X173387000Y-120597592D01*
X173387000Y-120322408D01*
X173333314Y-120052510D01*
X173228005Y-119798273D01*
X173075120Y-119569465D01*
X172880535Y-119374880D01*
X172651727Y-119221995D01*
X172574485Y-119190000D01*
X172651727Y-119158005D01*
X172880535Y-119005120D01*
X173075120Y-118810535D01*
X173228005Y-118581727D01*
X173333314Y-118327490D01*
X173387000Y-118057592D01*
X173387000Y-117782408D01*
X173333314Y-117512510D01*
X173259515Y-117334344D01*
X192915000Y-117334344D01*
X192915000Y-117705656D01*
X192987439Y-118069834D01*
X193129534Y-118412882D01*
X193335825Y-118721618D01*
X193598382Y-118984175D01*
X193907118Y-119190466D01*
X194250166Y-119332561D01*
X194614344Y-119405000D01*
X194985656Y-119405000D01*
X195349834Y-119332561D01*
X195692882Y-119190466D01*
X196001618Y-118984175D01*
X196264175Y-118721618D01*
X196470466Y-118412882D01*
X196612561Y-118069834D01*
X196685000Y-117705656D01*
X196685000Y-117334344D01*
X196612561Y-116970166D01*
X196470466Y-116627118D01*
X196264175Y-116318382D01*
X196001618Y-116055825D01*
X195692882Y-115849534D01*
X195349834Y-115707439D01*
X194985656Y-115635000D01*
X194614344Y-115635000D01*
X194250166Y-115707439D01*
X193907118Y-115849534D01*
X193598382Y-116055825D01*
X193335825Y-116318382D01*
X193129534Y-116627118D01*
X192987439Y-116970166D01*
X192915000Y-117334344D01*
X173259515Y-117334344D01*
X173228005Y-117258273D01*
X173075120Y-117029465D01*
X172880535Y-116834880D01*
X172651727Y-116681995D01*
X172574485Y-116650000D01*
X172651727Y-116618005D01*
X172880535Y-116465120D01*
X173075120Y-116270535D01*
X173228005Y-116041727D01*
X173333314Y-115787490D01*
X173387000Y-115517592D01*
X173387000Y-115242408D01*
X173333314Y-114972510D01*
X173228005Y-114718273D01*
X173075120Y-114489465D01*
X172880535Y-114294880D01*
X172651727Y-114141995D01*
X172574485Y-114110000D01*
X172651727Y-114078005D01*
X172880535Y-113925120D01*
X173075120Y-113730535D01*
X173228005Y-113501727D01*
X173333314Y-113247490D01*
X173387000Y-112977592D01*
X173387000Y-112702408D01*
X173333314Y-112432510D01*
X173259515Y-112254344D01*
X192915000Y-112254344D01*
X192915000Y-112625656D01*
X192987439Y-112989834D01*
X193129534Y-113332882D01*
X193335825Y-113641618D01*
X193598382Y-113904175D01*
X193907118Y-114110466D01*
X194250166Y-114252561D01*
X194614344Y-114325000D01*
X194985656Y-114325000D01*
X195349834Y-114252561D01*
X195692882Y-114110466D01*
X196001618Y-113904175D01*
X196264175Y-113641618D01*
X196470466Y-113332882D01*
X196612561Y-112989834D01*
X196685000Y-112625656D01*
X196685000Y-112254344D01*
X196612561Y-111890166D01*
X196470466Y-111547118D01*
X196264175Y-111238382D01*
X196001618Y-110975825D01*
X195692882Y-110769534D01*
X195349834Y-110627439D01*
X194985656Y-110555000D01*
X194614344Y-110555000D01*
X194250166Y-110627439D01*
X193907118Y-110769534D01*
X193598382Y-110975825D01*
X193335825Y-111238382D01*
X193129534Y-111547118D01*
X192987439Y-111890166D01*
X192915000Y-112254344D01*
X173259515Y-112254344D01*
X173228005Y-112178273D01*
X173075120Y-111949465D01*
X172880535Y-111754880D01*
X172651727Y-111601995D01*
X172574485Y-111570000D01*
X172651727Y-111538005D01*
X172880535Y-111385120D01*
X173075120Y-111190535D01*
X173228005Y-110961727D01*
X173333314Y-110707490D01*
X173387000Y-110437592D01*
X173387000Y-110162408D01*
X173333314Y-109892510D01*
X173228005Y-109638273D01*
X173075120Y-109409465D01*
X172880535Y-109214880D01*
X172651727Y-109061995D01*
X172574485Y-109030000D01*
X172651727Y-108998005D01*
X172880535Y-108845120D01*
X173075120Y-108650535D01*
X173228005Y-108421727D01*
X173333314Y-108167490D01*
X173387000Y-107897592D01*
X173387000Y-107622408D01*
X173333314Y-107352510D01*
X173259515Y-107174344D01*
X192915000Y-107174344D01*
X192915000Y-107545656D01*
X192987439Y-107909834D01*
X193129534Y-108252882D01*
X193335825Y-108561618D01*
X193598382Y-108824175D01*
X193907118Y-109030466D01*
X194250166Y-109172561D01*
X194614344Y-109245000D01*
X194985656Y-109245000D01*
X195349834Y-109172561D01*
X195692882Y-109030466D01*
X196001618Y-108824175D01*
X196264175Y-108561618D01*
X196470466Y-108252882D01*
X196612561Y-107909834D01*
X196685000Y-107545656D01*
X196685000Y-107174344D01*
X196612561Y-106810166D01*
X196470466Y-106467118D01*
X196264175Y-106158382D01*
X196001618Y-105895825D01*
X195692882Y-105689534D01*
X195349834Y-105547439D01*
X194985656Y-105475000D01*
X194614344Y-105475000D01*
X194250166Y-105547439D01*
X193907118Y-105689534D01*
X193598382Y-105895825D01*
X193335825Y-106158382D01*
X193129534Y-106467118D01*
X192987439Y-106810166D01*
X192915000Y-107174344D01*
X173259515Y-107174344D01*
X173228005Y-107098273D01*
X173075120Y-106869465D01*
X172880535Y-106674880D01*
X172651727Y-106521995D01*
X172574485Y-106490000D01*
X172651727Y-106458005D01*
X172880535Y-106305120D01*
X173075120Y-106110535D01*
X173228005Y-105881727D01*
X173333314Y-105627490D01*
X173387000Y-105357592D01*
X173387000Y-105082408D01*
X173333314Y-104812510D01*
X173228005Y-104558273D01*
X173075120Y-104329465D01*
X172880535Y-104134880D01*
X172651727Y-103981995D01*
X172574485Y-103950000D01*
X172651727Y-103918005D01*
X172880535Y-103765120D01*
X173075120Y-103570535D01*
X173228005Y-103341727D01*
X173333314Y-103087490D01*
X173387000Y-102817592D01*
X173387000Y-102542408D01*
X173333314Y-102272510D01*
X173259515Y-102094344D01*
X192915000Y-102094344D01*
X192915000Y-102465656D01*
X192987439Y-102829834D01*
X193129534Y-103172882D01*
X193335825Y-103481618D01*
X193598382Y-103744175D01*
X193907118Y-103950466D01*
X194250166Y-104092561D01*
X194614344Y-104165000D01*
X194985656Y-104165000D01*
X195349834Y-104092561D01*
X195692882Y-103950466D01*
X196001618Y-103744175D01*
X196264175Y-103481618D01*
X196470466Y-103172882D01*
X196612561Y-102829834D01*
X196685000Y-102465656D01*
X196685000Y-102094344D01*
X196612561Y-101730166D01*
X196470466Y-101387118D01*
X196264175Y-101078382D01*
X196001618Y-100815825D01*
X195692882Y-100609534D01*
X195349834Y-100467439D01*
X194985656Y-100395000D01*
X194614344Y-100395000D01*
X194250166Y-100467439D01*
X193907118Y-100609534D01*
X193598382Y-100815825D01*
X193335825Y-101078382D01*
X193129534Y-101387118D01*
X192987439Y-101730166D01*
X192915000Y-102094344D01*
X173259515Y-102094344D01*
X173228005Y-102018273D01*
X173075120Y-101789465D01*
X172880535Y-101594880D01*
X172651727Y-101441995D01*
X172574485Y-101410000D01*
X172651727Y-101378005D01*
X172880535Y-101225120D01*
X173075120Y-101030535D01*
X173228005Y-100801727D01*
X173333314Y-100547490D01*
X173387000Y-100277592D01*
X173387000Y-100002408D01*
X173333314Y-99732510D01*
X173228005Y-99478273D01*
X173075120Y-99249465D01*
X172880535Y-99054880D01*
X172651727Y-98901995D01*
X172574485Y-98870000D01*
X172651727Y-98838005D01*
X172880535Y-98685120D01*
X173075120Y-98490535D01*
X173228005Y-98261727D01*
X173333314Y-98007490D01*
X173387000Y-97737592D01*
X173387000Y-97462408D01*
X173333314Y-97192510D01*
X173228005Y-96938273D01*
X173075120Y-96709465D01*
X172880535Y-96514880D01*
X172651727Y-96361995D01*
X172580057Y-96332308D01*
X172593023Y-96327636D01*
X172708980Y-96265656D01*
X172775960Y-96025565D01*
X171990000Y-95239605D01*
X171204040Y-96025565D01*
X171271020Y-96265656D01*
X171406760Y-96329485D01*
X171328273Y-96361995D01*
X171099465Y-96514880D01*
X170904880Y-96709465D01*
X170751995Y-96938273D01*
X170646686Y-97192510D01*
X170593000Y-97462408D01*
X169085000Y-97462408D01*
X169085000Y-97431039D01*
X170767874Y-95748166D01*
X170784344Y-95778980D01*
X171024435Y-95845960D01*
X171810395Y-95060000D01*
X171796253Y-95045858D01*
X171975858Y-94866253D01*
X171990000Y-94880395D01*
X172004143Y-94866253D01*
X172183748Y-95045858D01*
X172169605Y-95060000D01*
X172955565Y-95845960D01*
X173195656Y-95778980D01*
X173312756Y-95529952D01*
X173379023Y-95262865D01*
X173391910Y-94987983D01*
X173353503Y-94732999D01*
X174989679Y-94732999D01*
X175027001Y-94736675D01*
X175064323Y-94732999D01*
X175064334Y-94732999D01*
X175175987Y-94722002D01*
X175319248Y-94678545D01*
X175451277Y-94607973D01*
X175567002Y-94513000D01*
X175590805Y-94483996D01*
X177561196Y-92513605D01*
X193666000Y-92513605D01*
X193791914Y-92803577D01*
X194124126Y-92969433D01*
X194482312Y-93067290D01*
X194852706Y-93093389D01*
X195221075Y-93046725D01*
X195573262Y-92929094D01*
X195808086Y-92803577D01*
X195934000Y-92513605D01*
X194800000Y-91379605D01*
X193666000Y-92513605D01*
X177561196Y-92513605D01*
X178822095Y-91252706D01*
X192906611Y-91252706D01*
X192953275Y-91621075D01*
X193070906Y-91973262D01*
X193196423Y-92208086D01*
X193486395Y-92334000D01*
X194620395Y-91200000D01*
X194979605Y-91200000D01*
X196113605Y-92334000D01*
X196403577Y-92208086D01*
X196569433Y-91875874D01*
X196667290Y-91517688D01*
X196693389Y-91147294D01*
X196646725Y-90778925D01*
X196529094Y-90426738D01*
X196403577Y-90191914D01*
X196113605Y-90066000D01*
X194979605Y-91200000D01*
X194620395Y-91200000D01*
X193486395Y-90066000D01*
X193196423Y-90191914D01*
X193030567Y-90524126D01*
X192932710Y-90882312D01*
X192906611Y-91252706D01*
X178822095Y-91252706D01*
X178839802Y-91235000D01*
X178901939Y-91235000D01*
X179101898Y-91195226D01*
X179290256Y-91117205D01*
X179459774Y-91003937D01*
X179603937Y-90859774D01*
X179717205Y-90690256D01*
X179795226Y-90501898D01*
X179835000Y-90301939D01*
X179835000Y-90098061D01*
X179795226Y-89898102D01*
X179790377Y-89886395D01*
X193666000Y-89886395D01*
X194800000Y-91020395D01*
X195934000Y-89886395D01*
X195808086Y-89596423D01*
X195475874Y-89430567D01*
X195117688Y-89332710D01*
X194747294Y-89306611D01*
X194378925Y-89353275D01*
X194026738Y-89470906D01*
X193791914Y-89596423D01*
X193666000Y-89886395D01*
X179790377Y-89886395D01*
X179717205Y-89709744D01*
X179603937Y-89540226D01*
X179459774Y-89396063D01*
X179290256Y-89282795D01*
X179101898Y-89204774D01*
X178901939Y-89165000D01*
X178698061Y-89165000D01*
X178498102Y-89204774D01*
X178309744Y-89282795D01*
X178235000Y-89332737D01*
X178235000Y-89298061D01*
X178195226Y-89098102D01*
X178117205Y-88909744D01*
X178003937Y-88740226D01*
X177859774Y-88596063D01*
X177690256Y-88482795D01*
X177501898Y-88404774D01*
X177301939Y-88365000D01*
X177098061Y-88365000D01*
X176898102Y-88404774D01*
X176709744Y-88482795D01*
X176540226Y-88596063D01*
X176496289Y-88640000D01*
X160634802Y-88640000D01*
X161514802Y-87760000D01*
X171696289Y-87760000D01*
X171740226Y-87803937D01*
X171909744Y-87917205D01*
X172098102Y-87995226D01*
X172298061Y-88035000D01*
X172501939Y-88035000D01*
X172701898Y-87995226D01*
X172890256Y-87917205D01*
X173059774Y-87803937D01*
X173203937Y-87659774D01*
X173317205Y-87490256D01*
X173395226Y-87301898D01*
X173435000Y-87101939D01*
X173435000Y-86898061D01*
X173395226Y-86698102D01*
X173317205Y-86509744D01*
X173203937Y-86340226D01*
X173198711Y-86335000D01*
X183855752Y-86335000D01*
X184022499Y-86318577D01*
X184236447Y-86253676D01*
X184433623Y-86148284D01*
X184606449Y-86006449D01*
X184665624Y-85934344D01*
X192915000Y-85934344D01*
X192915000Y-86305656D01*
X192987439Y-86669834D01*
X193129534Y-87012882D01*
X193335825Y-87321618D01*
X193598382Y-87584175D01*
X193907118Y-87790466D01*
X194250166Y-87932561D01*
X194614344Y-88005000D01*
X194985656Y-88005000D01*
X195349834Y-87932561D01*
X195692882Y-87790466D01*
X196001618Y-87584175D01*
X196264175Y-87321618D01*
X196470466Y-87012882D01*
X196612561Y-86669834D01*
X196685000Y-86305656D01*
X196685000Y-85934344D01*
X196612561Y-85570166D01*
X196470466Y-85227118D01*
X196264175Y-84918382D01*
X196001618Y-84655825D01*
X195692882Y-84449534D01*
X195349834Y-84307439D01*
X194985656Y-84235000D01*
X194614344Y-84235000D01*
X194250166Y-84307439D01*
X193907118Y-84449534D01*
X193598382Y-84655825D01*
X193335825Y-84918382D01*
X193129534Y-85227118D01*
X192987439Y-85570166D01*
X192915000Y-85934344D01*
X184665624Y-85934344D01*
X184748284Y-85833623D01*
X184853676Y-85636447D01*
X184918577Y-85422499D01*
X184940491Y-85200000D01*
X184918577Y-84977501D01*
X184853676Y-84763553D01*
X184748284Y-84566377D01*
X184606449Y-84393551D01*
X184433623Y-84251716D01*
X184236447Y-84146324D01*
X184022499Y-84081423D01*
X183855752Y-84065000D01*
X172344248Y-84065000D01*
X172177501Y-84081423D01*
X171963553Y-84146324D01*
X171766377Y-84251716D01*
X171593551Y-84393551D01*
X171451716Y-84566377D01*
X171346324Y-84763553D01*
X171281423Y-84977501D01*
X171259509Y-85200000D01*
X171281423Y-85422499D01*
X171346324Y-85636447D01*
X171451716Y-85833623D01*
X171593551Y-86006449D01*
X171766377Y-86148284D01*
X171791575Y-86161753D01*
X171740226Y-86196063D01*
X171696289Y-86240000D01*
X161237333Y-86240000D01*
X161200000Y-86236323D01*
X161162667Y-86240000D01*
X161051014Y-86250997D01*
X160907753Y-86294454D01*
X160775724Y-86365026D01*
X160659999Y-86459999D01*
X160636201Y-86488997D01*
X156960000Y-90165199D01*
X156960000Y-85527910D01*
X156963676Y-85490587D01*
X156960000Y-85453265D01*
X156960000Y-85453255D01*
X156949003Y-85341602D01*
X156905546Y-85198341D01*
X156867413Y-85127000D01*
X156834974Y-85066311D01*
X156763799Y-84979585D01*
X156740001Y-84950587D01*
X156711003Y-84926789D01*
X156034214Y-84250000D01*
X159911928Y-84250000D01*
X159924188Y-84374482D01*
X159960498Y-84494180D01*
X160019463Y-84604494D01*
X160098815Y-84701185D01*
X160195506Y-84780537D01*
X160305820Y-84839502D01*
X160425518Y-84875812D01*
X160550000Y-84888072D01*
X161114250Y-84885000D01*
X161273000Y-84726250D01*
X161273000Y-83527000D01*
X160073750Y-83527000D01*
X159915000Y-83685750D01*
X159911928Y-84250000D01*
X156034214Y-84250000D01*
X154334214Y-82550000D01*
X159911928Y-82550000D01*
X159915000Y-83114250D01*
X160073750Y-83273000D01*
X161273000Y-83273000D01*
X161273000Y-82073750D01*
X161527000Y-82073750D01*
X161527000Y-83273000D01*
X161547000Y-83273000D01*
X161547000Y-83527000D01*
X161527000Y-83527000D01*
X161527000Y-84726250D01*
X161685750Y-84885000D01*
X162250000Y-84888072D01*
X162374482Y-84875812D01*
X162494180Y-84839502D01*
X162604494Y-84780537D01*
X162701185Y-84701185D01*
X162780537Y-84604494D01*
X162839502Y-84494180D01*
X162861513Y-84421620D01*
X162993368Y-84553475D01*
X163236589Y-84715990D01*
X163506842Y-84827932D01*
X163793740Y-84885000D01*
X164086260Y-84885000D01*
X164373158Y-84827932D01*
X164643411Y-84715990D01*
X164886632Y-84553475D01*
X165093475Y-84346632D01*
X165210000Y-84172240D01*
X165326525Y-84346632D01*
X165533368Y-84553475D01*
X165776589Y-84715990D01*
X166046842Y-84827932D01*
X166333740Y-84885000D01*
X166626260Y-84885000D01*
X166913158Y-84827932D01*
X167183411Y-84715990D01*
X167426632Y-84553475D01*
X167633475Y-84346632D01*
X167795990Y-84103411D01*
X167907932Y-83833158D01*
X167965000Y-83546260D01*
X167965000Y-83253740D01*
X167907932Y-82966842D01*
X167795990Y-82696589D01*
X167633475Y-82453368D01*
X167426632Y-82246525D01*
X167183411Y-82084010D01*
X166913158Y-81972068D01*
X166626260Y-81915000D01*
X166333740Y-81915000D01*
X166046842Y-81972068D01*
X165776589Y-82084010D01*
X165533368Y-82246525D01*
X165326525Y-82453368D01*
X165210000Y-82627760D01*
X165093475Y-82453368D01*
X164886632Y-82246525D01*
X164643411Y-82084010D01*
X164373158Y-81972068D01*
X164086260Y-81915000D01*
X163793740Y-81915000D01*
X163506842Y-81972068D01*
X163236589Y-82084010D01*
X162993368Y-82246525D01*
X162861513Y-82378380D01*
X162839502Y-82305820D01*
X162780537Y-82195506D01*
X162701185Y-82098815D01*
X162604494Y-82019463D01*
X162494180Y-81960498D01*
X162374482Y-81924188D01*
X162250000Y-81911928D01*
X161685750Y-81915000D01*
X161527000Y-82073750D01*
X161273000Y-82073750D01*
X161114250Y-81915000D01*
X160550000Y-81911928D01*
X160425518Y-81924188D01*
X160305820Y-81960498D01*
X160195506Y-82019463D01*
X160098815Y-82098815D01*
X160019463Y-82195506D01*
X159960498Y-82305820D01*
X159924188Y-82425518D01*
X159911928Y-82550000D01*
X154334214Y-82550000D01*
X152638558Y-80854344D01*
X192915000Y-80854344D01*
X192915000Y-81225656D01*
X192987439Y-81589834D01*
X193129534Y-81932882D01*
X193335825Y-82241618D01*
X193598382Y-82504175D01*
X193907118Y-82710466D01*
X194250166Y-82852561D01*
X194614344Y-82925000D01*
X194985656Y-82925000D01*
X195349834Y-82852561D01*
X195692882Y-82710466D01*
X196001618Y-82504175D01*
X196264175Y-82241618D01*
X196470466Y-81932882D01*
X196612561Y-81589834D01*
X196685000Y-81225656D01*
X196685000Y-80854344D01*
X196612561Y-80490166D01*
X196470466Y-80147118D01*
X196264175Y-79838382D01*
X196001618Y-79575825D01*
X195692882Y-79369534D01*
X195349834Y-79227439D01*
X194985656Y-79155000D01*
X194614344Y-79155000D01*
X194250166Y-79227439D01*
X193907118Y-79369534D01*
X193598382Y-79575825D01*
X193335825Y-79838382D01*
X193129534Y-80147118D01*
X192987439Y-80490166D01*
X192915000Y-80854344D01*
X152638558Y-80854344D01*
X142198558Y-70414344D01*
X192915000Y-70414344D01*
X192915000Y-70785656D01*
X192987439Y-71149834D01*
X193129534Y-71492882D01*
X193335825Y-71801618D01*
X193598382Y-72064175D01*
X193907118Y-72270466D01*
X194250166Y-72412561D01*
X194614344Y-72485000D01*
X194985656Y-72485000D01*
X195349834Y-72412561D01*
X195692882Y-72270466D01*
X196001618Y-72064175D01*
X196264175Y-71801618D01*
X196470466Y-71492882D01*
X196612561Y-71149834D01*
X196685000Y-70785656D01*
X196685000Y-70414344D01*
X196612561Y-70050166D01*
X196470466Y-69707118D01*
X196264175Y-69398382D01*
X196001618Y-69135825D01*
X195692882Y-68929534D01*
X195349834Y-68787439D01*
X194985656Y-68715000D01*
X194614344Y-68715000D01*
X194250166Y-68787439D01*
X193907118Y-68929534D01*
X193598382Y-69135825D01*
X193335825Y-69398382D01*
X193129534Y-69707118D01*
X192987439Y-70050166D01*
X192915000Y-70414344D01*
X142198558Y-70414344D01*
X138639989Y-66855776D01*
X138639989Y-66833605D01*
X193666000Y-66833605D01*
X193791914Y-67123577D01*
X194124126Y-67289433D01*
X194482312Y-67387290D01*
X194852706Y-67413389D01*
X195221075Y-67366725D01*
X195573262Y-67249094D01*
X195808086Y-67123577D01*
X195934000Y-66833605D01*
X194800000Y-65699605D01*
X193666000Y-66833605D01*
X138639989Y-66833605D01*
X138639989Y-65572706D01*
X192906611Y-65572706D01*
X192953275Y-65941075D01*
X193070906Y-66293262D01*
X193196423Y-66528086D01*
X193486395Y-66654000D01*
X194620395Y-65520000D01*
X194979605Y-65520000D01*
X196113605Y-66654000D01*
X196403577Y-66528086D01*
X196569433Y-66195874D01*
X196667290Y-65837688D01*
X196693389Y-65467294D01*
X196646725Y-65098925D01*
X196529094Y-64746738D01*
X196403577Y-64511914D01*
X196113605Y-64386000D01*
X194979605Y-65520000D01*
X194620395Y-65520000D01*
X193486395Y-64386000D01*
X193196423Y-64511914D01*
X193030567Y-64844126D01*
X192932710Y-65202312D01*
X192906611Y-65572706D01*
X138639989Y-65572706D01*
X138639989Y-64206395D01*
X193666000Y-64206395D01*
X194800000Y-65340395D01*
X195934000Y-64206395D01*
X195808086Y-63916423D01*
X195475874Y-63750567D01*
X195117688Y-63652710D01*
X194747294Y-63626611D01*
X194378925Y-63673275D01*
X194026738Y-63790906D01*
X193791914Y-63916423D01*
X193666000Y-64206395D01*
X138639989Y-64206395D01*
X138639989Y-57780321D01*
X189265000Y-57780321D01*
X189288657Y-58020515D01*
X189382148Y-58328714D01*
X189533969Y-58612751D01*
X189738286Y-58861714D01*
X189987248Y-59066031D01*
X190271285Y-59217852D01*
X190579484Y-59311343D01*
X190900000Y-59342911D01*
X191220515Y-59311343D01*
X191528714Y-59217852D01*
X191812751Y-59066031D01*
X192061714Y-58861714D01*
X192266031Y-58612752D01*
X192417852Y-58328715D01*
X192511343Y-58020516D01*
X192535000Y-57780322D01*
X192535000Y-54619678D01*
X192511343Y-54379484D01*
X192417852Y-54071285D01*
X192266031Y-53787248D01*
X192061714Y-53538286D01*
X191812752Y-53333969D01*
X191528715Y-53182148D01*
X191220516Y-53088657D01*
X190900000Y-53057089D01*
X190579485Y-53088657D01*
X190271286Y-53182148D01*
X189987249Y-53333969D01*
X189738287Y-53538286D01*
X189533970Y-53787248D01*
X189382149Y-54071285D01*
X189288658Y-54379484D01*
X189265001Y-54619678D01*
X189265000Y-57780321D01*
X138639989Y-57780321D01*
X138639989Y-51780434D01*
X190909876Y-51780434D01*
X190940856Y-51908355D01*
X191069990Y-52202761D01*
X191254078Y-52466317D01*
X191486046Y-52688895D01*
X191756980Y-52861942D01*
X192056468Y-52978807D01*
X192373000Y-53035000D01*
X193873000Y-53035000D01*
X193873000Y-51527000D01*
X194127000Y-51527000D01*
X194127000Y-53035000D01*
X195627000Y-53035000D01*
X195943532Y-52978807D01*
X196243020Y-52861942D01*
X196513954Y-52688895D01*
X196745922Y-52466317D01*
X196930010Y-52202761D01*
X197059144Y-51908355D01*
X197090124Y-51780434D01*
X196970777Y-51527000D01*
X194127000Y-51527000D01*
X193873000Y-51527000D01*
X191029223Y-51527000D01*
X190909876Y-51780434D01*
X138639989Y-51780434D01*
X138639989Y-51434812D01*
X142514802Y-47560000D01*
X151162678Y-47560000D01*
X151200000Y-47563676D01*
X151237322Y-47560000D01*
X151237333Y-47560000D01*
X151348986Y-47549003D01*
X151492247Y-47505546D01*
X151624276Y-47434974D01*
X151740001Y-47340001D01*
X151763804Y-47310997D01*
X154338389Y-44736414D01*
X154367381Y-44712621D01*
X154391175Y-44683628D01*
X154391179Y-44683624D01*
X154454522Y-44606439D01*
X154462354Y-44596896D01*
X154532926Y-44464867D01*
X154576383Y-44321606D01*
X154587380Y-44209953D01*
X154587380Y-44209944D01*
X154591056Y-44172621D01*
X154587380Y-44135298D01*
X154587380Y-39138313D01*
X154805885Y-38992312D01*
X155019692Y-38778505D01*
X155077380Y-38692169D01*
X155135068Y-38778505D01*
X155348875Y-38992312D01*
X155600285Y-39160299D01*
X155879637Y-39276011D01*
X156176196Y-39335000D01*
X156476821Y-39335000D01*
X156226417Y-39709756D01*
X156005171Y-40243892D01*
X155892380Y-40810928D01*
X155892380Y-41389072D01*
X156005171Y-41956108D01*
X156226417Y-42490244D01*
X156547617Y-42970953D01*
X156956427Y-43379763D01*
X157437136Y-43700963D01*
X157971272Y-43922209D01*
X158538308Y-44035000D01*
X159116452Y-44035000D01*
X159683488Y-43922209D01*
X160217624Y-43700963D01*
X160698333Y-43379763D01*
X161107143Y-42970953D01*
X161428343Y-42490244D01*
X161649589Y-41956108D01*
X161762380Y-41389072D01*
X161762380Y-40810928D01*
X161649589Y-40243892D01*
X161474954Y-39822285D01*
X166765000Y-39822285D01*
X166765000Y-40577715D01*
X166912377Y-41318628D01*
X167201467Y-42016554D01*
X167621161Y-42644670D01*
X168155330Y-43178839D01*
X168783446Y-43598533D01*
X169481372Y-43887623D01*
X170222285Y-44035000D01*
X170977715Y-44035000D01*
X171718628Y-43887623D01*
X172416554Y-43598533D01*
X173044670Y-43178839D01*
X173578839Y-42644670D01*
X173998533Y-42016554D01*
X174287623Y-41318628D01*
X174435000Y-40577715D01*
X174435000Y-39822285D01*
X174287623Y-39081372D01*
X173998533Y-38383446D01*
X173578839Y-37755330D01*
X173044670Y-37221161D01*
X172416554Y-36801467D01*
X171718628Y-36512377D01*
X170977715Y-36365000D01*
X170222285Y-36365000D01*
X169481372Y-36512377D01*
X168783446Y-36801467D01*
X168155330Y-37221161D01*
X167621161Y-37755330D01*
X167201467Y-38383446D01*
X166912377Y-39081372D01*
X166765000Y-39822285D01*
X161474954Y-39822285D01*
X161428343Y-39709756D01*
X161107143Y-39229047D01*
X160698333Y-38820237D01*
X160217624Y-38499037D01*
X159683488Y-38277791D01*
X159116452Y-38165000D01*
X158538308Y-38165000D01*
X157971272Y-38277791D01*
X157753597Y-38367955D01*
X157803391Y-38247743D01*
X157862380Y-37951184D01*
X157862380Y-37648816D01*
X157803391Y-37352257D01*
X157687679Y-37072905D01*
X157519692Y-36821495D01*
X157305885Y-36607688D01*
X157054475Y-36439701D01*
X156775123Y-36323989D01*
X156478564Y-36265000D01*
X156176196Y-36265000D01*
X155918450Y-36316269D01*
X154833255Y-35231074D01*
X176851468Y-35231074D01*
X177088998Y-35468604D01*
X177473000Y-36620610D01*
X177473000Y-43200000D01*
X177475440Y-43224776D01*
X177485088Y-43254076D01*
X179085088Y-46654076D01*
X179097846Y-46675455D01*
X179117965Y-46696950D01*
X181717965Y-48896950D01*
X181738456Y-48911091D01*
X181764165Y-48921839D01*
X185164165Y-49921839D01*
X185188623Y-49926489D01*
X185202082Y-49926983D01*
X192097283Y-49813947D01*
X192056468Y-49821193D01*
X191756980Y-49938058D01*
X191486046Y-50111105D01*
X191254078Y-50333683D01*
X191069990Y-50597239D01*
X190940856Y-50891645D01*
X190909876Y-51019566D01*
X191029223Y-51273000D01*
X193873000Y-51273000D01*
X193873000Y-51253000D01*
X194127000Y-51253000D01*
X194127000Y-51273000D01*
X196970777Y-51273000D01*
X197090124Y-51019566D01*
X197059144Y-50891645D01*
X196930010Y-50597239D01*
X196745922Y-50333683D01*
X196513954Y-50111105D01*
X196243020Y-49938058D01*
X195943532Y-49821193D01*
X195627000Y-49765000D01*
X195083068Y-49765000D01*
X197353920Y-49727773D01*
X198367977Y-50596965D01*
X198367977Y-53667768D01*
X198261714Y-53538286D01*
X198012752Y-53333969D01*
X197728715Y-53182148D01*
X197420516Y-53088657D01*
X197100000Y-53057089D01*
X196779485Y-53088657D01*
X196471286Y-53182148D01*
X196187249Y-53333969D01*
X195938287Y-53538286D01*
X195733970Y-53787248D01*
X195582149Y-54071285D01*
X195488658Y-54379484D01*
X195465001Y-54619678D01*
X195465000Y-57780321D01*
X195488657Y-58020515D01*
X195582148Y-58328714D01*
X195733969Y-58612751D01*
X195938286Y-58861714D01*
X196187248Y-59066031D01*
X196471285Y-59217852D01*
X196779484Y-59311343D01*
X197100000Y-59342911D01*
X197420515Y-59311343D01*
X197728714Y-59217852D01*
X198012751Y-59066031D01*
X198261714Y-58861714D01*
X198367977Y-58732232D01*
X198367977Y-63302008D01*
X198367976Y-76374096D01*
X198367976Y-89446183D01*
X198367977Y-102518270D01*
X198367977Y-127852417D01*
X198122222Y-128098172D01*
X196766273Y-128873000D01*
X184400000Y-128873000D01*
X184375224Y-128875440D01*
X184351399Y-128882667D01*
X184329553Y-128894330D01*
X182469054Y-130134663D01*
X182403690Y-130162592D01*
X182400452Y-130164367D01*
X182396943Y-130165515D01*
X182387575Y-130169707D01*
X182248853Y-130232955D01*
X182245346Y-130234989D01*
X182241527Y-130236344D01*
X182232267Y-130240768D01*
X182095007Y-130307533D01*
X182091207Y-130309865D01*
X182087051Y-130311463D01*
X182077910Y-130316126D01*
X181940351Y-130387523D01*
X181937459Y-130389403D01*
X181934276Y-130390713D01*
X181925246Y-130395588D01*
X181824089Y-130451120D01*
X181821385Y-130452969D01*
X181818386Y-130454284D01*
X181809470Y-130459364D01*
X181678653Y-130535116D01*
X181675382Y-130537464D01*
X181671736Y-130539172D01*
X181662948Y-130544473D01*
X181538925Y-130620471D01*
X181535987Y-130622693D01*
X181532695Y-130624332D01*
X181524037Y-130629841D01*
X181401564Y-130708982D01*
X181398859Y-130711131D01*
X181395803Y-130712743D01*
X181387276Y-130718453D01*
X181268079Y-130799479D01*
X181265505Y-130801624D01*
X181262576Y-130803256D01*
X181254183Y-130809161D01*
X181134102Y-130894898D01*
X181131715Y-130896982D01*
X181128985Y-130898585D01*
X181120727Y-130904678D01*
X181005628Y-130990841D01*
X181003468Y-130992815D01*
X181000973Y-130994354D01*
X180992850Y-131000626D01*
X180879422Y-131089479D01*
X180877360Y-131091447D01*
X180874974Y-131092992D01*
X180866989Y-131099438D01*
X180754488Y-131191568D01*
X180752578Y-131193472D01*
X180750348Y-131194984D01*
X180742502Y-131201598D01*
X180633347Y-131294935D01*
X180631481Y-131296876D01*
X180629292Y-131298429D01*
X180621588Y-131305208D01*
X180510392Y-131404456D01*
X180508636Y-131406363D01*
X180506562Y-131407900D01*
X180499001Y-131414839D01*
X180392774Y-131513732D01*
X180390843Y-131515919D01*
X180388538Y-131517707D01*
X180381131Y-131524811D01*
X180375247Y-131530534D01*
X178329553Y-132894330D01*
X178310291Y-132910104D01*
X178294477Y-132929332D01*
X178287759Y-132940578D01*
X176487759Y-136340578D01*
X176478323Y-136363617D01*
X176473101Y-136394924D01*
X176275383Y-141337867D01*
X174154665Y-143073000D01*
X131415634Y-143073000D01*
X129064930Y-142485324D01*
X128113073Y-141533467D01*
X127727000Y-140182211D01*
X127727000Y-123098061D01*
X134965000Y-123098061D01*
X134965000Y-123301939D01*
X135004774Y-123501898D01*
X135082795Y-123690256D01*
X135196063Y-123859774D01*
X135240000Y-123903711D01*
X135240001Y-130660648D01*
X135196063Y-130704586D01*
X135082795Y-130874104D01*
X135004774Y-131062462D01*
X134965000Y-131262421D01*
X134965000Y-131466299D01*
X135004774Y-131666258D01*
X135082795Y-131854616D01*
X135196063Y-132024134D01*
X135340226Y-132168297D01*
X135509744Y-132281565D01*
X135698102Y-132359586D01*
X135898061Y-132399360D01*
X136101939Y-132399360D01*
X136301898Y-132359586D01*
X136490256Y-132281565D01*
X136659774Y-132168297D01*
X136803937Y-132024134D01*
X136917205Y-131854616D01*
X136995226Y-131666258D01*
X137035000Y-131466299D01*
X137035000Y-131262421D01*
X136995226Y-131062462D01*
X136917205Y-130874104D01*
X136803937Y-130704586D01*
X136760000Y-130660649D01*
X136760000Y-123903711D01*
X136803937Y-123859774D01*
X136917205Y-123690256D01*
X136995226Y-123501898D01*
X137035000Y-123301939D01*
X137035000Y-123098061D01*
X136995226Y-122898102D01*
X136917205Y-122709744D01*
X136803937Y-122540226D01*
X136659774Y-122396063D01*
X136490256Y-122282795D01*
X136301898Y-122204774D01*
X136101939Y-122165000D01*
X135898061Y-122165000D01*
X135698102Y-122204774D01*
X135509744Y-122282795D01*
X135340226Y-122396063D01*
X135196063Y-122540226D01*
X135082795Y-122709744D01*
X135004774Y-122898102D01*
X134965000Y-123098061D01*
X127727000Y-123098061D01*
X127727000Y-86200000D01*
X127724560Y-86175224D01*
X127717333Y-86151399D01*
X127705597Y-86129443D01*
X127689803Y-86110197D01*
X126497232Y-84917626D01*
X126451600Y-84853740D01*
X133575000Y-84853740D01*
X133575000Y-85146260D01*
X133632068Y-85433158D01*
X133744010Y-85703411D01*
X133906525Y-85946632D01*
X134113368Y-86153475D01*
X134356589Y-86315990D01*
X134626842Y-86427932D01*
X134913740Y-86485000D01*
X135206260Y-86485000D01*
X135493158Y-86427932D01*
X135763411Y-86315990D01*
X136006632Y-86153475D01*
X136138487Y-86021620D01*
X136160498Y-86094180D01*
X136219463Y-86204494D01*
X136298815Y-86301185D01*
X136395506Y-86380537D01*
X136505820Y-86439502D01*
X136625518Y-86475812D01*
X136750000Y-86488072D01*
X137314250Y-86485000D01*
X137473000Y-86326250D01*
X137473000Y-85127000D01*
X137727000Y-85127000D01*
X137727000Y-86326250D01*
X137885750Y-86485000D01*
X138450000Y-86488072D01*
X138574482Y-86475812D01*
X138694180Y-86439502D01*
X138804494Y-86380537D01*
X138901185Y-86301185D01*
X138980537Y-86204494D01*
X139039502Y-86094180D01*
X139075812Y-85974482D01*
X139088072Y-85850000D01*
X139085000Y-85285750D01*
X138926250Y-85127000D01*
X137727000Y-85127000D01*
X137473000Y-85127000D01*
X137453000Y-85127000D01*
X137453000Y-84873000D01*
X137473000Y-84873000D01*
X137473000Y-83673750D01*
X137727000Y-83673750D01*
X137727000Y-84873000D01*
X138926250Y-84873000D01*
X139085000Y-84714250D01*
X139088072Y-84150000D01*
X139075812Y-84025518D01*
X139039502Y-83905820D01*
X138980537Y-83795506D01*
X138901185Y-83698815D01*
X138804494Y-83619463D01*
X138694180Y-83560498D01*
X138574482Y-83524188D01*
X138450000Y-83511928D01*
X137885750Y-83515000D01*
X137727000Y-83673750D01*
X137473000Y-83673750D01*
X137314250Y-83515000D01*
X136750000Y-83511928D01*
X136625518Y-83524188D01*
X136505820Y-83560498D01*
X136395506Y-83619463D01*
X136298815Y-83698815D01*
X136219463Y-83795506D01*
X136160498Y-83905820D01*
X136138487Y-83978380D01*
X136006632Y-83846525D01*
X135763411Y-83684010D01*
X135493158Y-83572068D01*
X135206260Y-83515000D01*
X134913740Y-83515000D01*
X134626842Y-83572068D01*
X134356589Y-83684010D01*
X134113368Y-83846525D01*
X133906525Y-84053368D01*
X133744010Y-84296589D01*
X133632068Y-84566842D01*
X133575000Y-84853740D01*
X126451600Y-84853740D01*
X125514445Y-83541724D01*
X125127000Y-82379390D01*
X125127000Y-74200000D01*
X125124560Y-74175224D01*
X125117333Y-74151399D01*
X125111018Y-74138323D01*
X124111018Y-72338323D01*
X124096852Y-72317850D01*
X124081303Y-72302436D01*
X122881303Y-71302436D01*
X122860707Y-71288449D01*
X122827550Y-71276024D01*
X121027550Y-70876024D01*
X121000000Y-70873000D01*
X93417789Y-70873000D01*
X92055972Y-70483909D01*
X90696462Y-69512831D01*
X90056981Y-68393740D01*
X90056981Y-53422285D01*
X90765000Y-53422285D01*
X90765000Y-54177715D01*
X90912377Y-54918628D01*
X91201467Y-55616554D01*
X91621161Y-56244670D01*
X92155330Y-56778839D01*
X92783446Y-57198533D01*
X93481372Y-57487623D01*
X94222285Y-57635000D01*
X94977715Y-57635000D01*
X95718628Y-57487623D01*
X96416554Y-57198533D01*
X97044670Y-56778839D01*
X97578839Y-56244670D01*
X97998533Y-55616554D01*
X98287623Y-54918628D01*
X98435000Y-54177715D01*
X98435000Y-53422285D01*
X98287623Y-52681372D01*
X97998533Y-51983446D01*
X97578839Y-51355330D01*
X97044670Y-50821161D01*
X96416554Y-50401467D01*
X95718628Y-50112377D01*
X94977715Y-49965000D01*
X94222285Y-49965000D01*
X93481372Y-50112377D01*
X92783446Y-50401467D01*
X92155330Y-50821161D01*
X91621161Y-51355330D01*
X91201467Y-51983446D01*
X90912377Y-52681372D01*
X90765000Y-53422285D01*
X90056981Y-53422285D01*
X90056981Y-50289539D01*
X90087119Y-50104982D01*
X90087119Y-50104980D01*
X90118429Y-49913245D01*
X90205760Y-49848725D01*
X90205761Y-49848725D01*
X90205764Y-49848722D01*
X90294571Y-49783111D01*
X90411030Y-49736107D01*
X90411035Y-49736105D01*
X90614066Y-49654158D01*
X90614068Y-49654157D01*
X90684735Y-49625635D01*
X102044596Y-49625635D01*
X102152576Y-49615000D01*
X102165098Y-49611202D01*
X102259571Y-49598514D01*
X102259617Y-49598503D01*
X102260320Y-49598413D01*
X102453108Y-49572320D01*
X102453203Y-49572297D01*
X102454807Y-49572088D01*
X102631802Y-49547712D01*
X102631928Y-49547682D01*
X102634343Y-49547358D01*
X102815251Y-49521798D01*
X102815402Y-49521761D01*
X102818797Y-49521289D01*
X103007656Y-49493667D01*
X103007832Y-49493623D01*
X103012034Y-49493013D01*
X103185955Y-49466505D01*
X103186137Y-49466459D01*
X103191093Y-49465703D01*
X103366590Y-49437683D01*
X103366767Y-49437637D01*
X103372546Y-49436707D01*
X103545420Y-49407648D01*
X103545575Y-49407606D01*
X103552292Y-49406460D01*
X103729134Y-49375005D01*
X103729264Y-49374969D01*
X103736848Y-49373591D01*
X103905799Y-49341677D01*
X103905895Y-49341649D01*
X103914464Y-49339986D01*
X103978954Y-49327000D01*
X104200000Y-49327000D01*
X104224776Y-49324560D01*
X104247167Y-49317917D01*
X104528378Y-49205433D01*
X104626568Y-49181229D01*
X104627526Y-49180891D01*
X104628526Y-49180743D01*
X104638466Y-49178190D01*
X104805187Y-49134126D01*
X104806595Y-49133602D01*
X104808077Y-49133356D01*
X104817969Y-49130624D01*
X104982515Y-49083945D01*
X104984115Y-49083317D01*
X104985807Y-49083003D01*
X104995647Y-49080087D01*
X105149201Y-49033420D01*
X105150995Y-49032677D01*
X105152902Y-49032285D01*
X105162684Y-49029181D01*
X105315549Y-48979493D01*
X105317646Y-48978577D01*
X105319874Y-48978072D01*
X105329591Y-48974772D01*
X105478336Y-48923086D01*
X105480725Y-48921984D01*
X105483270Y-48921351D01*
X105492915Y-48917847D01*
X105640878Y-48862911D01*
X105643564Y-48861603D01*
X105646435Y-48860821D01*
X105656001Y-48857105D01*
X105800752Y-48799701D01*
X105803686Y-48798191D01*
X105806844Y-48797253D01*
X105816323Y-48793319D01*
X105959720Y-48732617D01*
X105962995Y-48730835D01*
X105966543Y-48729688D01*
X105975924Y-48725527D01*
X106119757Y-48660516D01*
X106123241Y-48658510D01*
X106127031Y-48657180D01*
X106136306Y-48652787D01*
X106274972Y-48585913D01*
X106278468Y-48583783D01*
X106282298Y-48582330D01*
X106291459Y-48577706D01*
X106425026Y-48509115D01*
X106427094Y-48507783D01*
X106429371Y-48506865D01*
X106438435Y-48502053D01*
X106520123Y-48457952D01*
X106522027Y-48456669D01*
X106524136Y-48455769D01*
X106533102Y-48450775D01*
X106662614Y-48377443D01*
X106665733Y-48375249D01*
X106669199Y-48373669D01*
X106678040Y-48368459D01*
X106793216Y-48299497D01*
X107247167Y-48117917D01*
X107269265Y-48106449D01*
X107289803Y-48089803D01*
X108064238Y-47315368D01*
X108072021Y-47308021D01*
X108073459Y-47306369D01*
X108075186Y-47305016D01*
X108082557Y-47297876D01*
X108185184Y-47197062D01*
X108186558Y-47195419D01*
X108188216Y-47194066D01*
X108195445Y-47186782D01*
X108296896Y-47083106D01*
X108298214Y-47081466D01*
X108299811Y-47080109D01*
X108306334Y-47073272D01*
X108889803Y-46489803D01*
X108911493Y-46460814D01*
X109120504Y-46077628D01*
X109189345Y-45977490D01*
X109190346Y-45975677D01*
X109191667Y-45974091D01*
X109197374Y-45965562D01*
X109278740Y-45842099D01*
X109279717Y-45840246D01*
X109281022Y-45838614D01*
X109286561Y-45829975D01*
X109365364Y-45705135D01*
X109366316Y-45703240D01*
X109367603Y-45701564D01*
X109372970Y-45692817D01*
X109449161Y-45566678D01*
X109450080Y-45564755D01*
X109451344Y-45563040D01*
X109456537Y-45554189D01*
X109529811Y-45427287D01*
X109530715Y-45425295D01*
X109531974Y-45423514D01*
X109536990Y-45414562D01*
X109608068Y-45285608D01*
X109608975Y-45283497D01*
X109610261Y-45281599D01*
X109615096Y-45272547D01*
X109684110Y-45141133D01*
X109684311Y-45140637D01*
X109684601Y-45140195D01*
X109689297Y-45131070D01*
X109722694Y-45065025D01*
X109722855Y-45064610D01*
X109723087Y-45064244D01*
X109727644Y-45055049D01*
X109793441Y-44919883D01*
X109794217Y-44917791D01*
X109795367Y-44915893D01*
X109799739Y-44906609D01*
X109863557Y-44768563D01*
X109864235Y-44766616D01*
X109865267Y-44764836D01*
X109869456Y-44755467D01*
X109931084Y-44615016D01*
X109931657Y-44613262D01*
X109932554Y-44611644D01*
X109936565Y-44602198D01*
X109972947Y-44514815D01*
X110111493Y-44260814D01*
X110121215Y-44237895D01*
X110124951Y-44222718D01*
X110161935Y-44019306D01*
X110177809Y-43974470D01*
X110178016Y-43973634D01*
X110178377Y-43972858D01*
X110181713Y-43963153D01*
X110232205Y-43812798D01*
X110232338Y-43812220D01*
X110232578Y-43811683D01*
X110235762Y-43801927D01*
X110284235Y-43649776D01*
X110284314Y-43649408D01*
X110284462Y-43649062D01*
X110287499Y-43639260D01*
X110335358Y-43480874D01*
X110335380Y-43480763D01*
X110335422Y-43480661D01*
X110338319Y-43470816D01*
X110383376Y-43313643D01*
X110383384Y-43313600D01*
X110386008Y-43304224D01*
X110429413Y-43144834D01*
X110429426Y-43144757D01*
X110431763Y-43135985D01*
X110473478Y-42974913D01*
X110473493Y-42974815D01*
X110475613Y-42966465D01*
X110517320Y-42797180D01*
X110517339Y-42797051D01*
X110519222Y-42789272D01*
X110558860Y-42620359D01*
X110558881Y-42620200D01*
X110560473Y-42613329D01*
X110597126Y-42449942D01*
X110597147Y-42449774D01*
X110598564Y-42443396D01*
X110637044Y-42264232D01*
X110637065Y-42264048D01*
X110638274Y-42258386D01*
X110672598Y-42091996D01*
X110672618Y-42091812D01*
X110673597Y-42087068D01*
X110707016Y-41919272D01*
X110707033Y-41919098D01*
X110707868Y-41914927D01*
X110741293Y-41741659D01*
X110741309Y-41741492D01*
X110742007Y-41737906D01*
X110775904Y-41557144D01*
X110775917Y-41556996D01*
X110776458Y-41554157D01*
X110808686Y-41378287D01*
X110808696Y-41378164D01*
X110809095Y-41376035D01*
X110840977Y-41198944D01*
X110840984Y-41198852D01*
X110841238Y-41197482D01*
X110872955Y-41019243D01*
X110872959Y-41019198D01*
X110873085Y-41018511D01*
X110896060Y-40888637D01*
X110904318Y-40861415D01*
X110918509Y-40717330D01*
X110914953Y-40681225D01*
X110914953Y-38216719D01*
X110914952Y-37383182D01*
X110914952Y-36549645D01*
X110914953Y-35788461D01*
X110941209Y-35656400D01*
X110966992Y-35526719D01*
X111066685Y-35452134D01*
X111066688Y-35452131D01*
X111152481Y-35387945D01*
X111266997Y-35341865D01*
X111267071Y-35341836D01*
X111470723Y-35259889D01*
X111542333Y-35231074D01*
X127894124Y-35231074D01*
X123345199Y-39780000D01*
G37*
X123345199Y-39780000D02*
X119148043Y-39780000D01*
X119044637Y-39625241D01*
X118844759Y-39425363D01*
X118612241Y-39270000D01*
X118844759Y-39114637D01*
X119044637Y-38914759D01*
X119200000Y-38682241D01*
X119355363Y-38914759D01*
X119555241Y-39114637D01*
X119790273Y-39271680D01*
X120051426Y-39379853D01*
X120328665Y-39435000D01*
X120611335Y-39435000D01*
X120888574Y-39379853D01*
X121149727Y-39271680D01*
X121384759Y-39114637D01*
X121584637Y-38914759D01*
X121740000Y-38682241D01*
X121895363Y-38914759D01*
X122095241Y-39114637D01*
X122330273Y-39271680D01*
X122591426Y-39379853D01*
X122868665Y-39435000D01*
X123151335Y-39435000D01*
X123428574Y-39379853D01*
X123689727Y-39271680D01*
X123924759Y-39114637D01*
X124124637Y-38914759D01*
X124281680Y-38679727D01*
X124389853Y-38418574D01*
X124445000Y-38141335D01*
X124445000Y-37858665D01*
X124389853Y-37581426D01*
X124281680Y-37320273D01*
X124124637Y-37085241D01*
X123924759Y-36885363D01*
X123689727Y-36728320D01*
X123428574Y-36620147D01*
X123151335Y-36565000D01*
X122868665Y-36565000D01*
X122591426Y-36620147D01*
X122330273Y-36728320D01*
X122095241Y-36885363D01*
X121895363Y-37085241D01*
X121740000Y-37317759D01*
X121584637Y-37085241D01*
X121384759Y-36885363D01*
X121149727Y-36728320D01*
X120888574Y-36620147D01*
X120611335Y-36565000D01*
X120328665Y-36565000D01*
X120051426Y-36620147D01*
X119790273Y-36728320D01*
X119555241Y-36885363D01*
X119355363Y-37085241D01*
X119200000Y-37317759D01*
X119044637Y-37085241D01*
X118844759Y-36885363D01*
X118609727Y-36728320D01*
X118348574Y-36620147D01*
X118071335Y-36565000D01*
X117788665Y-36565000D01*
X117511426Y-36620147D01*
X117250273Y-36728320D01*
X117015241Y-36885363D01*
X116815363Y-37085241D01*
X116660000Y-37317759D01*
X116504637Y-37085241D01*
X116304759Y-36885363D01*
X116069727Y-36728320D01*
X115808574Y-36620147D01*
X115531335Y-36565000D01*
X115248665Y-36565000D01*
X114971426Y-36620147D01*
X114710273Y-36728320D01*
X114475241Y-36885363D01*
X114275363Y-37085241D01*
X114118320Y-37320273D01*
X114010147Y-37581426D01*
X113955000Y-37858665D01*
X113955000Y-38141335D01*
X114010147Y-38418574D01*
X114118320Y-38679727D01*
X114275363Y-38914759D01*
X114475241Y-39114637D01*
X114710273Y-39271680D01*
X114971426Y-39379853D01*
X115248665Y-39435000D01*
X115531335Y-39435000D01*
X115808574Y-39379853D01*
X116069727Y-39271680D01*
X116304759Y-39114637D01*
X116504637Y-38914759D01*
X116660000Y-38682241D01*
X116815363Y-38914759D01*
X117015241Y-39114637D01*
X117247759Y-39270000D01*
X117015241Y-39425363D01*
X116815363Y-39625241D01*
X116658320Y-39860273D01*
X116550147Y-40121426D01*
X116495000Y-40398665D01*
X116495000Y-40681335D01*
X116550147Y-40958574D01*
X116658320Y-41219727D01*
X116815363Y-41454759D01*
X117015241Y-41654637D01*
X117250273Y-41811680D01*
X117511426Y-41919853D01*
X117788665Y-41975000D01*
X118071335Y-41975000D01*
X118348574Y-41919853D01*
X118609727Y-41811680D01*
X118844759Y-41654637D01*
X119044637Y-41454759D01*
X119148043Y-41300000D01*
X123622678Y-41300000D01*
X123660000Y-41303676D01*
X123697322Y-41300000D01*
X123697333Y-41300000D01*
X123808986Y-41289003D01*
X123952247Y-41245546D01*
X124084276Y-41174974D01*
X124200001Y-41080001D01*
X124223804Y-41050997D01*
X129593718Y-35681084D01*
X132044980Y-35681084D01*
X132044979Y-38209940D01*
X131819052Y-38165000D01*
X131240908Y-38165000D01*
X130673872Y-38277791D01*
X130139736Y-38499037D01*
X129659027Y-38820237D01*
X129250217Y-39229047D01*
X128929017Y-39709756D01*
X128707771Y-40243892D01*
X128594980Y-40810928D01*
X128594980Y-41389072D01*
X128707771Y-41956108D01*
X128929017Y-42490244D01*
X129250217Y-42970953D01*
X129659027Y-43379763D01*
X130139736Y-43700963D01*
X130673872Y-43922209D01*
X131240908Y-44035000D01*
X131819052Y-44035000D01*
X132386088Y-43922209D01*
X132920224Y-43700963D01*
X133400933Y-43379763D01*
X133809743Y-42970953D01*
X134130943Y-42490244D01*
X134352189Y-41956108D01*
X134464980Y-41389072D01*
X134464980Y-41122804D01*
X136219970Y-42877795D01*
X136219969Y-67506055D01*
X136216293Y-67543377D01*
X136219969Y-67580699D01*
X136219969Y-67580709D01*
X136230966Y-67692362D01*
X136265301Y-67805551D01*
X136274423Y-67835623D01*
X136344995Y-67967653D01*
X136364936Y-67991951D01*
X136439968Y-68083378D01*
X136468972Y-68107181D01*
X151840001Y-83478211D01*
X151840000Y-86024991D01*
X151836324Y-86062314D01*
X151840000Y-86099636D01*
X151840000Y-86099646D01*
X151850997Y-86211299D01*
X151886729Y-86329093D01*
X151894454Y-86354560D01*
X151965026Y-86486590D01*
X152004871Y-86535140D01*
X152059999Y-86602315D01*
X152089003Y-86626118D01*
X153630729Y-88167845D01*
X153576775Y-88298102D01*
X153537001Y-88498061D01*
X153537001Y-88600156D01*
X153494454Y-88679755D01*
X153468686Y-88764703D01*
X153450998Y-88823015D01*
X153440001Y-88934668D01*
X153436324Y-88972001D01*
X153440001Y-89009333D01*
X153440000Y-91354341D01*
X153319465Y-91434880D01*
X153124880Y-91629465D01*
X152971995Y-91858273D01*
X152866686Y-92112510D01*
X152813000Y-92382408D01*
X152813000Y-92657592D01*
X152843628Y-92811570D01*
X151055999Y-94599200D01*
X151027001Y-94622998D01*
X151003203Y-94651996D01*
X151003202Y-94651997D01*
X150932027Y-94738723D01*
X150861455Y-94870753D01*
X150817999Y-95014014D01*
X150803325Y-95162999D01*
X150807002Y-95200331D01*
X150807002Y-96260676D01*
X150617592Y-96223000D01*
X150342408Y-96223000D01*
X150072510Y-96276686D01*
X149818273Y-96381995D01*
X149589465Y-96534880D01*
X149394880Y-96729465D01*
X149241995Y-96958273D01*
X149136686Y-97212510D01*
X149083000Y-97482408D01*
X149083000Y-97757592D01*
X149136686Y-98027490D01*
X149241995Y-98281727D01*
X149394880Y-98510535D01*
X149589465Y-98705120D01*
X149818273Y-98858005D01*
X149895515Y-98890000D01*
X149818273Y-98921995D01*
X149589465Y-99074880D01*
X149394880Y-99269465D01*
X149241995Y-99498273D01*
X149136686Y-99752510D01*
X149083000Y-100022408D01*
X149083000Y-100297592D01*
X149086684Y-100316113D01*
X146576654Y-102364529D01*
X146575725Y-102365026D01*
X146518682Y-102411840D01*
X146490554Y-102434795D01*
X146489812Y-102435533D01*
X146460000Y-102459999D01*
X146436865Y-102488189D01*
X146432434Y-102492596D01*
X146380537Y-102395506D01*
X146301185Y-102298815D01*
X146204494Y-102219463D01*
X146094180Y-102160498D01*
X146021620Y-102138487D01*
X146153475Y-102006632D01*
X146315990Y-101763411D01*
X146427932Y-101493158D01*
X146485000Y-101206260D01*
X146485000Y-100913740D01*
X146427932Y-100626842D01*
X146315990Y-100356589D01*
X146153475Y-100113368D01*
X145946632Y-99906525D01*
X145703411Y-99744010D01*
X145433158Y-99632068D01*
X145146260Y-99575000D01*
X144853740Y-99575000D01*
X144566842Y-99632068D01*
X144296589Y-99744010D01*
X144053368Y-99906525D01*
X143846525Y-100113368D01*
X143684010Y-100356589D01*
X143572068Y-100626842D01*
X143515000Y-100913740D01*
X143515000Y-101206260D01*
X143572068Y-101493158D01*
X143684010Y-101763411D01*
X143846525Y-102006632D01*
X143978380Y-102138487D01*
X143905820Y-102160498D01*
X143795506Y-102219463D01*
X143698815Y-102298815D01*
X143619463Y-102395506D01*
X143560498Y-102505820D01*
X143524188Y-102625518D01*
X143511928Y-102750000D01*
X143511928Y-104450000D01*
X143524188Y-104574482D01*
X143560498Y-104694180D01*
X143619463Y-104804494D01*
X143698815Y-104901185D01*
X143795506Y-104980537D01*
X143905820Y-105039502D01*
X144025518Y-105075812D01*
X144150000Y-105088072D01*
X145850000Y-105088072D01*
X145974482Y-105075812D01*
X146094180Y-105039502D01*
X146204494Y-104980537D01*
X146240001Y-104951397D01*
X146240000Y-109668164D01*
X138798677Y-116565000D01*
X138698061Y-116565000D01*
X138498102Y-116604774D01*
X138309744Y-116682795D01*
X138140226Y-116796063D01*
X137996063Y-116940226D01*
X137882795Y-117109744D01*
X137804774Y-117298102D01*
X137765000Y-117498061D01*
X137765000Y-117701939D01*
X137804774Y-117901898D01*
X137882795Y-118090256D01*
X137996063Y-118259774D01*
X138140226Y-118403937D01*
X138309744Y-118517205D01*
X138498102Y-118595226D01*
X138698061Y-118635000D01*
X138901939Y-118635000D01*
X139101898Y-118595226D01*
X139290256Y-118517205D01*
X139459774Y-118403937D01*
X139603937Y-118259774D01*
X139717205Y-118090256D01*
X139795226Y-117901898D01*
X139835000Y-117701939D01*
X139835000Y-117676957D01*
X147499846Y-110572955D01*
X147540001Y-110540001D01*
X147578335Y-110493291D01*
X147618416Y-110448066D01*
X147625750Y-110435515D01*
X147634974Y-110424276D01*
X147663459Y-110370985D01*
X147693948Y-110318810D01*
X147698693Y-110305068D01*
X147705546Y-110292247D01*
X147723091Y-110234409D01*
X147742809Y-110177302D01*
X147744781Y-110162903D01*
X147749003Y-110148986D01*
X147754928Y-110088827D01*
X147763126Y-110028980D01*
X147760000Y-109977128D01*
X147760000Y-103360730D01*
X149171278Y-102208998D01*
X149136686Y-102292510D01*
X149083000Y-102562408D01*
X149083000Y-102837592D01*
X149136686Y-103107490D01*
X149241995Y-103361727D01*
X149394880Y-103590535D01*
X149589465Y-103785120D01*
X149818273Y-103938005D01*
X149895515Y-103970000D01*
X149818273Y-104001995D01*
X149589465Y-104154880D01*
X149394880Y-104349465D01*
X149241995Y-104578273D01*
X149136686Y-104832510D01*
X149083000Y-105102408D01*
X149083000Y-105377592D01*
X149136686Y-105647490D01*
X149241995Y-105901727D01*
X149394880Y-106130535D01*
X149589465Y-106325120D01*
X149818273Y-106478005D01*
X149895515Y-106510000D01*
X149818273Y-106541995D01*
X149589465Y-106694880D01*
X149394880Y-106889465D01*
X149241995Y-107118273D01*
X149136686Y-107372510D01*
X149083000Y-107642408D01*
X149083000Y-107917592D01*
X149136686Y-108187490D01*
X149241995Y-108441727D01*
X149394880Y-108670535D01*
X149589465Y-108865120D01*
X149818273Y-109018005D01*
X149895515Y-109050000D01*
X149818273Y-109081995D01*
X149589465Y-109234880D01*
X149394880Y-109429465D01*
X149241995Y-109658273D01*
X149136686Y-109912510D01*
X149083000Y-110182408D01*
X149083000Y-110457592D01*
X149136686Y-110727490D01*
X149241995Y-110981727D01*
X149394880Y-111210535D01*
X149589465Y-111405120D01*
X149818273Y-111558005D01*
X149895515Y-111590000D01*
X149818273Y-111621995D01*
X149589465Y-111774880D01*
X149394880Y-111969465D01*
X149241995Y-112198273D01*
X149136686Y-112452510D01*
X149083000Y-112722408D01*
X149083000Y-112997592D01*
X149136686Y-113267490D01*
X149241995Y-113521727D01*
X149394880Y-113750535D01*
X149589465Y-113945120D01*
X149818273Y-114098005D01*
X149895515Y-114130000D01*
X149818273Y-114161995D01*
X149589465Y-114314880D01*
X149394880Y-114509465D01*
X149241995Y-114738273D01*
X149136686Y-114992510D01*
X149083000Y-115262408D01*
X149083000Y-115537592D01*
X149136686Y-115807490D01*
X149241995Y-116061727D01*
X149394880Y-116290535D01*
X149589465Y-116485120D01*
X149818273Y-116638005D01*
X149895515Y-116670000D01*
X149818273Y-116701995D01*
X149589465Y-116854880D01*
X149394880Y-117049465D01*
X149241995Y-117278273D01*
X149136686Y-117532510D01*
X149083000Y-117802408D01*
X149083000Y-118077592D01*
X149136686Y-118347490D01*
X149241995Y-118601727D01*
X149394880Y-118830535D01*
X149589465Y-119025120D01*
X149818273Y-119178005D01*
X149895515Y-119210000D01*
X149818273Y-119241995D01*
X149589465Y-119394880D01*
X149394880Y-119589465D01*
X149241995Y-119818273D01*
X149136686Y-120072510D01*
X149083000Y-120342408D01*
X149083000Y-120617592D01*
X149136686Y-120887490D01*
X149241995Y-121141727D01*
X149394880Y-121370535D01*
X149589465Y-121565120D01*
X149818273Y-121718005D01*
X149895515Y-121750000D01*
X149818273Y-121781995D01*
X149589465Y-121934880D01*
X149394880Y-122129465D01*
X149241995Y-122358273D01*
X149136686Y-122612510D01*
X149083000Y-122882408D01*
X149083000Y-123157592D01*
X149136686Y-123427490D01*
X149241995Y-123681727D01*
X149394880Y-123910535D01*
X149589465Y-124105120D01*
X149818273Y-124258005D01*
X149895515Y-124290000D01*
X149818273Y-124321995D01*
X149589465Y-124474880D01*
X149394880Y-124669465D01*
X149241995Y-124898273D01*
X149136686Y-125152510D01*
X149083000Y-125422408D01*
X149083000Y-125697592D01*
X149136686Y-125967490D01*
X149241995Y-126221727D01*
X149394880Y-126450535D01*
X149589465Y-126645120D01*
X149818273Y-126798005D01*
X149895515Y-126830000D01*
X149818273Y-126861995D01*
X149589465Y-127014880D01*
X149394880Y-127209465D01*
X149241995Y-127438273D01*
X149136686Y-127692510D01*
X149083000Y-127962408D01*
X149083000Y-128237592D01*
X149120676Y-128427001D01*
X145271803Y-128427001D01*
X140491209Y-123646408D01*
X140535000Y-123426260D01*
X140535000Y-123133740D01*
X140477932Y-122846842D01*
X140365990Y-122576589D01*
X140203475Y-122333368D01*
X139996632Y-122126525D01*
X139753411Y-121964010D01*
X139483158Y-121852068D01*
X139196260Y-121795000D01*
X138903740Y-121795000D01*
X138616842Y-121852068D01*
X138346589Y-121964010D01*
X138103368Y-122126525D01*
X137896525Y-122333368D01*
X137734010Y-122576589D01*
X137622068Y-122846842D01*
X137565000Y-123133740D01*
X137565000Y-123426260D01*
X137622068Y-123713158D01*
X137734010Y-123983411D01*
X137896525Y-124226632D01*
X138103368Y-124433475D01*
X138277760Y-124550000D01*
X138103368Y-124666525D01*
X137896525Y-124873368D01*
X137734010Y-125116589D01*
X137622068Y-125386842D01*
X137565000Y-125673740D01*
X137565000Y-125966260D01*
X137622068Y-126253158D01*
X137734010Y-126523411D01*
X137896525Y-126766632D01*
X138103368Y-126973475D01*
X138277760Y-127090000D01*
X138103368Y-127206525D01*
X137896525Y-127413368D01*
X137734010Y-127656589D01*
X137622068Y-127926842D01*
X137565000Y-128213740D01*
X137565000Y-128506260D01*
X137622068Y-128793158D01*
X137734010Y-129063411D01*
X137896525Y-129306632D01*
X138028380Y-129438487D01*
X137955820Y-129460498D01*
X137845506Y-129519463D01*
X137748815Y-129598815D01*
X137669463Y-129695506D01*
X137610498Y-129805820D01*
X137574188Y-129925518D01*
X137561928Y-130050000D01*
X137561928Y-131750000D01*
X137574188Y-131874482D01*
X137610498Y-131994180D01*
X137669463Y-132104494D01*
X137748815Y-132201185D01*
X137845506Y-132280537D01*
X137955820Y-132339502D01*
X138075518Y-132375812D01*
X138200000Y-132388072D01*
X139900000Y-132388072D01*
X140024482Y-132375812D01*
X140144180Y-132339502D01*
X140254494Y-132280537D01*
X140351185Y-132201185D01*
X140430537Y-132104494D01*
X140489502Y-131994180D01*
X140525812Y-131874482D01*
X140538072Y-131750000D01*
X140538072Y-130922873D01*
X143240001Y-133624803D01*
X143240000Y-134096289D01*
X143196063Y-134140226D01*
X143082795Y-134309744D01*
X143004774Y-134498102D01*
X142965000Y-134698061D01*
X142965000Y-134901939D01*
X143004774Y-135101898D01*
X143082795Y-135290256D01*
X143196063Y-135459774D01*
X143340226Y-135603937D01*
X143509744Y-135717205D01*
X143698102Y-135795226D01*
X143898061Y-135835000D01*
X144101939Y-135835000D01*
X144301898Y-135795226D01*
X144490256Y-135717205D01*
X144659774Y-135603937D01*
X144803937Y-135459774D01*
X144917205Y-135290256D01*
X144995226Y-135101898D01*
X145035000Y-134901939D01*
X145035000Y-134698061D01*
X144995226Y-134498102D01*
X144917205Y-134309744D01*
X144803937Y-134140226D01*
X144760000Y-134096289D01*
X144760000Y-133347322D01*
X144763676Y-133309999D01*
X144760000Y-133272676D01*
X144760000Y-133272667D01*
X144749003Y-133161014D01*
X144713025Y-133042408D01*
X149083000Y-133042408D01*
X149083000Y-133317592D01*
X149136686Y-133587490D01*
X149241995Y-133841727D01*
X149394880Y-134070535D01*
X149589465Y-134265120D01*
X149818273Y-134418005D01*
X150072510Y-134523314D01*
X150342408Y-134577000D01*
X150617592Y-134577000D01*
X150887490Y-134523314D01*
X151141727Y-134418005D01*
X151370535Y-134265120D01*
X151565120Y-134070535D01*
X151718005Y-133841727D01*
X151823314Y-133587490D01*
X151877000Y-133317592D01*
X151877000Y-133042408D01*
X151823314Y-132772510D01*
X151718005Y-132518273D01*
X151565120Y-132289465D01*
X151370535Y-132094880D01*
X151141727Y-131941995D01*
X151070057Y-131912308D01*
X151083023Y-131907636D01*
X151198980Y-131845656D01*
X151265960Y-131605565D01*
X150480000Y-130819605D01*
X149694040Y-131605565D01*
X149761020Y-131845656D01*
X149896760Y-131909485D01*
X149818273Y-131941995D01*
X149589465Y-132094880D01*
X149394880Y-132289465D01*
X149241995Y-132518273D01*
X149136686Y-132772510D01*
X149083000Y-133042408D01*
X144713025Y-133042408D01*
X144705546Y-133017753D01*
X144698751Y-133005040D01*
X144634974Y-132885723D01*
X144563799Y-132798997D01*
X144540001Y-132769999D01*
X144511003Y-132746201D01*
X140491209Y-128726408D01*
X140535000Y-128506260D01*
X140535000Y-128213740D01*
X140477932Y-127926842D01*
X140365990Y-127656589D01*
X140203475Y-127413368D01*
X139996632Y-127206525D01*
X139822240Y-127090000D01*
X139996632Y-126973475D01*
X140203475Y-126766632D01*
X140365990Y-126523411D01*
X140477932Y-126253158D01*
X140535000Y-125966260D01*
X140535000Y-125839801D01*
X144393200Y-129698002D01*
X144417000Y-129727002D01*
X144445998Y-129750800D01*
X144532724Y-129821975D01*
X144638328Y-129878422D01*
X144664754Y-129892547D01*
X144808015Y-129936004D01*
X144919668Y-129947001D01*
X144919678Y-129947001D01*
X144957001Y-129950677D01*
X144994324Y-129947001D01*
X149262127Y-129947001D01*
X149157244Y-130170048D01*
X149090977Y-130437135D01*
X149078090Y-130712017D01*
X149119078Y-130984133D01*
X149212364Y-131243023D01*
X149274344Y-131358980D01*
X149514435Y-131425960D01*
X150300395Y-130640000D01*
X150286253Y-130625858D01*
X150465858Y-130446253D01*
X150480000Y-130460395D01*
X150494143Y-130446253D01*
X150673748Y-130625858D01*
X150659605Y-130640000D01*
X151445565Y-131425960D01*
X151685656Y-131358980D01*
X151700779Y-131326819D01*
X152688001Y-132314041D01*
X152688001Y-132360679D01*
X152684325Y-132398001D01*
X152688001Y-132435323D01*
X152688001Y-132435334D01*
X152698998Y-132546987D01*
X152742455Y-132690248D01*
X152813027Y-132822277D01*
X152845048Y-132861294D01*
X152813000Y-133022408D01*
X152813000Y-133297592D01*
X152866686Y-133567490D01*
X152971995Y-133821727D01*
X153124880Y-134050535D01*
X153319465Y-134245120D01*
X153548273Y-134398005D01*
X153625515Y-134430000D01*
X153548273Y-134461995D01*
X153319465Y-134614880D01*
X153124880Y-134809465D01*
X152971995Y-135038273D01*
X152866686Y-135292510D01*
X152813000Y-135562408D01*
X152813000Y-135837592D01*
X152866686Y-136107490D01*
X152971995Y-136361727D01*
X153124880Y-136590535D01*
X153319465Y-136785120D01*
X153548273Y-136938005D01*
X153625515Y-136970000D01*
X153548273Y-137001995D01*
X153319465Y-137154880D01*
X153124880Y-137349465D01*
X152971995Y-137578273D01*
X152866686Y-137832510D01*
X152813000Y-138102408D01*
X152813000Y-138377592D01*
X152866686Y-138647490D01*
X152971995Y-138901727D01*
X153124880Y-139130535D01*
X153319465Y-139325120D01*
X153548273Y-139478005D01*
X153625515Y-139510000D01*
X153548273Y-139541995D01*
X153319465Y-139694880D01*
X153124880Y-139889465D01*
X152971995Y-140118273D01*
X152866686Y-140372510D01*
X152813000Y-140642408D01*
X152813000Y-140917592D01*
X152866686Y-141187490D01*
X152971995Y-141441727D01*
X153124880Y-141670535D01*
X153319465Y-141865120D01*
X153548273Y-142018005D01*
X153802510Y-142123314D01*
X154072408Y-142177000D01*
X154347592Y-142177000D01*
X154617490Y-142123314D01*
X154871727Y-142018005D01*
X155100535Y-141865120D01*
X155295120Y-141670535D01*
X155448005Y-141441727D01*
X155553314Y-141187490D01*
X155607000Y-140917592D01*
X155607000Y-140642408D01*
X155553314Y-140372510D01*
X155448005Y-140118273D01*
X155295120Y-139889465D01*
X155100535Y-139694880D01*
X154871727Y-139541995D01*
X154794485Y-139510000D01*
X154871727Y-139478005D01*
X155100535Y-139325120D01*
X155295120Y-139130535D01*
X155448005Y-138901727D01*
X155553314Y-138647490D01*
X155607000Y-138377592D01*
X155607000Y-138102408D01*
X155553314Y-137832510D01*
X155448005Y-137578273D01*
X155295120Y-137349465D01*
X155100535Y-137154880D01*
X154871727Y-137001995D01*
X154794485Y-136970000D01*
X154871727Y-136938005D01*
X155100535Y-136785120D01*
X155295120Y-136590535D01*
X155448005Y-136361727D01*
X155553314Y-136107490D01*
X155607000Y-135837592D01*
X155607000Y-135562408D01*
X155553314Y-135292510D01*
X155448005Y-135038273D01*
X155295120Y-134809465D01*
X155100535Y-134614880D01*
X154871727Y-134461995D01*
X154794485Y-134430000D01*
X154871727Y-134398005D01*
X155100535Y-134245120D01*
X155295120Y-134050535D01*
X155448005Y-133821727D01*
X155553314Y-133567490D01*
X155607000Y-133297592D01*
X155607000Y-133022408D01*
X155553314Y-132752510D01*
X155448005Y-132498273D01*
X155295120Y-132269465D01*
X155100535Y-132074880D01*
X154871727Y-131921995D01*
X154794485Y-131890000D01*
X154871727Y-131858005D01*
X155100535Y-131705120D01*
X155295120Y-131510535D01*
X155448005Y-131281727D01*
X155553314Y-131027490D01*
X155607000Y-130757592D01*
X155607000Y-130482408D01*
X155553314Y-130212510D01*
X155448005Y-129958273D01*
X155295120Y-129729465D01*
X155100535Y-129534880D01*
X154871727Y-129381995D01*
X154794485Y-129350000D01*
X154871727Y-129318005D01*
X155100535Y-129165120D01*
X155295120Y-128970535D01*
X155448005Y-128741727D01*
X155553314Y-128487490D01*
X155607000Y-128217592D01*
X155607000Y-127962408D01*
X164323000Y-127962408D01*
X164323000Y-128237592D01*
X164376686Y-128507490D01*
X164481995Y-128761727D01*
X164634880Y-128990535D01*
X164829465Y-129185120D01*
X165058273Y-129338005D01*
X165135515Y-129370000D01*
X165058273Y-129401995D01*
X164829465Y-129554880D01*
X164634880Y-129749465D01*
X164481995Y-129978273D01*
X164376686Y-130232510D01*
X164323000Y-130502408D01*
X164323000Y-130777592D01*
X164376686Y-131047490D01*
X164481995Y-131301727D01*
X164634880Y-131530535D01*
X164829465Y-131725120D01*
X165058273Y-131878005D01*
X165135515Y-131910000D01*
X165058273Y-131941995D01*
X164829465Y-132094880D01*
X164634880Y-132289465D01*
X164481995Y-132518273D01*
X164376686Y-132772510D01*
X164323000Y-133042408D01*
X164323000Y-133317592D01*
X164376686Y-133587490D01*
X164481995Y-133841727D01*
X164634880Y-134070535D01*
X164829465Y-134265120D01*
X165058273Y-134418005D01*
X165312510Y-134523314D01*
X165582408Y-134577000D01*
X165857592Y-134577000D01*
X166127490Y-134523314D01*
X166381727Y-134418005D01*
X166610535Y-134265120D01*
X166805120Y-134070535D01*
X166958005Y-133841727D01*
X167063314Y-133587490D01*
X167117000Y-133317592D01*
X167117000Y-133042408D01*
X167063314Y-132772510D01*
X166958005Y-132518273D01*
X166805120Y-132289465D01*
X166610535Y-132094880D01*
X166381727Y-131941995D01*
X166304485Y-131910000D01*
X166381727Y-131878005D01*
X166610535Y-131725120D01*
X166805120Y-131530535D01*
X166958005Y-131301727D01*
X167063314Y-131047490D01*
X167117000Y-130777592D01*
X167117000Y-130502408D01*
X167063314Y-130232510D01*
X166958005Y-129978273D01*
X166805120Y-129749465D01*
X166610535Y-129554880D01*
X166381727Y-129401995D01*
X166304485Y-129370000D01*
X166381727Y-129338005D01*
X166610535Y-129185120D01*
X166805120Y-128990535D01*
X166958005Y-128761727D01*
X167063314Y-128507490D01*
X167117000Y-128237592D01*
X167117000Y-127962408D01*
X167063314Y-127692510D01*
X166958005Y-127438273D01*
X166805120Y-127209465D01*
X166610535Y-127014880D01*
X166381727Y-126861995D01*
X166310057Y-126832308D01*
X166323023Y-126827636D01*
X166438980Y-126765656D01*
X166505960Y-126525565D01*
X165720000Y-125739605D01*
X164934040Y-126525565D01*
X165001020Y-126765656D01*
X165136760Y-126829485D01*
X165058273Y-126861995D01*
X164829465Y-127014880D01*
X164634880Y-127209465D01*
X164481995Y-127438273D01*
X164376686Y-127692510D01*
X164323000Y-127962408D01*
X155607000Y-127962408D01*
X155607000Y-127942408D01*
X155553314Y-127672510D01*
X155448005Y-127418273D01*
X155295120Y-127189465D01*
X155272165Y-127166510D01*
X155295565Y-127137998D01*
X157200565Y-125232999D01*
X164361776Y-125232999D01*
X164330977Y-125357135D01*
X164318090Y-125632017D01*
X164359078Y-125904133D01*
X164452364Y-126163023D01*
X164514344Y-126278980D01*
X164754435Y-126345960D01*
X165540395Y-125560000D01*
X165526253Y-125545858D01*
X165705858Y-125366253D01*
X165720000Y-125380395D01*
X165734143Y-125366253D01*
X165913748Y-125545858D01*
X165899605Y-125560000D01*
X166685565Y-126345960D01*
X166925656Y-126278980D01*
X167042756Y-126029952D01*
X167109023Y-125762865D01*
X167121910Y-125487983D01*
X167080922Y-125215867D01*
X166987636Y-124956977D01*
X166925656Y-124841020D01*
X166685567Y-124774041D01*
X166801977Y-124657631D01*
X166783955Y-124639609D01*
X168111003Y-123312561D01*
X168140001Y-123288763D01*
X168234974Y-123173038D01*
X168305546Y-123041009D01*
X168349003Y-122897748D01*
X168360000Y-122786095D01*
X168360000Y-122786086D01*
X168363676Y-122748763D01*
X168360000Y-122711440D01*
X168360000Y-120435000D01*
X168426939Y-120435000D01*
X168626898Y-120395226D01*
X168815256Y-120317205D01*
X168984774Y-120203937D01*
X169128937Y-120059774D01*
X169242205Y-119890256D01*
X169320226Y-119701898D01*
X169360000Y-119501939D01*
X169360000Y-119298061D01*
X169320226Y-119098102D01*
X169242205Y-118909744D01*
X169128937Y-118740226D01*
X169085000Y-118696289D01*
X169085000Y-97462408D01*
X170593000Y-97462408D01*
X170593000Y-97737592D01*
X170646686Y-98007490D01*
X170751995Y-98261727D01*
X170904880Y-98490535D01*
X171099465Y-98685120D01*
X171328273Y-98838005D01*
X171405515Y-98870000D01*
X171328273Y-98901995D01*
X171099465Y-99054880D01*
X170904880Y-99249465D01*
X170751995Y-99478273D01*
X170646686Y-99732510D01*
X170593000Y-100002408D01*
X170593000Y-100277592D01*
X170646686Y-100547490D01*
X170751995Y-100801727D01*
X170904880Y-101030535D01*
X171099465Y-101225120D01*
X171328273Y-101378005D01*
X171405515Y-101410000D01*
X171328273Y-101441995D01*
X171099465Y-101594880D01*
X170904880Y-101789465D01*
X170751995Y-102018273D01*
X170646686Y-102272510D01*
X170593000Y-102542408D01*
X170593000Y-102817592D01*
X170646686Y-103087490D01*
X170751995Y-103341727D01*
X170904880Y-103570535D01*
X171099465Y-103765120D01*
X171328273Y-103918005D01*
X171405515Y-103950000D01*
X171328273Y-103981995D01*
X171099465Y-104134880D01*
X170904880Y-104329465D01*
X170751995Y-104558273D01*
X170646686Y-104812510D01*
X170593000Y-105082408D01*
X170593000Y-105357592D01*
X170646686Y-105627490D01*
X170751995Y-105881727D01*
X170904880Y-106110535D01*
X171099465Y-106305120D01*
X171328273Y-106458005D01*
X171405515Y-106490000D01*
X171328273Y-106521995D01*
X171099465Y-106674880D01*
X170904880Y-106869465D01*
X170751995Y-107098273D01*
X170646686Y-107352510D01*
X170593000Y-107622408D01*
X170593000Y-107897592D01*
X170646686Y-108167490D01*
X170751995Y-108421727D01*
X170904880Y-108650535D01*
X171099465Y-108845120D01*
X171328273Y-108998005D01*
X171405515Y-109030000D01*
X171328273Y-109061995D01*
X171099465Y-109214880D01*
X170904880Y-109409465D01*
X170751995Y-109638273D01*
X170646686Y-109892510D01*
X170593000Y-110162408D01*
X170593000Y-110437592D01*
X170646686Y-110707490D01*
X170751995Y-110961727D01*
X170904880Y-111190535D01*
X171099465Y-111385120D01*
X171328273Y-111538005D01*
X171405515Y-111570000D01*
X171328273Y-111601995D01*
X171099465Y-111754880D01*
X170904880Y-111949465D01*
X170751995Y-112178273D01*
X170646686Y-112432510D01*
X170593000Y-112702408D01*
X170593000Y-112977592D01*
X170646686Y-113247490D01*
X170751995Y-113501727D01*
X170904880Y-113730535D01*
X171099465Y-113925120D01*
X171328273Y-114078005D01*
X171405515Y-114110000D01*
X171328273Y-114141995D01*
X171099465Y-114294880D01*
X170904880Y-114489465D01*
X170751995Y-114718273D01*
X170646686Y-114972510D01*
X170593000Y-115242408D01*
X170593000Y-115517592D01*
X170646686Y-115787490D01*
X170751995Y-116041727D01*
X170904880Y-116270535D01*
X171099465Y-116465120D01*
X171328273Y-116618005D01*
X171405515Y-116650000D01*
X171328273Y-116681995D01*
X171099465Y-116834880D01*
X170904880Y-117029465D01*
X170751995Y-117258273D01*
X170646686Y-117512510D01*
X170593000Y-117782408D01*
X170593000Y-118057592D01*
X170646686Y-118327490D01*
X170751995Y-118581727D01*
X170904880Y-118810535D01*
X171099465Y-119005120D01*
X171328273Y-119158005D01*
X171405515Y-119190000D01*
X171328273Y-119221995D01*
X171099465Y-119374880D01*
X170904880Y-119569465D01*
X170751995Y-119798273D01*
X170646686Y-120052510D01*
X170593000Y-120322408D01*
X170593000Y-120597592D01*
X170646686Y-120867490D01*
X170751995Y-121121727D01*
X170904880Y-121350535D01*
X171099465Y-121545120D01*
X171328273Y-121698005D01*
X171405515Y-121730000D01*
X171328273Y-121761995D01*
X171099465Y-121914880D01*
X170904880Y-122109465D01*
X170751995Y-122338273D01*
X170646686Y-122592510D01*
X170593000Y-122862408D01*
X170593000Y-123137592D01*
X170646686Y-123407490D01*
X170751995Y-123661727D01*
X170904880Y-123890535D01*
X171099465Y-124085120D01*
X171328273Y-124238005D01*
X171405515Y-124270000D01*
X171328273Y-124301995D01*
X171099465Y-124454880D01*
X170904880Y-124649465D01*
X170751995Y-124878273D01*
X170646686Y-125132510D01*
X170593000Y-125402408D01*
X170593000Y-125677592D01*
X170646686Y-125947490D01*
X170751995Y-126201727D01*
X170904880Y-126430535D01*
X171099465Y-126625120D01*
X171328273Y-126778005D01*
X171405515Y-126810000D01*
X171328273Y-126841995D01*
X171099465Y-126994880D01*
X170904880Y-127189465D01*
X170751995Y-127418273D01*
X170646686Y-127672510D01*
X170593000Y-127942408D01*
X170593000Y-128217592D01*
X170646686Y-128487490D01*
X170751995Y-128741727D01*
X170904880Y-128970535D01*
X171099465Y-129165120D01*
X171328273Y-129318005D01*
X171405515Y-129350000D01*
X171328273Y-129381995D01*
X171099465Y-129534880D01*
X170904880Y-129729465D01*
X170751995Y-129958273D01*
X170646686Y-130212510D01*
X170593000Y-130482408D01*
X170593000Y-130757592D01*
X170646686Y-131027490D01*
X170751995Y-131281727D01*
X170904880Y-131510535D01*
X171099465Y-131705120D01*
X171328273Y-131858005D01*
X171405515Y-131890000D01*
X171328273Y-131921995D01*
X171099465Y-132074880D01*
X170904880Y-132269465D01*
X170751995Y-132498273D01*
X170646686Y-132752510D01*
X170593000Y-133022408D01*
X170593000Y-133297592D01*
X170646686Y-133567490D01*
X170751995Y-133821727D01*
X170904880Y-134050535D01*
X171099465Y-134245120D01*
X171328273Y-134398005D01*
X171405515Y-134430000D01*
X171328273Y-134461995D01*
X171099465Y-134614880D01*
X170904880Y-134809465D01*
X170751995Y-135038273D01*
X170646686Y-135292510D01*
X170593000Y-135562408D01*
X170593000Y-135837592D01*
X170646686Y-136107490D01*
X170751995Y-136361727D01*
X170904880Y-136590535D01*
X171099465Y-136785120D01*
X171328273Y-136938005D01*
X171405515Y-136970000D01*
X171328273Y-137001995D01*
X171099465Y-137154880D01*
X170904880Y-137349465D01*
X170751995Y-137578273D01*
X170646686Y-137832510D01*
X170593000Y-138102408D01*
X170593000Y-138377592D01*
X170646686Y-138647490D01*
X170751995Y-138901727D01*
X170904880Y-139130535D01*
X171099465Y-139325120D01*
X171328273Y-139478005D01*
X171405515Y-139510000D01*
X171328273Y-139541995D01*
X171099465Y-139694880D01*
X170904880Y-139889465D01*
X170751995Y-140118273D01*
X170646686Y-140372510D01*
X170593000Y-140642408D01*
X170593000Y-140917592D01*
X170646686Y-141187490D01*
X170751995Y-141441727D01*
X170904880Y-141670535D01*
X171099465Y-141865120D01*
X171328273Y-142018005D01*
X171582510Y-142123314D01*
X171852408Y-142177000D01*
X172127592Y-142177000D01*
X172397490Y-142123314D01*
X172651727Y-142018005D01*
X172880535Y-141865120D01*
X173075120Y-141670535D01*
X173228005Y-141441727D01*
X173333314Y-141187490D01*
X173387000Y-140917592D01*
X173387000Y-140642408D01*
X173333314Y-140372510D01*
X173228005Y-140118273D01*
X173075120Y-139889465D01*
X172880535Y-139694880D01*
X172651727Y-139541995D01*
X172574485Y-139510000D01*
X172651727Y-139478005D01*
X172880535Y-139325120D01*
X173075120Y-139130535D01*
X173228005Y-138901727D01*
X173333314Y-138647490D01*
X173387000Y-138377592D01*
X173387000Y-138102408D01*
X173333314Y-137832510D01*
X173228005Y-137578273D01*
X173075120Y-137349465D01*
X172880535Y-137154880D01*
X172651727Y-137001995D01*
X172574485Y-136970000D01*
X172651727Y-136938005D01*
X172880535Y-136785120D01*
X173075120Y-136590535D01*
X173228005Y-136361727D01*
X173333314Y-136107490D01*
X173387000Y-135837592D01*
X173387000Y-135562408D01*
X173333314Y-135292510D01*
X173228005Y-135038273D01*
X173075120Y-134809465D01*
X172880535Y-134614880D01*
X172651727Y-134461995D01*
X172574485Y-134430000D01*
X172651727Y-134398005D01*
X172880535Y-134245120D01*
X173075120Y-134050535D01*
X173228005Y-133821727D01*
X173333314Y-133567490D01*
X173387000Y-133297592D01*
X173387000Y-133022408D01*
X173333314Y-132752510D01*
X173228005Y-132498273D01*
X173075120Y-132269465D01*
X172880535Y-132074880D01*
X172651727Y-131921995D01*
X172574485Y-131890000D01*
X172651727Y-131858005D01*
X172880535Y-131705120D01*
X173075120Y-131510535D01*
X173228005Y-131281727D01*
X173333314Y-131027490D01*
X173387000Y-130757592D01*
X173387000Y-130482408D01*
X173333314Y-130212510D01*
X173228005Y-129958273D01*
X173075120Y-129729465D01*
X172880535Y-129534880D01*
X172651727Y-129381995D01*
X172574485Y-129350000D01*
X172651727Y-129318005D01*
X172880535Y-129165120D01*
X173075120Y-128970535D01*
X173228005Y-128741727D01*
X173333314Y-128487490D01*
X173387000Y-128217592D01*
X173387000Y-127942408D01*
X173333314Y-127672510D01*
X173228005Y-127418273D01*
X173075120Y-127189465D01*
X172880535Y-126994880D01*
X172651727Y-126841995D01*
X172574485Y-126810000D01*
X172651727Y-126778005D01*
X172880535Y-126625120D01*
X173075120Y-126430535D01*
X173214268Y-126222285D01*
X174565000Y-126222285D01*
X174565000Y-126977715D01*
X174712377Y-127718628D01*
X175001467Y-128416554D01*
X175421161Y-129044670D01*
X175955330Y-129578839D01*
X176583446Y-129998533D01*
X177281372Y-130287623D01*
X178022285Y-130435000D01*
X178777715Y-130435000D01*
X179518628Y-130287623D01*
X180216554Y-129998533D01*
X180844670Y-129578839D01*
X181378839Y-129044670D01*
X181798533Y-128416554D01*
X182087623Y-127718628D01*
X182235000Y-126977715D01*
X182235000Y-126222285D01*
X182087623Y-125481372D01*
X181798533Y-124783446D01*
X181378839Y-124155330D01*
X180844670Y-123621161D01*
X180216554Y-123201467D01*
X179518628Y-122912377D01*
X178777715Y-122765000D01*
X178022285Y-122765000D01*
X177281372Y-122912377D01*
X176583446Y-123201467D01*
X175955330Y-123621161D01*
X175421161Y-124155330D01*
X175001467Y-124783446D01*
X174712377Y-125481372D01*
X174565000Y-126222285D01*
X173214268Y-126222285D01*
X173228005Y-126201727D01*
X173333314Y-125947490D01*
X173387000Y-125677592D01*
X173387000Y-125402408D01*
X173333314Y-125132510D01*
X173228005Y-124878273D01*
X173075120Y-124649465D01*
X172880535Y-124454880D01*
X172651727Y-124301995D01*
X172574485Y-124270000D01*
X172651727Y-124238005D01*
X172880535Y-124085120D01*
X173075120Y-123890535D01*
X173228005Y-123661727D01*
X173333314Y-123407490D01*
X173387000Y-123137592D01*
X173387000Y-122862408D01*
X173333314Y-122592510D01*
X173259515Y-122414344D01*
X192915000Y-122414344D01*
X192915000Y-122785656D01*
X192987439Y-123149834D01*
X193129534Y-123492882D01*
X193335825Y-123801618D01*
X193598382Y-124064175D01*
X193907118Y-124270466D01*
X194250166Y-124412561D01*
X194614344Y-124485000D01*
X194985656Y-124485000D01*
X195349834Y-124412561D01*
X195692882Y-124270466D01*
X196001618Y-124064175D01*
X196264175Y-123801618D01*
X196470466Y-123492882D01*
X196612561Y-123149834D01*
X196685000Y-122785656D01*
X196685000Y-122414344D01*
X196612561Y-122050166D01*
X196470466Y-121707118D01*
X196264175Y-121398382D01*
X196001618Y-121135825D01*
X195692882Y-120929534D01*
X195349834Y-120787439D01*
X194985656Y-120715000D01*
X194614344Y-120715000D01*
X194250166Y-120787439D01*
X193907118Y-120929534D01*
X193598382Y-121135825D01*
X193335825Y-121398382D01*
X193129534Y-121707118D01*
X192987439Y-122050166D01*
X192915000Y-122414344D01*
X173259515Y-122414344D01*
X173228005Y-122338273D01*
X173075120Y-122109465D01*
X172880535Y-121914880D01*
X172651727Y-121761995D01*
X172574485Y-121730000D01*
X172651727Y-121698005D01*
X172880535Y-121545120D01*
X173075120Y-121350535D01*
X173228005Y-121121727D01*
X173333314Y-120867490D01*
X173387000Y-120597592D01*
X173387000Y-120322408D01*
X173333314Y-120052510D01*
X173228005Y-119798273D01*
X173075120Y-119569465D01*
X172880535Y-119374880D01*
X172651727Y-119221995D01*
X172574485Y-119190000D01*
X172651727Y-119158005D01*
X172880535Y-119005120D01*
X173075120Y-118810535D01*
X173228005Y-118581727D01*
X173333314Y-118327490D01*
X173387000Y-118057592D01*
X173387000Y-117782408D01*
X173333314Y-117512510D01*
X173259515Y-117334344D01*
X192915000Y-117334344D01*
X192915000Y-117705656D01*
X192987439Y-118069834D01*
X193129534Y-118412882D01*
X193335825Y-118721618D01*
X193598382Y-118984175D01*
X193907118Y-119190466D01*
X194250166Y-119332561D01*
X194614344Y-119405000D01*
X194985656Y-119405000D01*
X195349834Y-119332561D01*
X195692882Y-119190466D01*
X196001618Y-118984175D01*
X196264175Y-118721618D01*
X196470466Y-118412882D01*
X196612561Y-118069834D01*
X196685000Y-117705656D01*
X196685000Y-117334344D01*
X196612561Y-116970166D01*
X196470466Y-116627118D01*
X196264175Y-116318382D01*
X196001618Y-116055825D01*
X195692882Y-115849534D01*
X195349834Y-115707439D01*
X194985656Y-115635000D01*
X194614344Y-115635000D01*
X194250166Y-115707439D01*
X193907118Y-115849534D01*
X193598382Y-116055825D01*
X193335825Y-116318382D01*
X193129534Y-116627118D01*
X192987439Y-116970166D01*
X192915000Y-117334344D01*
X173259515Y-117334344D01*
X173228005Y-117258273D01*
X173075120Y-117029465D01*
X172880535Y-116834880D01*
X172651727Y-116681995D01*
X172574485Y-116650000D01*
X172651727Y-116618005D01*
X172880535Y-116465120D01*
X173075120Y-116270535D01*
X173228005Y-116041727D01*
X173333314Y-115787490D01*
X173387000Y-115517592D01*
X173387000Y-115242408D01*
X173333314Y-114972510D01*
X173228005Y-114718273D01*
X173075120Y-114489465D01*
X172880535Y-114294880D01*
X172651727Y-114141995D01*
X172574485Y-114110000D01*
X172651727Y-114078005D01*
X172880535Y-113925120D01*
X173075120Y-113730535D01*
X173228005Y-113501727D01*
X173333314Y-113247490D01*
X173387000Y-112977592D01*
X173387000Y-112702408D01*
X173333314Y-112432510D01*
X173259515Y-112254344D01*
X192915000Y-112254344D01*
X192915000Y-112625656D01*
X192987439Y-112989834D01*
X193129534Y-113332882D01*
X193335825Y-113641618D01*
X193598382Y-113904175D01*
X193907118Y-114110466D01*
X194250166Y-114252561D01*
X194614344Y-114325000D01*
X194985656Y-114325000D01*
X195349834Y-114252561D01*
X195692882Y-114110466D01*
X196001618Y-113904175D01*
X196264175Y-113641618D01*
X196470466Y-113332882D01*
X196612561Y-112989834D01*
X196685000Y-112625656D01*
X196685000Y-112254344D01*
X196612561Y-111890166D01*
X196470466Y-111547118D01*
X196264175Y-111238382D01*
X196001618Y-110975825D01*
X195692882Y-110769534D01*
X195349834Y-110627439D01*
X194985656Y-110555000D01*
X194614344Y-110555000D01*
X194250166Y-110627439D01*
X193907118Y-110769534D01*
X193598382Y-110975825D01*
X193335825Y-111238382D01*
X193129534Y-111547118D01*
X192987439Y-111890166D01*
X192915000Y-112254344D01*
X173259515Y-112254344D01*
X173228005Y-112178273D01*
X173075120Y-111949465D01*
X172880535Y-111754880D01*
X172651727Y-111601995D01*
X172574485Y-111570000D01*
X172651727Y-111538005D01*
X172880535Y-111385120D01*
X173075120Y-111190535D01*
X173228005Y-110961727D01*
X173333314Y-110707490D01*
X173387000Y-110437592D01*
X173387000Y-110162408D01*
X173333314Y-109892510D01*
X173228005Y-109638273D01*
X173075120Y-109409465D01*
X172880535Y-109214880D01*
X172651727Y-109061995D01*
X172574485Y-109030000D01*
X172651727Y-108998005D01*
X172880535Y-108845120D01*
X173075120Y-108650535D01*
X173228005Y-108421727D01*
X173333314Y-108167490D01*
X173387000Y-107897592D01*
X173387000Y-107622408D01*
X173333314Y-107352510D01*
X173259515Y-107174344D01*
X192915000Y-107174344D01*
X192915000Y-107545656D01*
X192987439Y-107909834D01*
X193129534Y-108252882D01*
X193335825Y-108561618D01*
X193598382Y-108824175D01*
X193907118Y-109030466D01*
X194250166Y-109172561D01*
X194614344Y-109245000D01*
X194985656Y-109245000D01*
X195349834Y-109172561D01*
X195692882Y-109030466D01*
X196001618Y-108824175D01*
X196264175Y-108561618D01*
X196470466Y-108252882D01*
X196612561Y-107909834D01*
X196685000Y-107545656D01*
X196685000Y-107174344D01*
X196612561Y-106810166D01*
X196470466Y-106467118D01*
X196264175Y-106158382D01*
X196001618Y-105895825D01*
X195692882Y-105689534D01*
X195349834Y-105547439D01*
X194985656Y-105475000D01*
X194614344Y-105475000D01*
X194250166Y-105547439D01*
X193907118Y-105689534D01*
X193598382Y-105895825D01*
X193335825Y-106158382D01*
X193129534Y-106467118D01*
X192987439Y-106810166D01*
X192915000Y-107174344D01*
X173259515Y-107174344D01*
X173228005Y-107098273D01*
X173075120Y-106869465D01*
X172880535Y-106674880D01*
X172651727Y-106521995D01*
X172574485Y-106490000D01*
X172651727Y-106458005D01*
X172880535Y-106305120D01*
X173075120Y-106110535D01*
X173228005Y-105881727D01*
X173333314Y-105627490D01*
X173387000Y-105357592D01*
X173387000Y-105082408D01*
X173333314Y-104812510D01*
X173228005Y-104558273D01*
X173075120Y-104329465D01*
X172880535Y-104134880D01*
X172651727Y-103981995D01*
X172574485Y-103950000D01*
X172651727Y-103918005D01*
X172880535Y-103765120D01*
X173075120Y-103570535D01*
X173228005Y-103341727D01*
X173333314Y-103087490D01*
X173387000Y-102817592D01*
X173387000Y-102542408D01*
X173333314Y-102272510D01*
X173259515Y-102094344D01*
X192915000Y-102094344D01*
X192915000Y-102465656D01*
X192987439Y-102829834D01*
X193129534Y-103172882D01*
X193335825Y-103481618D01*
X193598382Y-103744175D01*
X193907118Y-103950466D01*
X194250166Y-104092561D01*
X194614344Y-104165000D01*
X194985656Y-104165000D01*
X195349834Y-104092561D01*
X195692882Y-103950466D01*
X196001618Y-103744175D01*
X196264175Y-103481618D01*
X196470466Y-103172882D01*
X196612561Y-102829834D01*
X196685000Y-102465656D01*
X196685000Y-102094344D01*
X196612561Y-101730166D01*
X196470466Y-101387118D01*
X196264175Y-101078382D01*
X196001618Y-100815825D01*
X195692882Y-100609534D01*
X195349834Y-100467439D01*
X194985656Y-100395000D01*
X194614344Y-100395000D01*
X194250166Y-100467439D01*
X193907118Y-100609534D01*
X193598382Y-100815825D01*
X193335825Y-101078382D01*
X193129534Y-101387118D01*
X192987439Y-101730166D01*
X192915000Y-102094344D01*
X173259515Y-102094344D01*
X173228005Y-102018273D01*
X173075120Y-101789465D01*
X172880535Y-101594880D01*
X172651727Y-101441995D01*
X172574485Y-101410000D01*
X172651727Y-101378005D01*
X172880535Y-101225120D01*
X173075120Y-101030535D01*
X173228005Y-100801727D01*
X173333314Y-100547490D01*
X173387000Y-100277592D01*
X173387000Y-100002408D01*
X173333314Y-99732510D01*
X173228005Y-99478273D01*
X173075120Y-99249465D01*
X172880535Y-99054880D01*
X172651727Y-98901995D01*
X172574485Y-98870000D01*
X172651727Y-98838005D01*
X172880535Y-98685120D01*
X173075120Y-98490535D01*
X173228005Y-98261727D01*
X173333314Y-98007490D01*
X173387000Y-97737592D01*
X173387000Y-97462408D01*
X173333314Y-97192510D01*
X173228005Y-96938273D01*
X173075120Y-96709465D01*
X172880535Y-96514880D01*
X172651727Y-96361995D01*
X172580057Y-96332308D01*
X172593023Y-96327636D01*
X172708980Y-96265656D01*
X172775960Y-96025565D01*
X171990000Y-95239605D01*
X171204040Y-96025565D01*
X171271020Y-96265656D01*
X171406760Y-96329485D01*
X171328273Y-96361995D01*
X171099465Y-96514880D01*
X170904880Y-96709465D01*
X170751995Y-96938273D01*
X170646686Y-97192510D01*
X170593000Y-97462408D01*
X169085000Y-97462408D01*
X169085000Y-97431039D01*
X170767874Y-95748166D01*
X170784344Y-95778980D01*
X171024435Y-95845960D01*
X171810395Y-95060000D01*
X171796253Y-95045858D01*
X171975858Y-94866253D01*
X171990000Y-94880395D01*
X172004143Y-94866253D01*
X172183748Y-95045858D01*
X172169605Y-95060000D01*
X172955565Y-95845960D01*
X173195656Y-95778980D01*
X173312756Y-95529952D01*
X173379023Y-95262865D01*
X173391910Y-94987983D01*
X173353503Y-94732999D01*
X174989679Y-94732999D01*
X175027001Y-94736675D01*
X175064323Y-94732999D01*
X175064334Y-94732999D01*
X175175987Y-94722002D01*
X175319248Y-94678545D01*
X175451277Y-94607973D01*
X175567002Y-94513000D01*
X175590805Y-94483996D01*
X177561196Y-92513605D01*
X193666000Y-92513605D01*
X193791914Y-92803577D01*
X194124126Y-92969433D01*
X194482312Y-93067290D01*
X194852706Y-93093389D01*
X195221075Y-93046725D01*
X195573262Y-92929094D01*
X195808086Y-92803577D01*
X195934000Y-92513605D01*
X194800000Y-91379605D01*
X193666000Y-92513605D01*
X177561196Y-92513605D01*
X178822095Y-91252706D01*
X192906611Y-91252706D01*
X192953275Y-91621075D01*
X193070906Y-91973262D01*
X193196423Y-92208086D01*
X193486395Y-92334000D01*
X194620395Y-91200000D01*
X194979605Y-91200000D01*
X196113605Y-92334000D01*
X196403577Y-92208086D01*
X196569433Y-91875874D01*
X196667290Y-91517688D01*
X196693389Y-91147294D01*
X196646725Y-90778925D01*
X196529094Y-90426738D01*
X196403577Y-90191914D01*
X196113605Y-90066000D01*
X194979605Y-91200000D01*
X194620395Y-91200000D01*
X193486395Y-90066000D01*
X193196423Y-90191914D01*
X193030567Y-90524126D01*
X192932710Y-90882312D01*
X192906611Y-91252706D01*
X178822095Y-91252706D01*
X178839802Y-91235000D01*
X178901939Y-91235000D01*
X179101898Y-91195226D01*
X179290256Y-91117205D01*
X179459774Y-91003937D01*
X179603937Y-90859774D01*
X179717205Y-90690256D01*
X179795226Y-90501898D01*
X179835000Y-90301939D01*
X179835000Y-90098061D01*
X179795226Y-89898102D01*
X179790377Y-89886395D01*
X193666000Y-89886395D01*
X194800000Y-91020395D01*
X195934000Y-89886395D01*
X195808086Y-89596423D01*
X195475874Y-89430567D01*
X195117688Y-89332710D01*
X194747294Y-89306611D01*
X194378925Y-89353275D01*
X194026738Y-89470906D01*
X193791914Y-89596423D01*
X193666000Y-89886395D01*
X179790377Y-89886395D01*
X179717205Y-89709744D01*
X179603937Y-89540226D01*
X179459774Y-89396063D01*
X179290256Y-89282795D01*
X179101898Y-89204774D01*
X178901939Y-89165000D01*
X178698061Y-89165000D01*
X178498102Y-89204774D01*
X178309744Y-89282795D01*
X178235000Y-89332737D01*
X178235000Y-89298061D01*
X178195226Y-89098102D01*
X178117205Y-88909744D01*
X178003937Y-88740226D01*
X177859774Y-88596063D01*
X177690256Y-88482795D01*
X177501898Y-88404774D01*
X177301939Y-88365000D01*
X177098061Y-88365000D01*
X176898102Y-88404774D01*
X176709744Y-88482795D01*
X176540226Y-88596063D01*
X176496289Y-88640000D01*
X160634802Y-88640000D01*
X161514802Y-87760000D01*
X171696289Y-87760000D01*
X171740226Y-87803937D01*
X171909744Y-87917205D01*
X172098102Y-87995226D01*
X172298061Y-88035000D01*
X172501939Y-88035000D01*
X172701898Y-87995226D01*
X172890256Y-87917205D01*
X173059774Y-87803937D01*
X173203937Y-87659774D01*
X173317205Y-87490256D01*
X173395226Y-87301898D01*
X173435000Y-87101939D01*
X173435000Y-86898061D01*
X173395226Y-86698102D01*
X173317205Y-86509744D01*
X173203937Y-86340226D01*
X173198711Y-86335000D01*
X183855752Y-86335000D01*
X184022499Y-86318577D01*
X184236447Y-86253676D01*
X184433623Y-86148284D01*
X184606449Y-86006449D01*
X184665624Y-85934344D01*
X192915000Y-85934344D01*
X192915000Y-86305656D01*
X192987439Y-86669834D01*
X193129534Y-87012882D01*
X193335825Y-87321618D01*
X193598382Y-87584175D01*
X193907118Y-87790466D01*
X194250166Y-87932561D01*
X194614344Y-88005000D01*
X194985656Y-88005000D01*
X195349834Y-87932561D01*
X195692882Y-87790466D01*
X196001618Y-87584175D01*
X196264175Y-87321618D01*
X196470466Y-87012882D01*
X196612561Y-86669834D01*
X196685000Y-86305656D01*
X196685000Y-85934344D01*
X196612561Y-85570166D01*
X196470466Y-85227118D01*
X196264175Y-84918382D01*
X196001618Y-84655825D01*
X195692882Y-84449534D01*
X195349834Y-84307439D01*
X194985656Y-84235000D01*
X194614344Y-84235000D01*
X194250166Y-84307439D01*
X193907118Y-84449534D01*
X193598382Y-84655825D01*
X193335825Y-84918382D01*
X193129534Y-85227118D01*
X192987439Y-85570166D01*
X192915000Y-85934344D01*
X184665624Y-85934344D01*
X184748284Y-85833623D01*
X184853676Y-85636447D01*
X184918577Y-85422499D01*
X184940491Y-85200000D01*
X184918577Y-84977501D01*
X184853676Y-84763553D01*
X184748284Y-84566377D01*
X184606449Y-84393551D01*
X184433623Y-84251716D01*
X184236447Y-84146324D01*
X184022499Y-84081423D01*
X183855752Y-84065000D01*
X172344248Y-84065000D01*
X172177501Y-84081423D01*
X171963553Y-84146324D01*
X171766377Y-84251716D01*
X171593551Y-84393551D01*
X171451716Y-84566377D01*
X171346324Y-84763553D01*
X171281423Y-84977501D01*
X171259509Y-85200000D01*
X171281423Y-85422499D01*
X171346324Y-85636447D01*
X171451716Y-85833623D01*
X171593551Y-86006449D01*
X171766377Y-86148284D01*
X171791575Y-86161753D01*
X171740226Y-86196063D01*
X171696289Y-86240000D01*
X161237333Y-86240000D01*
X161200000Y-86236323D01*
X161162667Y-86240000D01*
X161051014Y-86250997D01*
X160907753Y-86294454D01*
X160775724Y-86365026D01*
X160659999Y-86459999D01*
X160636201Y-86488997D01*
X156960000Y-90165199D01*
X156960000Y-85527910D01*
X156963676Y-85490587D01*
X156960000Y-85453265D01*
X156960000Y-85453255D01*
X156949003Y-85341602D01*
X156905546Y-85198341D01*
X156867413Y-85127000D01*
X156834974Y-85066311D01*
X156763799Y-84979585D01*
X156740001Y-84950587D01*
X156711003Y-84926789D01*
X156034214Y-84250000D01*
X159911928Y-84250000D01*
X159924188Y-84374482D01*
X159960498Y-84494180D01*
X160019463Y-84604494D01*
X160098815Y-84701185D01*
X160195506Y-84780537D01*
X160305820Y-84839502D01*
X160425518Y-84875812D01*
X160550000Y-84888072D01*
X161114250Y-84885000D01*
X161273000Y-84726250D01*
X161273000Y-83527000D01*
X160073750Y-83527000D01*
X159915000Y-83685750D01*
X159911928Y-84250000D01*
X156034214Y-84250000D01*
X154334214Y-82550000D01*
X159911928Y-82550000D01*
X159915000Y-83114250D01*
X160073750Y-83273000D01*
X161273000Y-83273000D01*
X161273000Y-82073750D01*
X161527000Y-82073750D01*
X161527000Y-83273000D01*
X161547000Y-83273000D01*
X161547000Y-83527000D01*
X161527000Y-83527000D01*
X161527000Y-84726250D01*
X161685750Y-84885000D01*
X162250000Y-84888072D01*
X162374482Y-84875812D01*
X162494180Y-84839502D01*
X162604494Y-84780537D01*
X162701185Y-84701185D01*
X162780537Y-84604494D01*
X162839502Y-84494180D01*
X162861513Y-84421620D01*
X162993368Y-84553475D01*
X163236589Y-84715990D01*
X163506842Y-84827932D01*
X163793740Y-84885000D01*
X164086260Y-84885000D01*
X164373158Y-84827932D01*
X164643411Y-84715990D01*
X164886632Y-84553475D01*
X165093475Y-84346632D01*
X165210000Y-84172240D01*
X165326525Y-84346632D01*
X165533368Y-84553475D01*
X165776589Y-84715990D01*
X166046842Y-84827932D01*
X166333740Y-84885000D01*
X166626260Y-84885000D01*
X166913158Y-84827932D01*
X167183411Y-84715990D01*
X167426632Y-84553475D01*
X167633475Y-84346632D01*
X167795990Y-84103411D01*
X167907932Y-83833158D01*
X167965000Y-83546260D01*
X167965000Y-83253740D01*
X167907932Y-82966842D01*
X167795990Y-82696589D01*
X167633475Y-82453368D01*
X167426632Y-82246525D01*
X167183411Y-82084010D01*
X166913158Y-81972068D01*
X166626260Y-81915000D01*
X166333740Y-81915000D01*
X166046842Y-81972068D01*
X165776589Y-82084010D01*
X165533368Y-82246525D01*
X165326525Y-82453368D01*
X165210000Y-82627760D01*
X165093475Y-82453368D01*
X164886632Y-82246525D01*
X164643411Y-82084010D01*
X164373158Y-81972068D01*
X164086260Y-81915000D01*
X163793740Y-81915000D01*
X163506842Y-81972068D01*
X163236589Y-82084010D01*
X162993368Y-82246525D01*
X162861513Y-82378380D01*
X162839502Y-82305820D01*
X162780537Y-82195506D01*
X162701185Y-82098815D01*
X162604494Y-82019463D01*
X162494180Y-81960498D01*
X162374482Y-81924188D01*
X162250000Y-81911928D01*
X161685750Y-81915000D01*
X161527000Y-82073750D01*
X161273000Y-82073750D01*
X161114250Y-81915000D01*
X160550000Y-81911928D01*
X160425518Y-81924188D01*
X160305820Y-81960498D01*
X160195506Y-82019463D01*
X160098815Y-82098815D01*
X160019463Y-82195506D01*
X159960498Y-82305820D01*
X159924188Y-82425518D01*
X159911928Y-82550000D01*
X154334214Y-82550000D01*
X152638558Y-80854344D01*
X192915000Y-80854344D01*
X192915000Y-81225656D01*
X192987439Y-81589834D01*
X193129534Y-81932882D01*
X193335825Y-82241618D01*
X193598382Y-82504175D01*
X193907118Y-82710466D01*
X194250166Y-82852561D01*
X194614344Y-82925000D01*
X194985656Y-82925000D01*
X195349834Y-82852561D01*
X195692882Y-82710466D01*
X196001618Y-82504175D01*
X196264175Y-82241618D01*
X196470466Y-81932882D01*
X196612561Y-81589834D01*
X196685000Y-81225656D01*
X196685000Y-80854344D01*
X196612561Y-80490166D01*
X196470466Y-80147118D01*
X196264175Y-79838382D01*
X196001618Y-79575825D01*
X195692882Y-79369534D01*
X195349834Y-79227439D01*
X194985656Y-79155000D01*
X194614344Y-79155000D01*
X194250166Y-79227439D01*
X193907118Y-79369534D01*
X193598382Y-79575825D01*
X193335825Y-79838382D01*
X193129534Y-80147118D01*
X192987439Y-80490166D01*
X192915000Y-80854344D01*
X152638558Y-80854344D01*
X142198558Y-70414344D01*
X192915000Y-70414344D01*
X192915000Y-70785656D01*
X192987439Y-71149834D01*
X193129534Y-71492882D01*
X193335825Y-71801618D01*
X193598382Y-72064175D01*
X193907118Y-72270466D01*
X194250166Y-72412561D01*
X194614344Y-72485000D01*
X194985656Y-72485000D01*
X195349834Y-72412561D01*
X195692882Y-72270466D01*
X196001618Y-72064175D01*
X196264175Y-71801618D01*
X196470466Y-71492882D01*
X196612561Y-71149834D01*
X196685000Y-70785656D01*
X196685000Y-70414344D01*
X196612561Y-70050166D01*
X196470466Y-69707118D01*
X196264175Y-69398382D01*
X196001618Y-69135825D01*
X195692882Y-68929534D01*
X195349834Y-68787439D01*
X194985656Y-68715000D01*
X194614344Y-68715000D01*
X194250166Y-68787439D01*
X193907118Y-68929534D01*
X193598382Y-69135825D01*
X193335825Y-69398382D01*
X193129534Y-69707118D01*
X192987439Y-70050166D01*
X192915000Y-70414344D01*
X142198558Y-70414344D01*
X138639989Y-66855776D01*
X138639989Y-66833605D01*
X193666000Y-66833605D01*
X193791914Y-67123577D01*
X194124126Y-67289433D01*
X194482312Y-67387290D01*
X194852706Y-67413389D01*
X195221075Y-67366725D01*
X195573262Y-67249094D01*
X195808086Y-67123577D01*
X195934000Y-66833605D01*
X194800000Y-65699605D01*
X193666000Y-66833605D01*
X138639989Y-66833605D01*
X138639989Y-65572706D01*
X192906611Y-65572706D01*
X192953275Y-65941075D01*
X193070906Y-66293262D01*
X193196423Y-66528086D01*
X193486395Y-66654000D01*
X194620395Y-65520000D01*
X194979605Y-65520000D01*
X196113605Y-66654000D01*
X196403577Y-66528086D01*
X196569433Y-66195874D01*
X196667290Y-65837688D01*
X196693389Y-65467294D01*
X196646725Y-65098925D01*
X196529094Y-64746738D01*
X196403577Y-64511914D01*
X196113605Y-64386000D01*
X194979605Y-65520000D01*
X194620395Y-65520000D01*
X193486395Y-64386000D01*
X193196423Y-64511914D01*
X193030567Y-64844126D01*
X192932710Y-65202312D01*
X192906611Y-65572706D01*
X138639989Y-65572706D01*
X138639989Y-64206395D01*
X193666000Y-64206395D01*
X194800000Y-65340395D01*
X195934000Y-64206395D01*
X195808086Y-63916423D01*
X195475874Y-63750567D01*
X195117688Y-63652710D01*
X194747294Y-63626611D01*
X194378925Y-63673275D01*
X194026738Y-63790906D01*
X193791914Y-63916423D01*
X193666000Y-64206395D01*
X138639989Y-64206395D01*
X138639989Y-57780321D01*
X189265000Y-57780321D01*
X189288657Y-58020515D01*
X189382148Y-58328714D01*
X189533969Y-58612751D01*
X189738286Y-58861714D01*
X189987248Y-59066031D01*
X190271285Y-59217852D01*
X190579484Y-59311343D01*
X190900000Y-59342911D01*
X191220515Y-59311343D01*
X191528714Y-59217852D01*
X191812751Y-59066031D01*
X192061714Y-58861714D01*
X192266031Y-58612752D01*
X192417852Y-58328715D01*
X192511343Y-58020516D01*
X192535000Y-57780322D01*
X192535000Y-54619678D01*
X192511343Y-54379484D01*
X192417852Y-54071285D01*
X192266031Y-53787248D01*
X192061714Y-53538286D01*
X191812752Y-53333969D01*
X191528715Y-53182148D01*
X191220516Y-53088657D01*
X190900000Y-53057089D01*
X190579485Y-53088657D01*
X190271286Y-53182148D01*
X189987249Y-53333969D01*
X189738287Y-53538286D01*
X189533970Y-53787248D01*
X189382149Y-54071285D01*
X189288658Y-54379484D01*
X189265001Y-54619678D01*
X189265000Y-57780321D01*
X138639989Y-57780321D01*
X138639989Y-51780434D01*
X190909876Y-51780434D01*
X190940856Y-51908355D01*
X191069990Y-52202761D01*
X191254078Y-52466317D01*
X191486046Y-52688895D01*
X191756980Y-52861942D01*
X192056468Y-52978807D01*
X192373000Y-53035000D01*
X193873000Y-53035000D01*
X193873000Y-51527000D01*
X194127000Y-51527000D01*
X194127000Y-53035000D01*
X195627000Y-53035000D01*
X195943532Y-52978807D01*
X196243020Y-52861942D01*
X196513954Y-52688895D01*
X196745922Y-52466317D01*
X196930010Y-52202761D01*
X197059144Y-51908355D01*
X197090124Y-51780434D01*
X196970777Y-51527000D01*
X194127000Y-51527000D01*
X193873000Y-51527000D01*
X191029223Y-51527000D01*
X190909876Y-51780434D01*
X138639989Y-51780434D01*
X138639989Y-51434812D01*
X142514802Y-47560000D01*
X151162678Y-47560000D01*
X151200000Y-47563676D01*
X151237322Y-47560000D01*
X151237333Y-47560000D01*
X151348986Y-47549003D01*
X151492247Y-47505546D01*
X151624276Y-47434974D01*
X151740001Y-47340001D01*
X151763804Y-47310997D01*
X154338389Y-44736414D01*
X154367381Y-44712621D01*
X154391175Y-44683628D01*
X154391179Y-44683624D01*
X154454522Y-44606439D01*
X154462354Y-44596896D01*
X154532926Y-44464867D01*
X154576383Y-44321606D01*
X154587380Y-44209953D01*
X154587380Y-44209944D01*
X154591056Y-44172621D01*
X154587380Y-44135298D01*
X154587380Y-39138313D01*
X154805885Y-38992312D01*
X155019692Y-38778505D01*
X155077380Y-38692169D01*
X155135068Y-38778505D01*
X155348875Y-38992312D01*
X155600285Y-39160299D01*
X155879637Y-39276011D01*
X156176196Y-39335000D01*
X156476821Y-39335000D01*
X156226417Y-39709756D01*
X156005171Y-40243892D01*
X155892380Y-40810928D01*
X155892380Y-41389072D01*
X156005171Y-41956108D01*
X156226417Y-42490244D01*
X156547617Y-42970953D01*
X156956427Y-43379763D01*
X157437136Y-43700963D01*
X157971272Y-43922209D01*
X158538308Y-44035000D01*
X159116452Y-44035000D01*
X159683488Y-43922209D01*
X160217624Y-43700963D01*
X160698333Y-43379763D01*
X161107143Y-42970953D01*
X161428343Y-42490244D01*
X161649589Y-41956108D01*
X161762380Y-41389072D01*
X161762380Y-40810928D01*
X161649589Y-40243892D01*
X161474954Y-39822285D01*
X166765000Y-39822285D01*
X166765000Y-40577715D01*
X166912377Y-41318628D01*
X167201467Y-42016554D01*
X167621161Y-42644670D01*
X168155330Y-43178839D01*
X168783446Y-43598533D01*
X169481372Y-43887623D01*
X170222285Y-44035000D01*
X170977715Y-44035000D01*
X171718628Y-43887623D01*
X172416554Y-43598533D01*
X173044670Y-43178839D01*
X173578839Y-42644670D01*
X173998533Y-42016554D01*
X174287623Y-41318628D01*
X174435000Y-40577715D01*
X174435000Y-39822285D01*
X174287623Y-39081372D01*
X173998533Y-38383446D01*
X173578839Y-37755330D01*
X173044670Y-37221161D01*
X172416554Y-36801467D01*
X171718628Y-36512377D01*
X170977715Y-36365000D01*
X170222285Y-36365000D01*
X169481372Y-36512377D01*
X168783446Y-36801467D01*
X168155330Y-37221161D01*
X167621161Y-37755330D01*
X167201467Y-38383446D01*
X166912377Y-39081372D01*
X166765000Y-39822285D01*
X161474954Y-39822285D01*
X161428343Y-39709756D01*
X161107143Y-39229047D01*
X160698333Y-38820237D01*
X160217624Y-38499037D01*
X159683488Y-38277791D01*
X159116452Y-38165000D01*
X158538308Y-38165000D01*
X157971272Y-38277791D01*
X157753597Y-38367955D01*
X157803391Y-38247743D01*
X157862380Y-37951184D01*
X157862380Y-37648816D01*
X157803391Y-37352257D01*
X157687679Y-37072905D01*
X157519692Y-36821495D01*
X157305885Y-36607688D01*
X157054475Y-36439701D01*
X156775123Y-36323989D01*
X156478564Y-36265000D01*
X156176196Y-36265000D01*
X155918450Y-36316269D01*
X154833255Y-35231074D01*
X176851468Y-35231074D01*
X177088998Y-35468604D01*
X177473000Y-36620610D01*
X177473000Y-43200000D01*
X177475440Y-43224776D01*
X177485088Y-43254076D01*
X179085088Y-46654076D01*
X179097846Y-46675455D01*
X179117965Y-46696950D01*
X181717965Y-48896950D01*
X181738456Y-48911091D01*
X181764165Y-48921839D01*
X185164165Y-49921839D01*
X185188623Y-49926489D01*
X185202082Y-49926983D01*
X192097283Y-49813947D01*
X192056468Y-49821193D01*
X191756980Y-49938058D01*
X191486046Y-50111105D01*
X191254078Y-50333683D01*
X191069990Y-50597239D01*
X190940856Y-50891645D01*
X190909876Y-51019566D01*
X191029223Y-51273000D01*
X193873000Y-51273000D01*
X193873000Y-51253000D01*
X194127000Y-51253000D01*
X194127000Y-51273000D01*
X196970777Y-51273000D01*
X197090124Y-51019566D01*
X197059144Y-50891645D01*
X196930010Y-50597239D01*
X196745922Y-50333683D01*
X196513954Y-50111105D01*
X196243020Y-49938058D01*
X195943532Y-49821193D01*
X195627000Y-49765000D01*
X195083068Y-49765000D01*
X197353920Y-49727773D01*
X198367977Y-50596965D01*
X198367977Y-53667768D01*
X198261714Y-53538286D01*
X198012752Y-53333969D01*
X197728715Y-53182148D01*
X197420516Y-53088657D01*
X197100000Y-53057089D01*
X196779485Y-53088657D01*
X196471286Y-53182148D01*
X196187249Y-53333969D01*
X195938287Y-53538286D01*
X195733970Y-53787248D01*
X195582149Y-54071285D01*
X195488658Y-54379484D01*
X195465001Y-54619678D01*
X195465000Y-57780321D01*
X195488657Y-58020515D01*
X195582148Y-58328714D01*
X195733969Y-58612751D01*
X195938286Y-58861714D01*
X196187248Y-59066031D01*
X196471285Y-59217852D01*
X196779484Y-59311343D01*
X197100000Y-59342911D01*
X197420515Y-59311343D01*
X197728714Y-59217852D01*
X198012751Y-59066031D01*
X198261714Y-58861714D01*
X198367977Y-58732232D01*
X198367977Y-63302008D01*
X198367976Y-76374096D01*
X198367976Y-89446183D01*
X198367977Y-102518270D01*
X198367977Y-127852417D01*
X198122222Y-128098172D01*
X196766273Y-128873000D01*
X184400000Y-128873000D01*
X184375224Y-128875440D01*
X184351399Y-128882667D01*
X184329553Y-128894330D01*
X182469054Y-130134663D01*
X182403690Y-130162592D01*
X182400452Y-130164367D01*
X182396943Y-130165515D01*
X182387575Y-130169707D01*
X182248853Y-130232955D01*
X182245346Y-130234989D01*
X182241527Y-130236344D01*
X182232267Y-130240768D01*
X182095007Y-130307533D01*
X182091207Y-130309865D01*
X182087051Y-130311463D01*
X182077910Y-130316126D01*
X181940351Y-130387523D01*
X181937459Y-130389403D01*
X181934276Y-130390713D01*
X181925246Y-130395588D01*
X181824089Y-130451120D01*
X181821385Y-130452969D01*
X181818386Y-130454284D01*
X181809470Y-130459364D01*
X181678653Y-130535116D01*
X181675382Y-130537464D01*
X181671736Y-130539172D01*
X181662948Y-130544473D01*
X181538925Y-130620471D01*
X181535987Y-130622693D01*
X181532695Y-130624332D01*
X181524037Y-130629841D01*
X181401564Y-130708982D01*
X181398859Y-130711131D01*
X181395803Y-130712743D01*
X181387276Y-130718453D01*
X181268079Y-130799479D01*
X181265505Y-130801624D01*
X181262576Y-130803256D01*
X181254183Y-130809161D01*
X181134102Y-130894898D01*
X181131715Y-130896982D01*
X181128985Y-130898585D01*
X181120727Y-130904678D01*
X181005628Y-130990841D01*
X181003468Y-130992815D01*
X181000973Y-130994354D01*
X180992850Y-131000626D01*
X180879422Y-131089479D01*
X180877360Y-131091447D01*
X180874974Y-131092992D01*
X180866989Y-131099438D01*
X180754488Y-131191568D01*
X180752578Y-131193472D01*
X180750348Y-131194984D01*
X180742502Y-131201598D01*
X180633347Y-131294935D01*
X180631481Y-131296876D01*
X180629292Y-131298429D01*
X180621588Y-131305208D01*
X180510392Y-131404456D01*
X180508636Y-131406363D01*
X180506562Y-131407900D01*
X180499001Y-131414839D01*
X180392774Y-131513732D01*
X180390843Y-131515919D01*
X180388538Y-131517707D01*
X180381131Y-131524811D01*
X180375247Y-131530534D01*
X178329553Y-132894330D01*
X178310291Y-132910104D01*
X178294477Y-132929332D01*
X178287759Y-132940578D01*
X176487759Y-136340578D01*
X176478323Y-136363617D01*
X176473101Y-136394924D01*
X176275383Y-141337867D01*
X174154665Y-143073000D01*
X131415634Y-143073000D01*
X129064930Y-142485324D01*
X128113073Y-141533467D01*
X127727000Y-140182211D01*
X127727000Y-123098061D01*
X134965000Y-123098061D01*
X134965000Y-123301939D01*
X135004774Y-123501898D01*
X135082795Y-123690256D01*
X135196063Y-123859774D01*
X135240000Y-123903711D01*
X135240001Y-130660648D01*
X135196063Y-130704586D01*
X135082795Y-130874104D01*
X135004774Y-131062462D01*
X134965000Y-131262421D01*
X134965000Y-131466299D01*
X135004774Y-131666258D01*
X135082795Y-131854616D01*
X135196063Y-132024134D01*
X135340226Y-132168297D01*
X135509744Y-132281565D01*
X135698102Y-132359586D01*
X135898061Y-132399360D01*
X136101939Y-132399360D01*
X136301898Y-132359586D01*
X136490256Y-132281565D01*
X136659774Y-132168297D01*
X136803937Y-132024134D01*
X136917205Y-131854616D01*
X136995226Y-131666258D01*
X137035000Y-131466299D01*
X137035000Y-131262421D01*
X136995226Y-131062462D01*
X136917205Y-130874104D01*
X136803937Y-130704586D01*
X136760000Y-130660649D01*
X136760000Y-123903711D01*
X136803937Y-123859774D01*
X136917205Y-123690256D01*
X136995226Y-123501898D01*
X137035000Y-123301939D01*
X137035000Y-123098061D01*
X136995226Y-122898102D01*
X136917205Y-122709744D01*
X136803937Y-122540226D01*
X136659774Y-122396063D01*
X136490256Y-122282795D01*
X136301898Y-122204774D01*
X136101939Y-122165000D01*
X135898061Y-122165000D01*
X135698102Y-122204774D01*
X135509744Y-122282795D01*
X135340226Y-122396063D01*
X135196063Y-122540226D01*
X135082795Y-122709744D01*
X135004774Y-122898102D01*
X134965000Y-123098061D01*
X127727000Y-123098061D01*
X127727000Y-86200000D01*
X127724560Y-86175224D01*
X127717333Y-86151399D01*
X127705597Y-86129443D01*
X127689803Y-86110197D01*
X126497232Y-84917626D01*
X126451600Y-84853740D01*
X133575000Y-84853740D01*
X133575000Y-85146260D01*
X133632068Y-85433158D01*
X133744010Y-85703411D01*
X133906525Y-85946632D01*
X134113368Y-86153475D01*
X134356589Y-86315990D01*
X134626842Y-86427932D01*
X134913740Y-86485000D01*
X135206260Y-86485000D01*
X135493158Y-86427932D01*
X135763411Y-86315990D01*
X136006632Y-86153475D01*
X136138487Y-86021620D01*
X136160498Y-86094180D01*
X136219463Y-86204494D01*
X136298815Y-86301185D01*
X136395506Y-86380537D01*
X136505820Y-86439502D01*
X136625518Y-86475812D01*
X136750000Y-86488072D01*
X137314250Y-86485000D01*
X137473000Y-86326250D01*
X137473000Y-85127000D01*
X137727000Y-85127000D01*
X137727000Y-86326250D01*
X137885750Y-86485000D01*
X138450000Y-86488072D01*
X138574482Y-86475812D01*
X138694180Y-86439502D01*
X138804494Y-86380537D01*
X138901185Y-86301185D01*
X138980537Y-86204494D01*
X139039502Y-86094180D01*
X139075812Y-85974482D01*
X139088072Y-85850000D01*
X139085000Y-85285750D01*
X138926250Y-85127000D01*
X137727000Y-85127000D01*
X137473000Y-85127000D01*
X137453000Y-85127000D01*
X137453000Y-84873000D01*
X137473000Y-84873000D01*
X137473000Y-83673750D01*
X137727000Y-83673750D01*
X137727000Y-84873000D01*
X138926250Y-84873000D01*
X139085000Y-84714250D01*
X139088072Y-84150000D01*
X139075812Y-84025518D01*
X139039502Y-83905820D01*
X138980537Y-83795506D01*
X138901185Y-83698815D01*
X138804494Y-83619463D01*
X138694180Y-83560498D01*
X138574482Y-83524188D01*
X138450000Y-83511928D01*
X137885750Y-83515000D01*
X137727000Y-83673750D01*
X137473000Y-83673750D01*
X137314250Y-83515000D01*
X136750000Y-83511928D01*
X136625518Y-83524188D01*
X136505820Y-83560498D01*
X136395506Y-83619463D01*
X136298815Y-83698815D01*
X136219463Y-83795506D01*
X136160498Y-83905820D01*
X136138487Y-83978380D01*
X136006632Y-83846525D01*
X135763411Y-83684010D01*
X135493158Y-83572068D01*
X135206260Y-83515000D01*
X134913740Y-83515000D01*
X134626842Y-83572068D01*
X134356589Y-83684010D01*
X134113368Y-83846525D01*
X133906525Y-84053368D01*
X133744010Y-84296589D01*
X133632068Y-84566842D01*
X133575000Y-84853740D01*
X126451600Y-84853740D01*
X125514445Y-83541724D01*
X125127000Y-82379390D01*
X125127000Y-74200000D01*
X125124560Y-74175224D01*
X125117333Y-74151399D01*
X125111018Y-74138323D01*
X124111018Y-72338323D01*
X124096852Y-72317850D01*
X124081303Y-72302436D01*
X122881303Y-71302436D01*
X122860707Y-71288449D01*
X122827550Y-71276024D01*
X121027550Y-70876024D01*
X121000000Y-70873000D01*
X93417789Y-70873000D01*
X92055972Y-70483909D01*
X90696462Y-69512831D01*
X90056981Y-68393740D01*
X90056981Y-53422285D01*
X90765000Y-53422285D01*
X90765000Y-54177715D01*
X90912377Y-54918628D01*
X91201467Y-55616554D01*
X91621161Y-56244670D01*
X92155330Y-56778839D01*
X92783446Y-57198533D01*
X93481372Y-57487623D01*
X94222285Y-57635000D01*
X94977715Y-57635000D01*
X95718628Y-57487623D01*
X96416554Y-57198533D01*
X97044670Y-56778839D01*
X97578839Y-56244670D01*
X97998533Y-55616554D01*
X98287623Y-54918628D01*
X98435000Y-54177715D01*
X98435000Y-53422285D01*
X98287623Y-52681372D01*
X97998533Y-51983446D01*
X97578839Y-51355330D01*
X97044670Y-50821161D01*
X96416554Y-50401467D01*
X95718628Y-50112377D01*
X94977715Y-49965000D01*
X94222285Y-49965000D01*
X93481372Y-50112377D01*
X92783446Y-50401467D01*
X92155330Y-50821161D01*
X91621161Y-51355330D01*
X91201467Y-51983446D01*
X90912377Y-52681372D01*
X90765000Y-53422285D01*
X90056981Y-53422285D01*
X90056981Y-50289539D01*
X90087119Y-50104982D01*
X90087119Y-50104980D01*
X90118429Y-49913245D01*
X90205760Y-49848725D01*
X90205761Y-49848725D01*
X90205764Y-49848722D01*
X90294571Y-49783111D01*
X90411030Y-49736107D01*
X90411035Y-49736105D01*
X90614066Y-49654158D01*
X90614068Y-49654157D01*
X90684735Y-49625635D01*
X102044596Y-49625635D01*
X102152576Y-49615000D01*
X102165098Y-49611202D01*
X102259571Y-49598514D01*
X102259617Y-49598503D01*
X102260320Y-49598413D01*
X102453108Y-49572320D01*
X102453203Y-49572297D01*
X102454807Y-49572088D01*
X102631802Y-49547712D01*
X102631928Y-49547682D01*
X102634343Y-49547358D01*
X102815251Y-49521798D01*
X102815402Y-49521761D01*
X102818797Y-49521289D01*
X103007656Y-49493667D01*
X103007832Y-49493623D01*
X103012034Y-49493013D01*
X103185955Y-49466505D01*
X103186137Y-49466459D01*
X103191093Y-49465703D01*
X103366590Y-49437683D01*
X103366767Y-49437637D01*
X103372546Y-49436707D01*
X103545420Y-49407648D01*
X103545575Y-49407606D01*
X103552292Y-49406460D01*
X103729134Y-49375005D01*
X103729264Y-49374969D01*
X103736848Y-49373591D01*
X103905799Y-49341677D01*
X103905895Y-49341649D01*
X103914464Y-49339986D01*
X103978954Y-49327000D01*
X104200000Y-49327000D01*
X104224776Y-49324560D01*
X104247167Y-49317917D01*
X104528378Y-49205433D01*
X104626568Y-49181229D01*
X104627526Y-49180891D01*
X104628526Y-49180743D01*
X104638466Y-49178190D01*
X104805187Y-49134126D01*
X104806595Y-49133602D01*
X104808077Y-49133356D01*
X104817969Y-49130624D01*
X104982515Y-49083945D01*
X104984115Y-49083317D01*
X104985807Y-49083003D01*
X104995647Y-49080087D01*
X105149201Y-49033420D01*
X105150995Y-49032677D01*
X105152902Y-49032285D01*
X105162684Y-49029181D01*
X105315549Y-48979493D01*
X105317646Y-48978577D01*
X105319874Y-48978072D01*
X105329591Y-48974772D01*
X105478336Y-48923086D01*
X105480725Y-48921984D01*
X105483270Y-48921351D01*
X105492915Y-48917847D01*
X105640878Y-48862911D01*
X105643564Y-48861603D01*
X105646435Y-48860821D01*
X105656001Y-48857105D01*
X105800752Y-48799701D01*
X105803686Y-48798191D01*
X105806844Y-48797253D01*
X105816323Y-48793319D01*
X105959720Y-48732617D01*
X105962995Y-48730835D01*
X105966543Y-48729688D01*
X105975924Y-48725527D01*
X106119757Y-48660516D01*
X106123241Y-48658510D01*
X106127031Y-48657180D01*
X106136306Y-48652787D01*
X106274972Y-48585913D01*
X106278468Y-48583783D01*
X106282298Y-48582330D01*
X106291459Y-48577706D01*
X106425026Y-48509115D01*
X106427094Y-48507783D01*
X106429371Y-48506865D01*
X106438435Y-48502053D01*
X106520123Y-48457952D01*
X106522027Y-48456669D01*
X106524136Y-48455769D01*
X106533102Y-48450775D01*
X106662614Y-48377443D01*
X106665733Y-48375249D01*
X106669199Y-48373669D01*
X106678040Y-48368459D01*
X106793216Y-48299497D01*
X107247167Y-48117917D01*
X107269265Y-48106449D01*
X107289803Y-48089803D01*
X108064238Y-47315368D01*
X108072021Y-47308021D01*
X108073459Y-47306369D01*
X108075186Y-47305016D01*
X108082557Y-47297876D01*
X108185184Y-47197062D01*
X108186558Y-47195419D01*
X108188216Y-47194066D01*
X108195445Y-47186782D01*
X108296896Y-47083106D01*
X108298214Y-47081466D01*
X108299811Y-47080109D01*
X108306334Y-47073272D01*
X108889803Y-46489803D01*
X108911493Y-46460814D01*
X109120504Y-46077628D01*
X109189345Y-45977490D01*
X109190346Y-45975677D01*
X109191667Y-45974091D01*
X109197374Y-45965562D01*
X109278740Y-45842099D01*
X109279717Y-45840246D01*
X109281022Y-45838614D01*
X109286561Y-45829975D01*
X109365364Y-45705135D01*
X109366316Y-45703240D01*
X109367603Y-45701564D01*
X109372970Y-45692817D01*
X109449161Y-45566678D01*
X109450080Y-45564755D01*
X109451344Y-45563040D01*
X109456537Y-45554189D01*
X109529811Y-45427287D01*
X109530715Y-45425295D01*
X109531974Y-45423514D01*
X109536990Y-45414562D01*
X109608068Y-45285608D01*
X109608975Y-45283497D01*
X109610261Y-45281599D01*
X109615096Y-45272547D01*
X109684110Y-45141133D01*
X109684311Y-45140637D01*
X109684601Y-45140195D01*
X109689297Y-45131070D01*
X109722694Y-45065025D01*
X109722855Y-45064610D01*
X109723087Y-45064244D01*
X109727644Y-45055049D01*
X109793441Y-44919883D01*
X109794217Y-44917791D01*
X109795367Y-44915893D01*
X109799739Y-44906609D01*
X109863557Y-44768563D01*
X109864235Y-44766616D01*
X109865267Y-44764836D01*
X109869456Y-44755467D01*
X109931084Y-44615016D01*
X109931657Y-44613262D01*
X109932554Y-44611644D01*
X109936565Y-44602198D01*
X109972947Y-44514815D01*
X110111493Y-44260814D01*
X110121215Y-44237895D01*
X110124951Y-44222718D01*
X110161935Y-44019306D01*
X110177809Y-43974470D01*
X110178016Y-43973634D01*
X110178377Y-43972858D01*
X110181713Y-43963153D01*
X110232205Y-43812798D01*
X110232338Y-43812220D01*
X110232578Y-43811683D01*
X110235762Y-43801927D01*
X110284235Y-43649776D01*
X110284314Y-43649408D01*
X110284462Y-43649062D01*
X110287499Y-43639260D01*
X110335358Y-43480874D01*
X110335380Y-43480763D01*
X110335422Y-43480661D01*
X110338319Y-43470816D01*
X110383376Y-43313643D01*
X110383384Y-43313600D01*
X110386008Y-43304224D01*
X110429413Y-43144834D01*
X110429426Y-43144757D01*
X110431763Y-43135985D01*
X110473478Y-42974913D01*
X110473493Y-42974815D01*
X110475613Y-42966465D01*
X110517320Y-42797180D01*
X110517339Y-42797051D01*
X110519222Y-42789272D01*
X110558860Y-42620359D01*
X110558881Y-42620200D01*
X110560473Y-42613329D01*
X110597126Y-42449942D01*
X110597147Y-42449774D01*
X110598564Y-42443396D01*
X110637044Y-42264232D01*
X110637065Y-42264048D01*
X110638274Y-42258386D01*
X110672598Y-42091996D01*
X110672618Y-42091812D01*
X110673597Y-42087068D01*
X110707016Y-41919272D01*
X110707033Y-41919098D01*
X110707868Y-41914927D01*
X110741293Y-41741659D01*
X110741309Y-41741492D01*
X110742007Y-41737906D01*
X110775904Y-41557144D01*
X110775917Y-41556996D01*
X110776458Y-41554157D01*
X110808686Y-41378287D01*
X110808696Y-41378164D01*
X110809095Y-41376035D01*
X110840977Y-41198944D01*
X110840984Y-41198852D01*
X110841238Y-41197482D01*
X110872955Y-41019243D01*
X110872959Y-41019198D01*
X110873085Y-41018511D01*
X110896060Y-40888637D01*
X110904318Y-40861415D01*
X110918509Y-40717330D01*
X110914953Y-40681225D01*
X110914953Y-38216719D01*
X110914952Y-37383182D01*
X110914952Y-36549645D01*
X110914953Y-35788461D01*
X110941209Y-35656400D01*
X110966992Y-35526719D01*
X111066685Y-35452134D01*
X111066688Y-35452131D01*
X111152481Y-35387945D01*
X111266997Y-35341865D01*
X111267071Y-35341836D01*
X111470723Y-35259889D01*
X111542333Y-35231074D01*
X127894124Y-35231074D01*
X123345199Y-39780000D01*
G36*
X154403748Y-95045858D02*
G01*
X154389605Y-95060000D01*
X154403748Y-95074143D01*
X154224143Y-95253748D01*
X154210000Y-95239605D01*
X153424040Y-96025565D01*
X153491020Y-96265656D01*
X153626760Y-96329485D01*
X153548273Y-96361995D01*
X153319465Y-96514880D01*
X153124880Y-96709465D01*
X152971995Y-96938273D01*
X152866686Y-97192510D01*
X152813000Y-97462408D01*
X152813000Y-97737592D01*
X152866686Y-98007490D01*
X152971995Y-98261727D01*
X153124880Y-98490535D01*
X153319465Y-98685120D01*
X153548273Y-98838005D01*
X153625515Y-98870000D01*
X153548273Y-98901995D01*
X153319465Y-99054880D01*
X153124880Y-99249465D01*
X152971995Y-99478273D01*
X152866686Y-99732510D01*
X152813000Y-100002408D01*
X152813000Y-100277592D01*
X152866686Y-100547490D01*
X152971995Y-100801727D01*
X153124880Y-101030535D01*
X153319465Y-101225120D01*
X153548273Y-101378005D01*
X153625515Y-101410000D01*
X153548273Y-101441995D01*
X153319465Y-101594880D01*
X153124880Y-101789465D01*
X152971995Y-102018273D01*
X152866686Y-102272510D01*
X152813000Y-102542408D01*
X152813000Y-102817592D01*
X152866686Y-103087490D01*
X152971995Y-103341727D01*
X153124880Y-103570535D01*
X153319465Y-103765120D01*
X153548273Y-103918005D01*
X153625515Y-103950000D01*
X153548273Y-103981995D01*
X153319465Y-104134880D01*
X153124880Y-104329465D01*
X152971995Y-104558273D01*
X152866686Y-104812510D01*
X152813000Y-105082408D01*
X152813000Y-105357592D01*
X152843628Y-105511571D01*
X152612001Y-105743197D01*
X152582998Y-105767000D01*
X152555916Y-105800000D01*
X152488025Y-105882725D01*
X152462359Y-105930743D01*
X152417453Y-106014755D01*
X152373996Y-106158016D01*
X152362999Y-106269669D01*
X152362999Y-106269679D01*
X152359323Y-106307001D01*
X152362999Y-106344324D01*
X152363000Y-108610427D01*
X152359323Y-108647759D01*
X152363000Y-108685092D01*
X152368917Y-108745162D01*
X152373997Y-108796744D01*
X152417453Y-108940005D01*
X152488025Y-109072035D01*
X152543185Y-109139247D01*
X152582999Y-109187760D01*
X152611997Y-109211558D01*
X152758437Y-109357998D01*
X152782240Y-109387002D01*
X152897965Y-109481975D01*
X153029465Y-109552264D01*
X152971995Y-109638273D01*
X152866686Y-109892510D01*
X152813000Y-110162408D01*
X152813000Y-110437592D01*
X152866686Y-110707490D01*
X152971995Y-110961727D01*
X153124880Y-111190535D01*
X153319465Y-111385120D01*
X153548273Y-111538005D01*
X153625515Y-111570000D01*
X153548273Y-111601995D01*
X153319465Y-111754880D01*
X153124880Y-111949465D01*
X152971995Y-112178273D01*
X152866686Y-112432510D01*
X152813000Y-112702408D01*
X152813000Y-112977592D01*
X152866686Y-113247490D01*
X152971995Y-113501727D01*
X153124880Y-113730535D01*
X153319465Y-113925120D01*
X153548273Y-114078005D01*
X153625515Y-114110000D01*
X153548273Y-114141995D01*
X153319465Y-114294880D01*
X153124880Y-114489465D01*
X152971995Y-114718273D01*
X152866686Y-114972510D01*
X152813000Y-115242408D01*
X152813000Y-115517592D01*
X152866686Y-115787490D01*
X152971995Y-116041727D01*
X153124880Y-116270535D01*
X153319465Y-116465120D01*
X153548273Y-116618005D01*
X153625515Y-116650000D01*
X153548273Y-116681995D01*
X153319465Y-116834880D01*
X153124880Y-117029465D01*
X152971995Y-117258273D01*
X152866686Y-117512510D01*
X152813000Y-117782408D01*
X152813000Y-118057592D01*
X152866686Y-118327490D01*
X152971995Y-118581727D01*
X153124880Y-118810535D01*
X153319465Y-119005120D01*
X153548273Y-119158005D01*
X153625515Y-119190000D01*
X153548273Y-119221995D01*
X153319465Y-119374880D01*
X153124880Y-119569465D01*
X152971995Y-119798273D01*
X152866686Y-120052510D01*
X152813000Y-120322408D01*
X152813000Y-120597592D01*
X152866686Y-120867490D01*
X152971995Y-121121727D01*
X153124880Y-121350535D01*
X153319465Y-121545120D01*
X153548273Y-121698005D01*
X153625515Y-121730000D01*
X153548273Y-121761995D01*
X153319465Y-121914880D01*
X153124880Y-122109465D01*
X152971995Y-122338273D01*
X152866686Y-122592510D01*
X152813000Y-122862408D01*
X152813000Y-123137592D01*
X152866686Y-123407490D01*
X152971995Y-123661727D01*
X153124880Y-123890535D01*
X153319465Y-124085120D01*
X153548273Y-124238005D01*
X153625515Y-124270000D01*
X153548273Y-124301995D01*
X153319465Y-124454880D01*
X153124880Y-124649465D01*
X152971995Y-124878273D01*
X152866686Y-125132510D01*
X152813000Y-125402408D01*
X152813000Y-125677592D01*
X152850676Y-125867001D01*
X151861802Y-125867001D01*
X151846372Y-125851571D01*
X151877000Y-125697592D01*
X151877000Y-125422408D01*
X151823314Y-125152510D01*
X151718005Y-124898273D01*
X151565120Y-124669465D01*
X151370535Y-124474880D01*
X151141727Y-124321995D01*
X151064485Y-124290000D01*
X151141727Y-124258005D01*
X151370535Y-124105120D01*
X151565120Y-123910535D01*
X151718005Y-123681727D01*
X151823314Y-123427490D01*
X151877000Y-123157592D01*
X151877000Y-122882408D01*
X151823314Y-122612510D01*
X151718005Y-122358273D01*
X151565120Y-122129465D01*
X151370535Y-121934880D01*
X151141727Y-121781995D01*
X151064485Y-121750000D01*
X151141727Y-121718005D01*
X151370535Y-121565120D01*
X151565120Y-121370535D01*
X151718005Y-121141727D01*
X151823314Y-120887490D01*
X151877000Y-120617592D01*
X151877000Y-120342408D01*
X151823314Y-120072510D01*
X151718005Y-119818273D01*
X151565120Y-119589465D01*
X151370535Y-119394880D01*
X151141727Y-119241995D01*
X151064485Y-119210000D01*
X151141727Y-119178005D01*
X151370535Y-119025120D01*
X151565120Y-118830535D01*
X151718005Y-118601727D01*
X151823314Y-118347490D01*
X151877000Y-118077592D01*
X151877000Y-117802408D01*
X151823314Y-117532510D01*
X151718005Y-117278273D01*
X151565120Y-117049465D01*
X151370535Y-116854880D01*
X151141727Y-116701995D01*
X151064485Y-116670000D01*
X151141727Y-116638005D01*
X151370535Y-116485120D01*
X151565120Y-116290535D01*
X151718005Y-116061727D01*
X151823314Y-115807490D01*
X151877000Y-115537592D01*
X151877000Y-115262408D01*
X151823314Y-114992510D01*
X151718005Y-114738273D01*
X151565120Y-114509465D01*
X151370535Y-114314880D01*
X151141727Y-114161995D01*
X151064485Y-114130000D01*
X151141727Y-114098005D01*
X151370535Y-113945120D01*
X151565120Y-113750535D01*
X151718005Y-113521727D01*
X151823314Y-113267490D01*
X151877000Y-112997592D01*
X151877000Y-112722408D01*
X151823314Y-112452510D01*
X151718005Y-112198273D01*
X151565120Y-111969465D01*
X151370535Y-111774880D01*
X151141727Y-111621995D01*
X151064485Y-111590000D01*
X151141727Y-111558005D01*
X151370535Y-111405120D01*
X151565120Y-111210535D01*
X151718005Y-110981727D01*
X151823314Y-110727490D01*
X151877000Y-110457592D01*
X151877000Y-110182408D01*
X151823314Y-109912510D01*
X151718005Y-109658273D01*
X151565120Y-109429465D01*
X151370535Y-109234880D01*
X151141727Y-109081995D01*
X151064485Y-109050000D01*
X151141727Y-109018005D01*
X151370535Y-108865120D01*
X151565120Y-108670535D01*
X151718005Y-108441727D01*
X151823314Y-108187490D01*
X151877000Y-107917592D01*
X151877000Y-107642408D01*
X151823314Y-107372510D01*
X151718005Y-107118273D01*
X151565120Y-106889465D01*
X151370535Y-106694880D01*
X151141727Y-106541995D01*
X151064485Y-106510000D01*
X151141727Y-106478005D01*
X151370535Y-106325120D01*
X151565120Y-106130535D01*
X151718005Y-105901727D01*
X151823314Y-105647490D01*
X151877000Y-105377592D01*
X151877000Y-105102408D01*
X151823314Y-104832510D01*
X151718005Y-104578273D01*
X151565120Y-104349465D01*
X151370535Y-104154880D01*
X151141727Y-104001995D01*
X151064485Y-103970000D01*
X151141727Y-103938005D01*
X151370535Y-103785120D01*
X151565120Y-103590535D01*
X151718005Y-103361727D01*
X151823314Y-103107490D01*
X151877000Y-102837592D01*
X151877000Y-102562408D01*
X151823314Y-102292510D01*
X151718005Y-102038273D01*
X151565120Y-101809465D01*
X151370535Y-101614880D01*
X151141727Y-101461995D01*
X151064485Y-101430000D01*
X151141727Y-101398005D01*
X151370535Y-101245120D01*
X151565120Y-101050535D01*
X151718005Y-100821727D01*
X151823314Y-100567490D01*
X151877000Y-100297592D01*
X151877000Y-100022408D01*
X151846372Y-99868430D01*
X152078005Y-99636797D01*
X152107002Y-99613000D01*
X152201975Y-99497275D01*
X152272547Y-99365246D01*
X152316004Y-99221985D01*
X152327001Y-99110332D01*
X152327001Y-99110331D01*
X152330678Y-99072999D01*
X152327001Y-99035666D01*
X152327001Y-95477800D01*
X152814745Y-94990056D01*
X152808090Y-95132017D01*
X152849078Y-95404133D01*
X152942364Y-95663023D01*
X153004344Y-95778980D01*
X153244435Y-95845960D01*
X154030395Y-95060000D01*
X154016253Y-95045858D01*
X154195858Y-94866253D01*
X154210000Y-94880395D01*
X154224143Y-94866253D01*
X154403748Y-95045858D01*
G37*
X154403748Y-95045858D02*
X154389605Y-95060000D01*
X154403748Y-95074143D01*
X154224143Y-95253748D01*
X154210000Y-95239605D01*
X153424040Y-96025565D01*
X153491020Y-96265656D01*
X153626760Y-96329485D01*
X153548273Y-96361995D01*
X153319465Y-96514880D01*
X153124880Y-96709465D01*
X152971995Y-96938273D01*
X152866686Y-97192510D01*
X152813000Y-97462408D01*
X152813000Y-97737592D01*
X152866686Y-98007490D01*
X152971995Y-98261727D01*
X153124880Y-98490535D01*
X153319465Y-98685120D01*
X153548273Y-98838005D01*
X153625515Y-98870000D01*
X153548273Y-98901995D01*
X153319465Y-99054880D01*
X153124880Y-99249465D01*
X152971995Y-99478273D01*
X152866686Y-99732510D01*
X152813000Y-100002408D01*
X152813000Y-100277592D01*
X152866686Y-100547490D01*
X152971995Y-100801727D01*
X153124880Y-101030535D01*
X153319465Y-101225120D01*
X153548273Y-101378005D01*
X153625515Y-101410000D01*
X153548273Y-101441995D01*
X153319465Y-101594880D01*
X153124880Y-101789465D01*
X152971995Y-102018273D01*
X152866686Y-102272510D01*
X152813000Y-102542408D01*
X152813000Y-102817592D01*
X152866686Y-103087490D01*
X152971995Y-103341727D01*
X153124880Y-103570535D01*
X153319465Y-103765120D01*
X153548273Y-103918005D01*
X153625515Y-103950000D01*
X153548273Y-103981995D01*
X153319465Y-104134880D01*
X153124880Y-104329465D01*
X152971995Y-104558273D01*
X152866686Y-104812510D01*
X152813000Y-105082408D01*
X152813000Y-105357592D01*
X152843628Y-105511571D01*
X152612001Y-105743197D01*
X152582998Y-105767000D01*
X152555916Y-105800000D01*
X152488025Y-105882725D01*
X152462359Y-105930743D01*
X152417453Y-106014755D01*
X152373996Y-106158016D01*
X152362999Y-106269669D01*
X152362999Y-106269679D01*
X152359323Y-106307001D01*
X152362999Y-106344324D01*
X152363000Y-108610427D01*
X152359323Y-108647759D01*
X152363000Y-108685092D01*
X152368917Y-108745162D01*
X152373997Y-108796744D01*
X152417453Y-108940005D01*
X152488025Y-109072035D01*
X152543185Y-109139247D01*
X152582999Y-109187760D01*
X152611997Y-109211558D01*
X152758437Y-109357998D01*
X152782240Y-109387002D01*
X152897965Y-109481975D01*
X153029465Y-109552264D01*
X152971995Y-109638273D01*
X152866686Y-109892510D01*
X152813000Y-110162408D01*
X152813000Y-110437592D01*
X152866686Y-110707490D01*
X152971995Y-110961727D01*
X153124880Y-111190535D01*
X153319465Y-111385120D01*
X153548273Y-111538005D01*
X153625515Y-111570000D01*
X153548273Y-111601995D01*
X153319465Y-111754880D01*
X153124880Y-111949465D01*
X152971995Y-112178273D01*
X152866686Y-112432510D01*
X152813000Y-112702408D01*
X152813000Y-112977592D01*
X152866686Y-113247490D01*
X152971995Y-113501727D01*
X153124880Y-113730535D01*
X153319465Y-113925120D01*
X153548273Y-114078005D01*
X153625515Y-114110000D01*
X153548273Y-114141995D01*
X153319465Y-114294880D01*
X153124880Y-114489465D01*
X152971995Y-114718273D01*
X152866686Y-114972510D01*
X152813000Y-115242408D01*
X152813000Y-115517592D01*
X152866686Y-115787490D01*
X152971995Y-116041727D01*
X153124880Y-116270535D01*
X153319465Y-116465120D01*
X153548273Y-116618005D01*
X153625515Y-116650000D01*
X153548273Y-116681995D01*
X153319465Y-116834880D01*
X153124880Y-117029465D01*
X152971995Y-117258273D01*
X152866686Y-117512510D01*
X152813000Y-117782408D01*
X152813000Y-118057592D01*
X152866686Y-118327490D01*
X152971995Y-118581727D01*
X153124880Y-118810535D01*
X153319465Y-119005120D01*
X153548273Y-119158005D01*
X153625515Y-119190000D01*
X153548273Y-119221995D01*
X153319465Y-119374880D01*
X153124880Y-119569465D01*
X152971995Y-119798273D01*
X152866686Y-120052510D01*
X152813000Y-120322408D01*
X152813000Y-120597592D01*
X152866686Y-120867490D01*
X152971995Y-121121727D01*
X153124880Y-121350535D01*
X153319465Y-121545120D01*
X153548273Y-121698005D01*
X153625515Y-121730000D01*
X153548273Y-121761995D01*
X153319465Y-121914880D01*
X153124880Y-122109465D01*
X152971995Y-122338273D01*
X152866686Y-122592510D01*
X152813000Y-122862408D01*
X152813000Y-123137592D01*
X152866686Y-123407490D01*
X152971995Y-123661727D01*
X153124880Y-123890535D01*
X153319465Y-124085120D01*
X153548273Y-124238005D01*
X153625515Y-124270000D01*
X153548273Y-124301995D01*
X153319465Y-124454880D01*
X153124880Y-124649465D01*
X152971995Y-124878273D01*
X152866686Y-125132510D01*
X152813000Y-125402408D01*
X152813000Y-125677592D01*
X152850676Y-125867001D01*
X151861802Y-125867001D01*
X151846372Y-125851571D01*
X151877000Y-125697592D01*
X151877000Y-125422408D01*
X151823314Y-125152510D01*
X151718005Y-124898273D01*
X151565120Y-124669465D01*
X151370535Y-124474880D01*
X151141727Y-124321995D01*
X151064485Y-124290000D01*
X151141727Y-124258005D01*
X151370535Y-124105120D01*
X151565120Y-123910535D01*
X151718005Y-123681727D01*
X151823314Y-123427490D01*
X151877000Y-123157592D01*
X151877000Y-122882408D01*
X151823314Y-122612510D01*
X151718005Y-122358273D01*
X151565120Y-122129465D01*
X151370535Y-121934880D01*
X151141727Y-121781995D01*
X151064485Y-121750000D01*
X151141727Y-121718005D01*
X151370535Y-121565120D01*
X151565120Y-121370535D01*
X151718005Y-121141727D01*
X151823314Y-120887490D01*
X151877000Y-120617592D01*
X151877000Y-120342408D01*
X151823314Y-120072510D01*
X151718005Y-119818273D01*
X151565120Y-119589465D01*
X151370535Y-119394880D01*
X151141727Y-119241995D01*
X151064485Y-119210000D01*
X151141727Y-119178005D01*
X151370535Y-119025120D01*
X151565120Y-118830535D01*
X151718005Y-118601727D01*
X151823314Y-118347490D01*
X151877000Y-118077592D01*
X151877000Y-117802408D01*
X151823314Y-117532510D01*
X151718005Y-117278273D01*
X151565120Y-117049465D01*
X151370535Y-116854880D01*
X151141727Y-116701995D01*
X151064485Y-116670000D01*
X151141727Y-116638005D01*
X151370535Y-116485120D01*
X151565120Y-116290535D01*
X151718005Y-116061727D01*
X151823314Y-115807490D01*
X151877000Y-115537592D01*
X151877000Y-115262408D01*
X151823314Y-114992510D01*
X151718005Y-114738273D01*
X151565120Y-114509465D01*
X151370535Y-114314880D01*
X151141727Y-114161995D01*
X151064485Y-114130000D01*
X151141727Y-114098005D01*
X151370535Y-113945120D01*
X151565120Y-113750535D01*
X151718005Y-113521727D01*
X151823314Y-113267490D01*
X151877000Y-112997592D01*
X151877000Y-112722408D01*
X151823314Y-112452510D01*
X151718005Y-112198273D01*
X151565120Y-111969465D01*
X151370535Y-111774880D01*
X151141727Y-111621995D01*
X151064485Y-111590000D01*
X151141727Y-111558005D01*
X151370535Y-111405120D01*
X151565120Y-111210535D01*
X151718005Y-110981727D01*
X151823314Y-110727490D01*
X151877000Y-110457592D01*
X151877000Y-110182408D01*
X151823314Y-109912510D01*
X151718005Y-109658273D01*
X151565120Y-109429465D01*
X151370535Y-109234880D01*
X151141727Y-109081995D01*
X151064485Y-109050000D01*
X151141727Y-109018005D01*
X151370535Y-108865120D01*
X151565120Y-108670535D01*
X151718005Y-108441727D01*
X151823314Y-108187490D01*
X151877000Y-107917592D01*
X151877000Y-107642408D01*
X151823314Y-107372510D01*
X151718005Y-107118273D01*
X151565120Y-106889465D01*
X151370535Y-106694880D01*
X151141727Y-106541995D01*
X151064485Y-106510000D01*
X151141727Y-106478005D01*
X151370535Y-106325120D01*
X151565120Y-106130535D01*
X151718005Y-105901727D01*
X151823314Y-105647490D01*
X151877000Y-105377592D01*
X151877000Y-105102408D01*
X151823314Y-104832510D01*
X151718005Y-104578273D01*
X151565120Y-104349465D01*
X151370535Y-104154880D01*
X151141727Y-104001995D01*
X151064485Y-103970000D01*
X151141727Y-103938005D01*
X151370535Y-103785120D01*
X151565120Y-103590535D01*
X151718005Y-103361727D01*
X151823314Y-103107490D01*
X151877000Y-102837592D01*
X151877000Y-102562408D01*
X151823314Y-102292510D01*
X151718005Y-102038273D01*
X151565120Y-101809465D01*
X151370535Y-101614880D01*
X151141727Y-101461995D01*
X151064485Y-101430000D01*
X151141727Y-101398005D01*
X151370535Y-101245120D01*
X151565120Y-101050535D01*
X151718005Y-100821727D01*
X151823314Y-100567490D01*
X151877000Y-100297592D01*
X151877000Y-100022408D01*
X151846372Y-99868430D01*
X152078005Y-99636797D01*
X152107002Y-99613000D01*
X152201975Y-99497275D01*
X152272547Y-99365246D01*
X152316004Y-99221985D01*
X152327001Y-99110332D01*
X152327001Y-99110331D01*
X152330678Y-99072999D01*
X152327001Y-99035666D01*
X152327001Y-95477800D01*
X152814745Y-94990056D01*
X152808090Y-95132017D01*
X152849078Y-95404133D01*
X152942364Y-95663023D01*
X153004344Y-95778980D01*
X153244435Y-95845960D01*
X154030395Y-95060000D01*
X154016253Y-95045858D01*
X154195858Y-94866253D01*
X154210000Y-94880395D01*
X154224143Y-94866253D01*
X154403748Y-95045858D01*
G36*
X154987012Y-85988812D02*
G01*
X154987012Y-87374524D01*
X153360000Y-85747513D01*
X153360000Y-84361800D01*
X154987012Y-85988812D01*
G37*
X154987012Y-85988812D02*
X154987012Y-87374524D01*
X153360000Y-85747513D01*
X153360000Y-84361800D01*
X154987012Y-85988812D01*
G36*
X153717579Y-36265000D02*
G01*
X153676196Y-36265000D01*
X153379637Y-36323989D01*
X153100285Y-36439701D01*
X152848875Y-36607688D01*
X152635068Y-36821495D01*
X152539642Y-36964310D01*
X152391460Y-36915525D01*
X151506985Y-37800000D01*
X152391460Y-38684475D01*
X152539642Y-38635690D01*
X152635068Y-38778505D01*
X152848875Y-38992312D01*
X153067381Y-39138313D01*
X153067380Y-43857817D01*
X150885199Y-46040000D01*
X142237322Y-46040000D01*
X142199999Y-46036324D01*
X142162676Y-46040000D01*
X142162667Y-46040000D01*
X142051014Y-46050997D01*
X141907753Y-46094454D01*
X141775723Y-46165026D01*
X141712965Y-46216531D01*
X141659999Y-46259999D01*
X141636201Y-46288997D01*
X138189979Y-49735220D01*
X138189979Y-39084858D01*
X138302885Y-39160299D01*
X138582237Y-39276011D01*
X138878796Y-39335000D01*
X139179421Y-39335000D01*
X138929017Y-39709756D01*
X138707771Y-40243892D01*
X138594980Y-40810928D01*
X138594980Y-41389072D01*
X138707771Y-41956108D01*
X138929017Y-42490244D01*
X139250217Y-42970953D01*
X139659027Y-43379763D01*
X140139736Y-43700963D01*
X140673872Y-43922209D01*
X141240908Y-44035000D01*
X141819052Y-44035000D01*
X142386088Y-43922209D01*
X142920224Y-43700963D01*
X143400933Y-43379763D01*
X143809743Y-42970953D01*
X144130943Y-42490244D01*
X144352189Y-41956108D01*
X144464980Y-41389072D01*
X144464980Y-40810928D01*
X145892380Y-40810928D01*
X145892380Y-41389072D01*
X146005171Y-41956108D01*
X146226417Y-42490244D01*
X146547617Y-42970953D01*
X146956427Y-43379763D01*
X147437136Y-43700963D01*
X147971272Y-43922209D01*
X148538308Y-44035000D01*
X149116452Y-44035000D01*
X149683488Y-43922209D01*
X150217624Y-43700963D01*
X150698333Y-43379763D01*
X151107143Y-42970953D01*
X151428343Y-42490244D01*
X151649589Y-41956108D01*
X151762380Y-41389072D01*
X151762380Y-40810928D01*
X151649589Y-40243892D01*
X151428343Y-39709756D01*
X151173843Y-39328871D01*
X151393933Y-39340991D01*
X151693287Y-39298397D01*
X151978579Y-39198222D01*
X152128172Y-39118261D01*
X152211855Y-38864080D01*
X151327380Y-37979605D01*
X151313238Y-37993748D01*
X151133633Y-37814143D01*
X151147775Y-37800000D01*
X150263300Y-36915525D01*
X150009119Y-36999208D01*
X149878222Y-37271775D01*
X149803015Y-37564642D01*
X149786389Y-37866553D01*
X149828983Y-38165907D01*
X149899718Y-38367356D01*
X149683488Y-38277791D01*
X149116452Y-38165000D01*
X148538308Y-38165000D01*
X147971272Y-38277791D01*
X147437136Y-38499037D01*
X146956427Y-38820237D01*
X146547617Y-39229047D01*
X146226417Y-39709756D01*
X146005171Y-40243892D01*
X145892380Y-40810928D01*
X144464980Y-40810928D01*
X144352189Y-40243892D01*
X144130943Y-39709756D01*
X143809743Y-39229047D01*
X143400933Y-38820237D01*
X142920224Y-38499037D01*
X142386088Y-38277791D01*
X141819052Y-38165000D01*
X141240908Y-38165000D01*
X140955876Y-38221697D01*
X142441653Y-36735920D01*
X150442905Y-36735920D01*
X151327380Y-37620395D01*
X152211855Y-36735920D01*
X152128172Y-36481739D01*
X151855605Y-36350842D01*
X151562738Y-36275635D01*
X151260827Y-36259009D01*
X150961473Y-36301603D01*
X150676181Y-36401778D01*
X150526588Y-36481739D01*
X150442905Y-36735920D01*
X142441653Y-36735920D01*
X143217574Y-35960000D01*
X153412579Y-35960000D01*
X153717579Y-36265000D01*
G37*
X153717579Y-36265000D02*
X153676196Y-36265000D01*
X153379637Y-36323989D01*
X153100285Y-36439701D01*
X152848875Y-36607688D01*
X152635068Y-36821495D01*
X152539642Y-36964310D01*
X152391460Y-36915525D01*
X151506985Y-37800000D01*
X152391460Y-38684475D01*
X152539642Y-38635690D01*
X152635068Y-38778505D01*
X152848875Y-38992312D01*
X153067381Y-39138313D01*
X153067380Y-43857817D01*
X150885199Y-46040000D01*
X142237322Y-46040000D01*
X142199999Y-46036324D01*
X142162676Y-46040000D01*
X142162667Y-46040000D01*
X142051014Y-46050997D01*
X141907753Y-46094454D01*
X141775723Y-46165026D01*
X141712965Y-46216531D01*
X141659999Y-46259999D01*
X141636201Y-46288997D01*
X138189979Y-49735220D01*
X138189979Y-39084858D01*
X138302885Y-39160299D01*
X138582237Y-39276011D01*
X138878796Y-39335000D01*
X139179421Y-39335000D01*
X138929017Y-39709756D01*
X138707771Y-40243892D01*
X138594980Y-40810928D01*
X138594980Y-41389072D01*
X138707771Y-41956108D01*
X138929017Y-42490244D01*
X139250217Y-42970953D01*
X139659027Y-43379763D01*
X140139736Y-43700963D01*
X140673872Y-43922209D01*
X141240908Y-44035000D01*
X141819052Y-44035000D01*
X142386088Y-43922209D01*
X142920224Y-43700963D01*
X143400933Y-43379763D01*
X143809743Y-42970953D01*
X144130943Y-42490244D01*
X144352189Y-41956108D01*
X144464980Y-41389072D01*
X144464980Y-40810928D01*
X145892380Y-40810928D01*
X145892380Y-41389072D01*
X146005171Y-41956108D01*
X146226417Y-42490244D01*
X146547617Y-42970953D01*
X146956427Y-43379763D01*
X147437136Y-43700963D01*
X147971272Y-43922209D01*
X148538308Y-44035000D01*
X149116452Y-44035000D01*
X149683488Y-43922209D01*
X150217624Y-43700963D01*
X150698333Y-43379763D01*
X151107143Y-42970953D01*
X151428343Y-42490244D01*
X151649589Y-41956108D01*
X151762380Y-41389072D01*
X151762380Y-40810928D01*
X151649589Y-40243892D01*
X151428343Y-39709756D01*
X151173843Y-39328871D01*
X151393933Y-39340991D01*
X151693287Y-39298397D01*
X151978579Y-39198222D01*
X152128172Y-39118261D01*
X152211855Y-38864080D01*
X151327380Y-37979605D01*
X151313238Y-37993748D01*
X151133633Y-37814143D01*
X151147775Y-37800000D01*
X150263300Y-36915525D01*
X150009119Y-36999208D01*
X149878222Y-37271775D01*
X149803015Y-37564642D01*
X149786389Y-37866553D01*
X149828983Y-38165907D01*
X149899718Y-38367356D01*
X149683488Y-38277791D01*
X149116452Y-38165000D01*
X148538308Y-38165000D01*
X147971272Y-38277791D01*
X147437136Y-38499037D01*
X146956427Y-38820237D01*
X146547617Y-39229047D01*
X146226417Y-39709756D01*
X146005171Y-40243892D01*
X145892380Y-40810928D01*
X144464980Y-40810928D01*
X144352189Y-40243892D01*
X144130943Y-39709756D01*
X143809743Y-39229047D01*
X143400933Y-38820237D01*
X142920224Y-38499037D01*
X142386088Y-38277791D01*
X141819052Y-38165000D01*
X141240908Y-38165000D01*
X140955876Y-38221697D01*
X142441653Y-36735920D01*
X150442905Y-36735920D01*
X151327380Y-37620395D01*
X152211855Y-36735920D01*
X152128172Y-36481739D01*
X151855605Y-36350842D01*
X151562738Y-36275635D01*
X151260827Y-36259009D01*
X150961473Y-36301603D01*
X150676181Y-36401778D01*
X150526588Y-36481739D01*
X150442905Y-36735920D01*
X142441653Y-36735920D01*
X143217574Y-35960000D01*
X153412579Y-35960000D01*
X153717579Y-36265000D01*
G36*
X136420179Y-36265000D02*
G01*
X136378796Y-36265000D01*
X136082237Y-36323989D01*
X135802885Y-36439701D01*
X135551475Y-36607688D01*
X135337668Y-36821495D01*
X135242242Y-36964310D01*
X135094060Y-36915525D01*
X134209585Y-37800000D01*
X135094060Y-38684475D01*
X135242242Y-38635690D01*
X135337668Y-38778505D01*
X135551475Y-38992312D01*
X135802885Y-39160299D01*
X136082237Y-39276011D01*
X136378796Y-39335000D01*
X136669980Y-39335000D01*
X136669980Y-41178199D01*
X134686928Y-39195149D01*
X134830772Y-39118261D01*
X134914455Y-38864080D01*
X134029980Y-37979605D01*
X134015838Y-37993748D01*
X133836233Y-37814143D01*
X133850375Y-37800000D01*
X133836233Y-37785858D01*
X134015838Y-37606253D01*
X134029980Y-37620395D01*
X134914455Y-36735920D01*
X134830772Y-36481739D01*
X134558205Y-36350842D01*
X134265338Y-36275635D01*
X133963427Y-36259009D01*
X133664073Y-36301603D01*
X133564979Y-36336398D01*
X133564979Y-35681084D01*
X135836263Y-35681084D01*
X136420179Y-36265000D01*
G37*
X136420179Y-36265000D02*
X136378796Y-36265000D01*
X136082237Y-36323989D01*
X135802885Y-36439701D01*
X135551475Y-36607688D01*
X135337668Y-36821495D01*
X135242242Y-36964310D01*
X135094060Y-36915525D01*
X134209585Y-37800000D01*
X135094060Y-38684475D01*
X135242242Y-38635690D01*
X135337668Y-38778505D01*
X135551475Y-38992312D01*
X135802885Y-39160299D01*
X136082237Y-39276011D01*
X136378796Y-39335000D01*
X136669980Y-39335000D01*
X136669980Y-41178199D01*
X134686928Y-39195149D01*
X134830772Y-39118261D01*
X134914455Y-38864080D01*
X134029980Y-37979605D01*
X134015838Y-37993748D01*
X133836233Y-37814143D01*
X133850375Y-37800000D01*
X133836233Y-37785858D01*
X134015838Y-37606253D01*
X134029980Y-37620395D01*
X134914455Y-36735920D01*
X134830772Y-36481739D01*
X134558205Y-36350842D01*
X134265338Y-36275635D01*
X133963427Y-36259009D01*
X133664073Y-36301603D01*
X133564979Y-36336398D01*
X133564979Y-35681084D01*
X135836263Y-35681084D01*
X136420179Y-36265000D01*
M02*
