G04 #@! TF.GenerationSoftware,KiCad,Pcbnew,(5.1.5)-2*
G04 #@! TF.CreationDate,2020-04-13T19:32:36+02:00*
G04 #@! TF.ProjectId,LightBoxNano,4c696768-7442-46f7-984e-616e6f2e6b69,rev?*
G04 #@! TF.SameCoordinates,Original*
G04 #@! TF.FileFunction,Copper,L1,Top*
G04 #@! TF.FilePolarity,Positive*
%FSLAX46Y46*%
G04 Gerber Fmt 4.6, Leading zero omitted, Abs format (unit mm)*
G04 Created by KiCad (PCBNEW (5.1.5)-2) date 2020-04-13 19:32:36*
%MOMM*%
%LPD*%
G04 APERTURE LIST*
%ADD10R,0.900000X1.200000*%
%ADD11R,0.700000X0.600000*%
%ADD12C,1.524000*%
%ADD13R,1.700000X1.700000*%
%ADD14O,1.700000X1.700000*%
%ADD15C,2.500000*%
%ADD16C,3.000000*%
%ADD17R,1.100000X4.600000*%
%ADD18R,10.800000X9.400000*%
%ADD19R,5.250000X4.550000*%
%ADD20R,1.500000X0.600000*%
%ADD21C,1.600000*%
%ADD22C,1.800000*%
%ADD23C,4.600000*%
%ADD24C,0.100000*%
%ADD25R,0.900000X0.800000*%
%ADD26R,3.825000X12.320000*%
%ADD27O,5.000000X2.000000*%
%ADD28O,2.000000X5.000000*%
%ADD29R,3.500000X2.000000*%
%ADD30R,7.000000X7.000000*%
%ADD31R,4.000000X2.500000*%
%ADD32R,2.000000X1.600000*%
%ADD33R,2.500000X4.000000*%
%ADD34R,0.750000X1.200000*%
%ADD35C,6.400000*%
%ADD36R,2.030000X2.650000*%
%ADD37R,1.200000X0.900000*%
%ADD38R,0.800000X4.600000*%
%ADD39C,0.800000*%
%ADD40C,0.750000*%
%ADD41C,0.250000*%
%ADD42C,1.000000*%
G04 APERTURE END LIST*
D10*
X144145000Y-95080000D03*
X144145000Y-92880000D03*
X144780000Y-108755000D03*
X144780000Y-110955000D03*
D11*
X187960000Y-90870000D03*
X187960000Y-89470000D03*
D12*
X101600000Y-53340000D03*
X101600000Y-68580000D03*
X101600000Y-66040000D03*
X101600000Y-63500000D03*
X101600000Y-60960000D03*
X101600000Y-58420000D03*
X101600000Y-55880000D03*
X104140000Y-53340000D03*
X104140000Y-68580000D03*
X104140000Y-66040000D03*
X104140000Y-63500000D03*
X104140000Y-60960000D03*
X104140000Y-58420000D03*
X104140000Y-55880000D03*
X99060000Y-71120000D03*
X99060000Y-60960000D03*
X99060000Y-63500000D03*
X99060000Y-66040000D03*
X99060000Y-68580000D03*
X96520000Y-71120000D03*
X96520000Y-60960000D03*
X96520000Y-63500000D03*
X96520000Y-66040000D03*
X96520000Y-68580000D03*
X93980000Y-71120000D03*
X93980000Y-60960000D03*
X93980000Y-63500000D03*
X93980000Y-66040000D03*
X93980000Y-68580000D03*
X91440000Y-71120000D03*
X91440000Y-58420000D03*
X91440000Y-68580000D03*
X91440000Y-66040000D03*
X91440000Y-63500000D03*
X91440000Y-60960000D03*
X93980000Y-58420000D03*
X96520000Y-58420000D03*
X99060000Y-58420000D03*
X99060000Y-55880000D03*
X99060000Y-53340000D03*
X106680000Y-53340000D03*
X106680000Y-55880000D03*
X106680000Y-58420000D03*
X106680000Y-60960000D03*
X106680000Y-63500000D03*
X106680000Y-66040000D03*
X106680000Y-68580000D03*
X109220000Y-68580000D03*
X109220000Y-66040000D03*
X109220000Y-63500000D03*
X109220000Y-60960000D03*
X109220000Y-58420000D03*
X109220000Y-55880000D03*
X109220000Y-53340000D03*
X106680000Y-50800000D03*
X104140000Y-50800000D03*
X101600000Y-50800000D03*
X101600000Y-71120000D03*
X104140000Y-71120000D03*
X106680000Y-71120000D03*
X99060000Y-50800000D03*
X111760000Y-71120000D03*
X111760000Y-68580000D03*
X111760000Y-66040000D03*
X111760000Y-63500000D03*
X111760000Y-60960000D03*
X111760000Y-58420000D03*
X111760000Y-55880000D03*
X111760000Y-50800000D03*
X111760000Y-53340000D03*
X109220000Y-71120000D03*
X109220000Y-50800000D03*
X111760000Y-50800000D03*
D13*
X144145000Y-100965000D03*
D14*
X144145000Y-98425000D03*
D15*
X107264180Y-88759240D03*
D16*
X107264180Y-84949240D03*
X107264180Y-92569240D03*
D15*
X102184180Y-88759240D03*
X96426160Y-122693720D03*
D16*
X102781160Y-110633720D03*
X102146160Y-118253720D03*
D15*
X106596160Y-114443720D03*
D17*
X153600000Y-70625000D03*
X151900000Y-70625000D03*
X150200000Y-70625000D03*
X148500000Y-70625000D03*
X146800000Y-70625000D03*
D18*
X150200000Y-79775000D03*
D19*
X147425000Y-82200000D03*
X152975000Y-77350000D03*
X152975000Y-82200000D03*
X147425000Y-77350000D03*
D20*
X129199220Y-130527420D03*
X129199220Y-129257420D03*
X129199220Y-127987420D03*
X129199220Y-126717420D03*
X129199220Y-125447420D03*
X129199220Y-124177420D03*
X129199220Y-122907420D03*
X129199220Y-121637420D03*
X119899220Y-121637420D03*
X119899220Y-122907420D03*
X119899220Y-124177420D03*
X119899220Y-125447420D03*
X119899220Y-126717420D03*
X119899220Y-127987420D03*
X119899220Y-129257420D03*
X119899220Y-130527420D03*
D21*
X117930000Y-40540000D03*
X123010000Y-38000000D03*
X120470000Y-38000000D03*
X117930000Y-38000000D03*
X115390000Y-38000000D03*
D10*
X180329880Y-101523900D03*
X180329880Y-103723900D03*
X177789880Y-103723900D03*
X177789880Y-101523900D03*
D22*
X134029980Y-37800000D03*
X136529980Y-37800000D03*
X139029980Y-37800000D03*
D23*
X131529980Y-41100000D03*
X141529980Y-41100000D03*
D22*
X151327380Y-37800000D03*
X153827380Y-37800000D03*
X156327380Y-37800000D03*
D23*
X148827380Y-41100000D03*
X158827380Y-41100000D03*
D10*
X180329880Y-116950000D03*
X180329880Y-119150000D03*
X177789880Y-119133900D03*
X177789880Y-116933900D03*
X180329880Y-111683900D03*
X180329880Y-113883900D03*
X177789880Y-113883900D03*
X177789880Y-111683900D03*
G04 #@! TA.AperFunction,SMDPad,CuDef*
D24*
G36*
X141850000Y-141150000D02*
G01*
X143250000Y-141150000D01*
X143050000Y-141750000D01*
X142050000Y-141750000D01*
X141850000Y-141150000D01*
G37*
G04 #@! TD.AperFunction*
G04 #@! TA.AperFunction,SMDPad,CuDef*
G36*
X143250000Y-140750000D02*
G01*
X141850000Y-140750000D01*
X142050000Y-140150000D01*
X143050000Y-140150000D01*
X143250000Y-140750000D01*
G37*
G04 #@! TD.AperFunction*
G04 #@! TA.AperFunction,SMDPad,CuDef*
G36*
X143300000Y-138400000D02*
G01*
X141900000Y-138400000D01*
X142100000Y-137800000D01*
X143100000Y-137800000D01*
X143300000Y-138400000D01*
G37*
G04 #@! TD.AperFunction*
G04 #@! TA.AperFunction,SMDPad,CuDef*
G36*
X141900000Y-138800000D02*
G01*
X143300000Y-138800000D01*
X143100000Y-139400000D01*
X142100000Y-139400000D01*
X141900000Y-138800000D01*
G37*
G04 #@! TD.AperFunction*
D10*
X180329880Y-106603900D03*
X180329880Y-108803900D03*
X177789880Y-108803900D03*
X177789880Y-106603900D03*
X186055000Y-88435000D03*
X186055000Y-90635000D03*
X112800000Y-109100000D03*
X112800000Y-111300000D03*
X122993180Y-61702980D03*
X122993180Y-59502980D03*
X120427780Y-61702980D03*
X120427780Y-59502980D03*
X117913180Y-61702980D03*
X117913180Y-59502980D03*
X115296980Y-61702980D03*
X115296980Y-59502980D03*
D25*
X183350000Y-101700000D03*
X183350000Y-103600000D03*
X185350000Y-102650000D03*
X187100000Y-101700000D03*
X187100000Y-103600000D03*
X189100000Y-102650000D03*
X183350000Y-116950000D03*
X183350000Y-118850000D03*
X185350000Y-117900000D03*
X187350000Y-116950000D03*
X187350000Y-118850000D03*
X189350000Y-117900000D03*
X183350000Y-111833900D03*
X183350000Y-113733900D03*
X185350000Y-112783900D03*
X187100000Y-111950000D03*
X187100000Y-113850000D03*
X189100000Y-112900000D03*
X183350000Y-106700000D03*
X183350000Y-108600000D03*
X185350000Y-107650000D03*
X187100000Y-106700000D03*
X187100000Y-108600000D03*
X189100000Y-107650000D03*
D12*
X165720000Y-112860000D03*
X150480000Y-133180000D03*
X150480000Y-130640000D03*
X150480000Y-128100000D03*
X150480000Y-125560000D03*
X150480000Y-123020000D03*
X150480000Y-120480000D03*
X150480000Y-117940000D03*
X150480000Y-115400000D03*
X150480000Y-112860000D03*
X150480000Y-110320000D03*
X150480000Y-107780000D03*
X150480000Y-105240000D03*
X150480000Y-102700000D03*
X150480000Y-100160000D03*
X150480000Y-97620000D03*
X165720000Y-97620000D03*
X165720000Y-100160000D03*
X165720000Y-102700000D03*
X165720000Y-105240000D03*
X165720000Y-107780000D03*
X165720000Y-110320000D03*
X165720000Y-115400000D03*
X165720000Y-117940000D03*
X165720000Y-120480000D03*
X165720000Y-123020000D03*
X165720000Y-125560000D03*
X165720000Y-128100000D03*
X165720000Y-130640000D03*
X165720000Y-133180000D03*
X154210000Y-105220000D03*
X154210000Y-100140000D03*
X154210000Y-92520000D03*
X154210000Y-115380000D03*
X154210000Y-102680000D03*
X154210000Y-107760000D03*
X154210000Y-97600000D03*
X154210000Y-95060000D03*
X154210000Y-110300000D03*
X154210000Y-123000000D03*
X154210000Y-117920000D03*
X154210000Y-140780000D03*
X154210000Y-138240000D03*
X154210000Y-135700000D03*
X154210000Y-112840000D03*
X154210000Y-128080000D03*
X154210000Y-133160000D03*
X154210000Y-125540000D03*
X154210000Y-130620000D03*
X154210000Y-120460000D03*
X171990000Y-97600000D03*
X171990000Y-95060000D03*
X171990000Y-92520000D03*
X171990000Y-110300000D03*
X171990000Y-102680000D03*
X171990000Y-107760000D03*
X171990000Y-100140000D03*
X171990000Y-105220000D03*
X171990000Y-123000000D03*
X171990000Y-115380000D03*
X171990000Y-120460000D03*
X171990000Y-112840000D03*
X171990000Y-117920000D03*
X171990000Y-130620000D03*
X171990000Y-125540000D03*
X171990000Y-133160000D03*
X171990000Y-128080000D03*
X171990000Y-135700000D03*
X171990000Y-138240000D03*
X171990000Y-140780000D03*
G04 #@! TA.AperFunction,SMDPad,CuDef*
D24*
G36*
X111300000Y-94600000D02*
G01*
X112700000Y-94600000D01*
X112500000Y-95200000D01*
X111500000Y-95200000D01*
X111300000Y-94600000D01*
G37*
G04 #@! TD.AperFunction*
G04 #@! TA.AperFunction,SMDPad,CuDef*
G36*
X112700000Y-94200000D02*
G01*
X111300000Y-94200000D01*
X111500000Y-93600000D01*
X112500000Y-93600000D01*
X112700000Y-94200000D01*
G37*
G04 #@! TD.AperFunction*
G04 #@! TA.AperFunction,SMDPad,CuDef*
G36*
X111300000Y-97900000D02*
G01*
X112700000Y-97900000D01*
X112500000Y-98500000D01*
X111500000Y-98500000D01*
X111300000Y-97900000D01*
G37*
G04 #@! TD.AperFunction*
G04 #@! TA.AperFunction,SMDPad,CuDef*
G36*
X112700000Y-97500000D02*
G01*
X111300000Y-97500000D01*
X111500000Y-96900000D01*
X112500000Y-96900000D01*
X112700000Y-97500000D01*
G37*
G04 #@! TD.AperFunction*
G04 #@! TA.AperFunction,SMDPad,CuDef*
G36*
X111300000Y-101600000D02*
G01*
X112700000Y-101600000D01*
X112500000Y-102200000D01*
X111500000Y-102200000D01*
X111300000Y-101600000D01*
G37*
G04 #@! TD.AperFunction*
G04 #@! TA.AperFunction,SMDPad,CuDef*
G36*
X112700000Y-101200000D02*
G01*
X111300000Y-101200000D01*
X111500000Y-100600000D01*
X112500000Y-100600000D01*
X112700000Y-101200000D01*
G37*
G04 #@! TD.AperFunction*
G04 #@! TA.AperFunction,SMDPad,CuDef*
G36*
X112700000Y-90000000D02*
G01*
X111300000Y-90000000D01*
X111500000Y-89400000D01*
X112500000Y-89400000D01*
X112700000Y-90000000D01*
G37*
G04 #@! TD.AperFunction*
G04 #@! TA.AperFunction,SMDPad,CuDef*
G36*
X111300000Y-90400000D02*
G01*
X112700000Y-90400000D01*
X112500000Y-91000000D01*
X111500000Y-91000000D01*
X111300000Y-90400000D01*
G37*
G04 #@! TD.AperFunction*
D26*
X132880000Y-57000000D03*
X149120000Y-57000000D03*
D13*
X161400000Y-83400000D03*
D14*
X163940000Y-83400000D03*
X166480000Y-83400000D03*
D15*
X194800000Y-102280000D03*
X194800000Y-112440000D03*
X194800000Y-122600000D03*
X194800000Y-117520000D03*
X194800000Y-107360000D03*
X194800000Y-65520000D03*
X194800000Y-70600000D03*
D27*
X194000000Y-51400000D03*
D28*
X197100000Y-56200000D03*
X190900000Y-56200000D03*
D15*
X194800000Y-81040000D03*
X194800000Y-91200000D03*
X194800000Y-86120000D03*
D13*
X139050000Y-130900000D03*
D14*
X139050000Y-128360000D03*
X139050000Y-125820000D03*
X139050000Y-123280000D03*
D13*
X137600000Y-85000000D03*
D14*
X135060000Y-85000000D03*
G04 #@! TA.AperFunction,SMDPad,CuDef*
D24*
G36*
X139600000Y-113800000D02*
G01*
X138200000Y-113800000D01*
X138400000Y-113200000D01*
X139400000Y-113200000D01*
X139600000Y-113800000D01*
G37*
G04 #@! TD.AperFunction*
G04 #@! TA.AperFunction,SMDPad,CuDef*
G36*
X138200000Y-114200000D02*
G01*
X139600000Y-114200000D01*
X139400000Y-114800000D01*
X138400000Y-114800000D01*
X138200000Y-114200000D01*
G37*
G04 #@! TD.AperFunction*
G04 #@! TA.AperFunction,SMDPad,CuDef*
G36*
X138200000Y-111847600D02*
G01*
X139600000Y-111847600D01*
X139400000Y-112447600D01*
X138400000Y-112447600D01*
X138200000Y-111847600D01*
G37*
G04 #@! TD.AperFunction*
G04 #@! TA.AperFunction,SMDPad,CuDef*
G36*
X139600000Y-111447600D02*
G01*
X138200000Y-111447600D01*
X138400000Y-110847600D01*
X139400000Y-110847600D01*
X139600000Y-111447600D01*
G37*
G04 #@! TD.AperFunction*
D29*
X155425000Y-52700000D03*
X155425000Y-57280000D03*
D30*
X162825000Y-55000000D03*
D31*
X185600000Y-61800000D03*
X177600000Y-61800000D03*
D32*
X133166560Y-71613760D03*
X137166560Y-71613760D03*
D33*
X160800000Y-69250000D03*
X160800000Y-63150000D03*
D34*
X133550000Y-131439360D03*
X133550000Y-129539360D03*
X131550000Y-131454560D03*
X131550000Y-129554560D03*
X133550000Y-122600000D03*
X133550000Y-120700000D03*
X131550000Y-122600000D03*
X131550000Y-120700000D03*
X117582000Y-131550000D03*
X117582000Y-129650000D03*
X115550000Y-131600000D03*
X115550000Y-129700000D03*
X117550000Y-122600000D03*
X117550000Y-120700000D03*
X115550000Y-122600000D03*
X115550000Y-120700000D03*
D35*
X93980000Y-53340000D03*
X116400000Y-139000000D03*
X173630000Y-38980000D03*
X178400000Y-126600000D03*
D36*
X188200000Y-81890000D03*
X188200000Y-77710000D03*
D37*
X135100000Y-76800000D03*
X132900000Y-76800000D03*
D38*
X174190000Y-83775000D03*
X175460000Y-83775000D03*
X176730000Y-83775000D03*
X178000000Y-83775000D03*
X179270000Y-83775000D03*
X180540000Y-83775000D03*
X181810000Y-83775000D03*
D18*
X178000000Y-74625000D03*
D19*
X180775000Y-72200000D03*
X175225000Y-77050000D03*
X175225000Y-72200000D03*
X180775000Y-77050000D03*
D10*
X144780000Y-106510000D03*
X144780000Y-104310000D03*
D37*
X137000000Y-76800000D03*
X139200000Y-76800000D03*
G04 #@! TA.AperFunction,SMDPad,CuDef*
D24*
G36*
X172700000Y-89400000D02*
G01*
X171300000Y-89400000D01*
X171500000Y-88800000D01*
X172500000Y-88800000D01*
X172700000Y-89400000D01*
G37*
G04 #@! TD.AperFunction*
G04 #@! TA.AperFunction,SMDPad,CuDef*
G36*
X171300000Y-89800000D02*
G01*
X172700000Y-89800000D01*
X172500000Y-90400000D01*
X171500000Y-90400000D01*
X171300000Y-89800000D01*
G37*
G04 #@! TD.AperFunction*
D39*
X147000000Y-134800000D03*
X172000000Y-68200000D03*
X121600000Y-63000000D03*
X187000000Y-105400000D03*
X187000000Y-110400000D03*
X187000000Y-115600000D03*
X187000000Y-120000000D03*
X155000000Y-86000000D03*
X157600000Y-76200000D03*
X132715000Y-46990000D03*
X138800000Y-117600000D03*
X154572001Y-88600000D03*
X136000000Y-123200000D03*
X136000000Y-131364360D03*
X113200000Y-131600000D03*
X112800000Y-120800000D03*
X114000000Y-98400000D03*
X144000000Y-134800000D03*
X111200000Y-92000000D03*
X112000000Y-103800000D03*
X115600000Y-124200000D03*
X110800000Y-123200000D03*
X109400000Y-96200000D03*
X104400000Y-100000000D03*
X116600000Y-102200000D03*
X117600000Y-124200000D03*
X168325000Y-119400000D03*
X178800000Y-90200000D03*
X172400000Y-85200000D03*
X183800000Y-85200000D03*
X142875000Y-112395000D03*
X177200000Y-89400000D03*
X158200000Y-97200000D03*
X172400000Y-87000000D03*
X157400000Y-95800000D03*
D40*
X183350000Y-103600000D02*
X183400000Y-103600000D01*
X187050000Y-103600000D02*
X187100000Y-103600000D01*
X180453780Y-103600000D02*
X180329880Y-103723900D01*
X187050000Y-108600000D02*
X187100000Y-108600000D01*
X183350000Y-113733900D02*
X183350000Y-113750000D01*
D41*
X183226100Y-103723900D02*
X183350000Y-103600000D01*
X180329880Y-103723900D02*
X183226100Y-103723900D01*
X183146100Y-108803900D02*
X183350000Y-108600000D01*
X180329880Y-108803900D02*
X183146100Y-108803900D01*
X183200000Y-113883900D02*
X183350000Y-113733900D01*
X180329880Y-113883900D02*
X183200000Y-113883900D01*
X183050000Y-119150000D02*
X183350000Y-118850000D01*
X180329880Y-119150000D02*
X183050000Y-119150000D01*
X129576360Y-131454560D02*
X130925000Y-131454560D01*
X130925000Y-131454560D02*
X131550000Y-131454560D01*
X129199220Y-131077420D02*
X129576360Y-131454560D01*
X129199220Y-130527420D02*
X129199220Y-131077420D01*
X133534800Y-131454560D02*
X133550000Y-131439360D01*
X131550000Y-131454560D02*
X133534800Y-131454560D01*
X130925000Y-120700000D02*
X131550000Y-120700000D01*
X129586640Y-120700000D02*
X130925000Y-120700000D01*
X129199220Y-121087420D02*
X129586640Y-120700000D01*
X129199220Y-121637420D02*
X129199220Y-121087420D01*
X131550000Y-120700000D02*
X133550000Y-120700000D01*
D40*
X160800000Y-57025000D02*
X162825000Y-55000000D01*
X160800000Y-63150000D02*
X160800000Y-57025000D01*
X137600000Y-85000000D02*
X137600000Y-82600000D01*
X139200000Y-81000000D02*
X139200000Y-76800000D01*
X137600000Y-82600000D02*
X139200000Y-81000000D01*
X139200000Y-73647200D02*
X137166560Y-71613760D01*
X139200000Y-76800000D02*
X139200000Y-73647200D01*
X145600000Y-77350000D02*
X147425000Y-77350000D01*
X145050000Y-76800000D02*
X145600000Y-77350000D01*
X139200000Y-76800000D02*
X145050000Y-76800000D01*
X177600000Y-59800000D02*
X177600000Y-61800000D01*
X172800000Y-55000000D02*
X177600000Y-59800000D01*
X162825000Y-55000000D02*
X172800000Y-55000000D01*
D41*
X141950000Y-141450000D02*
X140500000Y-140000000D01*
X142550000Y-141450000D02*
X141950000Y-141450000D01*
X140500000Y-140000000D02*
X137800000Y-140000000D01*
X133550000Y-135750000D02*
X133550000Y-131439360D01*
X137800000Y-140000000D02*
X133550000Y-135750000D01*
X144016410Y-141450000D02*
X147000000Y-138466410D01*
X142550000Y-141450000D02*
X144016410Y-141450000D01*
X147000000Y-138466410D02*
X147000000Y-134800000D01*
D40*
X172000000Y-63800000D02*
X174000000Y-61800000D01*
X174000000Y-61800000D02*
X177600000Y-61800000D01*
X172000000Y-68200000D02*
X172000000Y-63800000D01*
X150200000Y-73675000D02*
X150200000Y-79775000D01*
X150200000Y-70625000D02*
X150200000Y-73675000D01*
D41*
X115996980Y-61702980D02*
X117913180Y-61702980D01*
X115296980Y-61702980D02*
X115996980Y-61702980D01*
X117913180Y-61702980D02*
X120427780Y-61702980D01*
X121127780Y-61702980D02*
X122993180Y-61702980D01*
X120427780Y-61702980D02*
X121127780Y-61702980D01*
X122993180Y-61702980D02*
X122897020Y-61702980D01*
X122897020Y-61702980D02*
X121600000Y-63000000D01*
D42*
X187000000Y-103700000D02*
X187100000Y-103600000D01*
X187000000Y-105400000D02*
X187000000Y-103700000D01*
X187000000Y-108700000D02*
X187100000Y-108600000D01*
X187000000Y-110400000D02*
X187000000Y-108700000D01*
X187000000Y-113950000D02*
X187100000Y-113850000D01*
X187000000Y-115600000D02*
X187000000Y-113950000D01*
X187000000Y-119200000D02*
X187350000Y-118850000D01*
X187000000Y-120000000D02*
X187000000Y-119200000D01*
X184500000Y-120000000D02*
X183350000Y-118850000D01*
X187000000Y-120000000D02*
X184500000Y-120000000D01*
X185216100Y-115600000D02*
X183350000Y-113733900D01*
X187000000Y-115600000D02*
X185216100Y-115600000D01*
X185150000Y-110400000D02*
X183350000Y-108600000D01*
X187000000Y-110400000D02*
X185150000Y-110400000D01*
X185150000Y-105400000D02*
X183350000Y-103600000D01*
X187000000Y-105400000D02*
X185150000Y-105400000D01*
D41*
X152975000Y-83975000D02*
X152975000Y-82550000D01*
X152975000Y-82550000D02*
X150200000Y-79775000D01*
X155000000Y-86000000D02*
X152975000Y-83975000D01*
X138416560Y-71613760D02*
X138430320Y-71600000D01*
X137166560Y-71613760D02*
X138416560Y-71613760D01*
X134029980Y-37800000D02*
X136908896Y-34921084D01*
X148448464Y-34921084D02*
X151327380Y-37800000D01*
X136908896Y-34921084D02*
X148448464Y-34921084D01*
X162825000Y-51250000D02*
X162825000Y-55000000D01*
X146947499Y-50514999D02*
X162089999Y-50514999D01*
X146882499Y-50579999D02*
X146947499Y-50514999D01*
X162089999Y-50514999D02*
X162825000Y-51250000D01*
X146882499Y-64757499D02*
X146882499Y-50579999D01*
X150200000Y-68075000D02*
X146882499Y-64757499D01*
X150200000Y-70625000D02*
X150200000Y-68075000D01*
X162825000Y-49297620D02*
X162825000Y-55000000D01*
X151327380Y-37800000D02*
X162825000Y-49297620D01*
D40*
X156000000Y-83400000D02*
X152375000Y-79775000D01*
X152375000Y-79775000D02*
X150200000Y-79775000D01*
X161400000Y-83400000D02*
X156000000Y-83400000D01*
X157600000Y-78525000D02*
X157600000Y-76200000D01*
X150200000Y-79775000D02*
X156350000Y-79775000D01*
X156350000Y-79775000D02*
X157600000Y-78525000D01*
D41*
X140335000Y-91440000D02*
X138900000Y-92875000D01*
X154210000Y-95060000D02*
X150590000Y-91440000D01*
X150590000Y-91440000D02*
X140335000Y-91440000D01*
X138900000Y-92875000D02*
X138900000Y-111147600D01*
X138900000Y-109690000D02*
X138900000Y-111147600D01*
X134175000Y-120700000D02*
X137400000Y-117475000D01*
X133550000Y-120700000D02*
X134175000Y-120700000D01*
X137400000Y-117475000D02*
X137400000Y-110250000D01*
X137400000Y-110250000D02*
X137795000Y-109855000D01*
X137795000Y-109855000D02*
X138900000Y-109690000D01*
X138900000Y-106210000D02*
X138900000Y-111147600D01*
X140970000Y-104140000D02*
X138900000Y-106210000D01*
X144780000Y-104310000D02*
X144780000Y-104140000D01*
X144780000Y-104140000D02*
X140970000Y-104140000D01*
X188290000Y-91200000D02*
X187960000Y-90870000D01*
X194800000Y-91200000D02*
X188290000Y-91200000D01*
X190940000Y-95060000D02*
X194800000Y-91200000D01*
X171990000Y-95060000D02*
X190940000Y-95060000D01*
D40*
X178000000Y-83775000D02*
X178000000Y-74625000D01*
X180175000Y-74625000D02*
X178000000Y-74625000D01*
X183260000Y-77710000D02*
X180175000Y-74625000D01*
X159425000Y-70625000D02*
X160800000Y-69250000D01*
X153600000Y-70625000D02*
X159425000Y-70625000D01*
X172000000Y-89100000D02*
X172000000Y-88200000D01*
X178000000Y-86825000D02*
X178000000Y-83775000D01*
X176625000Y-88200000D02*
X178000000Y-86825000D01*
X172000000Y-88200000D02*
X176625000Y-88200000D01*
D42*
X163940000Y-83400000D02*
X163940000Y-76460000D01*
X165775000Y-74625000D02*
X178000000Y-74625000D01*
X163940000Y-76460000D02*
X165775000Y-74625000D01*
X163940000Y-75390000D02*
X163940000Y-76460000D01*
X160800000Y-72250000D02*
X163940000Y-75390000D01*
X160800000Y-69250000D02*
X160800000Y-72250000D01*
X188200000Y-75385000D02*
X188200000Y-77710000D01*
X187440000Y-74625000D02*
X188200000Y-75385000D01*
X178000000Y-74625000D02*
X187440000Y-74625000D01*
X190775000Y-74625000D02*
X194800000Y-70600000D01*
X178000000Y-74625000D02*
X190775000Y-74625000D01*
X193032234Y-70600000D02*
X189600000Y-67167766D01*
X194800000Y-70600000D02*
X193032234Y-70600000D01*
X188600000Y-61800000D02*
X185600000Y-61800000D01*
X189600000Y-62800000D02*
X188600000Y-61800000D01*
X189600000Y-67167766D02*
X189600000Y-62800000D01*
X188800000Y-61800000D02*
X188600000Y-61800000D01*
X190900000Y-59700000D02*
X188800000Y-61800000D01*
X190900000Y-56200000D02*
X190900000Y-59700000D01*
D41*
X132900000Y-71880320D02*
X133166560Y-71613760D01*
D40*
X147810001Y-67749999D02*
X133450001Y-67749999D01*
X148500000Y-70625000D02*
X148500000Y-68439998D01*
X148500000Y-68439998D02*
X147810001Y-67749999D01*
X132880000Y-67179998D02*
X132880000Y-57000000D01*
X133450001Y-67749999D02*
X132880000Y-67179998D01*
X133166560Y-57286560D02*
X132880000Y-57000000D01*
X133166560Y-76533440D02*
X132900000Y-76800000D01*
X133166560Y-71613760D02*
X133166560Y-76533440D01*
X132900000Y-82840000D02*
X135060000Y-85000000D01*
X132900000Y-76800000D02*
X132900000Y-82840000D01*
X133450001Y-69780319D02*
X133450001Y-67749999D01*
X133166560Y-70063760D02*
X133450001Y-69780319D01*
X133166560Y-71613760D02*
X133166560Y-70063760D01*
X171990000Y-90110000D02*
X172000000Y-90100000D01*
X171990000Y-92520000D02*
X171990000Y-90110000D01*
D41*
X171990000Y-92520000D02*
X161320000Y-92520000D01*
X137809991Y-87749991D02*
X135909999Y-85849999D01*
X135909999Y-85849999D02*
X135060000Y-85000000D01*
X156549991Y-87749991D02*
X137809991Y-87749991D01*
X161320000Y-92520000D02*
X156549991Y-87749991D01*
X132715000Y-56835000D02*
X132880000Y-57000000D01*
X132715000Y-46990000D02*
X132715000Y-56835000D01*
X131252860Y-129257420D02*
X131550000Y-129554560D01*
X129199220Y-129257420D02*
X131252860Y-129257420D01*
X133534800Y-129554560D02*
X133550000Y-129539360D01*
X131550000Y-129554560D02*
X133534800Y-129554560D01*
X131242580Y-122907420D02*
X131550000Y-122600000D01*
X129199220Y-122907420D02*
X131242580Y-122907420D01*
X131550000Y-122600000D02*
X133550000Y-122600000D01*
X141100000Y-136600000D02*
X142600000Y-138100000D01*
X134175000Y-129539360D02*
X136000000Y-131364360D01*
X133550000Y-129539360D02*
X134175000Y-129539360D01*
X136000000Y-135600000D02*
X137000000Y-136600000D01*
X136000000Y-131364360D02*
X136000000Y-135600000D01*
X137000000Y-136600000D02*
X141100000Y-136600000D01*
X133550000Y-122600000D02*
X135000000Y-122600000D01*
X135000000Y-122600000D02*
X135400000Y-122600000D01*
X135400000Y-122600000D02*
X138800000Y-119200000D01*
X138800000Y-119200000D02*
X138800000Y-117600000D01*
X138800000Y-114600000D02*
X138900000Y-114500000D01*
X138800000Y-117600000D02*
X138800000Y-114600000D01*
X154972000Y-88200001D02*
X156000001Y-88200001D01*
X154572001Y-88600000D02*
X154972000Y-88200001D01*
X156000001Y-88200001D02*
X162800000Y-95000000D01*
X169390000Y-95000000D02*
X171990000Y-97600000D01*
X162800000Y-95000000D02*
X169390000Y-95000000D01*
X135400000Y-122600000D02*
X136000000Y-123200000D01*
X110672999Y-69667001D02*
X109220000Y-71120000D01*
X110672999Y-41051999D02*
X110672999Y-69667001D01*
X116804999Y-39414999D02*
X116804999Y-37749997D01*
X117930000Y-40540000D02*
X116804999Y-39414999D01*
X116804999Y-37749997D02*
X115930001Y-36874999D01*
X115930001Y-36874999D02*
X114849999Y-36874999D01*
X114849999Y-36874999D02*
X110672999Y-41051999D01*
X109220000Y-71120000D02*
X106680000Y-71120000D01*
X106680000Y-71120000D02*
X104140000Y-71120000D01*
X104140000Y-71120000D02*
X101600000Y-71120000D01*
X118175000Y-120700000D02*
X117550000Y-120700000D01*
X119511800Y-120700000D02*
X118175000Y-120700000D01*
X119899220Y-121087420D02*
X119511800Y-120700000D01*
X119899220Y-121637420D02*
X119899220Y-121087420D01*
X117550000Y-120700000D02*
X115550000Y-120700000D01*
X117532000Y-131600000D02*
X117582000Y-131550000D01*
X115550000Y-131600000D02*
X117532000Y-131600000D01*
X119899220Y-131077420D02*
X119899220Y-130527420D01*
X119426640Y-131550000D02*
X119899220Y-131077420D01*
X117582000Y-131550000D02*
X119426640Y-131550000D01*
X115550000Y-131600000D02*
X113200000Y-131600000D01*
X115450000Y-120800000D02*
X115550000Y-120700000D01*
X112800000Y-120800000D02*
X115450000Y-120800000D01*
X114000000Y-96900000D02*
X112000000Y-94900000D01*
X114000000Y-98400000D02*
X114000000Y-96900000D01*
X115550000Y-122600000D02*
X117550000Y-122600000D01*
X119591800Y-122600000D02*
X119899220Y-122907420D01*
X117550000Y-122600000D02*
X119591800Y-122600000D01*
X117532000Y-129700000D02*
X117582000Y-129650000D01*
X115550000Y-129700000D02*
X117532000Y-129700000D01*
X119506640Y-129650000D02*
X119899220Y-129257420D01*
X117582000Y-129650000D02*
X119506640Y-129650000D01*
X120899220Y-122907420D02*
X119899220Y-122907420D01*
X120974221Y-122982421D02*
X120899220Y-122907420D01*
X120974221Y-129182419D02*
X120974221Y-122982421D01*
X120899220Y-129257420D02*
X120974221Y-129182419D01*
X119899220Y-129257420D02*
X120899220Y-129257420D01*
X149120000Y-52752500D02*
X149120000Y-57000000D01*
D40*
X151900000Y-57117500D02*
X151782500Y-57000000D01*
X151900000Y-70625000D02*
X151900000Y-57117500D01*
X155425000Y-53357500D02*
X155425000Y-52700000D01*
X151782500Y-57000000D02*
X155425000Y-53357500D01*
X149120000Y-57000000D02*
X151782500Y-57000000D01*
D41*
X153102999Y-126647001D02*
X153448001Y-126301999D01*
X140252081Y-125820000D02*
X141079082Y-126647001D01*
X153448001Y-126301999D02*
X154210000Y-125540000D01*
X141079082Y-126647001D02*
X153102999Y-126647001D01*
X139050000Y-125820000D02*
X140252081Y-125820000D01*
X138677420Y-125447420D02*
X139050000Y-125820000D01*
X129199220Y-125447420D02*
X138677420Y-125447420D01*
X138900000Y-112900000D02*
X139900000Y-112900000D01*
X138900000Y-112900000D02*
X138900000Y-113500000D01*
X138900000Y-112147600D02*
X138900000Y-112900000D01*
X139899999Y-124970001D02*
X139050000Y-125820000D01*
X140225001Y-124644999D02*
X139899999Y-124970001D01*
X140225001Y-113225001D02*
X140225001Y-124644999D01*
X139900000Y-112900000D02*
X140225001Y-113225001D01*
X154230000Y-133180000D02*
X154210000Y-133160000D01*
X165720000Y-133180000D02*
X154230000Y-133180000D01*
X138152580Y-124177420D02*
X139050000Y-123280000D01*
X129199220Y-124177420D02*
X138152580Y-124177420D01*
X153448001Y-128841999D02*
X154210000Y-128080000D01*
X153102999Y-129187001D02*
X153448001Y-128841999D01*
X149958239Y-129187001D02*
X153102999Y-129187001D01*
X149131238Y-128360000D02*
X149958239Y-129187001D01*
X139050000Y-128360000D02*
X149131238Y-128360000D01*
X137407420Y-126717420D02*
X139050000Y-128360000D01*
X129199220Y-126717420D02*
X137407420Y-126717420D01*
X142600000Y-140400000D02*
X142550000Y-140450000D01*
X142600000Y-139800000D02*
X142600000Y-140400000D01*
X142600000Y-139800000D02*
X143800000Y-139800000D01*
X142600000Y-139100000D02*
X142600000Y-139800000D01*
X143800000Y-139800000D02*
X144000000Y-139600000D01*
X144000000Y-139600000D02*
X144000000Y-134800000D01*
X153448001Y-131381999D02*
X154210000Y-130620000D01*
X153102999Y-131727001D02*
X153448001Y-131381999D01*
X140150000Y-130900000D02*
X140977001Y-131727001D01*
X140977001Y-131727001D02*
X153102999Y-131727001D01*
X139050000Y-130900000D02*
X140150000Y-130900000D01*
X154971999Y-129858001D02*
X164938001Y-129858001D01*
X164958001Y-129878001D02*
X165720000Y-130640000D01*
X164938001Y-129858001D02*
X164958001Y-129878001D01*
X154210000Y-130620000D02*
X154971999Y-129858001D01*
X136137420Y-127987420D02*
X139050000Y-130900000D01*
X129199220Y-127987420D02*
X136137420Y-127987420D01*
D40*
X193032234Y-107360000D02*
X194800000Y-107360000D01*
X192660000Y-107360000D02*
X193032234Y-107360000D01*
X189100000Y-103800000D02*
X192660000Y-107360000D01*
X189100000Y-102650000D02*
X189100000Y-103800000D01*
D41*
X185350000Y-102650000D02*
X189100000Y-102650000D01*
D40*
X193032234Y-117520000D02*
X194800000Y-117520000D01*
X192570000Y-117520000D02*
X193032234Y-117520000D01*
X189100000Y-114050000D02*
X192570000Y-117520000D01*
X189100000Y-112900000D02*
X189100000Y-114050000D01*
D41*
X188983900Y-112783900D02*
X189100000Y-112900000D01*
X185350000Y-112783900D02*
X188983900Y-112783900D01*
D40*
X189100000Y-108800000D02*
X192740000Y-112440000D01*
X193032234Y-112440000D02*
X194800000Y-112440000D01*
X192740000Y-112440000D02*
X193032234Y-112440000D01*
X189100000Y-107650000D02*
X189100000Y-108800000D01*
D41*
X186050000Y-107650000D02*
X189100000Y-107650000D01*
X185350000Y-107650000D02*
X186050000Y-107650000D01*
X96426160Y-94517260D02*
X102184180Y-88759240D01*
X96426160Y-122693720D02*
X96426160Y-94517260D01*
X111200000Y-92000000D02*
X111765685Y-92000000D01*
X112000000Y-91765685D02*
X112000000Y-90700000D01*
X111765685Y-92000000D02*
X112000000Y-91765685D01*
X105764181Y-87510241D02*
X105764181Y-86449239D01*
X100956159Y-92318263D02*
X105764181Y-87510241D01*
X105764181Y-86449239D02*
X107264180Y-84949240D01*
X100956159Y-114942399D02*
X100956159Y-92318263D01*
X102146160Y-116132400D02*
X100956159Y-114942399D01*
X102146160Y-118253720D02*
X102146160Y-116132400D01*
X112000000Y-89700000D02*
X112000000Y-87000000D01*
X109949240Y-84949240D02*
X107264180Y-84949240D01*
X112000000Y-87000000D02*
X109949240Y-84949240D01*
X112000000Y-93900000D02*
X112000000Y-93400000D01*
X112000000Y-93400000D02*
X113800000Y-91600000D01*
X113800000Y-88800000D02*
X112000000Y-87000000D01*
X113800000Y-91600000D02*
X113800000Y-88800000D01*
X112000000Y-103800000D02*
X112000000Y-101900000D01*
X116600000Y-125447420D02*
X119899220Y-125447420D01*
X115600000Y-124200000D02*
X116600000Y-125447420D01*
X104314880Y-109100000D02*
X102781160Y-110633720D01*
X112800000Y-109100000D02*
X104314880Y-109100000D01*
X107264180Y-106150700D02*
X102781160Y-110633720D01*
X107264180Y-106150700D02*
X107264180Y-103735820D01*
X112000000Y-100900000D02*
X112000000Y-100400000D01*
X112000000Y-100400000D02*
X111600000Y-100000000D01*
X109600000Y-100000000D02*
X107400000Y-102200000D01*
X111600000Y-100000000D02*
X109600000Y-100000000D01*
X107264180Y-92569240D02*
X107400000Y-102200000D01*
X107400000Y-102200000D02*
X107264180Y-106150700D01*
X110800000Y-123200000D02*
X114682580Y-126717420D01*
X114682580Y-126717420D02*
X119899220Y-126717420D01*
X119899220Y-127987420D02*
X113787420Y-127987420D01*
X106596160Y-120796160D02*
X106596160Y-114443720D01*
X113787420Y-127987420D02*
X106596160Y-120796160D01*
X109739880Y-111300000D02*
X112800000Y-111300000D01*
X106596160Y-114443720D02*
X109739880Y-111300000D01*
X112000000Y-97200000D02*
X112000000Y-96800000D01*
X112000000Y-96800000D02*
X111400000Y-96200000D01*
X111400000Y-96200000D02*
X109400000Y-96200000D01*
X104400000Y-100000000D02*
X104400000Y-91623420D01*
X104400000Y-91623420D02*
X107264180Y-88759240D01*
X115200000Y-102200000D02*
X112000000Y-98200000D01*
X116600000Y-102200000D02*
X115200000Y-102200000D01*
X119876640Y-124200000D02*
X119899220Y-124177420D01*
X117600000Y-124200000D02*
X119876640Y-124200000D01*
X171228001Y-127318001D02*
X171990000Y-128080000D01*
X171228001Y-126386763D02*
X171228001Y-127318001D01*
X166481999Y-121241999D02*
X166481999Y-121640761D01*
X166481999Y-121640761D02*
X171228001Y-126386763D01*
X165720000Y-120480000D02*
X166481999Y-121241999D01*
X165720000Y-120480000D02*
X167245000Y-120480000D01*
X167245000Y-120480000D02*
X168325000Y-119400000D01*
X179000000Y-90000000D02*
X178800000Y-90200000D01*
X185620000Y-90200000D02*
X186055000Y-90635000D01*
X178800000Y-90200000D02*
X185620000Y-90200000D01*
X173067630Y-125540000D02*
X174800000Y-123807630D01*
X171990000Y-125540000D02*
X173067630Y-125540000D01*
X174800000Y-123807630D02*
X174800000Y-120800000D01*
X176466100Y-119133900D02*
X177789880Y-119133900D01*
X174800000Y-120800000D02*
X176466100Y-119133900D01*
X173007001Y-119007001D02*
X174800000Y-120800000D01*
X169327001Y-119007001D02*
X173007001Y-119007001D01*
X165720000Y-115400000D02*
X169327001Y-119007001D01*
X176026100Y-113883900D02*
X177789880Y-113883900D01*
X171990000Y-117920000D02*
X176026100Y-113883900D01*
X170780000Y-117920000D02*
X171990000Y-117920000D01*
X165720000Y-112860000D02*
X170780000Y-117920000D01*
X170780000Y-107760000D02*
X171990000Y-107760000D01*
X165720000Y-102700000D02*
X170780000Y-107760000D01*
X177789880Y-104573900D02*
X177789880Y-103723900D01*
X174603780Y-107760000D02*
X177789880Y-104573900D01*
X171990000Y-107760000D02*
X174603780Y-107760000D01*
X171990000Y-110300000D02*
X174100000Y-110300000D01*
X175596100Y-108803900D02*
X177789880Y-108803900D01*
X174100000Y-110300000D02*
X175596100Y-108803900D01*
X166930000Y-105240000D02*
X171990000Y-110300000D01*
X165720000Y-105240000D02*
X166930000Y-105240000D01*
X170780000Y-105220000D02*
X171990000Y-105220000D01*
X165720000Y-100160000D02*
X170780000Y-105220000D01*
X120427780Y-38042220D02*
X120470000Y-38000000D01*
X120427780Y-59502980D02*
X120427780Y-38042220D01*
X120427780Y-59502980D02*
X121127780Y-59502980D01*
X123703181Y-60777979D02*
X123800000Y-60874798D01*
X123800000Y-60874798D02*
X123800000Y-66636410D01*
X122402779Y-60777979D02*
X123703181Y-60777979D01*
X123800000Y-66636410D02*
X129949990Y-72786400D01*
X121127780Y-59502980D02*
X122402779Y-60777979D01*
X129949990Y-72786400D02*
X129949990Y-82265402D01*
X129949990Y-82265402D02*
X137584570Y-89899982D01*
X163000000Y-100160000D02*
X165720000Y-100160000D01*
X160000000Y-97200000D02*
X163000000Y-100160000D01*
X160000000Y-95000000D02*
X160000000Y-97200000D01*
X137584570Y-89899982D02*
X154471564Y-89899982D01*
X154471564Y-89899982D02*
X160000000Y-95000000D01*
X166930000Y-107780000D02*
X171990000Y-112840000D01*
X165720000Y-107780000D02*
X166930000Y-107780000D01*
X119055001Y-39125001D02*
X118729999Y-38799999D01*
X119055001Y-41080001D02*
X119055001Y-39125001D01*
X117913180Y-42221822D02*
X119055001Y-41080001D01*
X118729999Y-38799999D02*
X117930000Y-38000000D01*
X117913180Y-59502980D02*
X117913180Y-42221822D01*
X115938181Y-60777979D02*
X117213180Y-59502980D01*
X114586979Y-60777979D02*
X115938181Y-60777979D01*
X137398170Y-90349992D02*
X129448178Y-82400000D01*
X115358998Y-63400000D02*
X114521979Y-62562981D01*
X154285163Y-90349991D02*
X137398170Y-90349992D01*
X119927180Y-63400000D02*
X115358998Y-63400000D01*
X114521979Y-60842979D02*
X114586979Y-60777979D01*
X114521979Y-62562981D02*
X114521979Y-60842979D01*
X159400000Y-95400000D02*
X154285163Y-90349991D01*
X129448178Y-82400000D02*
X129448178Y-72920998D01*
X117213180Y-59502980D02*
X117913180Y-59502980D01*
X129448178Y-72920998D02*
X119927180Y-63400000D01*
X159400000Y-101460000D02*
X165720000Y-107780000D01*
X159400000Y-95400000D02*
X159400000Y-101460000D01*
X123010000Y-59486160D02*
X122993180Y-59502980D01*
X166930000Y-97620000D02*
X171990000Y-102680000D01*
X165720000Y-97620000D02*
X166930000Y-97620000D01*
X122993180Y-38016820D02*
X123010000Y-38000000D01*
X122993180Y-59502980D02*
X122993180Y-38016820D01*
X123693180Y-59502980D02*
X124790200Y-60600000D01*
X122993180Y-59502980D02*
X123693180Y-59502980D01*
X124790200Y-60600000D02*
X124790200Y-66990200D01*
X124790200Y-66990200D02*
X130400000Y-72600000D01*
X137770971Y-89449973D02*
X154657965Y-89449973D01*
X154657965Y-89449973D02*
X154703996Y-89496004D01*
X130400000Y-72600000D02*
X130400000Y-82079002D01*
X130400000Y-82079002D02*
X137770971Y-89449973D01*
X161400000Y-97600000D02*
X165720000Y-97620000D01*
X160600000Y-96800000D02*
X161400000Y-97600000D01*
X154657965Y-89449973D02*
X160600000Y-94800000D01*
X160600000Y-94800000D02*
X160600000Y-96800000D01*
X170780000Y-115380000D02*
X171990000Y-115380000D01*
X165720000Y-110320000D02*
X170780000Y-115380000D01*
X115296980Y-38093020D02*
X115390000Y-38000000D01*
X115296980Y-59502980D02*
X115296980Y-38093020D01*
X158949990Y-103549990D02*
X165720000Y-110320000D01*
X158949990Y-95949990D02*
X158949990Y-103549990D01*
X158400000Y-95400000D02*
X158949990Y-95949990D01*
X115322588Y-64000000D02*
X119600000Y-64000000D01*
X114000000Y-62677412D02*
X115322588Y-64000000D01*
X115296980Y-59502980D02*
X114596980Y-59502980D01*
X128998168Y-82586400D02*
X137211769Y-90800001D01*
X114000000Y-60099960D02*
X114000000Y-62677412D01*
X137211769Y-90800001D02*
X154098762Y-90800000D01*
X114596980Y-59502980D02*
X114000000Y-60099960D01*
X119600000Y-64000000D02*
X128998168Y-73398168D01*
X128998168Y-73398168D02*
X128998168Y-82586400D01*
X154098762Y-90800000D02*
X158400000Y-95200000D01*
X158400000Y-95200000D02*
X158400000Y-95400000D01*
X151650000Y-110320000D02*
X154210000Y-107760000D01*
X150480000Y-110320000D02*
X151650000Y-110320000D01*
X151650000Y-107780000D02*
X154210000Y-105220000D01*
X150480000Y-107780000D02*
X151650000Y-107780000D01*
X183253900Y-106603900D02*
X183350000Y-106700000D01*
X180329880Y-106603900D02*
X183253900Y-106603900D01*
X178489880Y-106603900D02*
X180329880Y-106603900D01*
X177789880Y-106603900D02*
X178489880Y-106603900D01*
X184050000Y-106700000D02*
X187100000Y-106700000D01*
X183350000Y-106700000D02*
X184050000Y-106700000D01*
X178489880Y-111683900D02*
X180329880Y-111683900D01*
X177789880Y-111683900D02*
X178489880Y-111683900D01*
X183200000Y-111683900D02*
X183350000Y-111833900D01*
X180329880Y-111683900D02*
X183200000Y-111683900D01*
X186983900Y-111833900D02*
X187100000Y-111950000D01*
X183350000Y-111833900D02*
X186983900Y-111833900D01*
X180313780Y-116933900D02*
X180329880Y-116950000D01*
X177789880Y-116933900D02*
X180313780Y-116933900D01*
X181029880Y-116950000D02*
X183350000Y-116950000D01*
X180329880Y-116950000D02*
X181029880Y-116950000D01*
X184050000Y-116950000D02*
X187350000Y-116950000D01*
X183350000Y-116950000D02*
X184050000Y-116950000D01*
X183173900Y-101523900D02*
X183350000Y-101700000D01*
X180329880Y-101523900D02*
X183173900Y-101523900D01*
X184050000Y-101700000D02*
X187100000Y-101700000D01*
X183350000Y-101700000D02*
X184050000Y-101700000D01*
X178489880Y-101523900D02*
X180329880Y-101523900D01*
X177789880Y-101523900D02*
X178489880Y-101523900D01*
D40*
X172400000Y-85200000D02*
X172765000Y-85200000D01*
X172765000Y-85200000D02*
X174190000Y-83775000D01*
D42*
X168280000Y-85200000D02*
X166480000Y-83400000D01*
X172400000Y-85200000D02*
X168280000Y-85200000D01*
X187110000Y-81890000D02*
X183800000Y-85200000D01*
X188200000Y-81890000D02*
X187110000Y-81890000D01*
X182375000Y-83775000D02*
X183800000Y-85200000D01*
X181810000Y-83775000D02*
X182375000Y-83775000D01*
X181810000Y-83775000D02*
X180540000Y-83775000D01*
X174190000Y-83775000D02*
X175460000Y-83775000D01*
X193950000Y-81890000D02*
X194800000Y-81040000D01*
X188200000Y-81890000D02*
X193950000Y-81890000D01*
X196567766Y-81040000D02*
X197600000Y-82072234D01*
X194800000Y-81040000D02*
X196567766Y-81040000D01*
X197600000Y-99480000D02*
X194800000Y-102280000D01*
X197600000Y-82072234D02*
X197600000Y-99480000D01*
D41*
X135100000Y-76800000D02*
X137000000Y-76800000D01*
D40*
X193032234Y-122600000D02*
X194800000Y-122600000D01*
X189350000Y-119050000D02*
X192900000Y-122600000D01*
X192900000Y-122600000D02*
X193032234Y-122600000D01*
X189350000Y-117900000D02*
X189350000Y-119050000D01*
D41*
X187835002Y-117900000D02*
X189350000Y-117900000D01*
X185350000Y-117900000D02*
X187835002Y-117900000D01*
X153040000Y-102680000D02*
X154210000Y-102680000D01*
X150480000Y-105240000D02*
X153040000Y-102680000D01*
X150480000Y-105955000D02*
X150480000Y-105240000D01*
X145480000Y-110955000D02*
X150480000Y-105955000D01*
X144780000Y-110955000D02*
X145480000Y-110955000D01*
X144780000Y-111805000D02*
X144190000Y-112395000D01*
X144780000Y-110955000D02*
X144780000Y-111805000D01*
X144190000Y-112395000D02*
X142875000Y-112395000D01*
X151690000Y-97620000D02*
X154210000Y-100140000D01*
X150480000Y-97620000D02*
X151690000Y-97620000D01*
X144145000Y-95080000D02*
X144145000Y-98425000D01*
X149675000Y-98425000D02*
X150480000Y-97620000D01*
X144145000Y-98425000D02*
X149675000Y-98425000D01*
X194625000Y-86295000D02*
X194800000Y-86120000D01*
X191450000Y-89470000D02*
X187960000Y-89470000D01*
X194800000Y-86120000D02*
X191450000Y-89470000D01*
X186755000Y-88435000D02*
X186055000Y-88435000D01*
X187475000Y-88435000D02*
X186755000Y-88435000D01*
X187960000Y-88920000D02*
X187475000Y-88435000D01*
X187960000Y-89470000D02*
X187960000Y-88920000D01*
X179270000Y-87895685D02*
X179270000Y-86325000D01*
X177765685Y-89400000D02*
X179270000Y-87895685D01*
X177200000Y-89400000D02*
X177765685Y-89400000D01*
X179270000Y-86325000D02*
X179270000Y-83775000D01*
X153195763Y-101592999D02*
X150635763Y-104152999D01*
X154372686Y-101592999D02*
X153195763Y-101592999D01*
X158200000Y-97200000D02*
X158200000Y-97765685D01*
X158200000Y-97765685D02*
X154372686Y-101592999D01*
X145480000Y-106510000D02*
X147850000Y-104140000D01*
X144780000Y-106510000D02*
X145480000Y-106510000D01*
X150622764Y-104140000D02*
X150635763Y-104152999D01*
X147850000Y-104140000D02*
X150622764Y-104140000D01*
X144780000Y-108755000D02*
X144780000Y-106510000D01*
X176055000Y-87000000D02*
X176730000Y-86325000D01*
X176730000Y-86325000D02*
X176730000Y-83775000D01*
X172400000Y-87000000D02*
X176055000Y-87000000D01*
X157000001Y-96199999D02*
X151444999Y-96199999D01*
X157400000Y-95800000D02*
X157000001Y-96199999D01*
X148125000Y-92880000D02*
X144145000Y-92880000D01*
X151444999Y-96199999D02*
X148125000Y-92880000D01*
M02*
