G04 #@! TF.GenerationSoftware,KiCad,Pcbnew,(5.1.5)-2*
G04 #@! TF.CreationDate,2020-04-09T00:05:50+02:00*
G04 #@! TF.ProjectId,LightBoxNano,4c696768-7442-46f7-984e-616e6f2e6b69,rev?*
G04 #@! TF.SameCoordinates,Original*
G04 #@! TF.FileFunction,Paste,Top*
G04 #@! TF.FilePolarity,Positive*
%FSLAX46Y46*%
G04 Gerber Fmt 4.6, Leading zero omitted, Abs format (unit mm)*
G04 Created by KiCad (PCBNEW (5.1.5)-2) date 2020-04-09 00:05:50*
%MOMM*%
%LPD*%
G04 APERTURE LIST*
%ADD10R,1.100000X4.600000*%
%ADD11R,5.250000X4.550000*%
%ADD12R,1.500000X0.600000*%
%ADD13R,0.900000X1.200000*%
%ADD14R,1.200000X0.900000*%
%ADD15R,0.900000X0.800000*%
%ADD16R,3.825000X12.320000*%
%ADD17R,3.500000X2.000000*%
%ADD18R,7.000000X7.000000*%
%ADD19R,4.000000X2.500000*%
%ADD20R,2.000000X1.600000*%
%ADD21R,2.500000X4.000000*%
%ADD22R,0.750000X1.200000*%
%ADD23R,2.030000X2.650000*%
%ADD24R,0.800000X4.600000*%
G04 APERTURE END LIST*
D10*
X153600000Y-70625000D03*
X151900000Y-70625000D03*
X150200000Y-70625000D03*
X148500000Y-70625000D03*
X146800000Y-70625000D03*
D11*
X147425000Y-82200000D03*
X152975000Y-77350000D03*
X152975000Y-82200000D03*
X147425000Y-77350000D03*
D12*
X129199220Y-130527420D03*
X129199220Y-129257420D03*
X129199220Y-127987420D03*
X129199220Y-126717420D03*
X129199220Y-125447420D03*
X129199220Y-124177420D03*
X129199220Y-122907420D03*
X129199220Y-121637420D03*
X119899220Y-121637420D03*
X119899220Y-122907420D03*
X119899220Y-124177420D03*
X119899220Y-125447420D03*
X119899220Y-126717420D03*
X119899220Y-127987420D03*
X119899220Y-129257420D03*
X119899220Y-130527420D03*
D13*
X180329880Y-101523900D03*
X180329880Y-103723900D03*
X177789880Y-103723900D03*
X177789880Y-101523900D03*
X180329880Y-116950000D03*
X180329880Y-119150000D03*
X177789880Y-119133900D03*
X177789880Y-116933900D03*
X180329880Y-111683900D03*
X180329880Y-113883900D03*
X177789880Y-113883900D03*
X177789880Y-111683900D03*
X180329880Y-106603900D03*
X180329880Y-108803900D03*
X177789880Y-108803900D03*
X177789880Y-106603900D03*
D14*
X188500000Y-90200000D03*
X186300000Y-90200000D03*
D13*
X112800000Y-109100000D03*
X112800000Y-111300000D03*
X122993180Y-61702980D03*
X122993180Y-59502980D03*
X120427780Y-61702980D03*
X120427780Y-59502980D03*
X117913180Y-61702980D03*
X117913180Y-59502980D03*
X115296980Y-61702980D03*
X115296980Y-59502980D03*
D15*
X183350000Y-101700000D03*
X183350000Y-103600000D03*
X185350000Y-102650000D03*
X187100000Y-101700000D03*
X187100000Y-103600000D03*
X189100000Y-102650000D03*
X183350000Y-116950000D03*
X183350000Y-118850000D03*
X185350000Y-117900000D03*
X187350000Y-116950000D03*
X187350000Y-118850000D03*
X189350000Y-117900000D03*
X183350000Y-111833900D03*
X183350000Y-113733900D03*
X185350000Y-112783900D03*
X187100000Y-111950000D03*
X187100000Y-113850000D03*
X189100000Y-112900000D03*
X183350000Y-106700000D03*
X183350000Y-108600000D03*
X185350000Y-107650000D03*
X187100000Y-106700000D03*
X187100000Y-108600000D03*
X189100000Y-107650000D03*
D16*
X132880000Y-57000000D03*
X149120000Y-57000000D03*
D17*
X155425000Y-52700000D03*
X155425000Y-57280000D03*
D18*
X162825000Y-55000000D03*
D19*
X185600000Y-61800000D03*
X177600000Y-61800000D03*
D20*
X133166560Y-71613760D03*
X137166560Y-71613760D03*
D21*
X160800000Y-69250000D03*
X160800000Y-63150000D03*
D22*
X133550000Y-131439360D03*
X133550000Y-129539360D03*
X131550000Y-131454560D03*
X131550000Y-129554560D03*
X133550000Y-122600000D03*
X133550000Y-120700000D03*
X131550000Y-122600000D03*
X131550000Y-120700000D03*
X117582000Y-131550000D03*
X117582000Y-129650000D03*
X115550000Y-131600000D03*
X115550000Y-129700000D03*
X117550000Y-122600000D03*
X117550000Y-120700000D03*
X115550000Y-122600000D03*
X115550000Y-120700000D03*
D23*
X188200000Y-81890000D03*
X188200000Y-77710000D03*
D14*
X135100000Y-76800000D03*
X132900000Y-76800000D03*
D24*
X174190000Y-83775000D03*
X175460000Y-83775000D03*
X176730000Y-83775000D03*
X178000000Y-83775000D03*
X179270000Y-83775000D03*
X180540000Y-83775000D03*
X181810000Y-83775000D03*
D11*
X180775000Y-72200000D03*
X175225000Y-77050000D03*
X175225000Y-72200000D03*
X180775000Y-77050000D03*
D13*
X144800000Y-107300000D03*
X144800000Y-109500000D03*
D14*
X137000000Y-76800000D03*
X139200000Y-76800000D03*
M02*
